<svg width="100" height="22" xmlns:svg="http://www.w3.org/2000/svg" xmlns="http://www.w3.org/2000/svg" version="1.1">
<g transform="translate(0,-1030.3622)">
  <g transform="matrix(0.44733955,0,0,0.44733955,-26.504416,981.43237)" style="fill:#5e5e5e;fill-opacity:1;stroke:none;">
    <path d="m 110.55258,142.27325 c 0.32549,1e-5 0.48825,0.23438 0.48828,0.70313 -3e-5,0.45573 -0.0847,0.83334 -0.2539,1.13281 -0.16931,0.29948 -0.36462,0.57292 -0.58594,0.82031 -0.22139,0.2474 -0.50134,0.48178 -0.83984,0.70313 -0.79431,0.52083 -1.63415,0.78125 -2.51954,0.78125 -0.87242,0 -1.56904,-0.10417 -2.08984,-0.3125 -0.50784,-0.22135 -0.95055,-0.54687 -1.32812,-0.97656 -0.80732,-0.89844 -1.21097,-2.14193 -1.21094,-3.73047 -3e-5,-1.6927 0.32549,-3.7565 0.97656,-6.19141 0.65101,-2.4479 1.27601,-4.53774 1.875,-6.26953 0.61195,-1.74477 1.23695,-3.40493 1.875,-4.98047 l 1.75781,-4.47265 c -1.92711,1.73179 -4.36852,5.37111 -7.32422,10.91796 l -4.726558,8.94532 c -2.526061,4.71354 -4.329444,7.07031 -5.410156,7.07031 -1.054703,0 -1.777358,-0.45573 -2.167969,-1.36719 -0.351576,-0.87239 -0.527357,-2.35026 -0.527344,-4.43359 -1.3e-5,-2.09635 0.162747,-4.10155 0.488281,-6.01563 0.338528,-1.92707 0.761705,-3.80858 1.269532,-5.64453 0.8854,-3.24217 2.031233,-6.45831 3.4375,-9.64844 -1.367205,0.76826 -2.88413,2.4805 -4.550782,5.13672 -1.276054,2.12242 -2.17449,3.6719 -2.695312,4.64844 l -5.039063,9.27734 c -2.096358,3.81511 -3.782554,6.17188 -5.058593,7.07032 -0.92448,0.65104 -1.920572,0.97656 -2.988282,0.97656 -0.911455,0 -1.569007,-0.28646 -1.972656,-0.85938 -0.156246,-0.23437 -0.234371,-0.44921 -0.234375,-0.64453 4e-6,-0.19531 0.0586,-0.3125 0.175781,-0.35156 0.807295,-0.22135 1.380211,-0.44922 1.71875,-0.68359 0.325523,-0.2474 0.651044,-0.49479 0.976563,-0.74219 0.325522,-0.26041 0.800782,-0.80078 1.425781,-1.62109 0.624999,-0.83333 1.302082,-1.82942 2.03125,-2.98829 0.729164,-1.17186 1.490882,-2.48045 2.285156,-3.92578 l 2.480469,-4.57031 c 2.291658,-4.42706 4.687488,-7.97524 7.1875,-10.64453 0.885402,-0.95049 1.757797,-1.68617 2.617188,-2.20703 0.859357,-0.61195 1.85545,-1.02211 2.988281,-1.23047 0.31248,-0.0651 0.598938,-0.0976 0.859375,-0.0977 0.273417,3e-5 0.572895,0.0391 0.898437,0.11719 0.33852,0.0782 0.631489,0.20185 0.878907,0.37109 0.572893,0.39066 0.742164,0.91149 0.507812,1.5625 -0.104189,0.39066 -0.306012,0.97659 -0.605469,1.75782 l -1.054687,2.79297 c -2.460956,6.79689 -3.808611,12.98178 -4.042969,18.55468 0.690086,-1.18489 1.3867,-2.48046 2.089844,-3.88672 l 2.207031,-4.35546 2.324219,-4.4336 c 3.580698,-6.6406 6.907518,-10.44268 9.980468,-11.40625 0.63799,-0.2083 1.17184,-0.31247 1.60156,-0.3125 0.42965,3e-5 0.7682,0.0586 1.01563,0.17578 0.24736,0.1042 0.46871,0.24092 0.66406,0.41016 0.45569,0.41669 0.61194,0.84638 0.46875,1.28906 -0.14327,0.42972 -0.33207,0.9831 -0.56641,1.66016 l -2.83203,8.26172 -1.01562,3.24218 c -1.11983,3.75002 -1.78389,6.62762 -1.99219,8.63282 -0.0782,0.84636 0.013,1.51042 0.27344,1.99218 0.2734,0.46876 0.6445,0.70313 1.11328,0.70313 0.46872,0 0.8333,-0.0326 1.09375,-0.0977 0.2734,-0.0781 0.50778,-0.16275 0.70312,-0.2539 l 0.50782,-0.23438 c 0.14319,-0.0781 0.2734,-0.11718 0.39062,-0.11719"/>
    <path d="m 129.18539,141.02325 c -1e-5,1.19793 0.42316,1.79688 1.26954,1.79688 0.58591,0 1.06769,-0.0911 1.44531,-0.27344 0.3906,-0.18229 0.65102,-0.27343 0.78125,-0.27344 0.27342,1e-5 0.41013,0.14324 0.41015,0.42969 -2e-5,1.1198 -0.58595,2.08334 -1.75781,2.89063 -1.23699,0.84635 -2.50001,1.05468 -3.78906,0.625 -0.84637,-0.29948 -1.47137,-0.94401 -1.875,-1.9336 -0.19533,-0.50781 -0.29298,-0.97005 -0.29297,-1.38672 -1e-5,-0.67707 0.0651,-1.39322 0.19531,-2.14843 -1.21095,2.47396 -2.71485,4.17969 -4.51172,5.11718 -0.71615,0.36459 -1.47787,0.54688 -2.28515,0.54688 -0.8073,0 -1.51042,-0.16276 -2.10938,-0.48828 -0.58594,-0.33854 -1.08724,-0.80078 -1.5039,-1.38672 -0.84636,-1.22396 -1.23047,-2.76041 -1.15235,-4.60938 0.0781,-2.3177 0.76172,-4.58983 2.05078,-6.8164 1.1849,-2.08332 2.68229,-3.78254 4.49219,-5.09766 1.80989,-1.34112 3.50259,-2.0117 5.07813,-2.01172 1.5755,2e-5 2.84503,0.72268 3.80859,2.16797 0.89842,-1.44529 1.69269,-2.16795 2.38281,-2.16797 0.74217,2e-5 1.30207,0.13674 1.67969,0.41016 0.71612,0.52085 0.97003,0.97658 0.76172,1.36719 -3.26825,6.69272 -4.94793,10.85938 -5.03906,12.5 -0.0261,0.23438 -0.0391,0.48177 -0.0391,0.74218 m -10.83984,0.0781 c -10e-6,1.5625 0.5013,2.34375 1.50391,2.34375 0.76822,0 1.71223,-0.65104 2.83203,-1.95313 1.64061,-1.91405 3.09243,-4.49217 4.35547,-7.73437 0.40363,-1.01561 0.74217,-2.03124 1.01562,-3.04688 -0.0521,-0.8854 -0.42319,-1.53644 -1.11328,-1.95312 -0.23439,-0.14321 -0.58595,-0.21483 -1.05469,-0.21484 -0.45574,1e-5 -0.9961,0.16928 -1.62109,0.50781 -0.61199,0.33856 -1.21095,0.8008 -1.79688,1.38672 -0.57292,0.58595 -1.11329,1.28256 -1.62109,2.08984 -0.4948,0.79428 -0.931,1.66017 -1.30859,2.59766 -0.79428,2.00521 -1.19142,3.9974 -1.19141,5.97656"/>
    <path d="m 146.29477,121.43341 c -0.28647,0.2995 -0.61199,0.5469 -0.97656,0.74219 -0.3646,0.18231 -0.74871,0.2995 -1.15235,0.35156 -0.40365,0.0391 -0.78777,-0.026 -1.15234,-0.19531 -0.35157,-0.16925 -0.65756,-0.41013 -0.91797,-0.72266 -0.5599,-0.65101 -0.83985,-1.30857 -0.83984,-1.97265 -1e-5,-0.66404 0.10416,-1.15883 0.3125,-1.48438 0.22134,-0.33851 0.49478,-0.61195 0.82031,-0.82031 0.62499,-0.40362 1.21093,-0.60544 1.75781,-0.60547 0.55989,3e-5 0.98957,0.0391 1.28906,0.11719 0.31249,0.0781 0.59895,0.20836 0.85938,0.39062 0.63801,0.42972 0.95702,0.95706 0.95703,1.58203 -1e-5,0.61201 -0.0912,1.12633 -0.27344,1.54297 -0.16928,0.40367 -0.39714,0.76175 -0.68359,1.07422 m -4.00391,21.13281 c 0.33854,1e-5 0.50781,0.22136 0.50782,0.66407 -1e-5,0.58594 -0.26694,1.1914 -0.80079,1.8164 -0.78125,0.91146 -1.82943,1.36719 -3.14453,1.36719 -1.51042,0 -2.54557,-0.61198 -3.10547,-1.83594 -0.20833,-0.42968 -0.3125,-0.95052 -0.3125,-1.5625 0,-0.61197 0.10417,-1.28906 0.3125,-2.03125 0.22136,-0.7552 0.48828,-1.54296 0.80079,-2.36328 0.32551,-0.83332 0.67708,-1.67317 1.05468,-2.51953 l 1.03516,-2.46094 c 0.7552,-1.83592 1.13281,-3.04686 1.13281,-3.63281 0,-0.58592 -0.0651,-0.97004 -0.19531,-1.15234 -0.11719,-0.1953 -0.2474,-0.34504 -0.39063,-0.44922 l -0.39062,-0.27344 c -0.13021,-0.0911 -0.19532,-0.24738 -0.19531,-0.46875 -1e-5,-0.23436 0.0846,-0.45571 0.2539,-0.66406 0.18229,-0.20832 0.41666,-0.39061 0.70313,-0.54688 0.58593,-0.29946 1.26952,-0.4492 2.05078,-0.44922 1.91405,2e-5 2.87108,0.50132 2.87109,1.50391 -1e-5,1.17189 -0.306,2.51304 -0.91797,4.02344 -0.61198,1.49741 -1.13282,2.70834 -1.5625,3.63281 l -1.17187,2.69531 c -0.85938,1.97917 -1.28907,3.40495 -1.28906,4.27735 -1e-5,0.57292 0.28645,0.85937 0.85937,0.85937 0.55989,0 0.98307,-0.0716 1.26953,-0.21484 0.28645,-0.14323 0.49479,-0.21484 0.625,-0.21485"/>
    <path d="m 148.1893,145.43732 c -0.32552,-0.33854 -0.59245,-0.76823 -0.80078,-1.28907 -0.19531,-0.53385 -0.29297,-1.14583 -0.29297,-1.83593 0,-0.70312 0.15625,-1.64062 0.46875,-2.8125 0.32552,-1.17187 0.73568,-2.5065 1.23047,-4.00391 l 1.64062,-4.86328 c 2.33073,-6.77081 3.67838,-12.00518 4.04297,-15.70313 0.11718,-1.09371 0.65104,-1.64059 1.60157,-1.64062 0.59894,3e-5 1.09373,0.14326 1.48437,0.42969 0.7552,0.57295 1.11978,1.21097 1.09375,1.91406 -0.026,0.70315 -0.14975,1.56253 -0.37109,2.57812 -0.22137,1.00264 -0.50783,2.10289 -0.85938,3.30079 -0.35157,1.18492 -0.75522,2.44142 -1.21094,3.76953 l -2.69531,7.92968 c -1.54948,4.50522 -2.32422,7.41537 -2.32422,8.73047 0,0.70313 0.28646,1.05469 0.85938,1.05469 0.54687,0 1.04166,-0.11718 1.48437,-0.35156 0.45572,-0.23437 0.74869,-0.35156 0.87891,-0.35156 0.27343,0 0.41015,0.13672 0.41016,0.41015 -1e-5,1.15886 -0.59246,2.12891 -1.77735,2.91016 -0.79428,0.53385 -1.52344,0.80078 -2.1875,0.80078 -0.65104,0 -1.17839,-0.0781 -1.58203,-0.23438 -0.40365,-0.15625 -0.76823,-0.40364 -1.09375,-0.74218"/>
    <path d="m 158.48227,144.32404 c -0.19531,-0.42969 -0.29297,-0.9375 -0.29297,-1.52344 0,-0.58594 0.0911,-1.23047 0.27344,-1.9336 0.18229,-0.71614 0.41666,-1.4453 0.70312,-2.1875 0.28646,-0.74217 0.60547,-1.49738 0.95703,-2.26562 l 0.9961,-2.26563 c 1.28906,-2.98175 1.76432,-4.73956 1.42578,-5.27343 -0.15626,-0.24738 -0.45573,-0.49478 -0.89844,-0.74219 -0.14323,-0.0911 -0.21485,-0.24738 -0.21484,-0.46875 -1e-5,-0.23436 0.0911,-0.45571 0.27344,-0.66406 0.1953,-0.20832 0.44921,-0.39061 0.76171,-0.54688 0.625,-0.29946 1.25651,-0.4492 1.89454,-0.44922 0.63801,2e-5 1.11978,0.0716 1.44531,0.21485 0.33853,0.13023 0.61848,0.2995 0.83984,0.50781 0.41666,0.42971 0.62499,0.95054 0.625,1.5625 -1e-5,0.612 -0.1172,1.3021 -0.35156,2.07031 -0.23439,0.76825 -0.52735,1.57554 -0.87891,2.42188 -0.35157,0.84636 -0.73568,1.71225 -1.15234,2.59765 l -1.15234,2.5586 c -0.82032,1.88802 -1.23048,3.13802 -1.23047,3.75 -1e-5,1.19792 0.42317,1.79687 1.26953,1.79687 2.17447,0 4.21223,-1.28906 6.11328,-3.86719 1.10676,-1.49738 1.90103,-3.12499 2.38281,-4.88281 0.22134,-0.83332 0.33202,-1.58853 0.33203,-2.26562 -1e-5,-0.69009 -0.026,-1.26301 -0.0781,-1.71875 -0.0391,-0.45572 -0.11069,-0.85936 -0.21485,-1.21094 -0.16928,-0.62498 -0.45574,-1.16535 -0.85937,-1.62109 -0.27345,-0.33853 -0.14975,-0.73566 0.37109,-1.19141 0.5729,-0.48175 1.38671,-0.72264 2.44141,-0.72266 0.65102,2e-5 1.22394,0.30601 1.71875,0.91797 0.62498,0.72919 0.93748,1.77736 0.9375,3.14453 -2e-5,1.35418 -0.20184,2.68882 -0.60547,4.00391 -0.40366,1.30209 -0.95705,2.5586 -1.66016,3.76953 -0.70314,1.19792 -1.53647,2.31772 -2.5,3.35938 -0.95053,1.04167 -1.97918,1.94661 -3.08593,2.71484 -2.3698,1.66667 -4.73959,2.5 -7.10938,2.5 -1.70573,0 -2.86458,-0.69661 -3.47656,-2.08984"/>
    <path d="m 179.06821,139.38263 c 0.0521,-1.13281 0.24088,-2.21353 0.5664,-3.24219 0.32552,-1.04165 0.76172,-2.04426 1.3086,-3.00781 0.54687,-0.97655 1.18489,-1.89452 1.91406,-2.75391 0.74218,-0.87238 1.54296,-1.63409 2.40234,-2.28515 1.86197,-1.39321 3.74348,-2.08983 5.64453,-2.08985 2.22655,2e-5 3.71092,0.91799 4.45313,2.75391 0.2604,0.62502 0.3841,1.3672 0.37109,2.22656 -0.013,0.84637 -0.1758,1.63413 -0.48828,2.36328 -0.31252,0.71616 -0.74871,1.37371 -1.30859,1.97266 -0.54689,0.58595 -1.20444,1.11329 -1.97266,1.58203 -0.75522,0.46876 -1.58204,0.86589 -2.48047,1.19141 -1.84897,0.65105 -3.82813,0.98959 -5.9375,1.01562 -0.0521,0.1823 -0.0846,0.45574 -0.0977,0.82031 -0.013,0.36459 0.026,0.77475 0.11718,1.23047 0.0911,0.44272 0.24739,0.83985 0.46875,1.19141 0.46875,0.78125 1.14583,1.17188 2.03125,1.17187 1.51041,1e-5 2.98176,-0.4427 4.41407,-1.32812 0.5078,-0.29948 0.91795,-0.60546 1.23047,-0.91797 0.3255,-0.32551 0.60545,-0.48828 0.83984,-0.48828 0.23436,0 0.43618,0.14323 0.60547,0.42969 0.18227,0.27344 0.27342,0.58594 0.27344,0.9375 -2e-5,0.6901 -0.19533,1.28906 -0.58594,1.79687 -1.64064,1.64063 -4.08204,2.46094 -7.32422,2.46094 -1.91407,0 -3.45053,-0.57292 -4.60938,-1.71875 -1.30208,-1.30208 -1.91406,-3.07291 -1.83593,-5.3125 m 11.40625,-10.78125 c -1.3672,2e-5 -2.68231,0.93752 -3.94532,2.8125 -1.06771,1.6146 -1.92709,3.52866 -2.57812,5.74219 2.17447,-0.22135 4.06249,-1.08072 5.66406,-2.57813 1.47134,-1.40624 2.20702,-2.75389 2.20703,-4.04297 -1e-5,-1.28904 -0.44923,-1.93357 -1.34765,-1.93359"/>
    <path d="m 198.73618,145.43732 c -0.32553,-0.33854 -0.59245,-0.76823 -0.80079,-1.28907 -0.19531,-0.53385 -0.29297,-1.14583 -0.29296,-1.83593 -1e-5,-0.70312 0.15624,-1.64062 0.46875,-2.8125 0.32551,-1.17187 0.73567,-2.5065 1.23046,-4.00391 l 1.64063,-4.86328 c 2.33072,-6.77081 3.67838,-12.00518 4.04297,-15.70313 0.11718,-1.09371 0.65103,-1.64059 1.60156,-1.64062 0.59895,3e-5 1.09374,0.14326 1.48438,0.42969 0.75519,0.57295 1.11977,1.21097 1.09375,1.91406 -0.0261,0.70315 -0.14976,1.56253 -0.3711,2.57812 -0.22136,1.00264 -0.50782,2.10289 -0.85937,3.30079 -0.35158,1.18492 -0.75522,2.44142 -1.21094,3.76953 l -2.69531,7.92968 c -1.54949,4.50522 -2.32423,7.41537 -2.32422,8.73047 -1e-5,0.70313 0.28645,1.05469 0.85937,1.05469 0.54687,0 1.04166,-0.11718 1.48438,-0.35156 0.45572,-0.23437 0.74869,-0.35156 0.8789,-0.35156 0.27343,0 0.41015,0.13672 0.41016,0.41015 -1e-5,1.15886 -0.59246,2.12891 -1.77734,2.91016 -0.79428,0.53385 -1.52345,0.80078 -2.1875,0.80078 -0.65105,0 -1.17839,-0.0781 -1.58203,-0.23438 -0.40365,-0.15625 -0.76824,-0.40364 -1.09375,-0.74218"/>
    <path d="m 210.76743,144.89044 c -0.54688,-0.52083 -0.97657,-1.17838 -1.28907,-1.97265 -0.3125,-0.80729 -0.47526,-1.75781 -0.48828,-2.85157 -0.013,-1.09374 0.11719,-2.20051 0.39063,-3.32031 0.28645,-1.11978 0.68359,-2.20051 1.1914,-3.24219 0.52083,-1.04165 1.13932,-2.01821 1.85547,-2.92968 0.72916,-0.91145 1.52994,-1.70572 2.40235,-2.38282 1.90103,-1.45831 3.87368,-2.18748 5.91796,-2.1875 2.68228,2e-5 4.49868,1.17841 5.44922,3.53516 0.67707,1.70574 0.71613,3.76954 0.11719,6.19141 -0.54689,2.22657 -1.5495,4.27084 -3.00781,6.13281 -1.44533,1.86198 -3.15106,3.18359 -5.11719,3.96484 -0.98959,0.39063 -1.96615,0.58594 -2.92969,0.58594 -0.95052,0 -1.80339,-0.1237 -2.55859,-0.37109 -0.74219,-0.2474 -1.38672,-0.63151 -1.93359,-1.15235 m 3.73046,-9.47265 c -0.39063,0.96355 -0.70313,1.95313 -0.9375,2.96875 -0.22136,1.01563 -0.32552,1.97917 -0.3125,2.89062 0.013,0.89844 0.14974,1.60808 0.41016,2.12891 0.27343,0.50781 0.70963,0.76172 1.30859,0.76172 0.59895,0 1.18489,-0.20183 1.75782,-0.60547 0.58592,-0.41667 1.15233,-0.96354 1.69922,-1.64063 0.54686,-0.67708 1.06118,-1.45833 1.54296,-2.34375 0.48176,-0.88541 0.90494,-1.80989 1.26954,-2.77344 0.79425,-2.09634 1.17837,-3.95832 1.15234,-5.58593 -2e-5,-1.43228 -0.29298,-2.34374 -0.87891,-2.73438 -0.23439,-0.15623 -0.56642,-0.23436 -0.99609,-0.23437 -0.41668,1e-5 -0.89845,0.19533 -1.44531,0.58593 -0.54689,0.37763 -1.09376,0.89195 -1.64063,1.54297 -0.54688,0.65106 -1.07423,1.41278 -1.58203,2.28516 -0.50782,0.87241 -0.95704,1.79038 -1.34766,2.75391" />
    <path d="m 232.99399,144.3631 c -0.026,0.19531 -0.31251,1.22396 -0.85938,3.08594 -0.53385,1.86197 -0.98307,3.33983 -1.34765,4.43359 -0.82032,2.44791 -1.4974,3.97134 -2.03125,4.57031 -0.42969,0.46874 -0.95052,0.70312 -1.5625,0.70313 -0.74219,-1e-5 -1.30859,-0.3646 -1.69922,-1.09375 -0.11719,-0.20835 -0.17578,-0.44272 -0.17578,-0.70313 0,-0.2474 0.19531,-0.79428 0.58593,-1.64062 1.02865,-2.14845 2.40235,-6.38021 4.1211,-12.69532 0.6901,-2.49999 1.14583,-4.1992 1.36719,-5.09765 l 0.625,-2.44141 c 0.40364,-1.61457 0.63801,-2.70832 0.70312,-3.28125 0.0781,-0.58592 0.0456,-0.99607 -0.0977,-1.23047 -0.14323,-0.24738 -0.30599,-0.42967 -0.48828,-0.54687 -0.18229,-0.13019 -0.35156,-0.24087 -0.50781,-0.33203 -0.15625,-0.0911 -0.22136,-0.25389 -0.19531,-0.48828 0.026,-0.24738 0.1302,-0.46874 0.3125,-0.66407 0.19531,-0.20831 0.43619,-0.38409 0.72265,-0.52734 0.58594,-0.27342 1.17187,-0.41014 1.75782,-0.41016 0.59895,2e-5 1.0677,0.0716 1.40625,0.21485 0.33853,0.14325 0.61848,0.33856 0.83984,0.58593 0.46874,0.50784 0.67707,1.00263 0.625,1.48438 -0.13022,1.00262 -0.27345,1.86199 -0.42969,2.57812 2.27864,-3.24216 4.64192,-4.86326 7.08985,-4.86328 2.22654,2e-5 3.71743,1.15237 4.47265,3.45703 0.2604,0.80731 0.39061,1.79038 0.39063,2.94922 -2e-5,1.15887 -0.1758,2.32423 -0.52735,3.4961 -0.35158,1.15886 -0.82684,2.25912 -1.42578,3.30078 -0.59897,1.04167 -1.29559,2.00521 -2.08984,2.89062 -0.79429,0.8724 -1.63413,1.63412 -2.51953,2.28516 -1.87501,1.35417 -3.64585,2.03125 -5.3125,2.03125 -1.66668,0 -2.91667,-0.68359 -3.75,-2.05078 m 3.00781,-8.32031 c -0.46876,0.91146 -0.85287,1.82292 -1.15234,2.73437 -0.28647,0.91147 -0.4297,1.7448 -0.42969,2.5 -10e-6,0.75521 0.16275,1.38021 0.48828,1.875 0.32551,0.48177 0.80728,0.72266 1.44531,0.72266 0.63801,0 1.26952,-0.16927 1.89453,-0.50782 0.63801,-0.35155 1.24999,-0.8203 1.83594,-1.40625 0.59895,-0.58593 1.15233,-1.26952 1.66016,-2.05078 0.52082,-0.79426 0.97004,-1.6341 1.34765,-2.51953 0.8203,-1.92707 1.23046,-3.7565 1.23047,-5.48828 -1e-5,-0.93748 -0.12371,-1.66665 -0.37109,-2.1875 -0.24741,-0.52082 -0.63153,-0.78123 -1.15234,-0.78125 -0.50783,2e-5 -1.04168,0.20184 -1.60157,0.60547 -0.55991,0.39064 -1.14584,0.91798 -1.75781,1.58203 -0.61199,0.65106 -1.21746,1.40626 -1.81641,2.26563 -0.59896,0.84636 -1.13933,1.73178 -1.62109,2.65625" />
    <path d="m 251.72446,139.38263 c 0.0521,-1.13281 0.24088,-2.21353 0.5664,-3.24219 0.32552,-1.04165 0.76172,-2.04426 1.3086,-3.00781 0.54687,-0.97655 1.18489,-1.89452 1.91406,-2.75391 0.74218,-0.87238 1.54296,-1.63409 2.40234,-2.28515 1.86197,-1.39321 3.74348,-2.08983 5.64453,-2.08985 2.22655,2e-5 3.71092,0.91799 4.45313,2.75391 0.2604,0.62502 0.3841,1.3672 0.37109,2.22656 -0.013,0.84637 -0.1758,1.63413 -0.48828,2.36328 -0.31252,0.71616 -0.74871,1.37371 -1.30859,1.97266 -0.54689,0.58595 -1.20444,1.11329 -1.97266,1.58203 -0.75522,0.46876 -1.58204,0.86589 -2.48047,1.19141 -1.84897,0.65105 -3.82813,0.98959 -5.9375,1.01562 -0.0521,0.1823 -0.0846,0.45574 -0.0976,0.82031 -0.013,0.36459 0.026,0.77475 0.11718,1.23047 0.0911,0.44272 0.24739,0.83985 0.46875,1.19141 0.46875,0.78125 1.14583,1.17188 2.03125,1.17187 1.51041,1e-5 2.98176,-0.4427 4.41407,-1.32812 0.5078,-0.29948 0.91795,-0.60546 1.23047,-0.91797 0.3255,-0.32551 0.60545,-0.48828 0.83984,-0.48828 0.23436,0 0.43618,0.14323 0.60547,0.42969 0.18227,0.27344 0.27342,0.58594 0.27344,0.9375 -2e-5,0.6901 -0.19533,1.28906 -0.58594,1.79687 -1.64064,1.64063 -4.08204,2.46094 -7.32422,2.46094 -1.91407,0 -3.45053,-0.57292 -4.60938,-1.71875 -1.30208,-1.30208 -1.91406,-3.07291 -1.83593,-5.3125 m 11.40625,-10.78125 c -1.3672,2e-5 -2.68231,0.93752 -3.94532,2.8125 -1.06771,1.6146 -1.92709,3.52866 -2.57812,5.74219 2.17447,-0.22135 4.06249,-1.08072 5.66406,-2.57813 1.47134,-1.40624 2.20702,-2.75389 2.20703,-4.04297 -10e-6,-1.28904 -0.44923,-1.93357 -1.34765,-1.93359" />
  </g>
</g>
</svg>