<svg width="221" height="221" viewBox="0 0 221 221" fill="none" xmlns="http://www.w3.org/2000/svg">
<path d="M53.4087 104.054L18.417 202.583L116.946 167.684" stroke="black" stroke-width="2" stroke-linecap="round" stroke-linejoin="round"/>
<path d="M36.833 27.625H36.9219" stroke="black" stroke-width="2" stroke-linecap="round" stroke-linejoin="round"/>
<path d="M202.583 73.6667H202.672" stroke="black" stroke-width="2" stroke-linecap="round" stroke-linejoin="round"/>
<path d="M138.125 18.4167H138.214" stroke="black" stroke-width="2" stroke-linecap="round" stroke-linejoin="round"/>
<path d="M202.583 184.167H202.672" stroke="black" stroke-width="2" stroke-linecap="round" stroke-linejoin="round"/>
<path d="M202.584 18.4167L181.957 25.323C176.086 27.2787 171.076 31.213 167.784 36.4533C164.492 41.6936 163.122 47.9147 163.909 54.053C164.829 61.9722 158.66 69.0626 150.557 69.0626H147.057C139.138 69.0626 132.324 74.5876 130.851 82.3226L128.917 92.0834" stroke="black" stroke-width="2" stroke-linecap="round" stroke-linejoin="round"/>
<path d="M202.584 119.708L195.033 116.67C187.114 113.539 178.274 118.511 176.8 126.891C175.787 133.337 170.17 138.125 163.632 138.125H156.542" stroke="black" stroke-width="2" stroke-linecap="round" stroke-linejoin="round"/>
<path d="M101.292 18.4167L104.33 25.9676C107.461 33.8867 102.489 42.7267 94.1092 44.2001C87.6633 45.1209 82.875 50.8301 82.875 57.368V64.4584" stroke="black" stroke-width="2" stroke-linecap="round" stroke-linejoin="round"/>
<path d="M101.291 119.708C119.063 137.48 127.351 158.107 119.708 165.75C112.065 173.393 91.4384 165.105 73.6663 147.333C55.8942 129.561 47.6067 108.935 55.2496 101.292C62.8925 93.6487 83.5192 101.936 101.291 119.708Z" stroke="black" stroke-width="2" stroke-linecap="round" stroke-linejoin="round"/>
</svg>
