<svg width="70" height="71" viewBox="0 0 70 71" fill="none" xmlns="http://www.w3.org/2000/svg">
<path d="M46.6672 17.9L22.1263 42.9425C21.0328 44.0364 20.4184 45.5199 20.4184 47.0667C20.4184 48.6135 21.0328 50.0969 22.1263 51.1908C23.2203 52.2844 24.7037 52.8988 26.2505 52.8988C27.7973 52.8988 29.2808 52.2844 30.3747 51.1908L54.9155 26.1483C57.1027 23.9605 58.3314 20.9936 58.3314 17.9C58.3314 14.8064 57.1027 11.8395 54.9155 9.65168C52.7277 7.46452 49.7608 6.23584 46.6672 6.23584C43.5736 6.23584 40.6067 7.46452 38.4189 9.65168L13.8751 34.6913C10.5929 37.9734 8.74902 42.425 8.74902 47.0667C8.74902 51.7084 10.5929 56.1599 13.8751 59.4421C17.1573 62.7243 21.6088 64.5682 26.2505 64.5682C29.1544 64.5682 31.9838 63.8465 34.499 62.5025M59.999 35.8999L64.499 31.3999" stroke="#FF004F" stroke-width="2" stroke-linecap="round" stroke-linejoin="round"/>
<path d="M59 52.3999V46.3999C59 44.8086 58.3679 43.2825 57.2426 42.1573C56.1174 41.0321 54.5913 40.3999 53 40.3999C51.4087 40.3999 49.8826 41.0321 48.7574 42.1573C47.6321 43.2825 47 44.8086 47 46.3999V52.3999" stroke="#FF004F" stroke-width="2" stroke-linecap="round" stroke-linejoin="round"/>
<path d="M62 52.3999H44C42.3431 52.3999 41 53.7431 41 55.3999V64.3999C41 66.0568 42.3431 67.3999 44 67.3999H62C63.6569 67.3999 65 66.0568 65 64.3999V55.3999C65 53.7431 63.6569 52.3999 62 52.3999Z" stroke="#FF004F" stroke-width="2" stroke-linecap="round" stroke-linejoin="round"/>
</svg>
