<?xml version="1.0" encoding="UTF-8"?>
<svg width="400px" height="400px" viewBox="0 0 400 400" version="1.1" xmlns="http://www.w3.org/2000/svg" xmlns:xlink="http://www.w3.org/1999/xlink">
    <!-- Generator: Sketch 53.2 (72643) - https://sketchapp.com -->
    <title>BackgroundTile</title>
    <desc>Created with Sketch.</desc>
    <defs>
        <rect id="path-1" x="0" y="0" width="400" height="400"></rect>
    </defs>
    <g id="Layout" stroke="none" stroke-width="1" fill="none" fill-rule="evenodd">
        <g id="Artboard">
            <g id="BackgroundTile" opacity="0.5">
                <g id="dec_triangle_030">
                    <mask id="mask-2" fill="white">
                        <use xlink:href="#path-1"></use>
                    </mask>
                    <g id="Mask"></g>
                    <g mask="url(#mask-2)" fill-rule="nonzero" id="RhombusDouble">
                        <g transform="translate(21.000000, -28.000000)">
                            <g transform="translate(28.000000, 28.248711) rotate(30.000000) translate(-28.000000, -28.248711) translate(0.000000, 0.248711)">
                                <path d="M33.8047612,42.0267612 C34.3124428,41.5190796 35.1355572,41.5190796 35.6432388,42.0267612 C36.1509204,42.5344428 36.1509204,43.3575572 35.6432388,43.8652388 L34.5772388,44.9312388 C34.0695572,45.4389204 33.2464428,45.4389204 32.7387612,44.9312388 C32.2310796,44.4235572 32.2310796,43.6004428 32.7387612,43.0927612 L33.8047612,42.0267612 Z M25.2055115,9.59096608 C24.6979805,10.0987982 23.8748661,10.0990424 23.3670339,9.59151147 C22.8592018,9.08398051 22.8589576,8.26086607 23.3664885,7.75303392 L26.7364885,4.38103392 C27.2441099,3.87311129 28.067403,3.87297076 28.5751977,4.38072007 L50.9331977,26.7367201 C51.440918,27.244395 51.4409365,28.0675412 50.9332388,28.5752388 L39.3212388,40.1872388 C38.8135572,40.6949204 37.9904428,40.6949204 37.4827612,40.1872388 C36.9750796,39.6795572 36.9750796,38.8564428 37.4827612,38.3487612 L48.1754813,27.6560411 L27.6563138,7.13870922 L25.2055115,9.59096608 Z M29.9427612,45.8887612 C30.4504428,45.3810796 31.2735572,45.3810796 31.7812388,45.8887612 C32.2889204,46.3964428 32.2889204,47.2195572 31.7812388,47.7272388 L28.5752388,50.9332388 C28.0675412,51.4409365 27.244395,51.440918 26.7367201,50.9331977 L4.38072007,28.5751977 C3.87305289,28.0674851 3.87309923,27.2443542 4.38082357,26.7366988 L19.1168236,12.0026988 C19.6245396,11.4950517 20.4476541,11.4951075 20.9553012,12.0028236 C21.4629483,12.5105396 21.4628925,13.3336541 20.9551764,13.8413012 L7.1384989,27.6561035 L27.6560411,48.1754813 L29.9427612,45.8887612 Z M18.6352388,29.0547612 C19.1429204,29.5624428 19.1429204,30.3855572 18.6352388,30.8932388 C18.1275572,31.4009204 17.3044428,31.4009204 16.7967612,30.8932388 L14.4787612,28.5752388 C13.9710796,28.0675572 13.9710796,27.2444428 14.4787612,26.7367612 L26.7367612,14.4787612 C27.2444428,13.9710796 28.0675572,13.9710796 28.5752388,14.4787612 L34.0932388,19.9967612 C34.6009204,20.5044428 34.6009204,21.3275572 34.0932388,21.8352388 C33.5855572,22.3429204 32.7624428,22.3429204 32.2547612,21.8352388 L27.656,17.2364776 L17.2364776,27.656 L18.6352388,29.0547612 Z M38.9946862,26.7368362 C39.5023264,26.2291132 40.3254408,26.229046 40.8331638,26.7366862 C41.3408868,27.2443264 41.340954,28.0674408 40.8333138,28.5751638 L28.5753138,40.8351638 C28.0675886,41.3429719 27.244306,41.3429415 26.7366183,40.8350959 L20.3046183,34.4010959 C19.7970156,33.8933354 19.7971436,33.070221 20.3049041,32.5626183 C20.8126646,32.0550156 21.635779,32.0551436 22.1433817,32.5629041 L27.6560679,38.0773045 L38.9946862,26.7368362 Z M35.1227612,24.7032388 C34.6150796,24.1955572 34.6150796,23.3724428 35.1227612,22.8647612 C35.6304428,22.3570796 36.4535572,22.3570796 36.9612388,22.8647612 L38.2272388,24.1307612 C38.7349204,24.6384428 38.7349204,25.4615572 38.2272388,25.9692388 C37.7195572,26.4769204 36.8964428,26.4769204 36.3887612,25.9692388 L35.1227612,24.7032388 Z" fill="#85C9AF"></path>
                            </g>
                        </g>
                    </g>
                    <g mask="url(#mask-2)" fill-rule="nonzero" id="CircleDouble">
                        <g transform="translate(122.000000, 124.000000)">
                            <g transform="translate(28.000000, 28.248711) rotate(30.000000) translate(-28.000000, -28.248711) translate(0.000000, 0.248711)">
                                <path d="M31.556909,51.1025147 C31.5247094,51.110201 31.4919752,51.1167243 31.4587443,51.1220321 C22.9589884,52.4796519 14.3908484,49.1256858 9.07147073,42.3586182 C3.75209306,35.5915506 2.51652085,26.4736851 5.84310458,18.5349935 C6.12058225,17.8728098 6.88232834,17.5609439 7.54451209,17.8384216 C8.20669583,18.1158992 8.51856172,18.8776453 8.24108404,19.5398291 C5.27917065,26.6082568 6.37929564,34.7265939 11.1155468,40.7518347 C15.8314445,46.7511829 23.4151573,49.7376471 30.9510882,48.5699278 C30.9848963,48.5618753 31.0192913,48.5551061 31.0542286,48.5496811 C31.3573656,48.5026101 31.6566186,48.4482856 31.9501945,48.3869691 C32.6529991,48.2401808 33.3417303,48.6909211 33.4885186,49.3937258 C33.6353069,50.0965304 33.1845666,50.7852616 32.481762,50.9320499 C32.1775415,50.9955896 31.8688155,51.0524626 31.556909,51.1025147 Z M21.4179041,7.56577195 C20.7325957,7.77985967 20.003491,7.39785983 19.7894033,6.71255142 C19.5753156,6.02724301 19.9573154,5.29813838 20.6426238,5.08405066 C32.8230108,1.27894437 45.8300252,7.7977503 50.0715412,19.8331233 C54.3130571,31.8684963 48.2671495,45.1019485 36.3924209,49.7743656 C35.7243098,50.037251 34.969588,49.7087508 34.7067026,49.0406397 C34.4438171,48.3725286 34.7723174,47.6178068 35.4404284,47.3549213 C46.0128612,43.194926 51.395717,31.4127802 47.6193661,20.6973208 C43.8430152,9.98186144 32.2624738,4.17796985 21.4179041,7.56577195 Z M12.2329262,13.3615246 C11.7440028,13.8872956 10.9214305,13.9171665 10.3956595,13.4282432 C9.86988857,12.9393198 9.84001767,12.1167475 10.328941,11.5909765 C11.0007576,10.8685287 11.7165222,10.188233 12.472153,9.55396931 C13.0220733,9.09237551 13.8420675,9.16397828 14.3036613,9.71389857 C14.7652551,10.2638189 14.6936523,11.0838131 14.143732,11.5454069 C13.4700405,12.1108922 12.8318921,12.7174177 12.2329262,13.3615246 Z M38.8457443,32.4220588 C39.1258043,31.7609631 39.8887618,31.4520727 40.5498575,31.7321327 C41.2109532,32.0121927 41.5198437,32.7751502 41.2397836,33.4362459 C38.0712803,40.9156562 29.440581,44.4117356 21.9599977,41.2460026 C21.2987983,40.9661875 20.9896253,40.2033444 21.2694405,39.542145 C21.5492556,38.8809457 22.3120987,38.5717726 22.9732981,38.8515878 C29.1318289,41.457837 36.2372143,38.5796239 38.8457443,32.4220588 Z M17.72467,34.5620753 C18.1309328,35.154048 17.9803852,35.9632778 17.3884125,36.3695406 C16.7964397,36.7758034 15.98721,36.6252558 15.5809472,36.033283 C12.0066017,30.8250409 12.1610134,23.9151375 15.964446,18.8717625 C19.7678786,13.8283875 26.369086,11.7802983 32.3592853,13.7851032 C38.3494847,15.7899081 42.3880098,21.3989118 42.3894157,27.7156934 C42.3895755,28.4336636 41.8076752,29.0158229 41.0897051,29.0159827 C40.3717349,29.0161425 39.7895756,28.4342422 39.7894158,27.7162721 C39.7882587,22.5172366 36.4643452,17.9007386 31.5341036,16.2506813 C26.603862,14.6006239 21.1707295,16.2863064 18.0403093,20.437263 C14.909889,24.5882195 14.7828003,30.2754247 17.72467,34.5620753 Z" fill="#85C9AF"></path>
                            </g>
                        </g>
                    </g>
                    <g id="dec_triangle_060" mask="url(#mask-2)" fill-rule="nonzero">
                        <g transform="translate(224.000000, 174.000000)" id="RhombusSingle">
                            <g transform="translate(28.000000, 28.248711) rotate(60.000000) translate(-28.000000, -28.248711) translate(0.000000, 0.248711)">
                                <path d="M34.7047612,14.1872388 C34.1970796,13.6795572 34.1970796,12.8564428 34.7047612,12.3487612 C35.2124428,11.8410796 36.0355572,11.8410796 36.5432388,12.3487612 L38.1512388,13.9567612 C38.6589204,14.4644428 38.6589204,15.2875572 38.1512388,15.7952388 C37.6435572,16.3029204 36.8204428,16.3029204 36.3127612,15.7952388 L34.7047612,14.1872388 Z M21.8212388,42.3387612 C22.3289204,42.8464428 22.3289204,43.6695572 21.8212388,44.1772388 C21.3135572,44.6849204 20.4904428,44.6849204 19.9827612,44.1772388 L4.38076118,28.5752388 C3.87307961,28.0675572 3.87307961,27.2444428 4.38076118,26.7367612 L26.7367612,4.38076118 C27.2444428,3.87307961 28.0675572,3.87307961 28.5752388,4.38076118 L32.4772388,8.28276118 C32.9849204,8.79044276 32.9849204,9.61355724 32.4772388,10.1212388 C31.9695572,10.6289204 31.1464428,10.6289204 30.6387612,10.1212388 L27.656,7.13847763 L7.13847763,27.656 L21.8212388,42.3387612 Z M42.2488955,21.7313731 C41.7411397,21.2237657 41.7410195,20.4006512 42.2486269,19.8928955 C42.7562343,19.3851397 43.5793488,19.3850195 44.0871045,19.8926269 L50.9331045,26.7366269 C51.4409127,27.2442867 51.4409728,28.0675048 50.9332388,28.5752388 L28.5752388,50.9332388 C28.0674686,51.4410091 27.244179,51.4409074 26.7365342,50.9330118 L22.6885342,46.8830118 C22.180978,46.3752048 22.1811813,45.5520904 22.6889882,45.0445342 C23.1967952,44.536978 24.0199096,44.5371813 24.5274658,45.0449882 L27.6562271,48.1752953 L48.1753881,27.6561343 L42.2488955,21.7313731 Z" fill="#85C9AF"></path>
                            </g>
                        </g>
                    </g>
                    <g id="dec_wave_300" mask="url(#mask-2)" fill-rule="nonzero">
                        <g transform="translate(221.000000, 72.000000)" id="Wave">
                            <g transform="translate(28.000000, 28.000000) rotate(300.000000) translate(-28.000000, -28.000000) ">
                                <path d="M14.8462135,16.6472124 C15.4428714,16.2478623 16.2502954,16.4078119 16.6496455,17.0044699 C17.0489956,17.6011278 16.889046,18.4085518 16.292388,18.8079019 C12.380372,21.4262596 9.7742635,22.4432434 5.30000252,22.4432434 C4.58203234,22.4432434 4.00000252,21.8612136 4.00000252,21.1432434 C4.00000252,20.4252733 4.58203234,19.8432434 5.30000252,19.8432434 C9.17522271,19.8432434 11.3238079,19.0047993 14.8462135,16.6472124 Z M19.9677141,13.6421264 C20.6256581,13.3547403 21.3919997,13.6551368 21.6793858,14.3130809 C21.9667719,14.971025 21.6663754,15.7373665 21.0084313,16.0247526 C20.6893391,16.1641302 20.3687724,16.3160384 20.0385007,16.4833372 C19.3980152,16.8077744 18.6157908,16.5515666 18.2913536,15.9110811 C17.9669164,15.2705956 18.2231241,14.4883712 18.8636096,14.163934 C19.2364466,13.9750738 19.6014468,13.8021098 19.9677141,13.6421264 Z M51.3000025,19.8432434 C52.0179727,19.8432434 52.6000025,20.4252733 52.6000025,21.1432434 C52.6000025,21.8612136 52.0179727,22.4432434 51.3000025,22.4432434 C46.6889401,22.4432434 44.133252,21.3939786 39.9680279,18.5407445 C39.7876686,18.4171234 39.7876686,18.4171234 39.6082523,18.2941411 C35.5927311,15.5432009 33.2495106,14.6001062 28.6998457,14.600101 C27.6756228,14.597213 26.6523092,14.6593708 25.6364639,14.7861736 C24.9240227,14.8751041 24.2743825,14.3696487 24.1854521,13.6572074 C24.0965217,12.9447661 24.6019771,12.295126 25.3144183,12.2061956 C26.4395337,12.0657531 27.5728612,11.9969129 28.7035113,12.0001062 C33.8645039,12.0001062 36.6687899,13.1287696 41.0776957,16.1492085 C41.2582089,16.2729425 41.2582089,16.2729425 41.4373788,16.3957485 C45.2096906,18.9798324 47.3126957,19.8432434 51.3000025,19.8432434 Z M51.3000025,27.1785375 C52.0179727,27.1785375 52.6000025,27.7605674 52.6000025,28.4785375 C52.6000025,29.1965077 52.0179727,29.7785375 51.3000025,29.7785375 C46.6889401,29.7785375 44.133252,28.7292728 39.9680279,25.8760386 C39.7876686,25.7524176 39.7876686,25.7524176 39.6082523,25.6294352 C35.5927311,22.878495 33.2495106,21.9354003 28.7035113,21.9354003 C23.7060464,21.9354003 21.0911629,22.9256532 17.0461383,25.6368435 C16.9335656,25.7122957 16.4826628,26.0154244 16.3694448,26.0913091 C12.3845523,28.7621957 9.8064339,29.7785375 5.30000252,29.7785375 C4.58203234,29.7785375 4.00000252,29.1965077 4.00000252,28.4785375 C4.00000252,27.7605674 4.58203234,27.1785375 5.30000252,27.1785375 C9.20292287,27.1785375 11.3264316,26.3414112 14.9218662,23.9315599 C15.0330817,23.8570174 15.4839845,23.5538887 15.5985597,23.4770944 C20.035691,20.5030933 23.1191268,19.3354003 28.7035113,19.3354003 C33.8645039,19.3354003 36.6687899,20.4640637 41.0776957,23.4845026 C41.2582089,23.6082366 41.2582089,23.6082366 41.4373788,23.7310426 C45.2096906,26.3151266 47.3126957,27.1785375 51.3000025,27.1785375 Z M36.1108639,27.9901083 C36.7769615,28.2580546 37.0997269,29.0152467 36.8317806,29.6813443 C36.5638343,30.3474418 35.8066421,30.6702072 35.1405446,30.4022609 C33.2882166,29.6571382 31.2350808,29.2706944 28.7035113,29.2706944 C23.7060464,29.2706944 21.0911629,30.2609473 17.0461383,32.9721376 C16.9335656,33.0475898 16.4826628,33.3507185 16.3694448,33.4266032 C12.3845523,36.0974898 9.8064339,37.1138317 5.30000252,37.1138317 C4.58203234,37.1138317 4.00000252,36.5318018 4.00000252,35.8138317 C4.00000252,35.0958615 4.58203234,34.5138317 5.30000252,34.5138317 C9.20292287,34.5138317 11.3264316,33.6767053 14.9218662,31.2668541 C15.0330817,31.1923115 15.4839845,30.8891829 15.5985597,30.8123885 C20.035691,27.8383874 23.1191268,26.6706944 28.7035113,26.6706944 C31.5631072,26.6706944 33.9457267,27.119154 36.1108639,27.9901083 Z M51.3000025,34.5138317 C52.0179727,34.5138317 52.6000025,35.0958615 52.6000025,35.8138317 C52.6000025,36.5318018 52.0179727,37.1138317 51.3000025,37.1138317 C46.6918735,37.1138317 44.135098,36.0649254 39.9740794,33.2155785 C39.7895267,33.0891245 39.7895267,33.0891245 39.6059555,32.963335 C39.2374187,32.7109475 38.9895025,32.5427211 38.7367063,32.374459 C38.139026,31.9766407 37.9770058,31.1696296 38.3748241,30.5719493 C38.7726424,29.9742689 39.5796535,29.8122488 40.1773338,30.2100671 C40.4417705,30.3860771 40.6978263,30.5598267 41.0750485,30.8181623 C41.2597677,30.9447384 41.2597677,30.9447384 41.4430771,31.0703406 C45.2112436,33.6506736 47.3152462,34.5138317 51.3000025,34.5138317 Z M10.0504932,41.1679671 C10.7363994,40.9558023 11.4644298,41.3398455 11.6765946,42.0257517 C11.8887594,42.7116579 11.5047162,43.4396882 10.81881,43.6518531 C9.02916057,44.2054283 7.15970239,44.474567 5.28230401,44.4490053 C4.56440038,44.4392307 3.99034838,43.8493309 4.000123,43.1314273 C4.00989761,42.4135236 4.59979738,41.8394716 5.31770102,41.8492463 C6.92295629,41.8711026 8.52119548,41.6410103 10.0504932,41.1679671 Z M51.3000025,41.8491258 C52.0179727,41.8491258 52.6000025,42.4311556 52.6000025,43.1491258 C52.6000025,43.867096 52.0179727,44.4491258 51.3000025,44.4491258 C46.6889401,44.4491258 44.133252,43.399861 39.9680279,40.5466269 C39.7876686,40.4230058 39.7876686,40.4230058 39.6082523,40.3000235 C35.5927311,37.5490833 33.2495106,36.6059885 28.7035113,36.6059885 C23.7046238,36.6059885 21.0911731,37.595681 17.0468446,40.3067333 C16.9346866,40.3819168 16.4862319,40.6834292 16.3738309,40.7587763 C15.8658866,41.0992724 15.4986215,41.3404536 15.1248899,41.5761586 C14.5176076,41.9591591 13.7148248,41.7773429 13.3318242,41.1700606 C12.9488237,40.5627784 13.1306399,39.7599955 13.7379222,39.376995 C14.0871616,39.1567368 14.4365397,38.9273019 14.9261206,38.5991155 C15.0365398,38.5250969 15.4850016,38.2235796 15.599145,38.1470654 C20.0356137,35.1731479 23.1176959,34.0059885 28.7035113,34.0059885 C33.8645039,34.0059885 36.6687899,35.134652 41.0776957,38.1550908 C41.2582089,38.2788249 41.2582089,38.2788249 41.4373788,38.4016309 C45.2096906,40.9857148 47.3126957,41.8491258 51.3000025,41.8491258 Z" id="Waves" fill="#85C9AF"></path>
                            </g>
                        </g>
                    </g>
                    <g id="dec_triangle_120" mask="url(#mask-2)" fill-rule="nonzero">
                        <g transform="translate(221.000000, -28.000000)" id="RectangleSingle">
                            <g transform="translate(28.000000, 28.248711) rotate(120.000000) translate(-28.000000, -28.248711) translate(0.000000, 0.248711)">
                                <path d="M20.6,21.3959825 C20.6,22.1139527 20.0179702,22.6959825 19.3,22.6959825 C18.5820298,22.6959825 18,22.1139527 18,21.3959825 L18,20.0400873 C18,19.3221172 18.5820298,18.7400873 19.3,18.7400873 C20.0179702,18.7400873 20.6,19.3221172 20.6,20.0400873 L20.6,21.3959825 Z M34.7369048,45.8844541 C34.7369048,45.166484 35.3189346,44.5844541 36.0369048,44.5844541 C36.7548749,44.5844541 37.3369048,45.166484 37.3369048,45.8844541 L37.3369048,51.119214 C37.3369048,51.8371841 36.7548749,52.419214 36.0369048,52.419214 L19.3,52.419214 C18.5820298,52.419214 18,51.8371841 18,51.119214 L18,30.1239301 C18,29.40596 18.5820298,28.8239301 19.3,28.8239301 C20.0179702,28.8239301 20.6,29.40596 20.6,30.1239301 L20.6,49.819214 L34.7369048,49.819214 L34.7369048,45.8844541 Z M20.6,12.5173799 C20.6,13.2353501 20.0179702,13.8173799 19.3,13.8173799 C18.5820298,13.8173799 18,13.2353501 18,12.5173799 L18,5.3 C18,4.58202983 18.5820298,4 19.3,4 L36.0369048,4 C36.7548749,4 37.3369048,4.58202983 37.3369048,5.3 L37.3369048,40.9771179 C37.3369048,41.6950881 36.7548749,42.2771179 36.0369048,42.2771179 C35.3189346,42.2771179 34.7369048,41.6950881 34.7369048,40.9771179 L34.7369048,6.6 L20.6,6.6 L20.6,12.5173799 Z" fill="#85C9AF"></path>
                            </g>
                        </g>
                    </g>
                    <g id="dec_triangle_120" mask="url(#mask-2)" fill-rule="nonzero">
                        <g transform="translate(221.000000, 372.000000)" id="RectangleSingle">
                            <g transform="translate(28.000000, 28.248711) rotate(120.000000) translate(-28.000000, -28.248711) translate(0.000000, 0.248711)">
                                <path d="M20.6,21.3959825 C20.6,22.1139527 20.0179702,22.6959825 19.3,22.6959825 C18.5820298,22.6959825 18,22.1139527 18,21.3959825 L18,20.0400873 C18,19.3221172 18.5820298,18.7400873 19.3,18.7400873 C20.0179702,18.7400873 20.6,19.3221172 20.6,20.0400873 L20.6,21.3959825 Z M34.7369048,45.8844541 C34.7369048,45.166484 35.3189346,44.5844541 36.0369048,44.5844541 C36.7548749,44.5844541 37.3369048,45.166484 37.3369048,45.8844541 L37.3369048,51.119214 C37.3369048,51.8371841 36.7548749,52.419214 36.0369048,52.419214 L19.3,52.419214 C18.5820298,52.419214 18,51.8371841 18,51.119214 L18,30.1239301 C18,29.40596 18.5820298,28.8239301 19.3,28.8239301 C20.0179702,28.8239301 20.6,29.40596 20.6,30.1239301 L20.6,49.819214 L34.7369048,49.819214 L34.7369048,45.8844541 Z M20.6,12.5173799 C20.6,13.2353501 20.0179702,13.8173799 19.3,13.8173799 C18.5820298,13.8173799 18,13.2353501 18,12.5173799 L18,5.3 C18,4.58202983 18.5820298,4 19.3,4 L36.0369048,4 C36.7548749,4 37.3369048,4.58202983 37.3369048,5.3 L37.3369048,40.9771179 C37.3369048,41.6950881 36.7548749,42.2771179 36.0369048,42.2771179 C35.3189346,42.2771179 34.7369048,41.6950881 34.7369048,40.9771179 L34.7369048,6.6 L20.6,6.6 L20.6,12.5173799 Z" fill="#85C9AF"></path>
                            </g>
                        </g>
                    </g>
                    <g id="dec_triangle_090" mask="url(#mask-2)" fill-rule="nonzero">
                        <g transform="translate(122.000000, 223.000000)" id="RhombusDouble">
                            <g transform="translate(28.000000, 28.248711) rotate(90.000000) translate(-28.000000, -28.248711) translate(0.000000, 0.248711)">
                                <path d="M33.8047612,42.0267612 C34.3124428,41.5190796 35.1355572,41.5190796 35.6432388,42.0267612 C36.1509204,42.5344428 36.1509204,43.3575572 35.6432388,43.8652388 L34.5772388,44.9312388 C34.0695572,45.4389204 33.2464428,45.4389204 32.7387612,44.9312388 C32.2310796,44.4235572 32.2310796,43.6004428 32.7387612,43.0927612 L33.8047612,42.0267612 Z M25.2055115,9.59096608 C24.6979805,10.0987982 23.8748661,10.0990424 23.3670339,9.59151147 C22.8592018,9.08398051 22.8589576,8.26086607 23.3664885,7.75303392 L26.7364885,4.38103392 C27.2441099,3.87311129 28.067403,3.87297076 28.5751977,4.38072007 L50.9331977,26.7367201 C51.440918,27.244395 51.4409365,28.0675412 50.9332388,28.5752388 L39.3212388,40.1872388 C38.8135572,40.6949204 37.9904428,40.6949204 37.4827612,40.1872388 C36.9750796,39.6795572 36.9750796,38.8564428 37.4827612,38.3487612 L48.1754813,27.6560411 L27.6563138,7.13870922 L25.2055115,9.59096608 Z M29.9427612,45.8887612 C30.4504428,45.3810796 31.2735572,45.3810796 31.7812388,45.8887612 C32.2889204,46.3964428 32.2889204,47.2195572 31.7812388,47.7272388 L28.5752388,50.9332388 C28.0675412,51.4409365 27.244395,51.440918 26.7367201,50.9331977 L4.38072007,28.5751977 C3.87305289,28.0674851 3.87309923,27.2443542 4.38082357,26.7366988 L19.1168236,12.0026988 C19.6245396,11.4950517 20.4476541,11.4951075 20.9553012,12.0028236 C21.4629483,12.5105396 21.4628925,13.3336541 20.9551764,13.8413012 L7.1384989,27.6561035 L27.6560411,48.1754813 L29.9427612,45.8887612 Z M18.6352388,29.0547612 C19.1429204,29.5624428 19.1429204,30.3855572 18.6352388,30.8932388 C18.1275572,31.4009204 17.3044428,31.4009204 16.7967612,30.8932388 L14.4787612,28.5752388 C13.9710796,28.0675572 13.9710796,27.2444428 14.4787612,26.7367612 L26.7367612,14.4787612 C27.2444428,13.9710796 28.0675572,13.9710796 28.5752388,14.4787612 L34.0932388,19.9967612 C34.6009204,20.5044428 34.6009204,21.3275572 34.0932388,21.8352388 C33.5855572,22.3429204 32.7624428,22.3429204 32.2547612,21.8352388 L27.656,17.2364776 L17.2364776,27.656 L18.6352388,29.0547612 Z M38.9946862,26.7368362 C39.5023264,26.2291132 40.3254408,26.229046 40.8331638,26.7366862 C41.3408868,27.2443264 41.340954,28.0674408 40.8333138,28.5751638 L28.5753138,40.8351638 C28.0675886,41.3429719 27.244306,41.3429415 26.7366183,40.8350959 L20.3046183,34.4010959 C19.7970156,33.8933354 19.7971436,33.070221 20.3049041,32.5626183 C20.8126646,32.0550156 21.635779,32.0551436 22.1433817,32.5629041 L27.6560679,38.0773045 L38.9946862,26.7368362 Z M35.1227612,24.7032388 C34.6150796,24.1955572 34.6150796,23.3724428 35.1227612,22.8647612 C35.6304428,22.3570796 36.4535572,22.3570796 36.9612388,22.8647612 L38.2272388,24.1307612 C38.7349204,24.6384428 38.7349204,25.4615572 38.2272388,25.9692388 C37.7195572,26.4769204 36.8964428,26.4769204 36.3887612,25.9692388 L35.1227612,24.7032388 Z" fill="#85C9AF"></path>
                            </g>
                        </g>
                    </g>
                    <g id="dec_triangle_090" mask="url(#mask-2)" fill-rule="nonzero">
                        <g transform="translate(226.000000, 271.000000)" id="TriangleSingle">
                            <g transform="translate(28.000000, 28.248711) rotate(90.000000) translate(-28.000000, -28.248711) translate(0.000000, 0.248711)">
                                <path d="M14.5638392,29.4724627 C14.9225688,28.8505348 15.7175487,28.6371704 16.3394766,28.9959 C16.9614044,29.3546295 17.1747688,30.1496094 16.8160393,30.7715373 L15.7120393,32.6855373 C15.3533097,33.3074652 14.5583298,33.5208296 13.9364019,33.1621 C13.314474,32.8033705 13.1011097,32.0083906 13.4598392,31.3864627 L14.5638392,29.4724627 Z M20.1757696,24.9540046 C19.816782,25.5757835 19.0217136,25.788818 18.3999347,25.4298304 C17.7781557,25.0708428 17.5651212,24.2757744 17.9241088,23.6539954 L27.1641088,7.64999545 C27.6644865,6.78332403 28.9154248,6.78333756 29.4157837,7.65001979 L52.4037837,47.4680198 C52.9041336,48.3346865 52.2786696,49.418 51.2779392,49.418 L45.0019392,49.418 C44.2839691,49.418 43.7019392,48.8359702 43.7019392,48.118 C43.7019392,47.4000298 44.2839691,46.818 45.0019392,46.818 L49.0263189,46.818 L28.2899111,10.9000305 L20.1757696,24.9540046 Z M41.0899392,46.818 C41.8079094,46.818 42.3899392,47.4000298 42.3899392,48.118 C42.3899392,48.8359702 41.8079094,49.418 41.0899392,49.418 L5.30193924,49.418 C4.30122957,49.418 3.67576293,48.3347267 4.17607157,47.46806 L10.6600716,36.23606 C11.0190235,35.6142605 11.8140797,35.4011804 12.4358792,35.7601323 C13.0576788,36.1190843 13.2707589,36.9141404 12.9118069,37.53594 L7.55346671,46.818 L41.0899392,46.818 Z" fill="#85C9AF"></path>
                            </g>
                        </g>
                    </g>
                    <g id="dec_wave_030" mask="url(#mask-2)" fill-rule="nonzero">
                        <g transform="translate(323.000000, 225.000000)" id="Wave">
                            <g transform="translate(28.000000, 28.000000) rotate(30.000000) translate(-28.000000, -28.000000) ">
                                <path d="M14.8462135,16.6472124 C15.4428714,16.2478623 16.2502954,16.4078119 16.6496455,17.0044699 C17.0489956,17.6011278 16.889046,18.4085518 16.292388,18.8079019 C12.380372,21.4262596 9.7742635,22.4432434 5.30000252,22.4432434 C4.58203234,22.4432434 4.00000252,21.8612136 4.00000252,21.1432434 C4.00000252,20.4252733 4.58203234,19.8432434 5.30000252,19.8432434 C9.17522271,19.8432434 11.3238079,19.0047993 14.8462135,16.6472124 Z M19.9677141,13.6421264 C20.6256581,13.3547403 21.3919997,13.6551368 21.6793858,14.3130809 C21.9667719,14.971025 21.6663754,15.7373665 21.0084313,16.0247526 C20.6893391,16.1641302 20.3687724,16.3160384 20.0385007,16.4833372 C19.3980152,16.8077744 18.6157908,16.5515666 18.2913536,15.9110811 C17.9669164,15.2705956 18.2231241,14.4883712 18.8636096,14.163934 C19.2364466,13.9750738 19.6014468,13.8021098 19.9677141,13.6421264 Z M51.3000025,19.8432434 C52.0179727,19.8432434 52.6000025,20.4252733 52.6000025,21.1432434 C52.6000025,21.8612136 52.0179727,22.4432434 51.3000025,22.4432434 C46.6889401,22.4432434 44.133252,21.3939786 39.9680279,18.5407445 C39.7876686,18.4171234 39.7876686,18.4171234 39.6082523,18.2941411 C35.5927311,15.5432009 33.2495106,14.6001062 28.6998457,14.600101 C27.6756228,14.597213 26.6523092,14.6593708 25.6364639,14.7861736 C24.9240227,14.8751041 24.2743825,14.3696487 24.1854521,13.6572074 C24.0965217,12.9447661 24.6019771,12.295126 25.3144183,12.2061956 C26.4395337,12.0657531 27.5728612,11.9969129 28.7035113,12.0001062 C33.8645039,12.0001062 36.6687899,13.1287696 41.0776957,16.1492085 C41.2582089,16.2729425 41.2582089,16.2729425 41.4373788,16.3957485 C45.2096906,18.9798324 47.3126957,19.8432434 51.3000025,19.8432434 Z M51.3000025,27.1785375 C52.0179727,27.1785375 52.6000025,27.7605674 52.6000025,28.4785375 C52.6000025,29.1965077 52.0179727,29.7785375 51.3000025,29.7785375 C46.6889401,29.7785375 44.133252,28.7292728 39.9680279,25.8760386 C39.7876686,25.7524176 39.7876686,25.7524176 39.6082523,25.6294352 C35.5927311,22.878495 33.2495106,21.9354003 28.7035113,21.9354003 C23.7060464,21.9354003 21.0911629,22.9256532 17.0461383,25.6368435 C16.9335656,25.7122957 16.4826628,26.0154244 16.3694448,26.0913091 C12.3845523,28.7621957 9.8064339,29.7785375 5.30000252,29.7785375 C4.58203234,29.7785375 4.00000252,29.1965077 4.00000252,28.4785375 C4.00000252,27.7605674 4.58203234,27.1785375 5.30000252,27.1785375 C9.20292287,27.1785375 11.3264316,26.3414112 14.9218662,23.9315599 C15.0330817,23.8570174 15.4839845,23.5538887 15.5985597,23.4770944 C20.035691,20.5030933 23.1191268,19.3354003 28.7035113,19.3354003 C33.8645039,19.3354003 36.6687899,20.4640637 41.0776957,23.4845026 C41.2582089,23.6082366 41.2582089,23.6082366 41.4373788,23.7310426 C45.2096906,26.3151266 47.3126957,27.1785375 51.3000025,27.1785375 Z M36.1108639,27.9901083 C36.7769615,28.2580546 37.0997269,29.0152467 36.8317806,29.6813443 C36.5638343,30.3474418 35.8066421,30.6702072 35.1405446,30.4022609 C33.2882166,29.6571382 31.2350808,29.2706944 28.7035113,29.2706944 C23.7060464,29.2706944 21.0911629,30.2609473 17.0461383,32.9721376 C16.9335656,33.0475898 16.4826628,33.3507185 16.3694448,33.4266032 C12.3845523,36.0974898 9.8064339,37.1138317 5.30000252,37.1138317 C4.58203234,37.1138317 4.00000252,36.5318018 4.00000252,35.8138317 C4.00000252,35.0958615 4.58203234,34.5138317 5.30000252,34.5138317 C9.20292287,34.5138317 11.3264316,33.6767053 14.9218662,31.2668541 C15.0330817,31.1923115 15.4839845,30.8891829 15.5985597,30.8123885 C20.035691,27.8383874 23.1191268,26.6706944 28.7035113,26.6706944 C31.5631072,26.6706944 33.9457267,27.119154 36.1108639,27.9901083 Z M51.3000025,34.5138317 C52.0179727,34.5138317 52.6000025,35.0958615 52.6000025,35.8138317 C52.6000025,36.5318018 52.0179727,37.1138317 51.3000025,37.1138317 C46.6918735,37.1138317 44.135098,36.0649254 39.9740794,33.2155785 C39.7895267,33.0891245 39.7895267,33.0891245 39.6059555,32.963335 C39.2374187,32.7109475 38.9895025,32.5427211 38.7367063,32.374459 C38.139026,31.9766407 37.9770058,31.1696296 38.3748241,30.5719493 C38.7726424,29.9742689 39.5796535,29.8122488 40.1773338,30.2100671 C40.4417705,30.3860771 40.6978263,30.5598267 41.0750485,30.8181623 C41.2597677,30.9447384 41.2597677,30.9447384 41.4430771,31.0703406 C45.2112436,33.6506736 47.3152462,34.5138317 51.3000025,34.5138317 Z M10.0504932,41.1679671 C10.7363994,40.9558023 11.4644298,41.3398455 11.6765946,42.0257517 C11.8887594,42.7116579 11.5047162,43.4396882 10.81881,43.6518531 C9.02916057,44.2054283 7.15970239,44.474567 5.28230401,44.4490053 C4.56440038,44.4392307 3.99034838,43.8493309 4.000123,43.1314273 C4.00989761,42.4135236 4.59979738,41.8394716 5.31770102,41.8492463 C6.92295629,41.8711026 8.52119548,41.6410103 10.0504932,41.1679671 Z M51.3000025,41.8491258 C52.0179727,41.8491258 52.6000025,42.4311556 52.6000025,43.1491258 C52.6000025,43.867096 52.0179727,44.4491258 51.3000025,44.4491258 C46.6889401,44.4491258 44.133252,43.399861 39.9680279,40.5466269 C39.7876686,40.4230058 39.7876686,40.4230058 39.6082523,40.3000235 C35.5927311,37.5490833 33.2495106,36.6059885 28.7035113,36.6059885 C23.7046238,36.6059885 21.0911731,37.595681 17.0468446,40.3067333 C16.9346866,40.3819168 16.4862319,40.6834292 16.3738309,40.7587763 C15.8658866,41.0992724 15.4986215,41.3404536 15.1248899,41.5761586 C14.5176076,41.9591591 13.7148248,41.7773429 13.3318242,41.1700606 C12.9488237,40.5627784 13.1306399,39.7599955 13.7379222,39.376995 C14.0871616,39.1567368 14.4365397,38.9273019 14.9261206,38.5991155 C15.0365398,38.5250969 15.4850016,38.2235796 15.599145,38.1470654 C20.0356137,35.1731479 23.1176959,34.0059885 28.7035113,34.0059885 C33.8645039,34.0059885 36.6687899,35.134652 41.0776957,38.1550908 C41.2582089,38.2788249 41.2582089,38.2788249 41.4373788,38.4016309 C45.2096906,40.9857148 47.3126957,41.8491258 51.3000025,41.8491258 Z" id="Waves" fill="#85C9AF"></path>
                            </g>
                        </g>
                    </g>
                    <g mask="url(#mask-2)" fill-rule="nonzero" id="CircleSingle">
                        <g transform="translate(324.000000, 122.000000)">
                            <g transform="translate(28.000000, 28.248711) rotate(30.000000) translate(-28.000000, -28.248711) translate(0.000000, 0.248711)">
                                <path d="M12.4005886,42.3072594 C12.8944878,42.8283589 12.8724375,43.651178 12.3513379,44.1450772 C11.8302383,44.6389764 11.0074192,44.6169261 10.5135201,44.0958265 C2.78243196,35.9389656 1.82586715,23.4802519 8.22113305,14.2387869 C14.6163989,4.99732183 26.6131007,1.50250977 36.9709708,5.86354489 C37.6326815,6.14214883 37.9432509,6.90442444 37.6646469,7.56613511 C37.386043,8.22784579 36.6237674,8.53841515 35.9620567,8.25981121 C26.7379395,4.37612677 16.0543741,7.48840329 10.3591219,15.718315 C4.66386979,23.9482267 5.51573082,35.0432331 12.4005886,42.3072594 Z M47.8768237,21.297841 C47.6583274,20.6139254 48.0356244,19.8823761 48.71954,19.6638798 C49.4034556,19.4453836 50.1350049,19.8226805 50.3535012,20.5065961 C53.4313284,30.1405103 50.0709192,40.6667798 41.9802547,46.7352615 C33.8895901,52.8037432 22.8434782,53.0832253 14.45628,47.4316564 C13.8608693,47.0304492 13.7034363,46.2225307 14.1046435,45.62712 C14.5058508,45.0317092 15.3137693,44.8742762 15.90918,45.2754835 C23.3782529,50.3083895 33.215175,50.0595016 40.4201751,44.6553212 C47.6251752,39.2511407 50.617729,29.8771552 47.8768237,21.297841 Z M41.4896886,11.6802288 C40.9450705,11.2123909 40.8828279,10.3916331 41.3506658,9.84701503 C41.8185037,9.30239693 42.6392614,9.24015428 43.1838795,9.70799218 C43.910375,10.3320664 44.5991909,10.9987086 45.2466941,11.7044026 C45.7320956,12.2334268 45.6967323,13.0557813 45.1677081,13.5411827 C44.6386839,14.0265842 43.8163295,13.9912209 43.330928,13.4621967 C42.7529757,12.8323042 42.1381483,12.2372687 41.4896886,11.6802288 Z" fill="#85C9AF"></path>
                            </g>
                        </g>
                    </g>
                    <g id="dec_triangle_120" mask="url(#mask-2)" fill-rule="nonzero">
                        <g transform="translate(322.000000, 322.000000)" id="RhombusSingle">
                            <g transform="translate(28.000000, 28.248711) rotate(120.000000) translate(-28.000000, -28.248711) translate(0.000000, 0.248711)">
                                <path d="M34.7047612,14.1872388 C34.1970796,13.6795572 34.1970796,12.8564428 34.7047612,12.3487612 C35.2124428,11.8410796 36.0355572,11.8410796 36.5432388,12.3487612 L38.1512388,13.9567612 C38.6589204,14.4644428 38.6589204,15.2875572 38.1512388,15.7952388 C37.6435572,16.3029204 36.8204428,16.3029204 36.3127612,15.7952388 L34.7047612,14.1872388 Z M21.8212388,42.3387612 C22.3289204,42.8464428 22.3289204,43.6695572 21.8212388,44.1772388 C21.3135572,44.6849204 20.4904428,44.6849204 19.9827612,44.1772388 L4.38076118,28.5752388 C3.87307961,28.0675572 3.87307961,27.2444428 4.38076118,26.7367612 L26.7367612,4.38076118 C27.2444428,3.87307961 28.0675572,3.87307961 28.5752388,4.38076118 L32.4772388,8.28276118 C32.9849204,8.79044276 32.9849204,9.61355724 32.4772388,10.1212388 C31.9695572,10.6289204 31.1464428,10.6289204 30.6387612,10.1212388 L27.656,7.13847763 L7.13847763,27.656 L21.8212388,42.3387612 Z M42.2488955,21.7313731 C41.7411397,21.2237657 41.7410195,20.4006512 42.2486269,19.8928955 C42.7562343,19.3851397 43.5793488,19.3850195 44.0871045,19.8926269 L50.9331045,26.7366269 C51.4409127,27.2442867 51.4409728,28.0675048 50.9332388,28.5752388 L28.5752388,50.9332388 C28.0674686,51.4410091 27.244179,51.4409074 26.7365342,50.9330118 L22.6885342,46.8830118 C22.180978,46.3752048 22.1811813,45.5520904 22.6889882,45.0445342 C23.1967952,44.536978 24.0199096,44.5371813 24.5274658,45.0449882 L27.6562271,48.1752953 L48.1753881,27.6561343 L42.2488955,21.7313731 Z" fill="#85C9AF"></path>
                            </g>
                        </g>
                    </g>
                    <g id="dec_triangle_150" mask="url(#mask-2)" fill-rule="nonzero">
                        <g transform="translate(329.000000, 28.000000)" id="TriangleSingle">
                            <g transform="translate(28.000000, 28.248711) rotate(150.000000) translate(-28.000000, -28.248711) translate(0.000000, 0.248711)">
                                <path d="M14.5638392,29.4724627 C14.9225688,28.8505348 15.7175487,28.6371704 16.3394766,28.9959 C16.9614044,29.3546295 17.1747688,30.1496094 16.8160393,30.7715373 L15.7120393,32.6855373 C15.3533097,33.3074652 14.5583298,33.5208296 13.9364019,33.1621 C13.314474,32.8033705 13.1011097,32.0083906 13.4598392,31.3864627 L14.5638392,29.4724627 Z M20.1757696,24.9540046 C19.816782,25.5757835 19.0217136,25.788818 18.3999347,25.4298304 C17.7781557,25.0708428 17.5651212,24.2757744 17.9241088,23.6539954 L27.1641088,7.64999545 C27.6644865,6.78332403 28.9154248,6.78333756 29.4157837,7.65001979 L52.4037837,47.4680198 C52.9041336,48.3346865 52.2786696,49.418 51.2779392,49.418 L45.0019392,49.418 C44.2839691,49.418 43.7019392,48.8359702 43.7019392,48.118 C43.7019392,47.4000298 44.2839691,46.818 45.0019392,46.818 L49.0263189,46.818 L28.2899111,10.9000305 L20.1757696,24.9540046 Z M41.0899392,46.818 C41.8079094,46.818 42.3899392,47.4000298 42.3899392,48.118 C42.3899392,48.8359702 41.8079094,49.418 41.0899392,49.418 L5.30193924,49.418 C4.30122957,49.418 3.67576293,48.3347267 4.17607157,47.46806 L10.6600716,36.23606 C11.0190235,35.6142605 11.8140797,35.4011804 12.4358792,35.7601323 C13.0576788,36.1190843 13.2707589,36.9141404 12.9118069,37.53594 L7.55346671,46.818 L41.0899392,46.818 Z" fill="#85C9AF"></path>
                            </g>
                        </g>
                    </g>
                    <g id="dec_wave_120" mask="url(#mask-2)" fill-rule="nonzero">
                        <g transform="translate(123.000000, 325.000000)" id="Wave">
                            <g transform="translate(28.000000, 28.000000) rotate(120.000000) translate(-28.000000, -28.000000) ">
                                <path d="M14.8462135,16.6472124 C15.4428714,16.2478623 16.2502954,16.4078119 16.6496455,17.0044699 C17.0489956,17.6011278 16.889046,18.4085518 16.292388,18.8079019 C12.380372,21.4262596 9.7742635,22.4432434 5.30000252,22.4432434 C4.58203234,22.4432434 4.00000252,21.8612136 4.00000252,21.1432434 C4.00000252,20.4252733 4.58203234,19.8432434 5.30000252,19.8432434 C9.17522271,19.8432434 11.3238079,19.0047993 14.8462135,16.6472124 Z M19.9677141,13.6421264 C20.6256581,13.3547403 21.3919997,13.6551368 21.6793858,14.3130809 C21.9667719,14.971025 21.6663754,15.7373665 21.0084313,16.0247526 C20.6893391,16.1641302 20.3687724,16.3160384 20.0385007,16.4833372 C19.3980152,16.8077744 18.6157908,16.5515666 18.2913536,15.9110811 C17.9669164,15.2705956 18.2231241,14.4883712 18.8636096,14.163934 C19.2364466,13.9750738 19.6014468,13.8021098 19.9677141,13.6421264 Z M51.3000025,19.8432434 C52.0179727,19.8432434 52.6000025,20.4252733 52.6000025,21.1432434 C52.6000025,21.8612136 52.0179727,22.4432434 51.3000025,22.4432434 C46.6889401,22.4432434 44.133252,21.3939786 39.9680279,18.5407445 C39.7876686,18.4171234 39.7876686,18.4171234 39.6082523,18.2941411 C35.5927311,15.5432009 33.2495106,14.6001062 28.6998457,14.600101 C27.6756228,14.597213 26.6523092,14.6593708 25.6364639,14.7861736 C24.9240227,14.8751041 24.2743825,14.3696487 24.1854521,13.6572074 C24.0965217,12.9447661 24.6019771,12.295126 25.3144183,12.2061956 C26.4395337,12.0657531 27.5728612,11.9969129 28.7035113,12.0001062 C33.8645039,12.0001062 36.6687899,13.1287696 41.0776957,16.1492085 C41.2582089,16.2729425 41.2582089,16.2729425 41.4373788,16.3957485 C45.2096906,18.9798324 47.3126957,19.8432434 51.3000025,19.8432434 Z M51.3000025,27.1785375 C52.0179727,27.1785375 52.6000025,27.7605674 52.6000025,28.4785375 C52.6000025,29.1965077 52.0179727,29.7785375 51.3000025,29.7785375 C46.6889401,29.7785375 44.133252,28.7292728 39.9680279,25.8760386 C39.7876686,25.7524176 39.7876686,25.7524176 39.6082523,25.6294352 C35.5927311,22.878495 33.2495106,21.9354003 28.7035113,21.9354003 C23.7060464,21.9354003 21.0911629,22.9256532 17.0461383,25.6368435 C16.9335656,25.7122957 16.4826628,26.0154244 16.3694448,26.0913091 C12.3845523,28.7621957 9.8064339,29.7785375 5.30000252,29.7785375 C4.58203234,29.7785375 4.00000252,29.1965077 4.00000252,28.4785375 C4.00000252,27.7605674 4.58203234,27.1785375 5.30000252,27.1785375 C9.20292287,27.1785375 11.3264316,26.3414112 14.9218662,23.9315599 C15.0330817,23.8570174 15.4839845,23.5538887 15.5985597,23.4770944 C20.035691,20.5030933 23.1191268,19.3354003 28.7035113,19.3354003 C33.8645039,19.3354003 36.6687899,20.4640637 41.0776957,23.4845026 C41.2582089,23.6082366 41.2582089,23.6082366 41.4373788,23.7310426 C45.2096906,26.3151266 47.3126957,27.1785375 51.3000025,27.1785375 Z M36.1108639,27.9901083 C36.7769615,28.2580546 37.0997269,29.0152467 36.8317806,29.6813443 C36.5638343,30.3474418 35.8066421,30.6702072 35.1405446,30.4022609 C33.2882166,29.6571382 31.2350808,29.2706944 28.7035113,29.2706944 C23.7060464,29.2706944 21.0911629,30.2609473 17.0461383,32.9721376 C16.9335656,33.0475898 16.4826628,33.3507185 16.3694448,33.4266032 C12.3845523,36.0974898 9.8064339,37.1138317 5.30000252,37.1138317 C4.58203234,37.1138317 4.00000252,36.5318018 4.00000252,35.8138317 C4.00000252,35.0958615 4.58203234,34.5138317 5.30000252,34.5138317 C9.20292287,34.5138317 11.3264316,33.6767053 14.9218662,31.2668541 C15.0330817,31.1923115 15.4839845,30.8891829 15.5985597,30.8123885 C20.035691,27.8383874 23.1191268,26.6706944 28.7035113,26.6706944 C31.5631072,26.6706944 33.9457267,27.119154 36.1108639,27.9901083 Z M51.3000025,34.5138317 C52.0179727,34.5138317 52.6000025,35.0958615 52.6000025,35.8138317 C52.6000025,36.5318018 52.0179727,37.1138317 51.3000025,37.1138317 C46.6918735,37.1138317 44.135098,36.0649254 39.9740794,33.2155785 C39.7895267,33.0891245 39.7895267,33.0891245 39.6059555,32.963335 C39.2374187,32.7109475 38.9895025,32.5427211 38.7367063,32.374459 C38.139026,31.9766407 37.9770058,31.1696296 38.3748241,30.5719493 C38.7726424,29.9742689 39.5796535,29.8122488 40.1773338,30.2100671 C40.4417705,30.3860771 40.6978263,30.5598267 41.0750485,30.8181623 C41.2597677,30.9447384 41.2597677,30.9447384 41.4430771,31.0703406 C45.2112436,33.6506736 47.3152462,34.5138317 51.3000025,34.5138317 Z M10.0504932,41.1679671 C10.7363994,40.9558023 11.4644298,41.3398455 11.6765946,42.0257517 C11.8887594,42.7116579 11.5047162,43.4396882 10.81881,43.6518531 C9.02916057,44.2054283 7.15970239,44.474567 5.28230401,44.4490053 C4.56440038,44.4392307 3.99034838,43.8493309 4.000123,43.1314273 C4.00989761,42.4135236 4.59979738,41.8394716 5.31770102,41.8492463 C6.92295629,41.8711026 8.52119548,41.6410103 10.0504932,41.1679671 Z M51.3000025,41.8491258 C52.0179727,41.8491258 52.6000025,42.4311556 52.6000025,43.1491258 C52.6000025,43.867096 52.0179727,44.4491258 51.3000025,44.4491258 C46.6889401,44.4491258 44.133252,43.399861 39.9680279,40.5466269 C39.7876686,40.4230058 39.7876686,40.4230058 39.6082523,40.3000235 C35.5927311,37.5490833 33.2495106,36.6059885 28.7035113,36.6059885 C23.7046238,36.6059885 21.0911731,37.595681 17.0468446,40.3067333 C16.9346866,40.3819168 16.4862319,40.6834292 16.3738309,40.7587763 C15.8658866,41.0992724 15.4986215,41.3404536 15.1248899,41.5761586 C14.5176076,41.9591591 13.7148248,41.7773429 13.3318242,41.1700606 C12.9488237,40.5627784 13.1306399,39.7599955 13.7379222,39.376995 C14.0871616,39.1567368 14.4365397,38.9273019 14.9261206,38.5991155 C15.0365398,38.5250969 15.4850016,38.2235796 15.599145,38.1470654 C20.0356137,35.1731479 23.1176959,34.0059885 28.7035113,34.0059885 C33.8645039,34.0059885 36.6687899,35.134652 41.0776957,38.1550908 C41.2582089,38.2788249 41.2582089,38.2788249 41.4373788,38.4016309 C45.2096906,40.9857148 47.3126957,41.8491258 51.3000025,41.8491258 Z" id="Waves" fill="#85C9AF"></path>
                            </g>
                        </g>
                    </g>
                    <g id="dec_triangle_180" mask="url(#mask-2)" fill-rule="nonzero">
                        <g transform="translate(121.000000, 28.000000)" id="TriangleSingle">
                            <g transform="translate(28.000000, 28.248711) rotate(180.000000) translate(-28.000000, -28.248711) translate(0.000000, 0.248711)">
                                <path d="M14.5638392,29.4724627 C14.9225688,28.8505348 15.7175487,28.6371704 16.3394766,28.9959 C16.9614044,29.3546295 17.1747688,30.1496094 16.8160393,30.7715373 L15.7120393,32.6855373 C15.3533097,33.3074652 14.5583298,33.5208296 13.9364019,33.1621 C13.314474,32.8033705 13.1011097,32.0083906 13.4598392,31.3864627 L14.5638392,29.4724627 Z M20.1757696,24.9540046 C19.816782,25.5757835 19.0217136,25.788818 18.3999347,25.4298304 C17.7781557,25.0708428 17.5651212,24.2757744 17.9241088,23.6539954 L27.1641088,7.64999545 C27.6644865,6.78332403 28.9154248,6.78333756 29.4157837,7.65001979 L52.4037837,47.4680198 C52.9041336,48.3346865 52.2786696,49.418 51.2779392,49.418 L45.0019392,49.418 C44.2839691,49.418 43.7019392,48.8359702 43.7019392,48.118 C43.7019392,47.4000298 44.2839691,46.818 45.0019392,46.818 L49.0263189,46.818 L28.2899111,10.9000305 L20.1757696,24.9540046 Z M41.0899392,46.818 C41.8079094,46.818 42.3899392,47.4000298 42.3899392,48.118 C42.3899392,48.8359702 41.8079094,49.418 41.0899392,49.418 L5.30193924,49.418 C4.30122957,49.418 3.67576293,48.3347267 4.17607157,47.46806 L10.6600716,36.23606 C11.0190235,35.6142605 11.8140797,35.4011804 12.4358792,35.7601323 C13.0576788,36.1190843 13.2707589,36.9141404 12.9118069,37.53594 L7.55346671,46.818 L41.0899392,46.818 Z" fill="#85C9AF"></path>
                            </g>
                        </g>
                    </g>
                    <g mask="url(#mask-2)" fill-rule="nonzero" id="RectangleSingle">
                        <g transform="translate(20.000000, 177.000000)">
                            <g transform="translate(28.000000, 28.248711) rotate(30.000000) translate(-28.000000, -28.248711) translate(0.000000, 0.248711)">
                                <path d="M20.6,21.3959825 C20.6,22.1139527 20.0179702,22.6959825 19.3,22.6959825 C18.5820298,22.6959825 18,22.1139527 18,21.3959825 L18,20.0400873 C18,19.3221172 18.5820298,18.7400873 19.3,18.7400873 C20.0179702,18.7400873 20.6,19.3221172 20.6,20.0400873 L20.6,21.3959825 Z M34.7369048,45.8844541 C34.7369048,45.166484 35.3189346,44.5844541 36.0369048,44.5844541 C36.7548749,44.5844541 37.3369048,45.166484 37.3369048,45.8844541 L37.3369048,51.119214 C37.3369048,51.8371841 36.7548749,52.419214 36.0369048,52.419214 L19.3,52.419214 C18.5820298,52.419214 18,51.8371841 18,51.119214 L18,30.1239301 C18,29.40596 18.5820298,28.8239301 19.3,28.8239301 C20.0179702,28.8239301 20.6,29.40596 20.6,30.1239301 L20.6,49.819214 L34.7369048,49.819214 L34.7369048,45.8844541 Z M20.6,12.5173799 C20.6,13.2353501 20.0179702,13.8173799 19.3,13.8173799 C18.5820298,13.8173799 18,13.2353501 18,12.5173799 L18,5.3 C18,4.58202983 18.5820298,4 19.3,4 L36.0369048,4 C36.7548749,4 37.3369048,4.58202983 37.3369048,5.3 L37.3369048,40.9771179 C37.3369048,41.6950881 36.7548749,42.2771179 36.0369048,42.2771179 C35.3189346,42.2771179 34.7369048,41.6950881 34.7369048,40.9771179 L34.7369048,6.6 L20.6,6.6 L20.6,12.5173799 Z" fill="#85C9AF"></path>
                            </g>
                        </g>
                    </g>
                    <g id="dec_triangle_300" mask="url(#mask-2)" fill-rule="nonzero">
                        <g transform="translate(19.000000, 275.000000)" id="CircleSingle">
                            <g transform="translate(28.000000, 28.248711) rotate(300.000000) translate(-28.000000, -28.248711) translate(0.000000, 0.248711)">
                                <path d="M12.4005886,42.3072594 C12.8944878,42.8283589 12.8724375,43.651178 12.3513379,44.1450772 C11.8302383,44.6389764 11.0074192,44.6169261 10.5135201,44.0958265 C2.78243196,35.9389656 1.82586715,23.4802519 8.22113305,14.2387869 C14.6163989,4.99732183 26.6131007,1.50250977 36.9709708,5.86354489 C37.6326815,6.14214883 37.9432509,6.90442444 37.6646469,7.56613511 C37.386043,8.22784579 36.6237674,8.53841515 35.9620567,8.25981121 C26.7379395,4.37612677 16.0543741,7.48840329 10.3591219,15.718315 C4.66386979,23.9482267 5.51573082,35.0432331 12.4005886,42.3072594 Z M47.8768237,21.297841 C47.6583274,20.6139254 48.0356244,19.8823761 48.71954,19.6638798 C49.4034556,19.4453836 50.1350049,19.8226805 50.3535012,20.5065961 C53.4313284,30.1405103 50.0709192,40.6667798 41.9802547,46.7352615 C33.8895901,52.8037432 22.8434782,53.0832253 14.45628,47.4316564 C13.8608693,47.0304492 13.7034363,46.2225307 14.1046435,45.62712 C14.5058508,45.0317092 15.3137693,44.8742762 15.90918,45.2754835 C23.3782529,50.3083895 33.215175,50.0595016 40.4201751,44.6553212 C47.6251752,39.2511407 50.617729,29.8771552 47.8768237,21.297841 Z M41.4896886,11.6802288 C40.9450705,11.2123909 40.8828279,10.3916331 41.3506658,9.84701503 C41.8185037,9.30239693 42.6392614,9.24015428 43.1838795,9.70799218 C43.910375,10.3320664 44.5991909,10.9987086 45.2466941,11.7044026 C45.7320956,12.2334268 45.6967323,13.0557813 45.1677081,13.5411827 C44.6386839,14.0265842 43.8163295,13.9912209 43.330928,13.4621967 C42.7529757,12.8323042 42.1381483,12.2372687 41.4896886,11.6802288 Z" fill="#85C9AF"></path>
                            </g>
                        </g>
                    </g>
                    <g id="dec_wave_210" mask="url(#mask-2)" fill-rule="nonzero">
                        <g transform="translate(21.000000, 77.000000)" id="Wave">
                            <g transform="translate(28.000000, 28.000000) rotate(210.000000) translate(-28.000000, -28.000000) ">
                                <path d="M14.8462135,16.6472124 C15.4428714,16.2478623 16.2502954,16.4078119 16.6496455,17.0044699 C17.0489956,17.6011278 16.889046,18.4085518 16.292388,18.8079019 C12.380372,21.4262596 9.7742635,22.4432434 5.30000252,22.4432434 C4.58203234,22.4432434 4.00000252,21.8612136 4.00000252,21.1432434 C4.00000252,20.4252733 4.58203234,19.8432434 5.30000252,19.8432434 C9.17522271,19.8432434 11.3238079,19.0047993 14.8462135,16.6472124 Z M19.9677141,13.6421264 C20.6256581,13.3547403 21.3919997,13.6551368 21.6793858,14.3130809 C21.9667719,14.971025 21.6663754,15.7373665 21.0084313,16.0247526 C20.6893391,16.1641302 20.3687724,16.3160384 20.0385007,16.4833372 C19.3980152,16.8077744 18.6157908,16.5515666 18.2913536,15.9110811 C17.9669164,15.2705956 18.2231241,14.4883712 18.8636096,14.163934 C19.2364466,13.9750738 19.6014468,13.8021098 19.9677141,13.6421264 Z M51.3000025,19.8432434 C52.0179727,19.8432434 52.6000025,20.4252733 52.6000025,21.1432434 C52.6000025,21.8612136 52.0179727,22.4432434 51.3000025,22.4432434 C46.6889401,22.4432434 44.133252,21.3939786 39.9680279,18.5407445 C39.7876686,18.4171234 39.7876686,18.4171234 39.6082523,18.2941411 C35.5927311,15.5432009 33.2495106,14.6001062 28.6998457,14.600101 C27.6756228,14.597213 26.6523092,14.6593708 25.6364639,14.7861736 C24.9240227,14.8751041 24.2743825,14.3696487 24.1854521,13.6572074 C24.0965217,12.9447661 24.6019771,12.295126 25.3144183,12.2061956 C26.4395337,12.0657531 27.5728612,11.9969129 28.7035113,12.0001062 C33.8645039,12.0001062 36.6687899,13.1287696 41.0776957,16.1492085 C41.2582089,16.2729425 41.2582089,16.2729425 41.4373788,16.3957485 C45.2096906,18.9798324 47.3126957,19.8432434 51.3000025,19.8432434 Z M51.3000025,27.1785375 C52.0179727,27.1785375 52.6000025,27.7605674 52.6000025,28.4785375 C52.6000025,29.1965077 52.0179727,29.7785375 51.3000025,29.7785375 C46.6889401,29.7785375 44.133252,28.7292728 39.9680279,25.8760386 C39.7876686,25.7524176 39.7876686,25.7524176 39.6082523,25.6294352 C35.5927311,22.878495 33.2495106,21.9354003 28.7035113,21.9354003 C23.7060464,21.9354003 21.0911629,22.9256532 17.0461383,25.6368435 C16.9335656,25.7122957 16.4826628,26.0154244 16.3694448,26.0913091 C12.3845523,28.7621957 9.8064339,29.7785375 5.30000252,29.7785375 C4.58203234,29.7785375 4.00000252,29.1965077 4.00000252,28.4785375 C4.00000252,27.7605674 4.58203234,27.1785375 5.30000252,27.1785375 C9.20292287,27.1785375 11.3264316,26.3414112 14.9218662,23.9315599 C15.0330817,23.8570174 15.4839845,23.5538887 15.5985597,23.4770944 C20.035691,20.5030933 23.1191268,19.3354003 28.7035113,19.3354003 C33.8645039,19.3354003 36.6687899,20.4640637 41.0776957,23.4845026 C41.2582089,23.6082366 41.2582089,23.6082366 41.4373788,23.7310426 C45.2096906,26.3151266 47.3126957,27.1785375 51.3000025,27.1785375 Z M36.1108639,27.9901083 C36.7769615,28.2580546 37.0997269,29.0152467 36.8317806,29.6813443 C36.5638343,30.3474418 35.8066421,30.6702072 35.1405446,30.4022609 C33.2882166,29.6571382 31.2350808,29.2706944 28.7035113,29.2706944 C23.7060464,29.2706944 21.0911629,30.2609473 17.0461383,32.9721376 C16.9335656,33.0475898 16.4826628,33.3507185 16.3694448,33.4266032 C12.3845523,36.0974898 9.8064339,37.1138317 5.30000252,37.1138317 C4.58203234,37.1138317 4.00000252,36.5318018 4.00000252,35.8138317 C4.00000252,35.0958615 4.58203234,34.5138317 5.30000252,34.5138317 C9.20292287,34.5138317 11.3264316,33.6767053 14.9218662,31.2668541 C15.0330817,31.1923115 15.4839845,30.8891829 15.5985597,30.8123885 C20.035691,27.8383874 23.1191268,26.6706944 28.7035113,26.6706944 C31.5631072,26.6706944 33.9457267,27.119154 36.1108639,27.9901083 Z M51.3000025,34.5138317 C52.0179727,34.5138317 52.6000025,35.0958615 52.6000025,35.8138317 C52.6000025,36.5318018 52.0179727,37.1138317 51.3000025,37.1138317 C46.6918735,37.1138317 44.135098,36.0649254 39.9740794,33.2155785 C39.7895267,33.0891245 39.7895267,33.0891245 39.6059555,32.963335 C39.2374187,32.7109475 38.9895025,32.5427211 38.7367063,32.374459 C38.139026,31.9766407 37.9770058,31.1696296 38.3748241,30.5719493 C38.7726424,29.9742689 39.5796535,29.8122488 40.1773338,30.2100671 C40.4417705,30.3860771 40.6978263,30.5598267 41.0750485,30.8181623 C41.2597677,30.9447384 41.2597677,30.9447384 41.4430771,31.0703406 C45.2112436,33.6506736 47.3152462,34.5138317 51.3000025,34.5138317 Z M10.0504932,41.1679671 C10.7363994,40.9558023 11.4644298,41.3398455 11.6765946,42.0257517 C11.8887594,42.7116579 11.5047162,43.4396882 10.81881,43.6518531 C9.02916057,44.2054283 7.15970239,44.474567 5.28230401,44.4490053 C4.56440038,44.4392307 3.99034838,43.8493309 4.000123,43.1314273 C4.00989761,42.4135236 4.59979738,41.8394716 5.31770102,41.8492463 C6.92295629,41.8711026 8.52119548,41.6410103 10.0504932,41.1679671 Z M51.3000025,41.8491258 C52.0179727,41.8491258 52.6000025,42.4311556 52.6000025,43.1491258 C52.6000025,43.867096 52.0179727,44.4491258 51.3000025,44.4491258 C46.6889401,44.4491258 44.133252,43.399861 39.9680279,40.5466269 C39.7876686,40.4230058 39.7876686,40.4230058 39.6082523,40.3000235 C35.5927311,37.5490833 33.2495106,36.6059885 28.7035113,36.6059885 C23.7046238,36.6059885 21.0911731,37.595681 17.0468446,40.3067333 C16.9346866,40.3819168 16.4862319,40.6834292 16.3738309,40.7587763 C15.8658866,41.0992724 15.4986215,41.3404536 15.1248899,41.5761586 C14.5176076,41.9591591 13.7148248,41.7773429 13.3318242,41.1700606 C12.9488237,40.5627784 13.1306399,39.7599955 13.7379222,39.376995 C14.0871616,39.1567368 14.4365397,38.9273019 14.9261206,38.5991155 C15.0365398,38.5250969 15.4850016,38.2235796 15.599145,38.1470654 C20.0356137,35.1731479 23.1176959,34.0059885 28.7035113,34.0059885 C33.8645039,34.0059885 36.6687899,35.134652 41.0776957,38.1550908 C41.2582089,38.2788249 41.2582089,38.2788249 41.4373788,38.4016309 C45.2096906,40.9857148 47.3126957,41.8491258 51.3000025,41.8491258 Z" id="Waves" fill="#85C9AF"></path>
                            </g>
                        </g>
                    </g>
                    <g mask="url(#mask-2)" fill-rule="nonzero" id="RhombusDouble">
                        <g transform="translate(21.000000, 372.000000)">
                            <g transform="translate(28.000000, 28.248711) rotate(30.000000) translate(-28.000000, -28.248711) translate(0.000000, 0.248711)">
                                <path d="M33.8047612,42.0267612 C34.3124428,41.5190796 35.1355572,41.5190796 35.6432388,42.0267612 C36.1509204,42.5344428 36.1509204,43.3575572 35.6432388,43.8652388 L34.5772388,44.9312388 C34.0695572,45.4389204 33.2464428,45.4389204 32.7387612,44.9312388 C32.2310796,44.4235572 32.2310796,43.6004428 32.7387612,43.0927612 L33.8047612,42.0267612 Z M25.2055115,9.59096608 C24.6979805,10.0987982 23.8748661,10.0990424 23.3670339,9.59151147 C22.8592018,9.08398051 22.8589576,8.26086607 23.3664885,7.75303392 L26.7364885,4.38103392 C27.2441099,3.87311129 28.067403,3.87297076 28.5751977,4.38072007 L50.9331977,26.7367201 C51.440918,27.244395 51.4409365,28.0675412 50.9332388,28.5752388 L39.3212388,40.1872388 C38.8135572,40.6949204 37.9904428,40.6949204 37.4827612,40.1872388 C36.9750796,39.6795572 36.9750796,38.8564428 37.4827612,38.3487612 L48.1754813,27.6560411 L27.6563138,7.13870922 L25.2055115,9.59096608 Z M29.9427612,45.8887612 C30.4504428,45.3810796 31.2735572,45.3810796 31.7812388,45.8887612 C32.2889204,46.3964428 32.2889204,47.2195572 31.7812388,47.7272388 L28.5752388,50.9332388 C28.0675412,51.4409365 27.244395,51.440918 26.7367201,50.9331977 L4.38072007,28.5751977 C3.87305289,28.0674851 3.87309923,27.2443542 4.38082357,26.7366988 L19.1168236,12.0026988 C19.6245396,11.4950517 20.4476541,11.4951075 20.9553012,12.0028236 C21.4629483,12.5105396 21.4628925,13.3336541 20.9551764,13.8413012 L7.1384989,27.6561035 L27.6560411,48.1754813 L29.9427612,45.8887612 Z M18.6352388,29.0547612 C19.1429204,29.5624428 19.1429204,30.3855572 18.6352388,30.8932388 C18.1275572,31.4009204 17.3044428,31.4009204 16.7967612,30.8932388 L14.4787612,28.5752388 C13.9710796,28.0675572 13.9710796,27.2444428 14.4787612,26.7367612 L26.7367612,14.4787612 C27.2444428,13.9710796 28.0675572,13.9710796 28.5752388,14.4787612 L34.0932388,19.9967612 C34.6009204,20.5044428 34.6009204,21.3275572 34.0932388,21.8352388 C33.5855572,22.3429204 32.7624428,22.3429204 32.2547612,21.8352388 L27.656,17.2364776 L17.2364776,27.656 L18.6352388,29.0547612 Z M38.9946862,26.7368362 C39.5023264,26.2291132 40.3254408,26.229046 40.8331638,26.7366862 C41.3408868,27.2443264 41.340954,28.0674408 40.8333138,28.5751638 L28.5753138,40.8351638 C28.0675886,41.3429719 27.244306,41.3429415 26.7366183,40.8350959 L20.3046183,34.4010959 C19.7970156,33.8933354 19.7971436,33.070221 20.3049041,32.5626183 C20.8126646,32.0550156 21.635779,32.0551436 22.1433817,32.5629041 L27.6560679,38.0773045 L38.9946862,26.7368362 Z M35.1227612,24.7032388 C34.6150796,24.1955572 34.6150796,23.3724428 35.1227612,22.8647612 C35.6304428,22.3570796 36.4535572,22.3570796 36.9612388,22.8647612 L38.2272388,24.1307612 C38.7349204,24.6384428 38.7349204,25.4615572 38.2272388,25.9692388 C37.7195572,26.4769204 36.8964428,26.4769204 36.3887612,25.9692388 L35.1227612,24.7032388 Z" fill="#85C9AF"></path>
                            </g>
                        </g>
                    </g>
                </g>
            </g>
        </g>
    </g>
</svg>
