<svg width="48" height="79" viewBox="-5 0 48 82" fill="none" xmlns="http://www.w3.org/2000/svg">
<path d="M23.3795 12.9329C22.6931 12.9328 22.0545 13.1237 21.5105 13.4554C21.3058 13.5802 21.0495 13.5848 20.8405 13.4673C20.6315 13.3498 20.5027 13.1287 20.5027 12.8889V8.57575C20.5027 7.91204 19.9448 7.37823 19.281 7.37823H13.9971C13.7625 7.37823 13.5453 7.25418 13.426 7.05215C13.3067 6.85006 13.3029 6.59985 13.4165 6.39451C13.7046 5.87417 13.8685 5.27447 13.8685 4.63847C13.8685 2.63895 12.2475 1.01685 10.2474 1.01685C8.24794 1.01685 6.62721 2.6395 6.62721 4.63907C6.62721 5.27497 6.79111 5.87439 7.07901 6.39456C7.19275 6.60002 7.18933 6.85028 7.07002 7.05253C6.95065 7.25478 6.73328 7.37823 6.49852 7.37823H1.21484C0.550856 7.37823 5.51849e-05 7.91204 5.51849e-05 8.57575V12.7829C5.51849e-05 13.0164 0.122897 13.2326 0.323384 13.3523C0.523871 13.4719 0.772755 13.4775 0.978098 13.3665C1.4895 13.0899 2.07495 12.9328 2.69716 12.933C4.69701 12.9327 6.31796 14.5542 6.31796 16.5538C6.31796 18.5536 4.69701 20.1748 2.69716 20.1742C2.0749 20.1742 1.48944 20.0171 0.978043 19.7407C0.772479 19.6295 0.52365 19.6347 0.322942 19.7544C0.12229 19.8743 0 20.0907 0 20.3243V24.781C0 25.4451 0.550746 25.9832 1.21479 25.9832H19.281C19.9447 25.9832 20.5027 25.4451 20.5027 24.781V20.2183C20.5027 19.9787 20.632 19.7577 20.8408 19.6402C21.0496 19.5228 21.3058 19.5269 21.5105 19.6516C22.0544 19.9834 22.6932 20.1742 23.3794 20.1742C25.3793 20.1748 26.9999 18.5536 26.9999 16.5538C27 14.5542 25.3793 12.9327 23.3795 12.9329Z" stroke="#6C757D" stroke-width="2" />
<path d="M29.8477 20.0239C29.3086 20.1438 28.9688 20.6781 29.0887 21.2172L31.0436 30.0023C31.1635 30.5414 31.6978 30.8812 32.2369 30.7613C32.776 30.6413 33.1158 30.107 32.9958 29.5679L31.2582 21.7589L39.0672 20.0213C39.6063 19.9014 39.9461 19.3671 39.8261 18.828C39.7062 18.2889 39.1719 17.9491 38.6328 18.0691L29.8477 20.0239ZM14 73.2108C14.5534 74.0437 14.5536 74.0436 14.5539 74.0434C14.5542 74.0432 14.5545 74.043 14.555 74.0427C14.5559 74.0421 14.5571 74.0413 14.5587 74.0402C14.5619 74.0381 14.5665 74.035 14.5725 74.031C14.5845 74.023 14.6021 74.0112 14.6251 73.9957C14.6712 73.9648 14.7388 73.9192 14.8269 73.8593C15.003 73.7397 15.2605 73.5633 15.5889 73.3345C16.2458 72.8769 17.1867 72.2094 18.3275 71.367C20.6081 69.683 23.6927 67.2959 26.906 64.4849C30.1169 61.676 33.4718 58.4303 36.2837 55.0282C39.0861 51.6376 41.401 48.0304 42.458 44.4975L41.5 44.2108L40.542 43.9242C39.5958 47.0864 37.4716 50.4518 34.7421 53.7541C32.0222 57.0448 28.7525 60.2123 25.5892 62.9796C22.4283 65.7447 19.3891 68.0969 17.1395 69.7581C16.0151 70.5884 15.0893 71.2451 14.4457 71.6934C14.1239 71.9176 13.8728 72.0896 13.7028 72.2051C13.6178 72.2629 13.553 72.3066 13.5099 72.3355C13.4883 72.35 13.4722 72.3608 13.4616 72.3679C13.4563 72.3715 13.4523 72.3741 13.4498 72.3757C13.4486 72.3766 13.4477 72.3772 13.4472 72.3775C13.4469 72.3777 13.4467 72.3778 13.4466 72.3779C13.4466 72.3779 13.4466 72.3779 14 73.2108ZM41.5 44.2108L42.458 44.4975C44.5985 37.3436 41.5144 31.1977 38.0605 26.9529C36.3261 24.8214 34.4681 23.128 33.0471 21.9688C32.3354 21.3882 31.73 20.9389 31.3001 20.6332C31.085 20.4802 30.9135 20.363 30.7943 20.2831C30.7347 20.2431 30.6881 20.2124 30.6556 20.1912C30.6394 20.1806 30.6266 20.1723 30.6176 20.1665C30.6131 20.1636 30.6094 20.1613 30.6068 20.1595C30.6054 20.1587 30.6043 20.158 30.6034 20.1574C30.603 20.1571 30.6025 20.1568 30.6023 20.1567C30.6019 20.1564 30.6015 20.1562 30.0649 21C29.5282 21.8438 29.528 21.8437 29.5278 21.8435C29.5278 21.8436 29.5277 21.8435 29.5277 21.8435C29.5278 21.8435 29.5281 21.8437 29.5286 21.8441C29.5296 21.8447 29.5316 21.846 29.5345 21.8478C29.5402 21.8516 29.5496 21.8576 29.5625 21.866C29.5882 21.8828 29.6278 21.9089 29.6803 21.9441C29.7853 22.0145 29.9417 22.1213 30.141 22.2631C30.5399 22.5467 31.1096 22.9693 31.7829 23.5185C33.132 24.6191 34.8839 26.2178 36.5092 28.2151C39.7744 32.2281 42.4079 37.6877 40.542 43.9242L41.5 44.2108Z" fill="#6C757D"/>
</svg>
