<svg width="56" height="56" viewBox="0 0 56 56" fill="none" xmlns="http://www.w3.org/2000/svg">
<rect width="56" height="56" fill="white"/>
<path d="M11.4547 34.6387C10.0234 33.1582 10.5169 30.6412 10.6158 28.8151C10.7144 26.5449 10.8132 24.2747 10.9612 22.0044C11.1093 19.8329 10.9612 17.0692 11.7508 14.9964C12.7378 12.282 16.6861 12.8248 19.1043 12.6769C22.8551 12.4794 26.6553 12.3808 30.4061 12.4301C32.3309 12.4794 34.2557 12.5287 36.1804 12.6275C38.1052 12.7262 41.4118 12.3315 43.0898 13.4664C44.7185 14.5521 44.8171 17.0693 44.9157 18.7965C45.0639 21.116 45.1132 23.4851 45.1132 25.8046C45.1132 27.9762 45.0639 30.197 44.9157 32.3685C44.669 35.2311 42.152 35.5765 39.783 35.5765C37.5129 35.5765 33.4659 34.4908 31.8373 36.4649C30.9488 37.5506 30.3567 38.9818 29.6164 40.1664C29.3203 40.6106 29.0242 41.3509 28.58 41.7456C27.1981 42.9301 26.5566 41.8937 25.8163 40.9066C24.2371 38.8832 23.1512 35.2804 20.3382 35.2804C17.5744 35.2804 13.6262 36.1194 11.2079 34.392C9.92477 33.4543 8.69095 35.6258 9.97408 36.5143C13.0339 38.6858 17.7718 37.6988 21.2759 37.7481C20.9305 37.5506 20.5849 37.3532 20.1902 37.1559C21.9175 39.5249 23.6942 43.8185 26.5567 44.9537C29.5672 46.1382 31.3932 41.9925 32.5777 40.0184C32.8738 39.5249 33.318 38.291 33.7622 37.9456C34.0583 37.7482 35.4896 37.9456 36.0324 37.9456C37.9572 37.995 39.882 38.1924 41.7573 37.9456C43.4354 37.7482 45.212 37.4521 46.2978 36.0208C47.433 34.491 47.3341 32.3194 47.3834 30.4933C47.5809 25.7555 47.877 20.6722 47.038 15.9836C46.3471 12.1836 43.9287 10.6536 40.2274 10.4068C35.6376 10.0614 30.9984 9.96257 26.4086 10.0119C24.0891 10.0612 21.7695 10.1105 19.4992 10.2093C17.3277 10.308 14.9094 10.2093 12.8366 10.7522C8.1481 12.0353 8.69098 18.698 8.44422 22.4981C8.24677 25.4593 8 28.4205 8 31.3816C8 33.2571 8.3454 34.9844 9.67803 36.3662C10.8132 37.5011 12.5406 35.7738 11.4549 34.6387H11.4547Z" fill="#E30048"/>
<path d="M22.6084 25.755C24.385 24.8666 26.063 23.8302 27.6423 22.6952C27.0502 22.251 26.4578 21.7575 25.8164 21.3133C24.9279 24.3238 22.8059 29.7033 25.3721 32.4177C28.0372 35.2802 31.6399 32.5658 33.5153 30.2954C34.5024 29.0616 32.7751 27.3342 31.788 28.5681C31.1959 29.259 30.6035 30.0486 29.8632 30.5915C28.0865 31.8253 26.6553 30.4434 26.8034 28.4692C27.0009 26.2977 27.6423 24.0768 28.2347 22.004C28.5308 21.017 27.2969 19.9806 26.4087 20.6221C24.78 21.7573 23.1022 22.7936 21.3747 23.6819C19.9433 24.373 21.1771 26.4952 22.6084 25.7549L22.6084 25.755Z" fill="#E30048"/>
<path d="M28.0862 18.846C30.4552 18.846 30.4552 15.1445 28.0862 15.1445C25.7174 15.1445 25.7174 18.846 28.0862 18.846Z" fill="#E30048"/>
</svg>
