<svg xmlns="http://www.w3.org/2000/svg" xmlns:xlink="http://www.w3.org/1999/xlink"
    viewBox="0 0 290 300">
    <defs>
        <path id="a"
            d="M93.8 8.8c23 16.6 24.8 53.2 4.2 81.7-20.7 28.5-56.1 38.2-79 21.6-23-16.6-25-53.2-4.3-81.7s56.1-38.1 79-21.6z" />
        <path id="c"
            d="M228.7 63.3a82.5 82.5 0 0 0 2.8-3.6 89 89 0 0 0 2.4-3.6c6-9.4 10-17.6 12.3-24.6a48.4 48.4 0 0 0 1.9-8v-.4c0-4.3 1.2-8.5 3.5-12.2 6.9-10.6 19-14.1 29-7.7 10 6.4 11.1 18.1 4.1 29a22 22 0 0 1-11.1 9c-5 2.6-13.2 11.4-22.6 26a99.4 99.4 0 0 0-4.6 8 142.7 142.7 0 1 1-228.3 89.4A25961170.5 25961170.5 0 0 1 .3 121.4a3.6 3.6 0 0 1 .2-3.3 3.6 3.6 0 0 1 2.8-1.7 649444.5 649444.5 0 0 1 29.4-2.5l4.2-.4a142.4 142.4 0 0 1 191.8-50.3z" />
    </defs>
    <g fill="none" fill-rule="evenodd">
        <g transform="translate(2 2.5)">
            <circle cx="142.5" cy="148.6" r="141.5" fill="#A5D6C2" stroke="#004D01"
                stroke-opacity=".1" stroke-width="2" />
            <path fill="#E3EFEF"
                d="M202.2 50 121.9 0 54.4 60.3l5.4 77a22.1 22.1 0 0 0 23.6 20.5l104-7.3c12-.8 21-11.2 20.2-23.2L202.2 50z" />
            <path fill="#FFF" d="M189 5.6 66.6 13.2l6.8 109.9 122.3-7.7z" />
            <path fill="#E3EFEF"
                d="M165.3 6.7s1.9 4.7 0 12.6c-1.8 7.8-6.4 14.3-6.4 14.3l31.2 5.4-.7-33.7-24 1.4z" />
            <path fill="#BACFCF" d="m181.1 15.5-106.6 6 .3 5.5 106.6-6z" />
            <path fill="#E3EFEF" d="m69 54 50.2 26.7-3.4 13.6-45.4-25.6z" />
            <path fill="#BACFCF"
                d="m183 49.8-106.5 6 .3 5.5 106.6-6zm-30.9-21.1-76.7 4.2.3 5.6 76.7-4.3zm2 34.2-76.8 4.3.3 5.5 76.8-4.2z" />
            <path fill="#D3D3D3" d="M163.2 40 76 44.7l.3 5.5 87.3-4.8z" />
            <path fill="#BACFCF"
                d="M163.2 40 76 44.7l.3 5.5 87.3-4.8zm2 34.2L77.7 79l.3 5.6 87.4-4.9z" />
            <path fill="#FFF" d="m200.6 42-71.1-12.6-13.7 77.3 71.2 12.6z" />
            <path fill="#E3EFEF" d="m118.9 88.1 12 7.2 69.7-46.2-68.8 55.6-14.3-9.8z" />
            <path stroke="#B9C0C7" stroke-linecap="round" stroke-linejoin="round" stroke-width="1.4"
                d="m139.2 8.7-72.5 4.5 6.8 109.9 122.3-7.7-6.5-92.4" />
            <path fill="#E3EFEF"
                d="M176.1 36.8s2.1 4.6 0 13.4c-2 8.8-14.2 30.5-14.2 30.5l37.3-30.5V41l-23-4z" />
            <path fill="#FF004F" d="m194.3 46.2-60-10.6-12.6 71.8 60 10.5z" />
            <path fill="#B9C0C7"
                d="M129.7 28 201 40.5l.2.1h.2l.2.2.2.2.1.1.1.2v.2l.1.2v.5l-13.6 77.3v.2l-.2.2v.2l-.2.2-.2.1-.2.1-.2.1H186.8l-71.2-12.5h-.2l-.2-.1-.2-.1-.2-.2-.1-.2-.1-.2-.1-.2V106.5L128 29V29l.2-.2v-.2l.2-.1.2-.2h.2l.2-.2H129.7zm-13.9 78.7 71.2 12.6 13.6-77.4-71.1-12.5-13.7 77.3z" />
            <path fill="#DE0046"
                d="m194.3 46.2-1.7 9.4-30.7 25.1S174 59 176 50.2c.7-2.8 1-5.1 1-7l17.2 3z" />
            <path fill="#DE0046"
                d="M129.3 64.2c3.5 5 9.6 12.8 14.5 12.6 5.7-.3 12.7-16.1 21.1-15 5.7.9 13 16.5 16.6 22.7l7-5.2-43 32.3-21.6-3.8-2-1.8 7.4-41.8z" />
            <path fill="#FFF"
                d="m202.2 50-70.4 55.3-77.4-45 6.7 96.3a2.7 2.7 0 0 0 3 2.5c18.3-1.3 123.9-8.6 142.3-10a2.7 2.7 0 0 0 2.5-2.8L202.2 50z" />
            <path fill="#E3EFEF"
                d="M79.9 90.4s2.4 5 0 13 1.2 12.7 0 21.6c-1.2 8.9-8.2 30.7-8.2 30.7h-9.2l-2.3-16.1 14-40.3 5.7-8.9z" />
            <path fill="#DE0046" d="M147.2 45a8.6 8.6 0 1 1 0 17.1 8.6 8.6 0 0 1 0-17.2z" />
            <path fill="#E3EFEF"
                d="m61.4 154.8 108.9-9.3s12.5-10.2 13.3-40.8c.8-30.7-4-37.2-4-37.2l22.7-18.3 6.6 96.3c0 2-1.4 3.7-3.3 3.8L65.1 159a3.5 3.5 0 0 1-2.6-.9 3.5 3.5 0 0 1-1.1-2.6v-.7z" />
            <path fill="#B9C0C7"
                d="m202.4 48.6.2.1.3.1.2.2.2.2.1.2.1.3v.2l6.8 96.3V147.5l-.1.1v.2l-.1.1v.2h-.1v.2h-.1v.2l-.1.1v.1h-.1v.2h-.2v.2h-.1l-.1.2-.1.1h-.1v.2h-.2v.1l-.2.1-.1.1h-.1l-.1.1-.2.1-.1.1h-.1l-.1.1h-.1l-.1.1h-.2l-.1.1H207.1l-.1.1h-.5L64 160.6h-1l-.2-.1h-.2l-.2-.1h-.2v-.1H62v-.1h-.2l-.1-.1-.2-.1v-.1h-.1l-.1-.1h-.1v-.1l-.1-.1H61l-.1-.1v-.1h-.1l-.1-.1v-.1l-.1-.1-.2-.2v-.1l-.1-.1-.1-.2-.1-.1v-.1l-.1-.1v-.2l-.1-.1v-.2l-.1-.1V157.2l-.1-.1v-.4L53 60.4V60l.2-.3.2-.2.2-.2.2-.1.3-.1h.8l.2.1 76.5 44.5 69.7-54.7.3-.1.2-.1h.6zm-70.6 56.7-77.4-45 6.7 96.3V157h.1v.4h.1v.2h.1v.2h.1v.2h.1v.1h.1v.1l.1.1.1.1.1.1h.1v.1h.1v.1h.1l.1.1h.1l.1.1h.1v.1H63l.1.1h.4v.1H64.2l142.3-10h.7v-.1h.2l.1-.1h.1l.1-.1h.1v-.1h.1l.1-.1.1-.1.1-.1.1-.1v-.1h.1v-.1h.1v-.1l.1-.1v-.1h.1v-.2h.1V147.2h.1v-.4l.1-.1v-.5L202.2 50l-70.4 55.3z" />
            <path fill="#EED8B3"
                d="M161.5 289.8a143.8 143.8 0 0 1-55.5-3.5c-.1-2.6 0-10.6 2.9-32.4 1.8-14.2 3.9-42.4 3.9-42.4s-8.3-13.5-9.2-29c-.8-15.7 0-26.7 0-26.7l41.6-2.6s-7.9-28.3 5.8-34.2c11.2-4.9 5.9 10.5 13.6 25.5 3.1 6 6.9 19.4 6.2 30-.8 14.3-3.6 28.7-16 38.4-1.8 1.4 4.2 55.2 6.7 77z" />
            <path fill="#D7F5E9" d="m240 152.6 18 16 25.1-34.9-21.1-13.2z" />
            <path fill="#D7F5E9"
                d="M284.3 134a144.2 144.2 0 0 1-7 61 98 98 0 0 1-19.7-27l24.8-35 1.9 1z" />
            <path fill="#CFBF9B"
                d="M113.8 155.9s-1.7 11 4.7 16.4c6.4 5.4 14.4 6.3 14.4 6.3s4.8-4 8.1-11c.8-1.6 1.9-5.5 2.3-7 2.6-8.6 1.3-6.8 1.3-6.8l-30.8 2z" />
            <path fill="#EEE3CF"
                d="M36.1 243.4a142.6 142.6 0 0 1-25.2-40c5-14.5 14.5-35 16.9-44.2 3.5-13.7 6.2-21.9 5-37.7-1.5-21.5 23-41.9 23-41.9l1.4 24c7.1.9 4.4-19.4 19-18.3 9.2.7-4.7 11.5-5.4 32.8-.3 11-7.4 29.5-15 35.3-7.6 5.7-6.8 32.2-10.6 54.5-2.7 15.6-6.4 27.9-9 35.5z" />
            <path stroke="#BDB391" stroke-linejoin="round" stroke-width="1.4"
                d="M145.2 152.8s-1.9 10.3-3.3 15" />
            <path fill="#CFBF9B"
                d="M161.3 289.9a143.8 143.8 0 0 1-31.3.6c.8-2.3 2.4-8.3 3.3-22 1.2-19.5 1.4-55.4-4-57.4s22.5-14.2 29-21.8c6.4-7.5 8.9-30.2 6.5-36-2.4-6-8.5-14-9.8-19.2-1.2-5.2 3.2-13.6 3.2-13.6l4 19.4a67.2 67.2 0 0 1 8.7 38.7c-1.1 25.4-15.9 34.8-15.9 34.8s.2-6.1 0 5.6c0 9.1 4.3 52 6.3 70.9z" />
            <path fill="#D9CCB6"
                d="M19.2 183.4s15.3 18.1 16.4 11.4c1-6.7 5.7-45.5 9.1-48.4 3.5-3 16.2-7.2 21.5-26C71.4 101.9 79.4 89 79.4 89s-7 18.4-8.7 31.5a54.8 54.8 0 0 1-13.5 31.3c-8.3 10.1-8.6 35.2-12.5 52C41 220.9 43 221 43 221l-23.8-37.5z" />
            <path stroke="#BABA97" stroke-linejoin="round" stroke-width="1.4"
                d="M45.2 207.9c3.8-22.3 3-48.8 10.6-54.5 7.6-5.8 14.7-24.3 15-35.3.7-21.3 14.6-32 5.5-32.8-14.7-1-12 19.2-19 18.3l-1.5-24" />
            <path fill="#D9CCB6" d="M55.7 89s-13.7 15-6.4 15.6c7.3.6 7.4-1 7.4-1l-1-14.6z" />
            <path fill="#D7F5E9"
                d="M43 250.5a142.7 142.7 0 0 1-33.7-51.2l5.9-20.4 5.9 7s18.8 28.6 22.4 38.8c4 11.5 3.8 16.4 3.8 16.4l-4.4 9.4z" />
            <path stroke="#BDB391" stroke-linejoin="round" stroke-width="1.4"
                d="M108.9 254c1.8-14.3 3.9-42.5 3.9-42.5s-8.3-13.5-9.2-29c-.8-15.7 0-26.7 0-26.7l41.6-2.6s-7.9-28.3 5.8-34.2c11.2-4.9 5.9 10.5 13.6 25.5 3.1 6 6.9 19.4 6.2 30" />
            <path fill="#BAE0D1"
                d="M42.4 250a143.3 143.3 0 0 1-14.8-17.2l1.7-3.5c4-8.4 6.6-18.1 6.6-18.1s3.3 4.2 6.7 12.9a70.5 70.5 0 0 1 4.2 16.2l-4.4 9.7z" />
            <path fill="#A18C76"
                d="M172.3 87.6c-13.1 5 4.2 13.9 13.8 26.1 10.6 13.4 11.3 23 27.2 28.4 20.8 7 29 6.4 29 6.4l19.7-25.7s-11.3-5.5-21.8-27c-6.3-12.7-35.7-12.7-35.7-12.7l1.4 17.2c-.3.3-8.3.7-15-4.5-7.4-5.7-10.3-11.5-18.6-8.2z" />
            <path fill="#A7CFBF" fill-rule="nonzero"
                d="M43.5 251a143.4 143.4 0 0 1-1.1-1l4.2-9a78.1 78.1 0 0 0-3.8-16c-1.2-3.7-4.5-9.7-9.1-17.7a415.3 415.3 0 0 0-1.7-2.8c-2.6-4.2-5.2-8.5-8-12.7a627.9 627.9 0 0 0-2.5-4 429.6 429.6 0 0 0-1-1.6l-5-5.8-5.8 20a141.5 141.5 0 0 1-.8-2.2l5.6-19.5c.2-.5.9-.6 1.2-.2l6 6.9a339.2 339.2 0 0 1 1 1.6 629.3 629.3 0 0 1 2.6 4 593 593 0 0 1 9.6 15.6c4.7 8 8 14.2 9.2 17.8a79.5 79.5 0 0 1 3.8 15.3V241.1a.7.7 0 0 1 0 .3l-4.4 9.6z" />
            <path fill="#BAE0D1" d="m244.8 146.5 16.6 15.8 20.8-30.5-20.8-12.5z" />
            <path fill="#BAE0D1"
                d="M284.3 134.8a144.2 144.2 0 0 1-5.8 56.4l-6.5-8.3c-6.8-8.5-9.4-22.5-9.4-22.5l19.4-26.7 2.3 1.1z" />
            <path fill="#7D6D5B"
                d="M178.6 87.2s12.2 11.6 15.5 17.3c3.3 5.6 10.7.7 18.6 0 8-.8 10 0 10 0s-3-6.6-10-8c-6.9-1.5 0-9.3 0-9.3s3-1.1 10 0c5.7 1 8.9 2 8.9 2 2.8-.2-14.7-5.3-26.2-5l1 16.3s-6.5 1.5-16.7-6.2c-10.2-7.6-11-7.1-11-7.1z" />
            <path fill="#80715D"
                d="M232 89.2s7.2 11.1 6.8 18.4c-.4 7.3-1.7 32.5-16 29.6-14-3-27.2-11-27.2-11s1.4 10.7 21 16.2c19.7 5.6 26.8 5.1 26.8 5.1l17.4-25.4s-12-8-17.4-19.4C237.9 91.3 232 89.2 232 89.2z" />
            <path stroke="#617A70" stroke-linecap="round" stroke-linejoin="round" stroke-width="2.1"
                d="m155.8 236.3.8 8.5m.8 7.3 1 10.6" />
            <path fill="#617A70" fill-rule="nonzero"
                d="m108.7 287 11.8 2.4a141.8 141.8 0 0 1-11.8-2.3zm51.7 3a3580.2 3580.2 0 0 1-2.1-19.4 1 1 0 0 1 2-.3 3577.6 3577.6 0 0 0 2.2 19.4c-.7 0-1.4.2-2 .3zm-55.5-4c-.1-4.4.6-14.4 3-32.2a326.4 326.4 0 0 0 1.7-17.1 1513 1513 0 0 0 2-23 1209.5 1209.5 0 0 0 .1-2 39 39 0 0 1-.2-.3 57.7 57.7 0 0 1-4.3-9 64 64 0 0 1-4.6-20c-.5-8.6-.5-16-.2-21.7a93.7 93.7 0 0 1 .1-2.1v-.8l.1-.2v-.1l-38.5 2.7c-2 .1-3.9-1.5-4-3.6l-.4-5.6a20 20 0 0 1-3.2 3.2c-3.9 3-5.5 10.5-7.4 29.9l-.3 3a1303.3 1303.3 0 0 1-1 9.2c-.5 4.4-1 8.2-1.6 11.7a233.9 233.9 0 0 1-2.8 13.8l1 2.5a79.8 79.8 0 0 1 3.9 15.4v1.4a1 1 0 0 1 0 .4l-4.7 9.7a143.4 143.4 0 0 1-1.6-1.6l4.2-8.8a77.8 77.8 0 0 0-4.8-18.5 1 1 0 0 1 0-.6 231.7 231.7 0 0 0 2.7-14 212.4 212.4 0 0 0 2.6-20.8l.3-3c2-20.3 3.6-28 8.2-31.4 1.5-1 3-2.8 4.5-5a1 1 0 0 1 1.9.6l.6 8.4c0 1 .9 1.6 1.8 1.6l40-2.8a1 1 0 0 1 1 1.3l-.3 1.5a42.2 42.2 0 0 0 0 .6 91.6 91.6 0 0 0-.2 2.1c-.3 5.7-.3 13 .2 21.6a62 62 0 0 0 8.6 28l.4.6a1 1 0 0 1 .1.6 1213 1213 0 0 1-.1 2.2 1752.3 1752.3 0 0 1-3.8 40.3c-1.4 11-2.3 19.2-2.7 25-.2 3.8-.3 6.1-.2 7.5a141.4 141.4 0 0 1-2.1-.5zM8.8 198l5.4-19.2a1 1 0 0 1 1.8-.4l2.5 2.9a193 193 0 0 0 8.3-22.3l2-8a75.1 75.1 0 0 0 3.1-27 1 1 0 0 1 2.1 0 77.2 77.2 0 0 1-3.1 27.6l-2.1 8c-1.2 4.5-3 9.3-9 24a1 1 0 0 1-1.8.3l-2.3-2.7-5.7 20a141.5 141.5 0 0 1-1.2-3.2z" />
            <path stroke="#617A70" stroke-linecap="round" stroke-linejoin="round" stroke-width="2.1"
                d="M32.8 118a32.4 32.4 0 0 1 1.7-9m1.6-4.2c.7-1.6 1.5-3.3 2.4-4.8m3-4.7C47.6 86 55 79.6 55 79.6h.7l-1.4-19.3L68.2 48 66 12.5l45-2.8L122 0l13 8.2 17-1m9.7-.7 6.4-.4" />
            <path fill="#617A70" fill-rule="nonzero"
                d="M190.4 22h-2.2l-1-16-12.8.8a1 1 0 0 1-.2-2.1l14-.9c.5 0 1 .4 1 1l1.2 17.2z" />
            <path stroke="#706658" stroke-linejoin="round" stroke-width="1.4"
                d="M172.3 87.6c-13.1 5 4.2 13.9 13.8 26.1 10.6 13.4 11.3 23 27.2 28.4 20.8 7 29 6.4 29 6.4l18-26.4s-9.6-4.8-20.1-26.3c-6.3-12.7-35.7-12.7-35.7-12.7l1.4 17.2c-.3.3-8.3.7-15-4.5-7.4-5.7-10.3-11.5-18.6-8.2z" />
            <path stroke="#A7CFBF" stroke-linejoin="round" stroke-width="1.4"
                d="m240 152.6 18 16 25.1-34.9-21.1-13.2zm42.4-19.6-24.8 35" />
            <path fill="#617A70" fill-rule="nonzero"
                d="m189.9 14.1 1.5 24.4 9.4 1.7c.6 0 1 .6.9 1.2l-1.1 6.4 2.2 1.3a1 1 0 0 1 .4.9l.6 8 1.7 24.1a59.7 59.7 0 0 1 5.5.3c4.3.3 8.5 1 12.5 2 8.8 2 15 5.6 17.6 11a65.1 65.1 0 0 0 19.5 25.3l.5-.7a1 1 0 0 1 1.4-.3l19.8 12.3h.6l1.2.8.3 2.5-2-1a1 1 0 0 1-.7-.2L262.3 122l-.6.8a1 1 0 0 1-1.4.2 65.2 65.2 0 0 1-21-26.7c-2.3-4.7-8-8-16.3-10a77.6 77.6 0 0 0-17.7-2.1l-.5.1a1 1 0 0 1-1.3-1l-1.8-25-.5-7.7-2.4-1.4a1 1 0 0 1-.4-1l1-6.1-9.2-1.6a1 1 0 0 1-.8-1l-1.7-26.1 2.2.7zm87 182a95.4 95.4 0 0 1-19.9-26.8l-17.7-16a1 1 0 0 1-.1-1.3l1.7-2.5c-1.6 0-3.7-.3-6.5-.8a146.9 146.9 0 0 1-24.7-6.9l.3 4.4c.1 2-1.5 3.9-3.6 4l-37.5 2.6a66.8 66.8 0 0 1 3 21.8c-1.1 18.5-5.3 30.4-16.3 39v5c.1 3 .4 7.5.9 13a1 1 0 1 1-2.1.3c-1.1-13.4-1.4-19-.2-19.8 10.4-8.2 14.5-19.6 15.6-37.6.4-6.6-1-14.9-3.3-22.3a1 1 0 0 1 1-1.4l38.8-2.7c1 0 1.6-.8 1.6-1.8l-.5-6.1a1 1 0 0 1 1.5-1 144.9 144.9 0 0 0 31 8.2h2.2a1 1 0 0 1 .9.3l.3.3a1 1 0 0 1 .2 1.4l-2 3 17 15.4a1 1 0 0 1 .3.3c5.8 11.2 11 18 18.8 25.8a141.4 141.4 0 0 1-.7 2.2z" />
        </g>
    </g>
</svg>