<svg width="84" height="84" viewBox="0 0 84 84" fill="none" xmlns="http://www.w3.org/2000/svg">
<g clip-path="url(#clip0_110_96)">
<path d="M83.8328 71.0281L75.4913 57.2955L75.5415 57.1952C78.308 51.2358 77.9235 44.3152 74.5134 38.6985C71.5462 33.809 71.1618 33.1821 72.0561 27.6322C72.9588 22.0239 70.1588 20.9791 69.2812 20.7869C66.197 20.1349 62.4441 23.5618 61.2489 28.1254L60.3044 32.2794L51.7456 18.1958C51.1021 17.1343 50.0823 16.3905 48.8621 16.0896C47.6418 15.797 46.3964 15.9809 45.3516 16.6245C45.1343 16.7582 44.9253 16.9003 44.7331 17.0758L44.6579 17.1427L44.5576 17.126C43.1367 16.9003 41.6573 17.3433 40.6209 18.3212L40.4286 18.5051L40.2949 18.2794C39.9104 17.6107 39.3504 17.0424 38.6901 16.6412C37.6286 15.9976 36.3749 15.797 35.1546 16.0979C33.9343 16.3905 32.9146 17.1427 32.271 18.2042L23.7122 32.2961L22.7594 28.0919C21.5725 23.5618 17.828 20.1516 14.7355 20.8119C13.8579 20.9958 11.0579 22.049 11.9606 27.6573C12.8549 33.2155 12.4704 33.8424 9.48653 38.7654C6.08474 44.3654 5.70862 51.2609 8.47518 57.2203L8.52533 57.3206L0.167125 71.0364C-0.167204 71.5797 0.00831863 72.2902 0.551602 72.6245C0.810707 72.7833 1.12832 72.8334 1.42086 72.7582C1.72175 72.683 1.9725 72.4991 2.1313 72.24L10.7988 57.9642C11.0077 57.6215 11.0244 57.1952 10.8406 56.8442C8.07399 51.4197 8.30802 45.0925 11.4507 39.9188C14.5182 34.8704 15.2453 33.6752 14.2173 27.2728C13.8328 24.8824 14.2089 23.2693 15.1952 23.0519C16.4907 22.7845 19.4746 24.6902 20.5026 28.6269L22.074 35.5725C22.1743 36.0322 22.5504 36.3749 23.0101 36.4502C23.4698 36.5254 23.9379 36.3081 24.1803 35.9152L34.2101 19.391C34.5361 18.8561 35.0543 18.4716 35.6728 18.3212C36.2913 18.1707 36.9265 18.271 37.4615 18.597C38.5731 19.2657 38.9241 20.72 38.2555 21.84L29.8638 35.6561C29.5295 36.1994 29.705 36.9099 30.2483 37.2442C30.7665 37.5618 31.5104 37.3863 31.828 36.8597L41.7659 20.486C42.4429 19.3743 43.9056 19.0233 45.0173 19.6919C45.5522 20.0179 45.9283 20.5361 46.0788 21.1546C46.2292 21.7731 46.1289 22.4084 45.8029 22.9433L35.7313 39.5343C35.397 40.0776 35.5725 40.7881 36.1158 41.1224C36.6507 41.4484 37.3779 41.2561 37.6955 40.7379L45.5773 27.7576C45.9116 27.2143 46.4298 26.8382 47.04 26.6961C47.6501 26.5457 48.2853 26.6376 48.8203 26.9719C49.3552 27.2979 49.7397 27.8161 49.8901 28.4263C50.0406 29.0364 49.9403 29.6716 49.6143 30.2149L41.1307 44.1815C40.8047 44.7248 40.9719 45.4352 41.5152 45.7696C42.0501 46.0955 42.7773 45.9116 43.0949 45.3851L48.2853 36.8263C48.9624 35.7146 50.4167 35.3636 51.5283 36.0322C52.0632 36.3582 52.4477 36.8764 52.5898 37.4866C52.7403 38.1051 52.64 38.7403 52.3223 39.2752L40.9886 57.9391C38.0131 62.8287 36.2244 65.7707 30.357 67.4591C30.0812 67.5427 29.8388 67.7182 29.6883 67.969L21.4388 81.5427C21.28 81.8018 21.2298 82.111 21.305 82.4119C21.3803 82.7128 21.5641 82.9636 21.8316 83.1224C22.3498 83.44 23.0937 83.2645 23.4113 82.7379L31.4268 69.5487L31.502 69.5236C37.194 67.7516 39.5259 64.634 41.7743 61.0484L41.9498 60.7642L42.1253 61.0484C42.2674 61.274 42.4095 61.4913 42.5516 61.717C44.6913 65.0269 47.0734 67.8687 52.4059 69.5236L52.4812 69.5487L60.4967 82.7379C60.8143 83.2645 61.5331 83.4484 62.0764 83.1224C62.6197 82.7964 62.7952 82.0776 62.4609 81.5343L54.2113 67.9606C54.0609 67.7099 53.8268 67.5343 53.5426 67.4507C47.9761 65.8543 46.0453 63.071 43.354 58.6579L43.2871 58.5493L54.2698 40.4621C54.9134 39.4006 55.1056 38.1469 54.8047 36.9266C54.5038 35.7146 53.76 34.6949 52.6985 34.043C52.08 33.6669 51.4029 33.4496 50.6841 33.3827L50.3498 33.3576L51.545 31.3934C52.197 30.3319 52.3892 29.0782 52.0883 27.8579C51.7958 26.646 51.0435 25.6263 49.9821 24.9743C49.3552 24.5982 48.6782 24.3725 47.9677 24.3057L47.6418 24.2806L47.8006 23.9964C48.3856 22.96 48.5528 21.7564 48.2686 20.5946C48.0931 19.8758 47.7421 19.2072 47.2155 18.6137L46.9564 18.3212L47.3492 18.271C47.6501 18.2293 47.951 18.246 48.2352 18.3128C48.8537 18.4633 49.3719 18.8394 49.6979 19.3743L59.4937 35.4973L59.385 35.9737C59.3265 36.2245 59.268 36.4752 59.2095 36.726C58.1647 41.1057 57.1868 45.243 59.9534 49.7899C60.271 50.3164 60.9815 50.5003 61.5415 50.1743C61.8006 50.0155 61.9844 49.7648 62.0597 49.4639C62.1349 49.163 62.0847 48.8537 61.9259 48.5946C59.6525 44.8502 60.4549 41.5069 61.4579 37.2693L61.5498 36.8931C61.6501 36.4585 61.7588 36.0155 61.8591 35.5725L63.422 28.677C64.425 24.849 67.2835 22.751 68.7379 23.0519C69.7241 23.2609 70.1003 24.8824 69.7158 27.2728C68.6877 33.6669 69.4149 34.8705 72.5074 39.9439C75.6418 45.1009 75.8591 51.4197 73.0925 56.8358C72.9086 57.1952 72.9253 57.6131 73.1343 57.9558L81.8018 72.2316C82.1194 72.7582 82.8382 72.9421 83.3815 72.6161C83.6489 72.4573 83.8412 72.2066 83.9164 71.914C83.9916 71.6131 83.9498 71.3039 83.7826 71.0448L83.8328 71.0281Z" fill="#E41053"/>
<path d="M42.1505 9.88776C42.7857 9.88776 43.3039 9.36955 43.3039 8.73433V1.15343C43.3039 0.518209 42.7857 0 42.1505 0C41.5153 0 40.9971 0.518209 40.9971 1.15343V8.73433C40.9971 9.36955 41.5153 9.88776 42.1505 9.88776Z" fill="#E41053"/>
<path d="M25.7099 12.6794C26.1529 13.114 26.9134 13.0973 27.3397 12.6627C27.557 12.4454 27.674 12.1528 27.674 11.8436C27.674 11.5343 27.5487 11.2502 27.323 11.0328L21.9069 5.72538C21.6896 5.51643 21.4054 5.39941 21.1045 5.39941H21.0961C20.7869 5.39941 20.4943 5.52479 20.277 5.75046C19.834 6.2018 19.8424 6.93732 20.2937 7.38031L25.7099 12.6878V12.6794Z" fill="#E41053"/>
<path d="M58.5827 12.6794L63.9988 7.37195C64.2161 7.15464 64.3415 6.87046 64.3499 6.56121C64.3499 6.25195 64.2329 5.95941 64.0239 5.7421C63.8066 5.52479 63.5224 5.39941 63.2132 5.39941H63.2048C62.9039 5.39941 62.6114 5.51643 62.3941 5.72538L56.9779 11.0328C56.7606 11.2502 56.6353 11.5343 56.6353 11.8436C56.6353 12.1528 56.7439 12.4454 56.9612 12.6711C57.3959 13.114 58.1481 13.114 58.5911 12.6878L58.5827 12.6794Z" fill="#E41053"/>
</g>
<defs>
<clipPath id="clip0_110_96">
<rect width="84" height="83.2645" fill="white"/>
</clipPath>
</defs>
</svg>
