<svg width="72" height="73" viewBox="0 0 72 73" fill="none" xmlns="http://www.w3.org/2000/svg">
<path d="M7.758 52.6419C6.6327 53.7669 6.00034 55.2927 6 56.8839V63.3999C6 64.1956 6.31607 64.9586 6.87868 65.5212C7.44129 66.0838 8.20435 66.3999 9 66.3999H18C18.7956 66.3999 19.5587 66.0838 20.1213 65.5212C20.6839 64.9586 21 64.1956 21 63.3999V60.3999C21 59.6043 21.3161 58.8412 21.8787 58.2786C22.4413 57.716 23.2044 57.3999 24 57.3999H27C27.7956 57.3999 28.5587 57.0838 29.1213 56.5212C29.6839 55.9586 30 55.1956 30 54.3999V51.3999C30 50.6043 30.3161 49.8412 30.8787 49.2786C31.4413 48.716 32.2044 48.3999 33 48.3999H33.516C35.1072 48.3996 36.633 47.7672 37.758 46.6419L40.2 44.1999C44.3695 45.6524 48.9085 45.6468 53.0744 44.1842C57.2404 42.7215 60.7866 39.8884 63.1331 36.1483C65.4795 32.4082 66.4872 27.9824 65.9913 23.5951C65.4954 19.2078 63.5253 15.1187 60.4033 11.9966C57.2812 8.87456 53.1921 6.90445 48.8048 6.40856C44.4175 5.91268 39.9918 6.92038 36.2516 9.26682C32.5115 11.6133 29.6784 15.1595 28.2157 19.3255C26.7531 23.4914 26.7476 28.0304 28.2 32.1999L7.758 52.6419Z" stroke="#FF004F" stroke-width="2" stroke-linecap="round" stroke-linejoin="round"/>
<path d="M49.5 24.3999C50.3284 24.3999 51 23.7284 51 22.8999C51 22.0715 50.3284 21.3999 49.5 21.3999C48.6716 21.3999 48 22.0715 48 22.8999C48 23.7284 48.6716 24.3999 49.5 24.3999Z" fill="#FF004F" stroke="#FF004F" stroke-width="2" stroke-linecap="round" stroke-linejoin="round"/>
</svg>
