<?xml version="1.0" encoding="UTF-8"?>
<svg width="32px" height="32px" viewBox="0 0 32 32" version="1.1" xmlns="http://www.w3.org/2000/svg" xmlns:xlink="http://www.w3.org/1999/xlink">
    <!-- Generator: Sketch 53.2 (72643) - https://sketchapp.com -->
    <title>Logo Signet</title>
    <g id="Logo" stroke="none" stroke-width="1" fill="none" fill-rule="evenodd">
        <g id="Signet">
            <g id="Group-13" fill="#FF004F">
                <circle id="Oval" cx="16" cy="16" r="16"></circle>
            </g>
            <path d="M15.9954784,28.6666667 C12.6048907,28.6666667 9.42439471,27.3559042 7.03990513,24.9758354 C4.65252769,22.592959 3.33606483,19.4089452 3.33333741,16.0104283 C3.33229457,14.7035965 3.53123601,13.4130489 3.92462665,12.1738409 L3.93224739,12.1462459 C4.01936449,11.8395724 4.12621529,11.545092 4.24999216,11.2708266 C4.27189176,11.2159575 4.29724075,11.1554731 4.32275018,11.0949887 C4.4323284,10.8439063 4.86823476,9.98003838 5.9113938,9.32449668 C6.8541195,8.73208658 7.68149126,8.68066682 7.77654997,8.6765757 C8.00541284,8.64978288 8.24061295,8.63614582 8.47573285,8.63614582 C9.54600568,8.63614582 10.4914588,9.06033873 11.1377778,9.83051198 C11.6304787,10.4177079 11.8977662,11.138146 11.9187834,11.9280529 C12.5382293,11.6123147 13.2097368,11.4465843 13.8768324,11.4465843 C14.9472656,11.4465843 15.8926385,11.8707772 16.5388773,12.6410307 C16.577703,12.687156 16.6154056,12.7346451 16.6516643,12.7830166 C17.5108827,11.931422 18.6446885,11.4465843 19.79165,11.4465843 C20.8620031,11.4465843 21.807376,11.8707772 22.453695,12.6410307 C23.1101215,13.4233168 23.3665795,14.4505889 23.1755797,15.5337728 L22.5042325,19.3412411 C22.4138265,19.8541552 22.5205971,20.32319 22.804971,20.6621111 C23.0791572,20.9888391 23.5007847,21.1687682 23.9922022,21.1687682 C25.4737543,21.1687682 25.9947723,20.0895951 26.3370639,18.9233855 C26.6296201,17.890418 26.764788,16.8161382 26.7381555,15.7316707 C26.6695688,12.9392011 25.5264578,10.3157508 23.5191547,8.34463352 C21.5120923,6.37375688 18.8681767,5.27789846 16.0744133,5.25880657 L16.0000509,5.25856591 C13.8597459,5.25856591 11.7910758,5.88980154 10.0176092,7.08408749 C9.85580884,7.19310378 9.66777709,7.25062011 9.47380919,7.25062011 C9.19288464,7.25062011 8.92728178,7.12868871 8.74502575,6.91603073 L8.73981156,6.90953307 C8.56581802,6.7067419 8.48455687,6.43135343 8.52129686,6.15957476 C8.55795663,5.88819718 8.70908794,5.6448157 8.93586514,5.49183993 C11.0289216,4.07976205 13.4716496,3.33333333 16.0000509,3.33333333 C16.0839592,3.33333333 16.1682687,3.33413551 16.2525782,3.33582009 C19.5044684,3.39959342 22.5765895,4.70281544 24.9031614,7.00563426 C27.2297334,9.30845308 28.5643256,12.3670861 28.6609886,15.6179216 C28.6973275,16.8389201 28.5591114,18.0514155 28.2501104,19.2242833 L28.2519554,19.2247646 L28.2089584,19.3824732 L28.1903477,19.4451235 C28.0778817,19.842684 27.9428742,20.2424104 27.7892561,20.6317085 C27.7111235,20.8192582 27.2720886,21.7747351 26.1909863,22.4541818 C25.2557209,23.041859 24.5180332,23.0724221 24.4311568,23.073866 C24.283154,23.0872624 24.1355523,23.0940007 23.9922022,23.0940007 C22.9218491,23.0940007 21.9764762,22.6698078 21.3301572,21.8996346 C20.6736505,21.1173484 20.4172727,20.0899962 20.6081923,19.0068924 L21.2795394,15.1993439 C21.3700257,14.6865903 21.2632551,14.2173951 20.9788812,13.8783937 C20.7046949,13.5517459 20.2830675,13.3718169 19.79165,13.3718169 C18.6263987,13.3718169 17.4674044,14.3618677 17.260762,15.5337728 L16.5262028,19.5317589 C16.4802377,19.7823601 16.261723,19.9642945 16.0069497,19.9642945 L15.123024,19.9642945 C14.9658763,19.9642945 14.8180339,19.8949862 14.7174402,19.774258 C14.6167662,19.6535299 14.5753735,19.4955806 14.6037708,19.3409203 L15.3651229,15.1974989 C15.4551278,14.686109 15.348277,14.2172346 15.0640635,13.8783937 C14.7899575,13.5517459 14.3682498,13.3718169 13.8768324,13.3718169 C12.711581,13.3718169 11.5525868,14.3618677 11.3460246,15.5337728 L10.6121874,19.5316787 C10.5661421,19.7823601 10.3477878,19.9642945 10.092854,19.9642945 L9.20900852,19.9642945 C9.05186083,19.9642945 8.90409868,19.8949862 8.80350491,19.774258 C8.70283092,19.6536101 8.66135804,19.4956608 8.68975533,19.3410807 L9.45303265,15.1822575 L9.9646651,12.3831297 C10.0543492,11.8743068 9.94733794,11.4068764 9.66296399,11.0679552 C9.38877777,10.7413074 8.96715028,10.5613784 8.47573285,10.5613784 C7.26676254,10.5613784 6.48696025,11.0260814 6.02193464,12.023753 C5.46104815,13.4261245 5.20707694,14.9091151 5.26708025,16.431573 C5.37505411,19.1694944 6.53300556,21.7452149 8.52771432,23.6840845 C10.522022,25.6226333 13.1297592,26.7081436 15.8704983,26.7405517 C15.9135755,26.7411132 15.9564121,26.7413539 15.9993289,26.7413539 L16.0002113,26.7413539 C18.2664591,26.7413539 20.4351614,26.0405692 22.2718401,24.7147257 C22.4340415,24.5976876 22.6258435,24.5358395 22.8265497,24.5358395 C23.0879812,24.5358395 23.341792,24.6442943 23.5230052,24.8333682 C23.7157698,25.034555 23.8118714,25.3091413 23.7866026,25.5866956 C23.761414,25.8640093 23.6175826,26.116295 23.3920087,26.2789772 C21.2878019,27.7968626 18.8052855,28.6218248 16.2129503,28.6649019 C16.1401121,28.6660249 16.0679958,28.6666667 15.9954784,28.6666667" id="Fill-1" fill="#FFF2F6"></path>
        </g>        
    </g>
</svg>
