<svg width="56" height="56" viewBox="0 0 56 56" fill="none" xmlns="http://www.w3.org/2000/svg">
<rect width="56" height="56" fill="white"/>
<path d="M23.9893 30.8954C13.3407 30.8954 5 25.4281 5 18.4502C5 11.4686 13.3401 6 23.9893 6C34.638 6.00022 42.9804 11.4686 42.9804 18.4502C42.9804 19.285 42.3026 19.9627 41.4678 19.9627H25.5019V29.3829C25.5019 30.2177 24.8241 30.8954 23.9893 30.8954ZM23.9893 9.02503C15.3355 9.02503 8.02503 13.342 8.02503 18.4502C8.02503 23.2554 14.5008 27.3601 22.4768 27.8267V18.4502C22.4768 17.6154 23.1545 16.9377 23.9893 16.9377H39.7402C38.4723 12.5166 31.7743 9.02503 23.9893 9.02503Z" fill="#E30048"/>
<path d="M23.9893 38.1575C13.3407 38.1575 5 32.6902 5 25.7106V18.45C5 17.6152 5.67772 16.9375 6.51251 16.9375C7.34731 16.9375 8.02503 17.6152 8.02503 18.45V25.7112C8.02503 30.5183 14.5008 34.6233 22.4768 35.0893V29.3821C22.4768 28.5473 23.1545 27.8696 23.9893 27.8696C24.8241 27.8696 25.5019 28.5473 25.5019 29.3821V36.6456C25.5019 37.4804 24.8241 38.1574 23.9893 38.1574V38.1575Z" fill="#E30048"/>
<path d="M31.1972 42.7302C30.3682 42.7302 29.6928 42.0627 29.6846 41.2332C29.6765 40.3984 30.3462 39.7125 31.1816 39.7051C46.6261 39.5478 47.16 30.3191 47.1633 30.2261C47.1929 29.3913 47.8858 28.6685 48.7309 28.7727C49.5657 28.8042 50.2179 29.5075 50.1844 30.3404C50.1804 30.4627 49.5047 42.5447 31.213 42.7301H31.1974L31.1972 42.7302Z" fill="#E30048"/>
<path d="M31.1971 49.106C30.799 49.106 30.4172 48.9486 30.1336 48.669C29.8458 48.3854 29.6846 47.9974 29.6846 47.5935V30.283C29.6846 29.4482 30.3623 28.7705 31.1971 28.7705H48.6739C49.5087 28.7705 50.1864 29.4482 50.1864 30.283V36.6636C50.1803 36.843 49.5048 48.925 31.2128 49.1065C31.2073 49.1059 31.2034 49.1059 31.1972 49.1059L31.1971 49.106ZM32.7096 31.7955V46.0344C46.6628 45.3093 47.1591 36.6955 47.1631 36.6064L47.1611 31.7954L32.7096 31.7955Z" fill="#E30048"/>
<path d="M41.4676 25.9594H23.9891C23.1543 25.9594 22.4766 25.2817 22.4766 24.4469C22.4766 23.6121 23.1543 22.9344 23.9891 22.9344H39.9551V18.45C39.9551 17.6152 40.6328 16.9375 41.4676 16.9375C42.3024 16.9375 42.9801 17.6152 42.9801 18.45V24.4469C42.9801 25.2819 42.3026 25.9594 41.4676 25.9594Z" fill="#E30048"/>
</svg>
