<svg xmlns="http://www.w3.org/2000/svg" width="100" height="100" viewBox="0 0 30 30"><path d="M15.3786 27.1119c-4.69 0-8.5-3.78-8.5-8.44 0-1.64.47-3.17 1.29-4.47v-3.95c0-3.94 3.23-7.15 7.2-7.15s7.2 3.21 7.2 7.15v3.95c.82 1.3 1.3 2.83 1.3 4.48 0 4.65-3.8 8.43-8.49 8.43zm-1.35-7.99v3.38c0 .74.61 1.34 1.35 1.34.75 0 1.35-.6 1.35-1.34v-3.38c.63-.43 1.04-1.15 1.04-1.97 0-1.32-1.07-2.38-2.4-2.38-1.32 0-2.4 1.07-2.4 2.38.01.82.43 1.54 1.06 1.97zm6.29-8.87c0-2.71-2.22-4.91-4.95-4.91s-4.95 2.2-4.95 4.91v1.57c1.39-.99 3.1-1.58 4.95-1.58s3.55.59 4.94 1.58l.01-1.57z" fill-rule="evenodd"/></svg>
