<svg width="56" height="56" viewBox="0 0 56 56" fill="none" xmlns="http://www.w3.org/2000/svg">
<rect width="56" height="56" fill="white"/>
<path d="M44.4886 30.2053L39.6054 27.7637C39.0194 27.4707 38.354 27.3242 37.6949 27.3242C37.0357 27.3242 36.3704 27.4707 35.7845 27.7637L30.9013 30.2053C29.4425 30.9317 28.5391 32.3965 28.5391 34.0264V37.6888C28.5391 42.7366 32.6471 46.8446 37.6949 46.8446C42.7428 46.8446 46.8508 42.7366 46.8508 37.6888V34.0264C46.8508 32.3967 45.9474 30.9317 44.4886 30.2053ZM43.1885 37.6887C43.1885 40.7163 40.7225 43.1822 37.6949 43.1822C34.6674 43.1822 32.2014 40.7163 32.2014 37.6887V33.6479L37.6949 30.9011L43.1885 33.6479V37.6887Z" fill="#E30048"/>
<path d="M35.2591 20.8234C35.6436 21.1224 36.1258 21.2506 36.6081 21.1896C37.0965 21.1286 37.5237 20.8844 37.8227 20.4937C38.1217 20.1093 38.256 19.627 38.195 19.1448C37.493 13.578 32.7442 9.2198 27.1592 9.00616C27.0066 9.00616 26.854 9 26.7075 9C20.3106 9 15.1101 14.2005 15.1101 20.5975C15.1101 23.0879 15.934 25.566 17.4356 27.562L17.8507 28.1176L17.2465 28.4594C16.0805 29.1186 14.9269 29.8876 13.8222 30.7483C12.1742 32.0301 10.8618 33.721 10.0316 35.6315C9.34792 37.2123 9 38.8849 9 40.6062V41.3571C9 44.3846 11.466 46.8506 14.4935 46.8506H21.8182C22.8254 46.8506 23.6494 46.0266 23.6494 45.0194C23.6494 44.0122 22.8254 43.1883 21.8182 43.1883H14.4935C13.4863 43.1883 12.6624 42.3643 12.6624 41.3571V40.6062C12.6624 39.3916 12.9066 38.2074 13.3947 37.0965C13.9807 35.7475 14.9086 34.5512 16.0743 33.6477C17.9176 32.2133 19.8466 31.1024 21.812 30.3394C22.4468 30.0952 22.8923 29.5216 22.9718 28.844C23.0511 28.1665 22.7521 27.5072 22.1967 27.1227C20.0542 25.6395 18.7724 23.2041 18.7724 20.6038C18.7724 16.2273 22.3311 12.6687 26.7075 12.6687H27.0189C30.84 12.8151 34.0811 15.7999 34.5633 19.6088C34.6243 20.0972 34.8685 20.5306 35.2592 20.8296L35.2591 20.8234Z" fill="#E30048"/>
</svg>
