<svg width="56" height="56" viewBox="0 0 56 56" fill="none" xmlns="http://www.w3.org/2000/svg">
<rect width="56" height="56" fill="white"/>
<path d="M22.9164 45.462L22.9619 45.4175C23.4133 44.9756 23.4213 44.2477 22.9795 43.7958C22.9795 43.7958 22.9795 43.7958 22.9795 43.7958L16.3103 36.9822L22.9164 45.462ZM22.9164 45.462L22.9164 45.4623M22.9164 45.462L22.9164 45.4623M22.9164 45.4623L18.8553 49.4383L22.9164 45.4623ZM10.477 40.878L10.5819 40.9852C10.1304 41.427 10.1225 42.1547 10.5643 42.6067L10.477 40.878ZM10.477 40.878L10.582 40.9852L14.6892 36.9652M10.477 40.878L14.6892 36.9652M14.6892 36.9652C14.6892 36.9652 14.6892 36.9652 14.6892 36.9652M14.6892 36.9652L14.6892 36.9652M37.3354 39.2003L37.3364 39.1996L41.2116 36.0644L46.0783 30.874L46.0783 30.8733L46.1186 30.8306C46.129 30.8196 46.1359 30.8102 46.1409 30.7993C46.1457 30.7889 46.1513 30.7713 46.1513 30.7418C46.1513 30.7213 46.1465 30.6752 46.1006 30.6299C45.7107 30.2671 45.1279 30.0979 44.5634 30.205C44.3041 30.2546 43.9261 30.3857 43.6104 30.7245L43.6101 30.7248L41.1697 33.3323C41.1696 33.3324 41.1695 33.3325 41.1695 33.3326L41.1692 33.3329L41.0596 33.2304C41.0535 33.2371 41.0467 33.2426 41.0399 33.248L37.3354 39.2003ZM37.3354 39.2003C37.1272 39.3717 36.8986 39.5268 36.6382 39.6731C35.8787 40.0966 35.0204 40.3203 34.1548 40.3203H27.8236C26.4987 40.3203 25.1791 40.7383 24.077 41.5031L18.701 36.0112L21.441 33.3911L37.3354 39.2003ZM14.6892 36.9652C14.9032 36.7562 15.1867 36.6407 15.4904 36.6407C15.4882 36.6407 15.4868 36.6406 15.49 36.6408C15.4917 36.6409 15.4981 36.6412 15.505 36.6412V36.4912L15.5034 36.6412L14.6892 36.9652ZM47.7506 28.9007C47.3806 28.5563 46.952 28.2924 46.4939 28.106C47.8109 25.7813 48.5091 23.1722 48.5091 20.4528C48.5091 11.8493 41.5097 4.85 32.9063 4.85C24.3028 4.85 17.3035 11.8493 17.3035 20.4528C17.3035 24.2883 18.6978 27.9248 21.1855 30.7481C20.6754 30.9647 20.2028 31.2709 19.7915 31.6632L19.7913 31.6633L16.8167 34.5079C16.4127 34.345 15.9781 34.2568 15.5288 34.2517L15.5276 34.2517C14.5851 34.2485 13.6914 34.5987 13.0179 35.2575L13.0179 35.2576L8.91062 39.2776C7.51763 40.6412 7.49365 42.8836 8.85716 44.2769L8.85718 44.2769L15.5274 51.0902C16.1862 51.7633 17.0703 52.1397 18.0159 52.15H18.0176H18.0556C18.9866 52.15 19.8636 51.7938 20.5268 51.1442C20.5268 51.1441 20.5268 51.1441 20.5268 51.1441L24.6335 47.1241C25.6444 46.135 25.9334 44.6831 25.4958 43.4288C26.185 42.9646 27.0041 42.708 27.8238 42.708H34.1549C35.4273 42.708 36.6884 42.3793 37.8048 41.7562L37.8049 41.7562C38.1911 41.5402 38.5343 41.3065 38.8475 41.0491C38.8476 41.049 38.8478 41.0489 38.848 41.0487L42.3363 38.2262C42.48 38.1289 42.6217 38.0132 42.7666 37.878L42.7794 37.8676L42.7794 37.8676L42.7824 37.8651C42.7935 37.8555 42.8023 37.8458 42.8046 37.8433C42.8047 37.8432 42.8047 37.8431 42.8048 37.8431L42.8085 37.8396C42.8188 37.8296 42.8288 37.821 42.8431 37.8085C42.851 37.8016 42.8599 37.7938 42.8694 37.785C42.8765 37.7785 42.8838 37.7715 42.8914 37.764L42.8915 37.764L42.8948 37.7605L47.8616 32.4642C48.3 31.9969 48.5409 31.3847 48.5409 30.7407C48.5409 30.0615 48.2601 29.3991 47.7533 28.9032L47.7533 28.9032L47.7506 28.9007ZM32.9063 7.23947L32.9063 7.23935C40.192 7.2395 46.1199 13.167 46.1199 20.4532C46.1199 23.1629 45.3054 25.7422 43.7758 27.9503C43.0413 28.1543 42.3816 28.5384 41.8638 29.0946L39.5414 31.5759L37.7494 32.658C37.1898 32.1956 36.4994 31.933 35.7633 31.933H35.7618H35.7617L30.4523 31.9351L29.4541 31.2311C29.4541 31.2311 29.4541 31.2311 29.4541 31.2311C28.663 30.6694 27.7319 30.3724 26.7609 30.3724L24.1839 30.3728C21.3266 27.8663 19.6925 24.2769 19.6925 20.4533C19.6925 13.1666 25.6205 7.23947 32.9063 7.23947ZM17.2335 49.4203L10.5644 42.6067L18.8551 49.4384C18.6414 49.647 18.334 49.756 18.0389 49.7623C17.7305 49.7579 17.4456 49.6364 17.2335 49.4203ZM41.0622 33.4271C41.0786 33.4133 41.1051 33.3919 41.1285 33.3694L21.4411 33.391C21.8662 32.9854 22.425 32.7621 23.0153 32.7621H26.7606C27.2259 32.7621 27.6914 32.9107 28.0735 33.1816L28.0738 33.1818L29.0832 33.8936L29.0833 33.8936C29.4831 34.1751 29.9533 34.3242 30.4429 34.3242H30.443L35.7636 34.3222H35.7636H35.7641C35.9633 34.3222 36.1525 34.4009 36.2967 34.5451C36.4415 34.6899 36.5202 34.8791 36.5202 35.0787C36.5202 35.4957 36.181 35.8348 35.7641 35.8348L29.2284 35.8346C28.5691 35.8346 28.0339 36.3698 28.0339 37.0291C28.0339 37.6884 28.5691 38.2236 29.2284 38.2236H35.7632C37.4979 38.2236 38.9082 36.8127 38.9082 35.0786C38.9082 34.9703 38.8951 34.8631 38.8819 34.765L40.9138 33.538L40.9158 33.5368C40.9277 33.5293 40.9367 33.5219 40.9407 33.5186C40.9856 33.4898 41.0259 33.4577 41.0622 33.4271Z" fill="#E30048" stroke="#E30048" stroke-width="0.3"/>
<path d="M30.7967 26.1743L30.7968 26.1743C31.023 26.4185 31.3414 26.5571 31.6729 26.5571C31.6968 26.5571 31.7221 26.5565 31.7482 26.5547C32.1072 26.532 32.4357 26.3486 32.6446 26.0568L32.6446 26.0567L39.6542 16.2423C40.0377 15.7058 39.9134 14.9599 39.3767 14.576L39.3764 14.5758C38.8398 14.1939 38.0938 14.3166 37.7103 14.8544L31.5528 23.4749L28.0046 19.6431L28.0046 19.643C27.5563 19.1596 26.8003 19.1299 26.3169 19.5785C25.8327 20.027 25.8039 20.783 26.2523 21.2669C26.2524 21.267 26.2524 21.267 26.2524 21.267L30.7967 26.1743Z" fill="#E30048" stroke="#E30048" stroke-width="0.3"/>
</svg>
