<svg viewBox="0 0 64 64" xmlns="http://www.w3.org/2000/svg"><path d="M11.754 43.4052c.0727.1266.1467.2524.222.3774a.7758.7758 0 0 1-1.3295.7996 21.3576 21.3576 0 0 1-.2372-.4032.7758.7758 0 0 1 1.3448-.7738zM31.8605 7.1279c11.38 0 21.2912 7.7654 24.0141 18.8149 2.723 11.0495-2.4454 22.5309-12.5224 27.8185-10.077 5.2877-22.4615 3.0167-30.0067-5.5024a.7759.7759 0 1 1 1.1613-1.0292c7.9297 8.9442 21.356 10.4023 31.021 3.369 9.6649-7.0334 12.4067-20.2575 6.3348-30.5537C45.7906 9.749 32.8913 5.7487 22.0592 10.803 11.2272 15.857 6.0058 28.3121 9.9954 39.58a.7758.7758 0 0 1-1.463.5164C5.867 32.526 7.0382 24.1334 11.674 17.5818c4.6358-6.5515 12.1606-10.4484 20.1864-10.454zM60.394 24.2143c.2469.9272.831 1.864 1.4485 2.856.9232 1.4826 1.878 3.0161 1.878 4.7903 0 1.7741-.9548 3.3074-1.8782 4.7903-.6175.9916-1.2007 1.9285-1.4485 2.8555-.2628.9833-.2283 2.1204-.192 3.3243.052 1.7164.1057 3.4911-.746 4.9635-.865 1.4965-2.4431 2.3405-3.968 3.155-1.0507.5617-2.0427 1.0923-2.7447 1.7942-.702.7018-1.2317 1.694-1.7942 2.7446-.8155 1.5244-1.6585 3.102-3.1554 3.968-1.4721.8518-3.2467.798-4.963.746-1.204-.036-2.3409-.0707-3.3244.192-.9272.248-1.864.8311-2.8557 1.4488-1.4827.9232-3.0162 1.878-4.7903 1.878-1.7742 0-3.3075-.9548-4.7903-1.8782-.9916-.6175-1.9286-1.2007-2.8556-1.4485-.9833-.263-2.1205-.2283-3.3243-.192-1.7166.052-3.491.1055-4.9635-.7461-1.4964-.865-2.3405-2.443-3.155-3.968-.5617-1.0506-1.0923-2.0426-1.7941-2.7446-.702-.702-1.6941-1.2317-2.7447-1.7942-1.5243-.8155-3.102-1.6585-3.968-3.1554-.8518-1.4722-.798-3.2467-.746-4.963.0362-1.204.0707-2.3411-.192-3.3244-.248-.9272-.831-1.864-1.4488-2.8557C.9548 35.168 0 33.6347 0 31.8604c0-1.7744.9548-3.3077 1.8781-4.7905.6175-.9916 1.2007-1.9286 1.4485-2.8556.2628-.9833.2283-2.1203.192-3.3243-.052-1.7164-.1057-3.4911.7461-4.9635.865-1.4964 2.443-2.3405 3.968-3.155 1.0506-.5617 2.0426-1.0923 2.7447-1.7941.702-.702 1.2317-1.6941 1.794-2.7447.8156-1.5243 1.6587-3.102 3.1555-3.968 1.4722-.8516 3.2467-.7976 4.963-.746 1.204.0362 2.341.0707 3.3244-.192.9272-.248 1.864-.831 2.8558-1.4488C28.5527.9548 30.086 0 31.8604 0c1.7743 0 3.3076.9548 4.7905 1.8781.9916.6175 1.9285 1.2007 2.8555 1.4485.9831.2628 2.1202.2283 3.3243.192 1.7164-.052 3.491-.1055 4.9635.7461 1.4965.865 2.3405 2.443 3.155 3.968.5617 1.0506 1.0923 2.0426 1.7942 2.7447.7018.702 1.694 1.2317 2.7446 1.794 1.5244.8156 3.102 1.6587 3.968 3.1555.8518 1.4722.798 3.2467.746 4.963-.0362 1.204-.0707 2.3411.192 3.3244zm.1315 11.617v-.0004c.8452-1.3576 1.6436-2.6395 1.6436-3.9701 0-1.3307-.7982-2.6128-1.6436-3.9704-.6503-1.045-1.3229-2.1246-1.6305-3.2752-.3213-1.203-.2825-2.5088-.2438-3.7718.0476-1.5682.0924-3.0493-.5383-4.1392-.6445-1.114-1.962-1.8184-3.3567-2.564-1.104-.5904-2.2455-1.2008-3.11-2.0653-.8646-.8646-1.475-2.0061-2.0653-3.1102-.7457-1.3947-1.45-2.712-2.5639-3.3566-1.09-.6305-2.5712-.5857-4.1394-.5383-1.2624.0386-2.5695.0777-3.772-.2438-1.1504-.3076-2.2305-.9802-3.2748-1.6305-1.3576-.8451-2.64-1.6436-3.9705-1.6436-1.3307 0-2.6128.7983-3.9704 1.6436-1.045.6503-2.1246 1.3229-3.2752 1.6305-1.2032.3213-2.5092.2826-3.7717.2438-1.5684-.0474-3.0495-.0923-4.1393.5383-1.114.6445-1.8184 1.962-2.564 3.3567-.5904 1.104-1.2007 2.2455-2.0653 3.11-.8646.8646-2.0061 1.475-3.1102 2.0653-1.3947.7457-2.712 1.4501-3.3565 2.5639-.6307 1.09-.586 2.571-.5384 4.1394.0382 1.263.0778 2.5695-.2438 3.772-.3076 1.1504-.9802 2.2305-1.6304 3.2748-.8452 1.3576-1.6437 2.64-1.6437 3.9706s.7983 2.6127 1.6437 3.9703c.6502 1.045 1.3228 2.1246 1.6304 3.2752.3214 1.203.2826 2.5088.2438 3.7718-.0475 1.5682-.0923 3.0493.5384 4.1392.6444 1.114 1.9618 1.8184 3.3567 2.564 1.1039.5904 2.2454 1.2008 3.11 2.0653.8646.8646 1.4749 2.0062 2.0652 3.1102.7457 1.3947 1.4501 2.7121 2.564 3.3566 1.0899.6305 2.5712.5857 4.1394.5383.4144-.0126.8337-.0252 1.2524-.0252a9.7786 9.7786 0 0 1 2.5195.269c1.1504.3076 2.2305.9802 3.2748 1.6305 1.3576.8452 2.64 1.6436 3.9706 1.6436s2.6127-.7983 3.9703-1.6436c1.045-.6503 2.1246-1.3229 3.2752-1.6305 1.203-.3213 2.509-.2826 3.7718-.2438 1.568.0475 3.0493.0923 4.1392-.5383 1.114-.6445 1.8184-1.962 2.564-3.3567.5904-1.104 1.2008-2.2455 2.0654-3.11.8645-.8646 2.006-1.475 3.1102-2.0653 1.3946-.7457 2.712-1.4501 3.3565-2.5639.6307-1.09.5859-2.571.5383-4.1394-.0382-1.263-.0777-2.5695.2438-3.772.3076-1.1504.9802-2.2305 1.6305-3.2748zM40.7428 16.2288a.7758.7758 0 1 1-.7668 1.3483c-7.1839-4.0801-16.2807-2.1853-21.238 4.4239-4.9573 6.6091-4.23 15.8727 1.698 21.6272 5.928 5.7545 15.209 6.2065 21.6681 1.0552 6.459-5.1512 8.083-14.3003 3.7915-21.3599a.7758.7758 0 0 1 1.3248-.8075c4.7005 7.7283 2.9243 17.7458-4.1468 23.387-7.071 5.641-17.2328 5.1472-23.7237-1.1528s-7.2875-16.4426-1.86-23.6788c5.4277-7.2361 15.3878-9.3104 23.2529-4.8426zm3.331 4.2968a.7736.7736 0 0 1-.5507-.2295 19.2444 19.2444 0 0 0-.3194-.3136.7758.7758 0 0 1 1.0717-1.1217c.118.1127.2343.227.349.3425a.7758.7758 0 0 1-.5505 1.3223zm-1.6955 3.0161l.0015.0004a2.9306 2.9306 0 0 1 .0388 4.1827L30.0794 40.064c-1.2243 1.2215-3.2064 1.2215-4.4307 0l-4.3443-4.3442a2.9306 2.9306 0 0 1 .0388-4.1827c1.1811-1.1 3.023-1.0606 4.156.0888l2.3635 2.3643 10.3597-10.3597c1.1329-1.1495 2.9749-1.1889 4.1559-.0888zM41.32 26.6273l.0006.0002a1.3791 1.3791 0 0 0-.0194-1.9685c-.5705-.5169-1.4487-.4864-1.982.0689L28.411 35.6362a.7758.7758 0 0 1-1.0972 0l-2.9127-2.913a1.4852 1.4852 0 0 0-1.0473-.438 1.3368 1.3368 0 0 0-.9342.3686 1.3791 1.3791 0 0 0-.0194 1.9685l4.3442 4.3442c.618.6167 1.6186.6167 2.2365 0l12.3392-12.3392z" fill="#757575" fill-rule="evenodd"/></svg>
