<svg viewBox="0 0 64 64" xmlns="http://www.w3.org/2000/svg"><path d="M32.3206 4.0874a.7762.7762 0 0 1 .7489.577.779.779 0 0 1-.3615.875.7742.7742 0 0 1-.9363-.1233.9563.9563 0 0 1-.097-.1187.881.881 0 0 1-.0699-.1342.7901.7901 0 0 1-.06-.2976.7895.7895 0 0 1 .06-.2977.7984.7984 0 0 1 .0699-.1342.8319.8319 0 0 1 .097-.1187.7873.7873 0 0 1 .5489-.2276zm-16.501 25.8553c.4284 0 .7758.3483.7758.778v.4864c0 .4297-.3474.7781-.7759.7781-.4284 0-.7758-.3484-.7758-.7781v-.4863c0-.4298.3474-.7781.7758-.7781zm.7758 5.0511V54.814h31.4504V12.8428h-.7656c-.4285 0-.7759-.3484-.7759-.7781 0-.4298.3474-.7781.7759-.7781h1.5414c.4285 0 .7759.3483.7759.778v43.5275c0 .4297-.3474.778-.7759.778h-33.002c-.4285 0-.776-.3483-.776-.778V34.9938c0-.4297.3475-.7781.776-.7781.4284 0 .7758.3484.7758.7781zM51.289 7.9782c1.8506.0018 3.3504 1.506 3.3523 3.362v49.1036c-.0019 1.856-1.5017 3.3602-3.3523 3.362H13.3523c-1.8507-.0018-3.3505-1.506-3.3523-3.362V11.3403c.0018-1.856 1.5016-3.3603 3.3523-3.362h3.5286c.4285 0 .7759.3483.7759.778 0 .4298-.3474.7781-.7759.7781h-3.5286c-.994.0012-1.7994.809-1.8006 1.8059v49.1035c.0012.9969.8067 1.8047 1.8006 1.8058H51.289c.9939-.0011 1.7994-.809 1.8005-1.8058V11.3403c-.0011-.9969-.8066-1.8047-1.8005-1.8059h-6.3672v1.7798c-.0023 2.1118-1.7088 3.823-3.8145 3.8252H23.534c-1.5162-.0018-2.8877-.9031-3.4946-2.2966h-3.4439v14.2716c0 .4297-.3474.7781-.7759.7781-.4284 0-.7758-.3484-.7758-.778V12.0646c0-.4298.3474-.7781.7758-.7781h3.9v-4.789c0-.4297.3473-.778.7758-.778h6.5228a5.3747 5.3747 0 0 1-.014-.3878C27.0042 2.3871 29.3845 0 32.3207 0c2.9361 0 5.3164 2.3871 5.3164 5.3318 0 .1297-.0047.259-.014.3877h6.5229c.4285 0 .7758.3484.7758.7782v1.4805h6.3672zm-7.9189 3.336V7.2758h-6.6596a.775.775 0 0 1-.6146-.3034.7799.7799 0 0 1-.1355-.6734c.4035-1.5315-.189-3.1527-1.484-4.0598a3.7557 3.7557 0 0 0-4.3115 0c-1.2948.907-1.8875 2.5283-1.484 4.0598a.7799.7799 0 0 1-.1355.6734.775.775 0 0 1-.6145.3034H21.271v4.0384c.0014 1.2527 1.0138 2.2678 2.2628 2.269h17.5733c1.249-.0012 2.2614-1.0163 2.2628-2.269zm-18.8387 9.2617c-1.1075.0003-2.0893.7143-2.4338 1.7698-.3445 1.0556.0264 2.2137.9194 2.8706a2.5555 2.5555 0 0 0 3.0062.0173c.9005-.6467 1.2846-1.8004.9522-2.8599l-1.6902 1.6954a.7747.7747 0 0 1-.5487.2279.7747.7747 0 0 1-.5486-.228l-.8546-.857a.7797.7797 0 0 1 0-1.1005.7743.7743 0 0 1 1.0973 0l.306.3068 2.9745-2.984a.7744.7744 0 0 1 .7495-.2014.777.777 0 0 1 .5487.5503.7797.7797 0 0 1-.201.7517l-.6532.6551a4.0967 4.0967 0 0 1 .49 1.9552c0 2.2785-1.8418 4.1256-4.1137 4.1256-2.2719 0-4.1136-1.847-4.1136-4.1256 0-2.2784 1.8417-4.1255 4.1136-4.1255.4285 0 .7759.3483.7759.778 0 .4298-.3474.7782-.7759.7782zm0 30.2383c-2.2707-.0026-4.1108-1.8482-4.1134-4.1255 0-1.6687 1.0023-3.173 2.5394-3.8116 1.5372-.6385 3.3066-.2855 4.483.8944 1.1765 1.18 1.5284 2.9545.8916 4.4961-.6367 1.5416-2.1368 2.5467-3.8006 2.5466zm0-6.6947c-1.414.0018-2.56 1.151-2.5617 2.5692 0 1.0392.624 1.9762 1.5814 2.3739a2.5565 2.5565 0 0 0 2.792-.557c.7328-.7348.952-1.84.5554-2.8-.3966-.9602-1.3309-1.5861-2.367-1.586zm0-5.0772c-2.2718 0-4.1134-1.847-4.1134-4.1253 0-2.2784 1.8416-4.1254 4.1134-4.1254.4285 0 .7759.3484.7759.7781s-.3474.7781-.7759.7781c-1.1075.0003-2.0893.7143-2.4338 1.7699-.3445 1.0555.0264 2.2136.9194 2.8705a2.5555 2.5555 0 0 0 3.0062.0173c.9005-.6466 1.2846-1.8004.9522-2.8598l-1.6902 1.695a.7747.7747 0 0 1-.5487.228.7747.7747 0 0 1-.5486-.228l-.8546-.857a.7797.7797 0 0 1 0-1.1005.7743.7743 0 0 1 1.0973 0l.306.307 2.9745-2.984a.7743.7743 0 0 1 .7494-.2015.777.777 0 0 1 .5487.5503.7797.7797 0 0 1-.2008.7516l-.6533.6552a4.0967 4.0967 0 0 1 .49 1.9552c-.0026 2.2774-1.8429 4.1229-4.1137 4.1253zm19.8085-17.5076c0 .4298-.3473.7782-.7758.7782H32.3206c-.4285 0-.7759-.3484-.7759-.7782 0-.4297.3474-.778.7759-.778H43.564c.4285 0 .7758.3483.7758.778zm-12.0192 4c-.4285 0-.7759-.3484-.7759-.7782 0-.4297.3474-.778.7759-.778h5.0022c.4285 0 .7758.3483.7758.778 0 .4298-.3473.7781-.7758.7781h-5.0022zm7.8342-1.329a.7742.7742 0 0 1 .9142-.1357.7789.7789 0 0 1 .3951.8379.9083.9083 0 0 1-.0446.1459.8067.8067 0 0 1-.0718.1342.7182.7182 0 0 1-.097.1187.7743.7743 0 0 1-1.0959 0 .632.632 0 0 1-.097-.1187.6852.6852 0 0 1-.0717-.1342.747.747 0 0 1-.0446-.146.771.771 0 0 1 .2133-.7022zm-7.8342 9.878c-.4285 0-.7759-.3483-.7759-.778 0-.4298.3474-.7781.7759-.7781H43.564c.4285 0 .7758.3483.7758.778 0 .4298-.3473.7782-.7758.7782H32.3206zm0 3.2227c-.4285 0-.7759-.3484-.7759-.7782 0-.4297.3474-.778.7759-.778h5.0022c.4285 0 .7758.3483.7758.778 0 .4298-.3473.7782-.7758.7782h-5.0022zm7.8342-1.3279a.7742.7742 0 0 1 .8444-.1668.7781.7781 0 0 1 .4785.7173.8026.8026 0 0 1-.0136.1518 1.047 1.047 0 0 1-.0446.1459.8916.8916 0 0 1-.0718.1342.7037.7037 0 0 1-.097.1167.7693.7693 0 0 1-.5479.2295.7693.7693 0 0 1-.548-.2295.6197.6197 0 0 1-.097-.1167.7454.7454 0 0 1-.0717-.1342.8383.8383 0 0 1-.0446-.146.8055.8055 0 0 1-.0155-.1517.7793.7793 0 0 1 .2288-.5505zm-7.8342 9.877c-.4285 0-.7759-.3484-.7759-.7781s.3474-.7781.7759-.7781H43.564c.4285 0 .7758.3484.7758.7781s-.3473.7781-.7758.7781H32.3206zm0 3.2228c-.4285 0-.7759-.3484-.7759-.7781 0-.4298.3474-.7782.7759-.7782h5.0022c.4285 0 .7758.3484.7758.7782 0 .4297-.3473.778-.7758.778h-5.0022zm7.8342-1.3289a.7743.7743 0 0 1 1.096 0 .7813.7813 0 0 1 0 1.101.7744.7744 0 0 1-.7571.2167.777.777 0 0 1-.5562-.5588.7796.7796 0 0 1 .2173-.7589z" fill="#757575" fill-rule="evenodd"/></svg>
