<svg viewBox="0 0 64 64" xmlns="http://www.w3.org/2000/svg"><path d="M8.3677 28.2a.8.8 0 1 1 0 1.6C4.9614 29.8 2.2 27.0386 2.2 23.6323V8.3677C2.2 4.9614 4.9614 2.2 8.3677 2.2h15.2646C27.0386 2.2 29.8 4.9614 29.8 8.3677v15.2646c0 3.4063-2.7614 6.1677-6.1677 6.1677h-7.119a.8.8 0 1 1 0-1.6h7.119c2.5227 0 4.5677-2.045 4.5677-4.5677V8.3677C28.2 5.845 26.155 3.8 23.6323 3.8H8.3677C5.845 3.8 3.8 5.845 3.8 8.3677v15.2646C3.8 26.155 5.845 28.2 8.3677 28.2zm4.937 0a.8.8 0 1 1 0 1.6h-1.735a.8.8 0 1 1 0-1.6h1.735zm10.3276 7.5375a.8.8 0 1 1 0-1.6c3.4063 0 6.1677 2.7614 6.1677 6.1677v15.2646c0 3.4063-2.7614 6.1677-6.1677 6.1677H8.3677c-3.4063 0-6.1677-2.7614-6.1677-6.1677V40.3052c0-3.4063 2.7614-6.1677 6.1677-6.1677h7.2073a.8.8 0 1 1 0 1.6H8.3677c-2.5227 0-4.5677 2.045-4.5677 4.5677v15.2646c0 2.5227 2.045 4.5677 4.5677 4.5677h15.2646c2.5227 0 4.5677-2.045 4.5677-4.5677V40.3052c0-2.5227-2.045-4.5677-4.5677-4.5677zm-4.9695 0a.8.8 0 1 1 0-1.6h2.2895a.8.8 0 1 1 0 1.6h-2.2895zm17.0747-13.9578a.8.8 0 1 1-1.6 0V20.069a.8.8 0 1 1 1.6 0v1.7106zm0-4.9545a.8.8 0 1 1-1.6 0V8.3677c0-3.4063 2.7614-6.1677 6.1677-6.1677h15.2646c3.4063 0 6.1677 2.7614 6.1677 6.1677v15.2646c0 3.4063-2.7614 6.1677-6.1677 6.1677H40.3052c-3.0196 0-5.581-2.1842-6.0806-5.13a.8.8 0 0 1 1.5774-.2675c.3696 2.1794 2.2672 3.7975 4.5032 3.7975h15.2646c2.5227 0 4.5677-2.045 4.5677-4.5677V8.3677c0-2.5227-2.045-4.5677-4.5677-4.5677H40.3052c-2.5227 0-4.5677 2.045-4.5677 4.5677v8.4575zm24.4 38.7446a.8.8 0 1 1 1.6 0c0 3.4063-2.7614 6.1677-6.1677 6.1677H40.3052c-3.4063 0-6.1677-2.7614-6.1677-6.1677V40.3052c0-3.4063 2.7614-6.1677 6.1677-6.1677h15.2646c3.4063 0 6.1677 2.7614 6.1677 6.1677v7.5676a.8.8 0 1 1-1.6 0v-7.5676c0-2.5227-2.045-4.5677-4.5677-4.5677H40.3052c-2.5227 0-4.5677 2.045-4.5677 4.5677v15.2646c0 2.5227 2.045 4.5677 4.5677 4.5677h15.2646c2.5227 0 4.5677-2.045 4.5677-4.5677zm0-4.9873a.8.8 0 1 1 1.6 0v1.708a.8.8 0 1 1-1.6 0v-1.708z" fill="#757575" fill-rule="evenodd"/></svg>
