<svg viewBox="0 0 64 64" xmlns="http://www.w3.org/2000/svg"><path d="M4.2895 54.8143C1.9219 54.8116.0032 52.882.0005 50.5006V22.6683c0-.4322.3484-.7826.7781-.7826.4298 0 .7782.3504.7782.7826v27.8323c.0017 1.5172 1.2242 2.7468 2.7327 2.7485H59.517c1.5086-.0017 2.731-1.2313 2.7328-2.7485V14.9797L61.111 17.943a5.1668 5.1668 0 0 1-2.3285 2.6722l-13.4068 7.3712c-.3762.2004-.8427.0595-1.047-.3162-.2042-.3757-.0702-.8468.3006-1.057l13.4068-7.3713a3.6042 3.6042 0 0 0 1.6235-1.8632l2.2334-5.812H1.9135l2.2334 5.812a3.6038 3.6038 0 0 0 1.6237 1.8632l17.13 9.421c.0034.0018.0059.0046.0094.0065.0035.002.0074.003.0109.005.02.0119.0356.0271.055.0404a.776.776 0 0 1 .0629.0462.7338.7338 0 0 1 .054.0561c.0172.0184.0347.0349.0504.0556.0158.0207.029.0442.0419.0652.0128.0209.0268.0409.0377.0628a.7185.7185 0 0 1 .0282.071c.0088.023.0187.0448.0253.069.0066.0243.0097.0494.014.074.0043.0247.0097.0491.0119.074.0021.0248 0 .05 0 .0751a.7554.7554 0 0 1-.0026.0757c-.0029.0256-.0097.051-.0151.076-.0055.0248-.0094.0494-.0172.0739a.8047.8047 0 0 1-.0315.075c-.009.02-.0148.041-.0255.0606-.0023.004-.006.009-.0075.0117-.0016.0027-.0022.0059-.004.0086a7.4662 7.4662 0 0 0-.9592 4.3505c.1102 1.3017.4372 2.4017.9727 3.2694a9.308 9.308 0 0 1 1.3512 3.6178c.0062.0448.0132.0906.021.137.3053 1.7025 1.6585 3.0181 3.3607 3.2673a6.6465 6.6465 0 0 0 2.7452-.0745 18.0612 18.0612 0 0 1 4.3426-.6504 7.2897 7.2897 0 0 0 2.4305-.4545c2.4121-.901 4.0433-3.1793 4.128-5.7658a8.1663 8.1663 0 0 0-.6742-3.3848 6.5816 6.5816 0 0 1-.5225-2.377c-.0577-1.9602-.6773-4.3761-3.3-4.7543a5.9638 5.9638 0 0 1-2.5059-.9329c-1.0707-.7204-2.7874-1.3036-4.8848.0084a6.074 6.074 0 0 1-2.4621.9 5.117 5.117 0 0 0-1.468.4162.7744.7744 0 0 1-.7742-.0781.7845.7845 0 0 1-.32-.7135.7824.7824 0 0 1 .4544-.6353 6.6708 6.6708 0 0 1 1.9119-.5422 4.5342 4.5342 0 0 0 1.8361-.6756c2.9499-1.8457 5.3838-.7798 6.5722.0196a4.4323 4.4323 0 0 0 1.8614.6848c2.84.4097 4.5292 2.6902 4.6345 6.257a5.0197 5.0197 0 0 0 .3992 1.8107 9.73 9.73 0 0 1 .7975 4.0338c-.1034 3.2261-2.1354 6.0693-5.143 7.1959a8.8333 8.8333 0 0 1-2.9455.5519 16.5437 16.5437 0 0 0-3.9723.599 7.3057 7.3057 0 0 1-1.872.232 9.5891 9.5891 0 0 1-1.5135-.1253c-2.3628-.3545-4.2357-2.1887-4.651-4.5548a5.7204 5.7204 0 0 1-.0279-.1833 7.7505 7.7505 0 0 0-1.1317-3.0058c-.666-1.0794-1.0701-2.4128-1.2007-3.9627a8.9739 8.9739 0 0 1 .7957-4.56L5.024 20.6152a5.1668 5.1668 0 0 1-2.3286-2.6722L.053 11.066a.7864.7864 0 0 1 .0832-.7256A.7769.7769 0 0 1 .7786 10H63.028a.7701.7701 0 0 1 .1397.014c.0093.0018.0192.0034.0287.0056a.7693.7693 0 0 1 .1238.0391c.0093.004.0182.0084.0274.0125a.801.801 0 0 1 .1048.0571l.0137.0085a.7774.7774 0 0 1 .1215.1046.7754.7754 0 0 1 .0821.0992l.0018.003c.0023.0033.0039.007.0062.0103a.784.784 0 0 1 .0584.1082.7704.7704 0 0 1 .0516.1536c.0019.0088.003.0176.0046.0266a.7693.7693 0 0 1 .0138.137v39.7213c-.0027 2.3816-1.9218 4.3115-4.2898 4.3137H4.2895zm27.6138-25.326c-2.947 0-5.3361 2.4027-5.3364 5.3668-.0002 2.964 2.3886 5.367 5.3356 5.3675 2.947.0004 5.3364-2.402 5.337-5.366 0-.1586-.007-.3195-.0207-.4776-.0376-.4306.279-.8103.707-.8481.4282-.0378.8058.2806.8434.7112.0177.2033.0266.41.0266.6141-.0008 3.1191-2.0723 5.8537-5.062 6.6823-2.9897.8287-6.1615-.4527-7.7507-3.131-1.5892-2.6785-1.2045-6.0945.94-8.3475 2.1447-2.253 5.521-2.7883 8.2508-1.3081a.7831.7831 0 0 1 .4082.6663.7838.7838 0 0 1-.3696.6887.7743.7743 0 0 1-.7778.0224 5.3186 5.3186 0 0 0-2.5314-.641zm5.151 2.8339a.777.777 0 0 1-.6553-.3593 7.4328 7.4328 0 0 0-.0636-.0978.7864.7864 0 0 1-.0594-.786.778.778 0 0 1 .6507-.4393.7767.7767 0 0 1 .7008.353c.0278.041.0548.082.0807.1235a.7865.7865 0 0 1 .0286.798.7775.7775 0 0 1-.6824.4079z" fill="#757575" fill-rule="evenodd"/></svg>
