<svg viewBox="0 0 64 64" xmlns="http://www.w3.org/2000/svg"><path d="M52.3524 37.7804l-.221-.2175c-.3064-.3018-.3115-.796-.0113-1.104a.7736.7736 0 0 1 1.098-.0113l.2211.2175c.3064.3018.3114.796.0113 1.104a.7736.7736 0 0 1-1.0981.0113zm9.5347 12.4761v.0014a.7827.7827 0 0 1-.262.6883.7732.7732 0 0 1-.715.1622l-5.3739-1.494c-1.0414-.2895-1.844-1.1254-2.0948-2.182l-.1435-.605a1.4188 1.4188 0 0 0-.9987-1.04l-1.102-.3063c-1.1976-.3367-2.061-1.3863-2.1651-2.6322-.0494-.6043-.4745-1.1107-1.0587-1.2612l-1.6497-.4244c-1.2546-.317-2.1574-1.419-2.2267-2.7177-.0403-.7329-.2183-1.7288-.829-2.3846-.2644-.1352-1.239-.5658-2.2708-.2341-1.3215.4129-2.7618.0575-3.743-.9235l-1.5183-1.483a14.3842 14.3842 0 0 1-4.5284.6576c-5.0833-.024-8.5958-3.7354-8.7429-3.8933-4.5323-4.6763-4.8925-12.0136-.8402-17.1159a.8221.8221 0 0 1 .0262-.0312 16.3262 16.3262 0 0 1 4.1597-3.4.6125.6125 0 0 1 .0293-.016 12.923 12.923 0 0 1 1.3735-.6014c-1.795-4.5675-6.2153-7.5407-11.0996-7.4656-4.8844.075-9.2123 3.1825-10.8677 7.803-1.6554 4.6206-.2924 9.7889 3.4225 12.978.1188-.169.242-.337.3711-.5007a11.6466 11.6466 0 0 1 1.6497-1.7038.7735.7735 0 0 1 1.0936.098c.2751.3306.2315.8229-.0974 1.0994-3.2966 2.7713-4.4625 7.3508-2.8955 11.3735.0194.0535 1.4645 3.8702 5.0267 5.4049a10.9177 10.9177 0 0 0 3.859.9487.7764.7764 0 0 1 .6845.4763l.899 2.1402c.2555.6429.8432 1.0913 1.5278 1.1657 1.7993.1623 2.8396 1.5822 2.8829 1.6425.0345.0482.0635.1.0865.1548.3986.9543.3703 2.1282-.082 3.3951-.1723.482-.0122 1.0207.3949 1.3288l1.2048.9221c.9253.7083 1.3016 1.9288.937 3.039-.1526.4696.0011.985.3855 1.2927l.7972.635c.778.6195 1.1593 1.6153.9957 2.5994l-.0909.5451a1.1816 1.1816 0 0 0 .4282 1.118l2.9735 2.368.7468-2.673a2.7201 2.7201 0 0 0-.1074-1.7683l-5.5927-13.4634c-.1653-.3978.0216-.855.4172-1.021.3957-.1662.8504.0216 1.0157.4194l5.5927 13.4635a4.2946 4.2946 0 0 1 .169 2.792l-1.0608 3.8013a.7786.7786 0 0 1-.508.5312.773.773 0 0 1-.7213-.1306l-3.8887-3.0966c-.7778-.6196-1.1592-1.6153-.9956-2.5994l.0908-.5452a1.1814 1.1814 0 0 0-.4283-1.118l-.7971-.635c-.8935-.7152-1.2507-1.9134-.8959-3.0048.1567-.4776-.0052-1.0026-.4031-1.3073l-1.2048-.9222c-.9476-.7194-1.3188-1.9753-.9157-3.0981.2129-.5967.4054-1.4474.1479-2.1694a2.7077 2.7077 0 0 0-1.7128-.9403c-1.2564-.1252-2.3411-.9383-2.8192-2.1131l-.7126-1.6964a12.828 12.828 0 0 1-3.9123-1.0404c-4.1897-1.8053-5.8008-6.103-5.8674-6.2851-1.2043-3.116-1.0175-6.6022.5128-9.5701-4.3626-3.6081-5.9808-9.594-4.035-14.9258C5.7598 3.4303 10.8446-.0831 16.493.0015c5.6484.0846 10.6268 3.7487 12.4138 9.1364a.791.791 0 0 1 .0582.1409c.0068.0232.0087.0466.0134.07a13.3792 13.3792 0 0 1 .6117 3.9177c2.9365-.0069 5.3225 2.3809 5.3293 5.3332.0068 2.9522-2.3681 5.351-5.3046 5.358a5.3209 5.3209 0 0 1-1.4248-.1952c-1.7091-.4753-3.07-1.776-3.6285-3.4682s-.241-3.5529.8466-4.961a.7736.7736 0 0 1 1.0895-.1373c.3385.2645.3997.7549.1365 1.0953-1.0766 1.3957-1.0477 3.355.0697 4.718 1.1173 1.363 3.0248 1.7657 4.5931.9698 1.5683-.7959 2.3788-2.578 1.9516-4.2912-.4271-1.7133-1.978-2.9003-3.7343-2.8583a13.2696 13.2696 0 0 1-1.128 4.108.7767.7767 0 0 1-.6343.4633.7747.7747 0 0 1-.7126-.329.784.784 0 0 1-.0638-.7857 11.8809 11.8809 0 0 0 .715-7.7764c-.386.1453-.7638.3117-1.1317.4983a14.778 14.778 0 0 0-3.7349 3.0549 11.3233 11.3233 0 0 0-2.0535 4.0585c-1.0649 3.9055.0067 8.086 2.8165 10.9875.0417.0449 3.2271 3.3903 7.6273 3.411a12.332 12.332 0 0 0 4.4434-.7236.7733.7733 0 0 1 .8151.1706l1.8632 1.8205c.57.5782 1.411.7924 2.1861.5566 1.8917-.6103 3.551.3798 3.621.4221a.7829.7829 0 0 1 .1393.1085c.811.7941 1.283 2.0006 1.3651 3.4868.034.6172.4637 1.1402 1.0601 1.2904l1.6497.4243c1.225.316 2.1163 1.3777 2.22 2.645.05.5938.4618 1.0938 1.0327 1.2542l1.102.3063c1.0418.2894 1.8447 1.1252 2.096 2.182l.1435.605a1.418 1.418 0 0 0 .9985 1.0397l4.2504 1.1817-.4101-3.2406a3.1478 3.1478 0 0 0-.9097-1.8406l-3.9926-3.9315a.7835.7835 0 0 1-.2086-.752.7787.7787 0 0 1 .5434-.5576.7736.7736 0 0 1 .752.1943l3.9929 3.9315a4.7176 4.7176 0 0 1 1.3632 2.7592l.5562 4.4037zM31.8712 9.7771v.0004c-.4287-.0078-.77-.3636-.7622-.7946.0078-.431.3616-.7742.7904-.7664 3.8981.0723 7.5538 1.9165 9.9413 5.0153 2.3876 3.0989 3.2498 7.1185 2.3448 10.9313.5743.751 1.4785 1.8698 2.7779 3.3071a.783.783 0 0 1 .2009.5649l-.0282.5551a3.969 3.969 0 0 0 1.1761 3.0275l2.615 2.6585c.3015.3066.2987.8009-.0062 1.104a.7735.7735 0 0 1-1.098-.0064l-2.606-2.6488c-1.1184-1.1056-1.7124-2.6398-1.6318-4.2146l.012-.2318c-1.4025-1.565-2.3341-2.7471-2.8775-3.4755a.7838.7838 0 0 1-.1281-.6728c.9107-3.385.2187-7.0031-1.8757-9.8072s-5.3573-4.4812-8.8447-4.546zm-14.3366 8.8357v.0006c-3.1287 3.2461-3.8504 8.1365-1.794 12.1561.1898.3823.0385.847-.3395 1.0426-.3779.1955-.842.0491-1.041-.3284-2.3617-4.6153-1.5328-10.2308 2.0601-13.9577a.7734.7734 0 0 1 1.0932-.012c.306.2983.3154.7888.0212 1.0988zM37.719 39.1627l7.908 13.0156c.5145.8492.73 1.8477.6117 2.835l-.4957 4.0975a.7804.7804 0 0 1-.4216.603.7727.7727 0 0 1-.733-.0188l-4.5065-2.5772c-.8904-.5095-1.4351-1.4652-1.422-2.4952l.0074-.5774a1.2682 1.2682 0 0 0-.6372-1.118l-.924-.5288c-1.0237-.5886-1.5756-1.755-1.3838-2.9249.0885-.533-.1686-1.0637-.6404-1.3223l-1.3906-.76c-1.0793-.5844-1.6544-1.8072-1.4187-3.0166.1271-.6584.191-1.5787-.1972-2.2943-.2123-.1836-.9754-.7744-1.9484-.7104-1.3048.07-2.5415-.5898-3.215-1.7155l-1.0157-1.6568a13.346 13.346 0 0 1-4.2162-.4488 9.9735 9.9735 0 0 1-1.6813-.6025.7802.7802 0 0 1-.4559-.6376.7821.7821 0 0 1 .3263-.7135.7728.7728 0 0 1 .7783-.067 8.414 8.414 0 0 0 1.4202.509c1.35.374 2.7565.4972 4.1504.3635a.775.775 0 0 1 .7488.366l1.2673 2.0684c.3725.6343 1.0632 1.0097 1.795.9756 1.872-.1196 3.1573 1.1707 3.211 1.2255a.7885.7885 0 0 1 .109.1398c.5581.9137.7132 2.1223.4479 3.495-.1046.5407.1532 1.087.636 1.3475l1.3906.76c1.0541.5763 1.6288 1.7613 1.4313 2.9512-.0862.5242.161 1.047.6199 1.3106l.9242.5286c.8904.5095 1.435 1.4651 1.422 2.495l-.0074.5776c-.0062.4616.2379.89.637 1.1183l3.4934 1.9974.3542-2.9336a2.8789 2.8789 0 0 0-.3953-1.8326l-7.9088-13.0147a5.1963 5.1963 0 0 1-.5506-1.2528c-.1198-.414.1167-.8472.5284-.9677.4117-.1206.8427.1173.9626.5312a3.636 3.636 0 0 0 .3844.8757zm-20.7098-4.2453a12.2496 12.2496 0 0 1-.2196-.208c-.3086-.2993-.3175-.7934-.0197-1.1037a.7735.7735 0 0 1 1.0978-.0198c.0627.061.127.122.193.183.3144.2922.3342.785.0443 1.1018a.7734.7734 0 0 1-1.0958.0467z" fill="#e30048" fill-rule="evenodd"/></svg>
