<svg viewBox="0 0 175 32" xmlns="http://www.w3.org/2000/svg"><g fill="none" fill-rule="evenodd"><circle cx="16" cy="16" r="16" fill="#FF004F"/><path d="M15.995 28.667c-3.39 0-6.57-1.311-8.955-3.691-2.387-2.383-3.704-5.567-3.707-8.966a12.628 12.628 0 0 1 .592-3.836l.007-.028c.087-.306.194-.6.318-.875.022-.055.047-.116.073-.176.11-.251.545-1.115 1.588-1.77.943-.593 1.77-.644 1.866-.648.228-.027.464-.04.699-.04 1.07 0 2.015.423 2.662 1.194.492.587.76 1.307.78 2.097a4.321 4.321 0 0 1 1.959-.481c1.07 0 2.016.424 2.662 1.194.039.046.076.094.113.142.859-.852 1.993-1.336 3.14-1.336 1.07 0 2.015.424 2.662 1.194.656.782.913 1.81.722 2.893l-.672 3.807c-.09.513.017.982.301 1.321.274.327.696.507 1.187.507 1.482 0 2.003-1.08 2.345-2.246.293-1.033.428-2.107.401-3.191a10.675 10.675 0 0 0-3.219-7.387 10.683 10.683 0 0 0-7.445-3.086H16c-2.14 0-4.209.63-5.982 1.825a.97.97 0 0 1-.544.167.958.958 0 0 1-.729-.335L8.74 6.91a.96.96 0 0 1 .196-1.418 12.585 12.585 0 0 1 7.317-2.156 12.604 12.604 0 0 1 8.65 3.67 12.601 12.601 0 0 1 3.758 8.612 12.664 12.664 0 0 1-.41 3.606h.001l-.043.158-.019.063a12.57 12.57 0 0 1-.4 1.187c-.079.187-.518 1.143-1.599 1.822-.935.588-1.673.618-1.76.62a4.89 4.89 0 0 1-.439.02c-1.07 0-2.016-.424-2.662-1.194-.656-.783-.913-1.81-.722-2.893l.672-3.808c.09-.512-.017-.982-.301-1.32-.274-.327-.696-.507-1.187-.507-1.166 0-2.325.99-2.531 2.162l-.735 3.998a.528.528 0 0 1-.52.432h-.883a.527.527 0 0 1-.52-.623l.762-4.144c.09-.51-.017-.98-.3-1.319-.275-.326-.697-.506-1.188-.506-1.165 0-2.324.99-2.531 2.162l-.734 3.998a.528.528 0 0 1-.52.432H9.21a.526.526 0 0 1-.52-.623l.764-4.159.512-2.799c.09-.509-.018-.976-.302-1.315-.274-.327-.696-.507-1.187-.507-1.21 0-1.989.465-2.454 1.463a10.662 10.662 0 0 0-.755 4.408c.108 2.737 1.266 5.313 3.26 7.252 1.995 1.939 4.603 3.024 7.343 3.057H16c2.266 0 4.435-.7 6.272-2.026a.942.942 0 0 1 .555-.18.962.962 0 0 1 .565 1.743 12.571 12.571 0 0 1-7.397 2.389" fill="#FFF2F6"/><path d="M59.864 6.896c.504 0 .864.408.864.96v14.448c0 .528-.384.96-.936.96a.943.943 0 0 1-.936-.96V10.928l-4.392 6.864c-.288.456-.6.672-1.008.672-.432 0-.72-.216-1.008-.672l-4.392-6.864v11.376c0 .528-.408.96-.936.96-.552 0-.936-.432-.936-.96V7.856c0-.552.36-.96.864-.96.432 0 .696.192 1.08.816l5.328 8.28 5.304-8.28c.408-.624.672-.816 1.104-.816zm16.168 4.152c.504 0 .912.456.912 1.008V22.28a.973.973 0 0 1-.984.984.959.959 0 0 1-.984-.984v-.864c-.936 1.128-2.448 1.848-4.2 1.848-3.288 0-5.784-2.616-5.784-6.12 0-3.48 2.496-6.096 5.784-6.096 1.848 0 3.408.768 4.32 1.992v-.984c0-.552.384-1.008.936-1.008zM71.04 21.56c2.424 0 4.08-1.8 4.08-4.416 0-2.616-1.656-4.392-4.08-4.392-2.376 0-4.152 1.872-4.152 4.416 0 2.52 1.752 4.392 4.152 4.392zM82.936 5.528c.744 0 1.344.6 1.344 1.32 0 .744-.6 1.32-1.344 1.32-.744 0-1.368-.576-1.368-1.32 0-.72.624-1.32 1.368-1.32zm-.048 17.736c-.528 0-.888-.432-.888-.96V12.008c0-.528.384-.96.936-.96.528 0 .912.432.912.96v10.296c0 .528-.432.96-.96.96zm6.952 0c-.552 0-.936-.432-.936-.96V5.696c0-.528.384-.96.936-.96.528 0 .912.432.912.96v16.608c0 .528-.384.96-.912.96zm15.328-12.216c.48 0 .912.432.912.912 0 .144-.024.288-.072.408l-4.92 10.32c-.168.36-.48.576-.84.576-.384 0-.696-.216-.864-.576l-4.896-10.296a1.359 1.359 0 0 1-.072-.432c0-.48.408-.912.912-.912.36 0 .696.24.864.576l4.056 8.76 4.056-8.76a.948.948 0 0 1 .864-.576zm9.232 0c3.096 0 5.328 2.256 5.328 5.4v.12c0 .768-.408 1.152-1.128 1.152h-8.256c.24 2.304 1.944 3.84 4.296 3.84a4.64 4.64 0 0 0 3.048-1.128c.192-.168.408-.264.624-.264.456 0 .816.336.816.816 0 .312-.12.528-.456.84-1.152.96-2.544 1.44-4.056 1.44-3.552 0-6.192-2.616-6.192-6.096 0-3.432 2.64-6.12 5.976-6.12zm-.048 1.68c-1.992 0-3.528 1.368-3.936 3.36h7.416c-.048-1.968-1.44-3.36-3.48-3.36zm10.552 10.536c-.552 0-.936-.432-.936-.96V5.696c0-.528.384-.96.936-.96.528 0 .912.432.912.96v16.608c0 .528-.384.96-.912.96zm11.248-12.216c3.408 0 6.12 2.688 6.12 6.096 0 3.384-2.712 6.096-6.144 6.096-3.408-.024-6.096-2.712-6.096-6.096 0-3.432 2.688-6.096 6.12-6.096zm0 1.704c-2.424 0-4.248 1.896-4.224 4.416 0 2.496 1.8 4.368 4.2 4.368 2.4 0 4.248-1.896 4.248-4.368 0-2.52-1.824-4.416-4.224-4.416zm16.504-1.704c3.312 0 5.784 2.616 5.784 6.096 0 3.504-2.472 6.12-5.784 6.12-1.8 0-3.384-.768-4.296-1.968v5.352c0 .552-.408.96-.912.96-.552 0-.936-.432-.936-.96V11.96c0-.528.384-.936.936-.936.504 0 .912.408.912.936v1.056c.912-1.2 2.472-1.968 4.296-1.968zm-.264 10.512c2.4 0 4.152-1.872 4.152-4.392 0-2.544-1.752-4.416-4.152-4.416-2.424 0-4.056 1.776-4.056 4.392 0 2.64 1.608 4.416 4.056 4.416zm15.424-10.512c3.096 0 5.328 2.256 5.328 5.4v.12c0 .768-.408 1.152-1.128 1.152h-8.256c.24 2.304 1.944 3.84 4.296 3.84a4.64 4.64 0 0 0 3.048-1.128c.192-.168.408-.264.624-.264.456 0 .816.336.816.816 0 .312-.12.528-.456.84-1.152.96-2.544 1.44-4.056 1.44-3.552 0-6.192-2.616-6.192-6.096 0-3.432 2.64-6.12 5.976-6.12zm-.048 1.68c-1.992 0-3.528 1.368-3.936 3.36h7.416c-.048-1.968-1.44-3.36-3.48-3.36z" fill="#404040" fill-rule="nonzero"/></g></svg>
