<svg xmlns="http://www.w3.org/2000/svg" viewBox="0 0 163 169">
  <g fill="none" fill-rule="evenodd">
    <g transform="translate(32 48)">
      <circle cx="50" cy="50" r="50" fill="#FF004F"/>
      <path fill="#FFF2F6" d="M49.9859 89.5833c-10.5956 0-20.5347-4.0961-27.9862-11.5338-7.4606-7.4465-11.5745-17.3965-11.583-28.017-.0033-4.0838.6184-8.1167 1.8478-11.9892l.0238-.0863c.2722-.9583.6061-1.8786.993-2.7357.0684-.1714.1476-.3604.2273-.5495.3424-.7846 1.7046-3.4842 4.9645-5.5327 2.946-1.8513 5.5316-2.012 5.8286-2.0248a18.8623 18.8623 0 0 1 2.185-.1263c3.3446 0 6.2991 1.3256 8.3189 3.7323 1.5396 1.835 2.375 4.0864 2.4406 6.5549 1.9358-.9867 4.0342-1.5046 6.1189-1.5046 3.3451 0 6.2994 1.3256 8.3189 3.7326.1213.1442.2391.2926.3525.4437 2.685-2.6612 6.2282-4.1763 9.8124-4.1763 3.3449 0 6.2991 1.3256 8.3189 3.7326 2.0513 2.4447 2.8528 5.6549 2.2559 9.0398l-2.098 11.8984c-.2825 1.6028.0512 3.0686.9398 4.1277.8569 1.021 2.1745 1.5833 3.7101 1.5833 4.6299 0 6.258-3.3724 7.3277-7.0168.9143-3.228 1.3367-6.5852 1.2534-9.9741-.2143-8.7265-3.7865-16.9248-10.0593-23.0845-6.2721-6.159-14.5343-9.5836-23.2649-9.6432l-.2323-.0008c-6.6885 0-13.153 1.9726-18.6952 5.7048a3.031 3.031 0 0 1-1.6993.5204 2.9948 2.9948 0 0 1-2.2775-1.0456l-.0163-.0203c-.5437-.6337-.7977-1.4943-.6828-2.3436a3.0042 3.0042 0 0 1 1.2955-2.0867c6.5408-4.4127 14.1743-6.7453 22.0756-6.7453.2622 0 .5256.0025.7891.0077 10.1622.1993 19.7625 4.2719 27.033 11.4682C85.093 29.089 89.2636 38.6471 89.5657 48.806c.1135 3.8156-.3184 7.6047-1.284 11.2699l.0058.0015-.1344.4928-.0582.1958a39.2792 39.2792 0 0 1-1.2534 3.708c-.2441.5862-1.6161 3.572-4.9946 5.6953-2.9227 1.8365-5.228 1.932-5.4994 1.9365-.4625.0419-.9238.063-1.3718.063-3.3448 0-6.2991-1.3257-8.3189-3.7324-2.0515-2.4447-2.8527-5.6552-2.2561-9.0399l2.098-11.8986c.2827-1.6023-.051-3.0685-.9396-4.128-.8568-1.0207-2.1744-1.583-3.71-1.583-3.6415 0-7.2634 3.094-7.9091 6.7561l-2.2955 12.4937a1.6496 1.6496 0 0 1-1.6227 1.3517h-2.7623c-.491 0-.953-.2166-1.2674-.5938a1.6447 1.6447 0 0 1-.3552-1.3542l2.3792-12.9482c.2813-1.5981-.0526-3.0633-.9408-4.1222-.8566-1.0208-2.1744-1.583-3.7101-1.583-3.6414 0-7.2633 3.0938-7.9088 6.756l-2.2932 12.4935a1.6496 1.6496 0 0 1-1.623 1.352h-2.762a1.645 1.645 0 0 1-1.2671-.594 1.6438 1.6438 0 0 1-.3555-1.3536l2.3852-12.9963 1.5989-8.7473c.2802-1.59-.0542-3.0508-.9428-4.11-.8569-1.0207-2.1745-1.583-3.7101-1.583-3.778 0-6.215 1.4522-7.6682 4.57-1.7527 4.3823-2.5464 9.0167-2.3589 13.7744.3374 8.556 3.956 16.6051 10.1895 22.664 6.2322 6.058 14.3814 9.4502 22.9462 9.5515.1346.0018.2685.0025.4026.0025h.0028c7.082 0 13.8592-2.19 19.5988-6.3332.5069-.3657 1.1063-.559 1.7335-.559.817 0 1.6101.339 2.1764.9298a3.0075 3.0075 0 0 1 .8237 2.3541 3.0003 3.0003 0 0 1-1.233 2.1634c-6.5757 4.7434-14.3336 7.3214-22.4346 7.456-.2276.0035-.453.0055-.6796.0055"/>
    </g>
    <path fill="#FFF" stroke="#FFE99C" stroke-width="3.2" d="M57.53 135.127c-2.3515 5.9802-7.1174 10.7463-13.0973 13.0978 5.973 2.3494 10.7436 7.1088 13.0972 13.0944 2.3515-5.9784 7.1158-10.7428 13.0939-13.0944-5.9854-2.3537-10.7446-7.1246-13.0939-13.0978zm-22.3737 13.0974l.0006-.0146 1.6.0003v.029l-1.6-.0003-.0006-.0144zm22.3876 20.7745l-.0144.0006-.0146-.0006-.0003-1.5989h.029l.0003 1.599zm20.759-20.7891l.0005.0144-.0005.0146-1.599.0003v-.029l1.599-.0003zm-20.7735-22.3599l.0145.0006v1.6h-.029v-1.6l.0145-.0006zM103.8731 22.6928c-1.844 4.114-5.1562 7.4263-9.27 9.2704 4.1085 1.8418 7.424 5.1491 9.27 9.267 1.8438-4.1123 5.1546-7.4232 9.2667-9.267-4.1178-1.846-7.425-5.1618-9.2667-9.2704zm.0181 25.2494l-.0187.0008-.0186-.0008v-1.5983h.0373v1.5983zM59.128 7.59c-1.4691 2.9333-3.8603 5.3246-6.7934 6.7937 2.9291 1.467 5.3226 3.8545 6.7934 6.7907 1.4688-2.9319 3.8587-5.3218 6.7904-6.7907-2.9361-1.4708-5.3234-3.8644-6.7904-6.7936zm-14.3842 6.7932l.0013-.0231h1.6v.0462h-1.6l-.0013-.0231zm14.4068 12.7823l-.0231.0014-.0232-.0014v-1.5973h.0463v1.5973zM71.909 14.3601l.0013.023-.0013.0232h-1.5973V14.36h1.5973zM59.1275-.0013l.023.0013v1.6h-.0462V0l.0232-.0013zM17.579 78.6274c-1.844 4.114-5.1563 7.4263-9.27 9.2704 4.1084 1.8418 7.424 5.149 9.27 9.267 1.8438-4.1123 5.1546-7.4232 9.2667-9.267-4.1178-1.846-7.425-5.1618-9.2667-9.2704zM-.001 87.8972L0 87.8785h1.6v.0374H0l-.0009-.0187zm17.598 15.9796l-.0187.0008-.0187-.0008v-1.5983h.0374v1.5983zm15.96-15.9983l.0008.0187-.0008.0187h-1.5983v-.0374h1.5983zM147.0202 107.3938c-1.844 4.1139-5.1563 7.4263-9.27 9.2703 4.1084 1.8418 7.424 5.1491 9.27 9.267 1.8438-4.1122 5.1545-7.4232 9.2666-9.267-4.1177-1.846-7.4249-5.1617-9.2666-9.2703zm.0181 25.2493l-.0187.0009-.0187-.0009v-1.5982h.0374v1.5982zm15.96-15.9982l.0008.0187-.0009.0186H161.4v-.0373h1.5982zm-15.9787-17.5617l.0187.001v1.6h-.0374v-1.6l.0187-.001z"/>
  </g>
</svg>