<svg xmlns="http://www.w3.org/2000/svg" xmlns:xlink="http://www.w3.org/1999/xlink" width="157" height="145" viewBox="0 0 157 145">
    <defs>
        <path id="prefix__a" d="M71.587 143.008c29.542 0 54.9-17.916 65.8-43.476 3.67-8.605 32.892-51.651 32.892-61.598C170.28-1.554 111.075.008 71.587.008c-39.489 0-71.5 32.012-71.5 71.5s32.011 71.5 71.5 71.5z"/>
    </defs>
    <g fill="none" fill-rule="evenodd" transform="translate(1 1)">
        <path fill="#A5D6C2" stroke="#004D01" stroke-opacity=".05" d="M71.587.508c-19.606 0-37.356 7.947-50.204 20.796C8.534 34.152.587 51.902.587 71.508s7.947 37.357 20.796 50.205c12.848 12.848 30.598 20.795 50.204 20.795s37.356-7.947 50.205-20.795c12.848-12.849 20.795-30.599 20.795-50.205 0-19.606-7.947-37.356-20.795-50.204C108.943 8.455 91.193.508 71.587.508z"/>
        <mask id="prefix__b" fill="#fff">
            <use xlink:href="#prefix__a"/>
        </mask>
        <g mask="url(#prefix__b)">
            <g>
                <path fill="#78A6BA" d="M173.087 75.044c0 41.445-33.599 75.044-75.043 75.044-41.446 0-75.044-33.6-75.044-75.044C23 33.599 56.598 0 98.044 0c41.444 0 75.043 33.598 75.043 75.043" transform="translate(-41 20.963)"/>
                <path fill="#A4CEE0" d="M100.882 38.682c22.061-10.425 38.784-15.947 48.2-18.618 4.575 4.25 8.621 9.058 12.025 14.326C147.744 13.704 124.501 0 98.044 0c-2.148 0-4.268.112-6.37.288-20.002 10.165-33.679 30.633-33.679 54.247v.08c.005 3.564 3.958 5.732 7.016 3.901 12.587-7.534 25.913-15.128 35.871-19.834M161.107 34.39c-6.407 2.385-13.535 5.49-27.783 12.4-17.384 8.431-35.072 19.761-50.57 30.792-8.61 6.13-8.916 18.943-.49 25.324 10.519 7.964 23.706 12.705 38.028 12.705 21.404 0 40.282-10.587 51.497-26.708.839-4.494 1.298-9.122 1.298-13.86 0-14.987-4.411-28.936-11.98-40.653" transform="translate(-41 20.963)"/>
                <path fill="#2680CF" d="M44.745 27.695c12.228-3.164 18.658 2.228 19.288 16.175.946 20.922-16.5 41.106 17.96 34.948 34.461-6.159 38.57-9.328 44.507 1.536 5.937 10.864-11.09 19.491-19.04 29.087-5.299 6.398 1.714 10.93 21.04 13.596l-21.04 16-106.476-16L12 9.404l32.745 18.291z" opacity=".23" transform="translate(-41 20.963)"/>
                <path fill="#BACECE" d="M172.024 49.364L176 58.822c.05.122.016.261-.09.34-1.226.919-2.53 1.881-3.913 2.884-.698-3.84-1.676-7.573-2.91-11.172.869-.565 1.708-1.111 2.518-1.642.15-.098.349-.034.419.132" transform="translate(-41 20.963)"/>
                <path stroke="#8FBFAB" stroke-width=".5" d="M172.024 49.364L176 58.822c.05.122.016.261-.09.34-1.226.919-2.53 1.881-3.913 2.884-.698-3.84-1.676-7.573-2.91-11.172.869-.565 1.708-1.111 2.518-1.642.15-.098.349-.034.419.132z" transform="translate(-41 20.963)"/>
                <path fill="#BACECE" d="M192.02 29.046l4.022 8.117c.029.06.039.13.025.195-.733 3.618-2.407 6.715-4.473 9.323-.134.17-.402.136-.495-.059l-3.934-8.26c-.048-.1-.033-.22.038-.306 1.595-1.935 2.898-4.093 3.958-6.667.337-.818.623-1.599.86-2.343" transform="translate(-41 20.963)"/>
                <path stroke="#B8BFC6" stroke-width=".5" d="M192.02 29.046l4.022 8.117c.029.06.039.13.025.195-.733 3.618-2.407 6.715-4.473 9.323-.134.17-.402.136-.495-.059l-3.934-8.26c-.048-.1-.033-.22.038-.306 1.595-1.935 2.898-4.093 3.958-6.667.337-.818.623-1.599.86-2.343z" transform="translate(-41 20.963)"/>
                <path fill="#BACECE" d="M192.841 21.046l.08.157c2.191 4.412 3.131 8.08 3.165 11.329.004.39-.533.508-.702.157l-3.129-6.531c-.03-.065-.04-.14-.029-.21.227-1.453.197-2.716-.09-3.791-.03-.111-.008-.224.064-.313l.641-.798z" transform="translate(-41 20.963)"/>
                <path stroke="#B8BFC6" stroke-width=".5" d="M192.841 21.046l.08.157c2.191 4.412 3.131 8.08 3.165 11.329.004.39-.533.508-.702.157l-3.129-6.531c-.03-.065-.04-.14-.029-.21.227-1.453.197-2.716-.09-3.791-.03-.111-.008-.224.064-.313l.641-.798z" transform="translate(-41 20.963)"/>
                <path fill="#FEFEFE" d="M63.523 45.604l13.145 19.249c.228.334.134.787-.21.997-4.647 2.832-9.468 5.826-14.462 8.988-3.67 2.322-9.616 6.256-17.838 11.798-.329.222-.784.134-.997-.202l-12.679-19.96c-.214-.337-.111-.782.235-.984 3.431-1.995 11.342-6.984 23.735-14.97 2.55-1.641 5.266-3.356 8.111-5.116.321-.2.747-.112.96.2" transform="translate(-41 20.963)"/>
                <path stroke="#C4CBD2" stroke-width=".5" d="M63.523 45.604l13.145 19.249c.228.334.134.787-.21.997-4.647 2.832-9.468 5.826-14.462 8.988-3.67 2.322-9.616 6.256-17.838 11.798-.329.222-.784.134-.997-.202l-12.679-19.96c-.214-.337-.111-.782.235-.984 3.431-1.995 11.342-6.984 23.735-14.97 2.55-1.641 5.266-3.356 8.111-5.116.321-.2.747-.112.96.2z" transform="translate(-41 20.963)"/>
                <path fill="#FEFEFE" d="M102.418 23.553l13.203 18.957c.247.354.132.839-.25 1.038-9.123 4.725-19.456 10.425-30.96 17.17-.315.185-.722.105-.94-.189L69.558 41.686c-.252-.342-.158-.824.208-1.04 10.04-5.916 21.106-12.04 31.747-17.326.318-.159.702-.058.905.233" transform="translate(-41 20.963)"/>
                <path stroke="#78AB97" stroke-opacity=".6" stroke-width=".5" d="M102.418 23.553l13.203 18.957c.247.354.132.839-.25 1.038-9.123 4.725-19.456 10.425-30.96 17.17-.315.185-.722.105-.94-.189L69.558 41.686c-.252-.342-.158-.824.208-1.04 10.04-5.916 21.106-12.04 31.747-17.326.318-.159.702-.058.905.233z" transform="translate(-41 20.963)"/>
                <path fill="#E2EEEE" d="M173.765 8.197c4.805 1.105 8.837 2.716 12.43 4.456.055.056.107.106.164.162l5.288 10.368c.127.25-.139.505-.39.381-1.827-.904-4.798-1.508-9.313-1.45-.1 0-.197-.05-.248-.136L173.45 8.631c-.134-.217.068-.49.316-.434" transform="translate(-41 20.963)"/>
                <path stroke="#B8BFC6" stroke-width=".5" d="M173.765 8.197c4.805 1.105 8.837 2.716 12.43 4.456.055.056.107.106.164.162l5.288 10.368c.127.25-.139.505-.39.381-1.827-.904-4.798-1.508-9.313-1.45-.1 0-.197-.05-.248-.136L173.45 8.631c-.134-.217.068-.49.316-.434z" transform="translate(-41 20.963)"/>
                <path fill="#2680CF" d="M136.049 10.045c10.244 6.058 17.248 12.283 21.012 18.676l.062.079c1.41 1.799 2.74 3.664 3.984 5.59 1.391 2.155 2.675 4.384 3.845 6.683l.112.22c.372.736.732 1.477 1.08 2.227l.113.25c.656 1.427 1.268 2.876 1.834 4.35l.154.39c.24.634.467 1.275.69 1.918.052.147.108.293.159.441.865-.563 1.702-1.107 2.511-1.637.15-.098.349-.034.419.132l3.975 9.458c.052.122.017.261-.089.34-1.226.919-2.53 1.881-3.913 2.884l.085.778c.056.345.12.689.171 1.035.16 1.063.294 2.133.409 3.21.033.319.058.64.087.96.08.849.145 1.701.196 2.558.019.337.04.673.055 1.011.052 1.143.087 2.29.087 3.446 0 1.217-.032 2.426-.091 3.628-.042.887-.117 1.766-.19 2.645-.023.276-.036.553-.062.827-.105 1.11-.24 2.21-.392 3.306-.003.023-.005.048-.009.071-.065.466-.134.93-.208 1.392-1.294-2.958-3.672-2.48-7.135 1.434-6.383 7.214-12.5 7.877-18.35 1.99-9.833-13.83-9.833-21.311 0-22.446 14.75-1.702 16.632-4.32 17.491-9.342.859-5.021 2.03-11.754-11.673-13.252C138.764 43.8 133.7 50.556 128.5 46.79c-5.2-3.765-2-12.001 0-30.842.498-4.693-.538-8.383-3.11-11.072 3.667 1.413 7.22 3.136 10.659 5.17z" opacity=".23" transform="translate(-41 20.963)"/>
                <path fill="#FEFEFE" d="M138.248 10.49l10.405 17.639c.226.381.054.87-.364 1.02-6.73 2.425-15.521 6.252-26.29 11.629-.306.153-.685.066-.888-.21L107.597 22.25c-.264-.36-.132-.873.27-1.065 10.219-4.834 19.756-8.662 27.21-10.467.815-.198 1.617-.385 2.406-.563.3-.067.607.069.763.333" transform="translate(-41 20.963)"/>
                <path stroke="#78AB97" stroke-opacity=".6" stroke-width=".5" d="M138.248 10.49l10.405 17.639c.226.381.054.87-.364 1.02-6.73 2.425-15.521 6.252-26.29 11.629-.306.153-.685.066-.888-.21L107.597 22.25c-.264-.36-.132-.873.27-1.065 10.219-4.834 19.756-8.662 27.21-10.467.815-.198 1.617-.385 2.406-.563.3-.067.607.069.763.333z" transform="translate(-41 20.963)"/>
                <path fill="#E2EEEE" d="M144.128 8.467c9.103-1.577 16.532-1.727 22.78-1.012.213.024.402.143.518.323l9.021 13.916c.29.445.008 1.043-.52 1.096-5.137.524-11.667 1.703-19.893 3.808-.36.093-.733.193-1.117.3-.307.085-.636-.039-.803-.31l-10.477-17.04c-.264-.43-.004-.995.491-1.08" transform="translate(-41 20.963)"/>
                <path stroke="#78AB97" stroke-opacity=".6" stroke-width=".5" d="M144.128 8.467c9.103-1.577 16.532-1.727 22.78-1.012.213.024.402.143.518.323l9.021 13.916c.29.445.008 1.043-.52 1.096-5.137.524-11.667 1.703-19.893 3.808-.36.093-.733.193-1.117.3-.307.085-.636-.039-.803-.31l-10.477-17.04c-.264-.43-.004-.995.491-1.08z" transform="translate(-41 20.963)"/>
                <path fill="#E2EEEE" d="M189.048 14.852c2.295 1.793 3.248 3.384 4.503 5.966 1.143 2.353 1.988 5.762 2.536 10.228-.484-1.732-1.31-3.39-2.476-4.973l-.523-1.181-4.04-10.04z" transform="translate(-41 20.963)"/>
                <path stroke="#B8BFC6" stroke-width=".5" d="M189.048 14.852c2.295 1.793 3.248 3.384 4.503 5.966 1.143 2.353 1.988 5.762 2.536 10.228-.484-1.732-1.31-3.39-2.476-4.973l-.523-1.181-4.04-10.04z" transform="translate(-41 20.963)"/>
                <path fill="#BACECE" d="M184.543 40.444c.206-.194.536-.131.654.126l3.89 8.467c-.245.245-.493.485-.742.72-1.966 1.845-4.938 4.183-8.916 7.015-.202.144-.492.082-.612-.136l-4.543-8.33c-.104-.193-.035-.437.153-.552 4.114-2.527 7.438-4.776 10.116-7.31" transform="translate(-41 20.963)"/>
                <path stroke="#B8BFC6" stroke-width=".5" d="M184.543 40.444c.206-.194.536-.131.654.126l3.89 8.467c-.245.245-.493.485-.742.72-1.966 1.845-4.938 4.183-8.916 7.015-.202.144-.492.082-.612-.136l-4.543-8.33c-.104-.193-.035-.437.153-.552 4.114-2.527 7.438-4.776 10.116-7.31z" transform="translate(-41 20.963)"/>
                <path stroke="#78AB97" stroke-linejoin="round" stroke-opacity=".6" stroke-width=".6" d="M102.087 23.046l-7.675 18.543c-.114.275-.386.45-.683.44l-24.642-.84M107.087 21.662l23.565 3.31c.312.043.615-.122.747-.408l6.688-14.519M30.087 66.052l24.608.973c.314.011.6-.18.705-.477l7.687-21.503M143.608 8.857l18.156 7.065c.275.075.567-.019.746-.24l4.732-8.188M174.449 8.63l10.544 8.15c.166.122.402.026.435-.177l.66-3.967" transform="translate(-41 20.963)"/>
                <path stroke="#617A70" stroke-linecap="round" stroke-linejoin="round" stroke-width="1.2" d="M162.203 25.119c-1.032.23-2.099.477-3.195.74M123.3 4.369c.328.118.657.236.984.358.8.298 1.591.612 2.376.937.385.158.767.319 1.148.484.748.324 1.49.659 2.224 1.006.47.22.931.45 1.394.68.538.269 1.073.542 1.603.822.436.23.872.46 1.303.7.64.354 1.274.72 1.903 1.093.417-.098.84-.2 1.25-.292.3-.068.606.068.762.333l1.141 1.934c.748.494 1.481 1.008 2.21 1.528.234.168.473.332.707.502.521.382 1.035.773 1.547 1.168.22.17.438.344.657.517.984.778 1.95 1.579 2.894 2.405l.291.252c.542.48 1.08.968 1.608 1.463.05.046.097.093.145.139.73.686 1.45 1.382 2.15 2.096l-7.96-12.947c-.264-.428-.004-.994.491-1.08 9.103-1.577 16.532-1.726 22.78-1.012.213.024.402.143.518.323l9.021 13.916c.29.445.008 1.043-.52 1.096-3.098.316-6.7.87-10.877 1.722" transform="translate(-41 20.963)"/>
                <path stroke="#7E9B8F" stroke-linecap="round" stroke-linejoin="round" stroke-width="1.2" d="M193.909 43.207c.252-.46.489-.933.71-1.417M195.434 39.725c.254-.763.468-1.552.633-2.367.013-.066.004-.135-.026-.196l-4.02-8.117c-.237.744-.524 1.526-.86 2.344-1.06 2.574-2.363 4.732-3.958 6.667-.071.086-.086.205-.039.305l3.935 8.26c.093.195.361.23.495.06.47-.594.92-1.213 1.343-1.857" transform="translate(-41 20.963)"/>
                <path stroke="#617A70" stroke-linecap="round" stroke-linejoin="round" stroke-width="1.2" d="M181.696 21.978c.052.085.148.135.248.134 4.516-.056 7.486.548 9.314 1.452.25.124.516-.132.389-.38l-5.29-10.37c-.055-.055-.106-.106-.163-.16-3.592-1.74-7.624-3.352-12.43-4.457-.247-.057-.45.217-.315.433l8.247 13.348z" transform="translate(-41 20.963)"/>
                <path stroke="#7E9B8F" stroke-linecap="round" stroke-linejoin="round" stroke-width="1.2" d="M196.087 31.046c-.548-4.466-1.394-7.875-2.536-10.228-1.255-2.582-3.172-4.98-5.467-6.774l4.232 9.174c.092.853.064 1.794-.109 2.84l3.828 7.989c.085-1.083.053-2.217-.082-3.401.042.133.096.265.134.4zM184.543 40.444c-2.678 2.534-6.002 4.783-10.116 7.31-.188.115-.257.359-.152.552l4.542 8.33c.12.218.41.28.612.136 3.978-2.832 6.95-5.17 8.916-7.015.25-.235.497-.475.742-.72l-3.89-8.467c-.118-.257-.448-.321-.654-.126z" transform="translate(-41 20.963)"/>
                <path stroke="#617A70" stroke-linecap="round" stroke-linejoin="round" stroke-width="1.2" d="M157.061 28.721l.062.079c1.41 1.799 2.74 3.664 3.984 5.59h0l.001.001c1.39 2.154 2.674 4.383 3.844 6.682l.112.22c.372.736.732 1.477 1.08 2.227l.113.25c.656 1.427 1.268 2.876 1.834 4.35.051.13.105.259.154.39.24.634.467 1.275.69 1.918.052.147.108.293.159.441.865-.563 1.702-1.107 2.511-1.637.15-.098.349-.034.419.132l3.975 9.458c.052.122.017.261-.089.34-1.226.919-2.53 1.881-3.913 2.884l.085.778c.056.345.12.689.171 1.035.16 1.063.294 2.133.409 3.21.033.319.058.64.087.96.08.849.145 1.701.196 2.558.019.337.04.673.055 1.011.052 1.143.087 2.29.087 3.446 0 1.217-.032 2.426-.091 3.628-.042.887-.117 1.766-.19 2.645-.023.276-.036.553-.062.827-.105 1.11-.24 2.21-.392 3.306-.003.023-.005.048-.009.071-.158 1.136-.345 2.262-.554 3.381v.001c-6.505 34.821-37.038 61.185-73.745 61.185C56.599 150.088 23 116.489 23 75.044 23 35.746 53.213 3.524 91.674.289l.003-.001c1.025-.086 2.053-.16 3.09-.205C95.853.031 96.945 0 98.044 0c1.154 0 2.299.036 3.44.087.26.012.519.024.779.038M117.01 2.423c.983.257 1.958.536 2.926.83M109.754.915c1.055.166 2.103.352 3.143.561" transform="translate(-41 20.963)"/>
            </g>
        </g>
    </g>
</svg>
