<svg viewBox="0 0 183 196" xmlns="http://www.w3.org/2000/svg"><g transform="translate(0 1)" fill="none" fill-rule="evenodd"><ellipse stroke-opacity=".05" stroke="#004D01" stroke-width="1.181" fill="#699496" opacity=".149" cx="93.498" cy="110.468" rx="83.373" ry="83.791"/><path d="M1.994 68.895c-.498.043-.946.321-1.206.75s-.3.957-.11 1.42l39.549 96.096a2.096 2.096 0 0 0 2.323 1.266l137.231-25.719a2.099 2.099 0 0 0 1.474-1.093c.298-.572.319-1.25.056-1.84L145.062 58.41a2.551 2.551 0 0 0-2.546-1.508L1.994 68.895z" fill="#FFF"/><path d="M.23 70.018s17.438 13.286 69.177 28.947c.675.204 1.36.33 2.031.46 18.932 3.637 23.322 4.405 23.322 4.405s19.968-8.338 27.897-17.987c7.929-9.649 6.62-21.208 6.62-21.208l-4.395 13.77-16.457 19.157h-34.96L.23 70.018z" fill="#E3EFEF"/><path d="M87.677 83.699c12.759-1.54 26.188 6.785 29.97 18.582 3.783 11.797-3.505 22.625-16.263 24.167-12.76 1.54-26.188-6.786-29.97-18.582-3.783-11.797 3.505-22.626 16.263-24.167z" fill="#E3EFEF"/><path fill="#FFF" d="M55.545 90.948l39.215 16.918 23.887-22.381-63.102-16.45z"/><path stroke="#EEF7F7" stroke-width=".744" stroke-linecap="round" stroke-linejoin="round" d="M3.993 71.212l94.068 36.982 44.874-48.84"/><path d="M88.574 85.65c11.516-1.39 23.637 6.125 27.051 16.772 3.414 10.648-3.163 20.422-14.68 21.813-11.515 1.39-23.636-6.125-27.05-16.772-3.414-10.648 3.163-20.421 14.68-21.813z" fill="#FF004F"/><path d="M88.574 85.65c11.516-1.39 23.637 6.125 27.051 16.772 3.414 10.648-3.163 20.422-14.68 21.813-11.515 1.39-23.636-6.125-27.05-16.772-3.414-10.648 3.163-20.421 14.68-21.813z" stroke="#A00000" stroke-width=".744" stroke-linecap="round" stroke-linejoin="round"/><path d="M1.748 68.936l2.245 2.574s37.441 93.657 40.099 92.79c2.658-.868 111.783-20.436 111.783-20.436l-.933 3.5L42.55 168.427a2.096 2.096 0 0 1-2.323-1.266L.678 71.066a1.58 1.58 0 0 1 .11-1.42c.216-.358.563-.61.96-.71z" fill="#EEF7F7"/><path d="M124.882 58.407l17.634-1.505a2.551 2.551 0 0 1 2.546 1.508l36.25 81.366c.262.59.241 1.267-.057 1.839a2.099 2.099 0 0 1-1.474 1.093l-45.533 8.534c10.437-11.729 16.615-26.257 16.615-41.982 0-19.978-9.972-38.025-25.981-50.853z" fill="#EEF7F7"/><path d="M35.555 66.03l-2.9.248M29.722 66.528l-6.84.584-20.888 1.783c-.498.043-.946.321-1.206.75s-.3.957-.11 1.42l16.182 39.32M17.96 113.058l1.303 3.166M20.66 119.62l2.818 6.844M25.165 130.563l15.062 36.598a2.096 2.096 0 0 0 2.323 1.266l137.231-25.719a2.099 2.099 0 0 0 1.474-1.093c.298-.572.319-1.25.056-1.84l-1.764-3.96M177.263 130.688l-6.686-15.008M168.1 110.12l-4.97-11.155M160.016 91.974l-15.694-35.226-80.532 6.873-10.038.857M45.667 65.168l-5.09.434" stroke="#789596" stroke-width="1.116" stroke-linecap="round" stroke-linejoin="round"/><path d="M144.536 71.376l-5.304 8.294a5.82 5.82 0 0 1-5.512 2.66c-3.732-.396-9.11-1.79-16.1-6.301-6.989-4.511-10.487-8.846-12.393-12.094a5.875 5.875 0 0 1 .116-6.137c2.093-3.282 5.3-8.298 5.3-8.298 1.297 3.114 5.02 7.861 14.855 14.209s15.68 7.776 19.038 7.667z" fill="#F0F5F5"/><path d="M139.552 79.171l-.32.5a5.82 5.82 0 0 1-5.512 2.66c-3.449-.367-8.304-1.586-14.537-5.33l4.968-7.77 15.4 9.94z" fill="#D8E5E6"/><path d="M111.843 42.752s-4.575 7.232 14.542 19.57c19.117 12.338 23.761 5.152 23.761 5.152l-7.076 11.065s-4.83 7.51-23.961-4.838c-19.131-12.347-14.341-19.883-14.341-19.883l7.075-11.066z" fill="#CAD8D9"/><path d="M134.902 49.001c10.57 6.822 17.355 15.171 15.142 18.632-2.213 3.461-12.591.733-23.161-6.09-10.57-6.82-17.355-15.17-15.142-18.631 2.213-3.461 12.591-.732 23.161 6.09z" fill="#EBEBEB"/><path d="M134.902 49.001c10.57 6.822 17.355 15.171 15.142 18.632-2.213 3.461-12.591.733-23.161-6.09-10.57-6.82-17.355-15.17-15.142-18.631 2.213-3.461 12.591-.732 23.161 6.09z" stroke="#000" stroke-width=".744" stroke-linecap="round" stroke-linejoin="round"/><path d="M134.902 49.001c10.57 6.822 17.355 15.171 15.142 18.632-2.213 3.461-11.57 2.721-23.763-5.149-12.193-7.87-16.753-16.11-14.54-19.572 2.213-3.461 12.591-.732 23.161 6.09z" fill="#ECBC6E"/><path d="M134.902 49.001c10.57 6.822 17.355 15.171 15.142 18.632-2.213 3.461-11.57 2.721-23.763-5.149-12.193-7.87-16.753-16.11-14.54-19.572 2.213-3.461 12.591-.732 23.161 6.09z" stroke="#000" stroke-width=".5" stroke-linecap="round" stroke-linejoin="round"/><path d="M134.902 49.001c10.57 6.822 17.355 15.171 15.142 18.632-2.213 3.461-11.57 2.721-23.763-5.149-12.193-7.87-16.753-16.11-14.54-19.572 2.213-3.461 12.591-.732 23.161 6.09z" fill="#CAD8D9"/><path d="M143.214 55.345c5.506 5.025 8.383 9.86 6.83 12.288-2.213 3.461-11.57 2.721-23.763-5.149-3.74-2.414-6.762-4.863-9.09-7.198.11.074.223.147.336.22 11.533 7.444 21.977 5.651 25.542.077.05-.079.098-.158.145-.238z" fill="#B3C6C7"/><path d="M131.22 65.208c15.083 8.212 18.926 2.266 18.926 2.266l-7.076 11.065s-3.997 6.215-19.122-1.959l7.272-11.372z" fill="#B3C6C7"/><path d="M111.843 42.752s-4.575 7.232 14.542 19.57c19.117 12.338 23.761 5.152 23.761 5.152l-7.076 11.065s-4.83 7.51-23.961-4.838c-19.131-12.347-14.341-19.883-14.341-19.883l7.075-11.066z" stroke="#A0B6B8" stroke-width=".744" stroke-linecap="round" stroke-linejoin="round"/><path d="M134.902 49.001c10.57 6.822 17.355 15.171 15.142 18.632-2.213 3.461-11.57 2.721-23.763-5.149-12.193-7.87-16.753-16.11-14.54-19.572 2.213-3.461 12.591-.732 23.161 6.09z" stroke="#A0B6B8" stroke-width=".744" stroke-linecap="round" stroke-linejoin="round"/><path d="M121.42 47.907c.383-.122 8.89-2.371 16.885-14.875 8.185-12.8 8.496-19.833 8.496-19.854a12.439 12.439 0 0 1 1.967-6.842c3.699-5.785 10.441-8.07 16.2-4.353 5.757 3.717 5.87 10.424 2.17 16.21a12.352 12.352 0 0 1-6.28 5.002c-2.019 1.075-6.82 5.111-13.556 15.644-9.45 14.779-5.94 21.727-5.807 22.03-.408.454-3.003 2.593-12.089-3.272-9.111-5.88-8.224-9.142-7.985-9.69z" fill="#C6CAAA"/><path d="M164.967 1.983c5.758 3.717 5.87 10.424 2.171 16.21a12.352 12.352 0 0 1-6.28 5.002c-2.019 1.075-6.82 5.111-13.556 15.644-9.45 14.779-5.94 21.727-5.807 22.03-.318.354-1.97 1.735-7-.465.344-2.87.989-6.515 2.197-10.247 1.847-5.702 9.628-18.5 13.62-22.677 6.555-6.86 10.315-5.919 15.402-13.95 4.478-7.068-.73-11.533-.747-11.547z" fill="#B0B393"/><path d="M121.42 47.907c.383-.122 8.89-2.371 16.885-14.875 8.185-12.8 8.496-19.833 8.496-19.854a12.439 12.439 0 0 1 1.967-6.842c3.699-5.785 10.441-8.07 16.2-4.353 5.757 3.717 5.87 10.424 2.17 16.21a12.352 12.352 0 0 1-6.28 5.002c-2.019 1.075-6.82 5.111-13.556 15.644-9.45 14.779-5.94 21.727-5.807 22.03-.408.454-3.003 2.593-12.089-3.272-9.111-5.88-8.224-9.142-7.985-9.69z" stroke="#A0B6B8" stroke-width=".744" stroke-linecap="round" stroke-linejoin="round"/><path d="M153.69 29.94a78.417 78.417 0 0 0-3.43 4.501" stroke="#699496" stroke-width="1.116" stroke-linecap="round" stroke-linejoin="round"/><path d="M147.302 38.84c-3.99 6.239-5.67 11.082-6.268 14.62 6.81 5.593 10.656 11.292 9.075 14.065a.95.95 0 0 0 .037-.051l-7.076 11.065s-1.187 1.847-4.717 2.203a5.815 5.815 0 0 1-4.633 1.588c-3.732-.396-9.11-1.79-16.1-6.301-6.989-4.511-10.487-8.846-12.393-12.094a5.876 5.876 0 0 1-.49-4.883c-1.149-3.378.03-5.234.03-5.234l7.076-11.066-.031.056c1.783-2.5 8.108-1.534 15.617 2.015 3.113-2.178 7.053-5.812 10.876-11.79 8.185-12.8 8.496-19.834 8.496-19.855a12.439 12.439 0 0 1 1.967-6.842c3.699-5.785 10.441-8.07 16.2-4.353 5.757 3.717 5.87 10.424 2.17 16.21a12.352 12.352 0 0 1-6.28 5.002c-.908.484-2.378 1.566-4.334 3.568" stroke="#789596" stroke-width="1.116" stroke-linecap="round" stroke-linejoin="round"/><path d="M100.923 119.69c-4.198.744-8.736-.133-12.78-2.469-4.049-2.338-7.14-5.874-8.702-9.955a15.49 15.49 0 0 1-1.029-4.737l-.003-.035a6.965 6.965 0 0 1-.008-1.121c.002-.07.005-.15.01-.227.02-.326.163-1.459 1.153-2.475.895-.918 1.896-1.161 2.012-1.187.27-.083.556-.15.847-.202 1.324-.235 2.69.067 3.843.85a5.248 5.248 0 0 1 1.93 2.349 4.73 4.73 0 0 1 2.202-1.008c1.325-.235 2.69.067 3.843.85.07.047.138.096.205.147.673-1.212 1.854-2.043 3.273-2.294 1.326-.235 2.69.067 3.844.85 1.171.796 1.96 1.974 2.221 3.317l.916 4.72c.124.635.471 1.175.979 1.52.489.333 1.094.456 1.702.348 1.834-.325 1.984-1.735 1.872-3.21a13.386 13.386 0 0 0-.968-3.922c-1.366-3.339-3.985-6.239-7.375-8.166-3.389-1.927-7.164-2.663-10.631-2.074l-.092.016c-2.65.47-4.92 1.682-6.568 3.505-.15.166-.357.276-.597.32a1.47 1.47 0 0 1-1.055-.243l-.01-.007a1.458 1.458 0 0 1-.615-.852.975.975 0 0 1 .207-.893c1.943-2.155 4.624-3.587 7.754-4.142.104-.018.209-.036.314-.052 4.055-.637 8.456.255 12.392 2.51 3.937 2.256 6.993 5.637 8.604 9.52.605 1.458.99 2.945 1.146 4.421h.002l.02.199.005.08c.044.502.06 1.011.049 1.513a4.065 4.065 0 0 1-1.143 2.539c-.888.91-1.787 1.11-1.894 1.13a5.98 5.98 0 0 1-.534.12c-1.325.235-2.69-.067-3.843-.85-1.172-.796-1.96-1.973-2.221-3.316l-.917-4.72a2.356 2.356 0 0 0-.978-1.52 2.296 2.296 0 0 0-1.702-.349c-1.442.256-2.423 1.699-2.14 3.152l.925 4.962a.526.526 0 0 1-.445.634l-1.094.194a.81.81 0 0 1-.59-.14.792.792 0 0 1-.339-.495l-.958-5.144a2.357 2.357 0 0 0-.979-1.518 2.297 2.297 0 0 0-1.702-.348c-1.442.256-2.422 1.699-2.14 3.152l.926 4.962a.527.527 0 0 1-.445.634l-1.093.193a.81.81 0 0 1-.59-.139.792.792 0 0 1-.34-.495l-.963-5.162-.65-3.474a2.348 2.348 0 0 0-.978-1.514 2.297 2.297 0 0 0-1.702-.348c-1.497.265-2.249.994-2.367 2.295-.05 1.807.316 3.643 1.089 5.459 1.39 3.264 4.005 6.104 7.364 7.995 3.358 1.891 7.085 2.623 10.492 2.061l.16-.027c2.806-.498 5.17-1.815 6.834-3.81a1 1 0 0 1 .605-.336c.323-.058.688.017.999.204.33.2.576.508.672.847.096.34.033.673-.171.918-1.909 2.285-4.603 3.82-7.792 4.44l-.268.05z" fill="#FFF2F6"/><path d="M92.323 88.266h.102l.102.002.102.002.102.002.102.004.102.003.102.005.102.004.102.006.103.006.102.006.102.007.102.008.103.008.102.01.102.009.103.01.102.01.102.011.103.012.102.012.102.012.103.014.102.013.103.015.102.015.102.015.103.016.102.017.102.017.103.017.102.019.102.019.102.019.103.02.102.02.102.021.102.022.102.022.102.022.102.024.102.023.102.025.102.024.102.026.101.026.102.026.102.027.102.027.1.028.102.03.102.028.101.03.102.03.1.03.102.032.1.032.102.032.1.033.101.033.101.034.1.035.101.035.1.035.1.036.101.037.1.037.1.038.1.038.1.039.1.04.1.039.099.04.099.041.1.042.098.042.1.042.098.043.1.044.098.043.098.045.099.045.098.046.098.046.098.046.098.047.097.048.098.049.097.048.097.05.097.049.097.05.097.051.096.051.096.052.096.053.097.052.095.054.096.054.096.054.095.055.095.055.094.056.095.056.093.057.094.057.093.057.093.058.093.058.092.059.092.059.09.06.092.06.09.06.091.06.09.061.09.061.09.062.089.063.088.062.088.063.088.064.088.064.087.064.087.064.086.066.086.065.086.066.085.066.085.066.085.067.084.067.084.068.083.068.083.068.082.069.083.069.082.07.08.069.082.07.08.07.081.072.08.07.079.072.079.072.079.073.078.072.078.073.077.074.077.073.077.074.076.075.076.074.075.075.075.075.075.076.073.076.074.076.074.077.072.077.073.077.071.078.072.078.07.078.072.078.07.08.07.078.069.08.069.08.068.08.068.08.068.08.066.082.067.081.067.082.065.081.065.083.065.082.065.083.063.083.064.083.063.084.062.084.062.084.062.084.06.085.062.085.06.086.06.085.058.086.06.086.057.086.058.087.057.087.057.087.056.087.056.088.055.088.055.089.054.088.054.088.053.09.053.089.052.089.052.09.051.09.051.09.05.09.05.091.05.091.048.09.048.092.048.092.047.092.047.092.046.092.045.093.045.092.045.093.044.093.043.093.043.094.043.094.042.094.04.094.041.095.04.094.04.095.03.071.029.072.029.071.028.072.028.071.028.072.027.071.027.072.027.072.026.072.027.071.025.072.026.072.025.072.025.072.024.072.024.072.024.072.023.072.023.072.023.072.022.072.022.073.022.072.021.072.021.073.021.072.02.072.02.073.02.072.02.073.018.072.019.073.018.072.018.072.018.073.017.073.017.072.016.073.017.072.016.073.015.073.015.073.015.072.015.073.014.073.013.073.014.072.013.073.013.073.012.073.012.072.012.073.011.073.011.073.011.072.01.073.01.073.01.073.01.073.008.072.008.073.009.073.003.034.008.046.02.207.006.085.008.093.007.099.007.1.006.1.006.099.005.1.004.1.003.1.003.1.002.1.002.1V107.271l-.001.1-.002.108-.002.042-.003.042-.004.046-.005.053-.006.059-.008.062-.009.069-.011.071-.007.04-.007.039-.007.04-.008.042-.009.042-.01.043-.01.045-.01.045-.011.046-.012.047-.013.048-.014.05-.014.049-.015.05-.016.051-.017.053-.017.052-.019.053-.02.054-.02.055-.021.055-.023.055-.023.057-.025.056-.025.057-.027.058-.027.058-.03.058-.03.059-.03.059-.033.06-.033.059-.035.06-.037.06-.037.06-.039.06-.04.06-.041.06-.043.06-.044.06-.046.06-.047.06-.049.06-.05.06-.05.057-.027.031-.027.03-.027.03-.028.029-.028.03-.028.029-.048.048-.048.048-.048.046-.049.045-.048.045-.048.043-.048.042-.048.04-.047.04-.048.04-.048.037-.047.037-.047.036-.047.034-.047.034-.046.033-.046.032-.046.03-.046.03-.045.03-.045.027-.044.028-.044.026-.044.025-.043.025-.042.024-.043.023-.041.022-.041.02-.04.021-.04.02-.04.02-.04.017-.037.018-.037.017-.037.016-.036.015-.037.015-.067.027-.066.025-.062.022-.059.02-.055.019-.052.015-.047.014-.044.012-.04.01-.035.01-.033.007-.016.003-.051.014-.075.019-.075.018-.075.018-.076.016-.075.016-.075.014-.075.014-.071.012-.071.012-.072.01-.071.01-.072.008-.07.008-.072.006-.072.006-.072.005-.071.004-.072.004-.07.002-.073.001-.071.001h-.072l-.07-.001-.072-.003-.072-.003-.07-.003-.072-.005-.071-.005-.071-.007-.071-.007-.071-.008-.07-.01-.071-.01-.07-.01-.071-.012-.07-.012-.07-.013-.07-.015-.07-.014-.07-.016-.07-.017-.069-.018-.069-.018-.069-.02-.069-.02-.068-.02-.069-.022-.068-.023-.068-.023-.067-.024-.068-.025-.067-.026-.067-.027-.067-.027-.066-.029-.067-.029-.066-.03-.065-.03-.065-.032-.065-.033-.065-.033-.065-.034-.063-.035-.064-.035-.064-.037-.063-.037-.063-.038-.062-.039-.062-.04-.062-.04-.061-.041-.062-.043-.062-.043-.06-.043-.06-.045-.06-.045-.058-.046-.058-.046-.058-.047-.056-.047-.056-.048-.056-.05-.055-.048-.054-.05-.053-.051-.053-.051-.052-.051-.052-.053-.05-.052-.05-.054-.05-.054-.05-.054-.047-.055-.047-.056-.047-.056-.046-.056-.045-.057-.044-.058-.044-.058-.043-.058-.042-.06-.042-.06-.04-.06-.04-.06-.04-.06-.038-.062-.038-.062-.037-.062-.036-.063-.035-.063-.035-.064-.034-.064-.033-.064-.032-.065-.031-.065-.03-.066-.03-.066-.03-.067-.028-.067-.027-.067-.027-.067-.025-.068-.025-.069-.024-.068-.023-.07-.023-.069-.021-.07-.02-.07-.02-.07-.019-.07-.018-.071-.017-.071-.017-.072-.015-.071-.014-.07-.916-4.72-.005-.024-.004-.021-.005-.021-.005-.021-.005-.02-.005-.021-.006-.02-.006-.021-.005-.02-.007-.02-.006-.02-.007-.02-.007-.02-.007-.019-.007-.019-.008-.02-.007-.018-.008-.019-.008-.018-.009-.019-.008-.018-.009-.019-.009-.017-.008-.018-.01-.018-.009-.017-.01-.018-.01-.017-.01-.017-.01-.017-.01-.017-.01-.016-.011-.016-.01-.017-.012-.016-.011-.016-.012-.016-.011-.015-.012-.015-.012-.015-.012-.016-.012-.015-.013-.014-.012-.015-.013-.014-.013-.014-.013-.014-.013-.014-.013-.014-.014-.013-.014-.013-.014-.014-.014-.012-.014-.013-.014-.013-.015-.012-.015-.012-.014-.012-.016-.012-.015-.012-.015-.011-.016-.012-.016-.01-.015-.012-.015-.01-.016-.01-.015-.01-.016-.01-.016-.009-.016-.01-.016-.008-.015-.009-.016-.009-.017-.008-.016-.008-.017-.008-.016-.008-.017-.007-.016-.008-.017-.007-.017-.007-.017-.007-.018-.006-.017-.007-.017-.006-.018-.006-.017-.006-.017-.005-.018-.005-.018-.006-.017-.004-.019-.005-.018-.004-.018-.005-.018-.004-.018-.004-.018-.003-.019-.004-.019-.003-.018-.003-.019-.003-.018-.002-.02-.003-.018-.002-.019-.002-.019-.001-.019-.002-.019-.001h-.02l-.019-.002h-.116l-.02.001-.02.001-.02.001-.019.002-.02.002-.02.002-.02.002-.02.002-.02.003-.02.003-.02.003-.02.004-.024.004-.024.005-.024.005-.023.005-.024.006-.023.006-.024.006-.023.007-.023.006-.023.007-.022.008-.023.008-.022.008-.022.008-.023.008-.021.01-.022.008-.022.01-.022.01-.021.009-.021.01-.021.01-.022.011-.02.011-.021.011-.02.012-.021.011-.02.012-.02.012-.02.013-.02.012-.02.013-.02.014-.019.013-.019.014-.019.013-.019.015-.018.014-.019.015-.018.015-.018.015-.018.015-.018.015-.018.016-.017.016-.017.016-.017.017-.017.016-.017.017-.016.017-.016.017-.016.018-.016.017-.016.018-.015.018-.015.018-.016.019-.014.018-.015.019-.014.018-.014.02-.014.019-.014.02-.013.019-.013.02-.013.02-.013.02-.013.02-.012.02-.012.02-.012.021-.012.021-.011.02-.011.022-.01.021-.011.021-.01.022-.01.021-.01.022-.01.022-.01.022-.008.022-.009.022-.009.022-.008.022-.008.023-.008.022-.007.023-.007.022-.007.023-.006.023-.007.023-.006.023-.006.023-.005.023-.005.023-.005.023-.005.024-.004.023-.005.024-.003.023-.004.024-.003.024-.003.024-.003.023-.002.024-.002.024-.001.024-.002.024-.001.024v.024l-.001.024V103.18l.001.024v.024l.002.025.002.024.002.024.002.024.003.025.003.024.003.024.003.025.004.024.005.025.005.03.926 4.966.005.027.005.032.004.032.003.032.003.032.002.032v.032l.001.032v.032l-.002.032-.002.032-.003.032-.004.032-.004.032-.005.032-.006.031-.007.031-.008.032-.008.031-.01.03-.01.031-.01.03-.012.03-.012.03-.013.03-.014.029-.015.028-.015.028-.016.028-.017.028-.017.027-.018.026-.019.026-.02.026-.02.025-.02.024-.022.024-.021.023-.022.023-.024.022-.023.021-.024.021-.025.02-.024.02-.026.02-.026.018-.026.018-.027.016-.027.017-.028.015-.028.016-.028.014-.029.013-.03.013-.028.013-.03.01-.029.012-.03.01-.03.01-.03.008-.031.008-.03.007-.032.006-.027.006-1.103.195-.033.006-.039.005-.038.004-.038.003-.038.002-.038.001h-.076l-.037-.002-.037-.003-.038-.004-.036-.005-.037-.005-.037-.007-.036-.007-.036-.008-.036-.009-.035-.01-.036-.01-.034-.011-.035-.012-.034-.013-.034-.014-.034-.015-.034-.015-.033-.016-.033-.017-.032-.018-.032-.018-.032-.019-.031-.02-.03-.02-.032-.022-.03-.022-.029-.022-.029-.024-.028-.024-.028-.024-.027-.025-.026-.026-.026-.026-.026-.027-.024-.028-.024-.028-.024-.028-.022-.03-.022-.03-.022-.03-.02-.031-.02-.031-.02-.033-.018-.032-.018-.033-.017-.034-.016-.034-.015-.035-.015-.035-.013-.036-.013-.036-.011-.037-.011-.038-.01-.037-.009-.038-.007-.034-.959-5.144-.004-.02-.004-.021-.005-.02-.005-.022-.005-.02-.005-.02-.006-.021-.006-.02-.006-.02-.006-.02-.006-.02-.007-.02-.007-.02-.007-.018-.007-.02-.007-.019-.008-.019-.008-.018-.008-.019-.008-.019-.009-.018-.008-.018-.01-.018-.008-.018-.01-.017-.009-.018-.01-.017-.01-.017-.009-.017-.01-.017-.01-.017-.011-.016-.01-.017-.012-.016-.01-.016-.012-.016-.011-.016-.012-.015-.012-.015-.012-.016-.012-.014-.012-.015-.012-.015-.013-.015-.013-.014-.013-.014-.013-.014-.013-.014-.013-.013-.014-.014-.014-.013-.013-.013-.014-.013-.015-.013-.014-.013-.015-.012-.014-.012-.015-.012-.015-.012-.016-.012-.015-.011-.015-.011-.016-.012-.016-.01-.015-.01-.015-.01-.016-.01-.016-.01-.015-.01-.016-.009-.016-.009-.016-.009-.016-.008-.016-.009-.017-.008-.016-.008-.017-.008-.016-.008-.017-.007-.017-.007-.017-.007-.017-.006-.017-.007-.017-.007-.017-.006-.018-.006-.018-.005-.017-.006-.018-.005-.017-.005-.019-.005-.017-.005-.018-.005-.018-.004-.018-.004-.019-.003-.018-.004-.019-.004-.018-.003-.018-.003-.019-.003-.019-.002-.019-.003-.019-.002-.019-.001-.019-.002-.018-.002h-.02l-.019-.002h-.02l-.019-.001h-.097l-.02.001-.02.001-.02.002-.019.001-.02.002-.02.002-.02.002-.02.003-.02.002-.02.003-.02.004-.02.003-.024.004-.024.005-.023.005-.024.005-.024.006-.023.006-.023.006-.023.007-.023.007-.023.007-.023.007-.022.008-.023.008-.022.008-.022.008-.022.01-.022.008-.022.01-.021.009-.022.01-.021.01-.022.01-.02.011-.021.01-.02.012-.022.012-.02.011-.02.012-.02.013-.02.012-.02.013-.02.013-.019.013-.02.013-.019.014-.019.014-.018.014-.019.014-.018.015-.019.015-.018.015-.018.015-.018.016-.017.015-.018.016-.017.016-.017.017-.017.016-.017.017-.016.017-.016.018-.016.017-.016.017-.016.018-.015.018-.015.018-.015.018-.015.02-.015.018-.014.019-.014.019-.014.02-.014.018-.013.02-.013.02-.013.02-.013.02-.012.02-.013.02-.012.02-.012.021-.011.02-.011.022-.011.021-.012.021-.01.021-.01.022-.01.021-.01.022-.01.022-.009.021-.01.023-.008.022-.008.022-.008.022-.009.022-.007.023-.008.023-.007.022-.007.023-.006.023-.006.023-.007.023-.005.023-.006.023-.005.024-.005.023-.005.023-.004.024-.004.023-.004.024-.003.023-.004.024-.002.023-.003.024-.002.024-.002.024-.002.024-.001.024-.001.023-.001.025v.023l-.001.025v.048l.001.024.001.024.001.024.002.025.002.024.002.024.003.025.003.024.003.024.004.025.004.024.004.024.006.03.927 4.967.004.027.005.032.004.032.003.032.003.032.002.032.001.032v.064l-.002.032-.002.032-.003.032-.003.032-.005.032-.005.032-.006.031-.007.031-.008.032-.008.03-.01.031-.01.03-.01.031-.012.03-.012.03-.013.03-.014.028-.015.029-.015.028-.016.028-.016.027-.018.027-.018.027-.019.026-.02.025-.02.025-.02.025-.02.023-.023.024-.022.023-.023.022-.024.022-.024.02-.024.02-.025.02-.026.02-.026.018-.026.017-.027.017-.027.017-.028.015-.028.016-.028.014-.028.013-.03.013-.029.012-.03.012-.029.01-.03.01-.03.01-.03.009-.031.008-.03.007-.031.007-.027.005-1.104.195-.033.005-.039.006-.038.004-.038.003-.038.002-.038.001h-.075l-.038-.003-.037-.003-.037-.003-.037-.005-.037-.005-.036-.007-.036-.007-.037-.008-.035-.009-.036-.01-.035-.01-.035-.012-.034-.012-.035-.013-.034-.013-.034-.015-.033-.015-.034-.016-.032-.017-.032-.018-.033-.018-.032-.02-.03-.02-.032-.02-.03-.02-.03-.023-.03-.023-.028-.023-.028-.024-.028-.024-.027-.025-.027-.026-.026-.027-.025-.026-.025-.028-.024-.028-.023-.029-.023-.029-.022-.03-.021-.03-.021-.031-.02-.031-.02-.032-.018-.033-.017-.033-.017-.034-.016-.034-.016-.035-.014-.035-.014-.036-.012-.036-.012-.037-.01-.038-.01-.037-.01-.039-.006-.033-.965-5.167-.65-3.469-.004-.02-.005-.022-.004-.02-.005-.02-.005-.021-.005-.02-.006-.02-.006-.02-.006-.02-.006-.02-.006-.02-.007-.02-.007-.019-.007-.02-.007-.018-.007-.02-.008-.018-.008-.019-.008-.018-.008-.018-.008-.018-.009-.019-.009-.017-.009-.018-.009-.017-.01-.018-.009-.017-.01-.017-.01-.017-.01-.017-.01-.017-.01-.016-.011-.016-.01-.016-.012-.016-.011-.016-.012-.016-.011-.015-.011-.016-.012-.015-.013-.015-.012-.014-.012-.015-.013-.015-.013-.014-.013-.014-.013-.014-.013-.014-.013-.013-.014-.014-.013-.013-.014-.013-.015-.013-.014-.013-.014-.013-.015-.012-.014-.012-.016-.012-.014-.012-.016-.012-.015-.011-.016-.011-.015-.011-.016-.012-.016-.01-.015-.01-.015-.01-.016-.01-.016-.008-.015-.01-.017-.009-.016-.009-.016-.008-.016-.009-.016-.008-.017-.008-.016-.008-.017-.007-.017-.008-.017-.007-.017-.007-.016-.007-.017-.006-.018-.006-.017-.007-.017-.006-.018-.005-.018-.006-.017-.005-.018-.005-.018-.005-.018-.005-.018-.005-.018-.004-.018-.004-.018-.004-.019-.003-.018-.004-.019-.003-.018-.003-.018-.003-.02-.002-.018-.003-.02-.002-.018-.001-.019-.002-.019-.002h-.02l-.018-.002h-.02l-.019-.001h-.098l-.02.001-.019.001-.02.002-.02.001-.02.002-.019.002-.02.002-.02.003-.02.002-.02.003-.02.004-.02.003-.06.011-.06.012-.058.012-.057.013-.055.013-.054.013-.053.015-.052.014-.05.015-.049.016-.047.015-.046.017-.045.017-.044.017-.042.017-.04.018-.04.018-.04.02-.018.008-.019.01-.018.009-.018.01-.017.01-.018.009-.017.01-.016.01-.017.01-.016.01-.016.01-.016.01-.015.01-.015.01-.015.01-.015.011-.014.01-.014.011-.014.011-.014.01-.013.012-.013.01-.013.012-.013.01-.012.011-.012.012-.012.01-.012.012-.012.012-.011.011-.012.012-.01.012-.012.012-.01.011-.01.012-.011.012-.01.013-.01.012-.01.012-.01.013-.01.012-.009.013-.009.013-.01.013-.008.013-.009.014-.009.013-.008.014-.009.014-.008.014-.008.014-.008.014-.008.015-.008.015-.007.014-.007.015-.008.016-.007.015-.007.016-.007.016-.007.016-.007.016-.006.017-.007.017-.006.017-.007.017-.006.017-.006.018-.005.018-.006.018-.006.019-.005.019-.005.019-.006.019-.004.02-.005.017-.01.043-.008.041-.008.043-.008.043-.007.045-.006.046-.005.047-.003.027-.001.054-.001.08-.001.079v.239l.002.079.002.08.003.08.003.08.004.079.004.08.005.08.006.08.006.08.007.08.007.08.007.08.008.08.01.08.009.08.01.08.01.08.012.08.012.08.012.081.013.08.013.08.014.081.015.08.015.081.016.08.016.082.017.08.018.08.018.081.019.08.018.082.02.08.02.081.022.08.021.081.022.081.023.081.023.08.024.082.024.08.025.081.026.081.026.081.027.081.027.08.028.082.028.08.029.082.03.08.03.081.03.081.032.081.032.081.032.081.033.081.034.081.034.081.03.072.032.073.032.072.033.072.033.072.033.072.034.072.034.071.034.072.035.07.036.072.035.07.037.071.036.071.037.07.037.071.038.07.039.07.038.07.04.07.039.07.04.068.04.07.04.068.042.07.041.068.042.068.042.068.043.069.043.067.044.068.044.068.044.067.045.067.044.067.046.067.046.067.046.066.046.066.047.066.048.066.047.066.049.065.048.065.05.065.048.065.05.064.05.065.05.064.05.064.052.064.051.063.052.064.052.063.053.063.053.062.053.063.054.062.054.062.054.062.055.061.055.062.055.06.056.062.056.06.057.06.056.06.058.06.057.06.058.06.058.059.058.059.06.058.059.059.059.058.06.058.06.058.06.057.062.057.06.057.062.057.062.056.062.056.063.056.063.056.063.055.063.055.064.055.064.054.065.055.064.054.066.053.065.054.066.053.066.053.066.052.066.052.067.053.068.051.067.052.068.05.068.052.068.05.07.05.068.05.07.05.07.05.07.049.07.048.07.049.07.048.072.048.071.047.072.048.072.047.072.046.072.046.073.046.073.046.074.045.073.045.074.045.074.045.074.043.075.044.075.044.075.042.076.043.075.043.076.042.076.041.076.041.076.04.077.041.076.04.076.04.077.039.076.038.077.039.077.037.077.038.077.037.077.036.078.036.077.036.077.036.078.035.078.034.078.034.078.034.077.033.078.033.078.032.078.032.079.032.078.031.078.03.079.031.078.03.079.03.078.028.079.03.079.027.078.028.08.028.078.026.079.027.079.026.08.026.078.025.08.025.079.024.079.024.079.023.079.024.08.022.079.023.08.022.078.02.08.022.08.02.079.02.08.02.079.02.08.018.079.019.08.018.079.017.08.018.079.016.08.016.079.016.08.016.079.015.08.014.079.014.08.014.08.013.078.013.08.012.08.012.079.012.08.011.079.01.079.01.08.01.079.01.079.009.079.008.08.008.078.008.08.007.079.007.079.006.079.006.079.005.079.006.078.004.08.004.078.004.079.003.078.003.079.002.078.002.079.001.078.002h.313l.078-.002.078-.001.078-.002.078-.003.077-.003.078-.003.077-.004.078-.004.077-.005.078-.005.077-.005.077-.007.077-.006.077-.007.076-.007.077-.008.077-.008.076-.009.076-.01.077-.009.076-.01.076-.01.076-.011.076-.011.075-.012.076-.012.076-.013.075-.013.063-.011.062-.012.062-.012.062-.012.061-.012.062-.012.06-.013.061-.013.061-.014.06-.014.061-.013.06-.015.06-.014.06-.015.06-.015.06-.015.06-.016.058-.016.06-.016.058-.016.059-.017.058-.017.059-.017.058-.018.058-.018.057-.018.058-.018.057-.018.058-.02.057-.018.056-.02.057-.02.056-.02.057-.02.056-.02.056-.02.055-.022.056-.02.055-.022.056-.022.054-.022.055-.022.055-.023.054-.023.054-.023.054-.023.054-.024.054-.024.053-.024.053-.024.053-.025.053-.025.053-.025.052-.025.052-.026.052-.026.052-.026.052-.026.051-.027.052-.027.05-.027.051-.027.051-.028.05-.028.05-.028.05-.028.05-.03.05-.028.05-.03.049-.029.048-.03.05-.03.048-.03.048-.03.048-.03.048-.032.048-.03.048-.032.047-.031.047-.032.047-.032.047-.033.046-.033.046-.032.046-.034.046-.033.045-.034.046-.034.045-.033.045-.035.045-.034.044-.035.045-.035.044-.035.044-.036.043-.036.044-.036.043-.036.043-.036.042-.037.043-.037.042-.037.043-.038.041-.038.042-.037.042-.039.04-.038.041-.039.041-.039.041-.039.04-.04.04-.039.04-.04.04-.04.04-.04.038-.04.04-.04.038-.042.038-.041.038-.041.039-.042.037-.042.038-.042.037-.043.037-.042.037-.043.037-.043.04-.048.021-.025.026-.03.027-.027.027-.028.028-.027.028-.026.03-.026.029-.025.03-.024.03-.024.031-.022.032-.022.032-.021.032-.02.033-.02.033-.02.034-.018.034-.017.034-.017.034-.016.035-.015.035-.014.036-.014.036-.013.036-.012.036-.011.036-.01.037-.01.037-.01.037-.008.037-.008.038-.007.048-.008.05-.007.049-.005.05-.005.049-.003.049-.002h.098l.05.002.048.002.048.005.049.004.048.006.048.008.048.008.048.01.048.01.047.01.047.013.047.014.047.014.046.015.046.016.046.018.045.018.046.02.044.02.045.021.044.023.044.023.043.024.043.025.045.028.044.029.043.029.043.03.042.032.04.032.041.033.04.034.038.034.038.036.037.036.036.037.035.038.034.039.034.039.032.04.032.04.031.042.03.043.028.043.028.043.027.045.026.045.024.046.024.046.022.047.021.048.02.049.02.048.017.05.017.05.015.051.014.051.012.052.011.051.01.052.007.052.007.053.005.052.004.053.002.052v.106l-.003.052-.004.053-.006.052-.007.052-.009.052-.01.052-.013.052-.013.05-.016.052-.017.05-.018.05-.02.05-.022.048-.023.048-.025.048-.027.046-.028.046-.03.045-.03.044-.033.043-.031.038-.05.061-.049.056-.048.056-.048.056-.049.056-.05.055-.049.055-.05.054-.05.055-.05.053-.05.054-.051.054-.051.053-.052.052-.052.053-.052.052-.052.052-.053.052-.053.051-.053.051-.053.05-.054.051-.054.05-.054.05-.055.05-.055.049-.055.048-.056.05-.055.047-.056.048-.057.048-.056.047-.057.047-.057.047-.058.046-.057.047-.058.045-.059.046-.058.045-.058.045-.06.044-.059.044-.06.044-.06.044-.06.043-.06.043-.06.043-.06.042-.062.042-.061.042-.062.041-.062.041-.062.041-.062.04-.063.04-.062.04-.064.04-.063.039-.063.038-.064.039-.064.038-.065.038-.064.037-.065.037-.065.037-.065.037-.066.036-.065.036-.066.035-.067.035-.066.035-.067.035-.067.034-.067.034-.067.033-.068.033-.068.033-.068.033-.068.032-.068.032-.07.031-.068.032-.07.03-.069.031-.07.03-.069.03-.07.03-.07.029-.071.029-.07.028-.072.028-.07.028-.072.028-.072.027-.071.027-.072.026-.072.026-.073.026-.072.026-.073.025-.073.024-.073.025-.074.024-.073.024-.074.023-.074.023-.074.023-.075.022-.074.022-.075.022-.075.021-.075.021-.076.02-.075.021-.076.02-.075.02-.077.02-.076.018-.077.018-.076.019-.077.018-.077.017-.077.017-.078.017-.077.016-.078.016-.078.016-.079.016-.139.026-.07.013-.071.013-.102.018-.104.017-.103.017-.103.016-.103.015-.103.015-.104.014-.104.013-.103.013-.104.013-.104.012-.104.01-.104.01-.104.01-.104.01-.105.009-.104.008-.105.007-.104.007-.105.006-.105.006-.105.005-.104.004-.105.004-.106.003-.105.003-.105.002-.105.001h-.421l-.105-.003-.106-.002-.105-.003-.106-.003-.105-.004-.106-.005-.105-.005-.106-.006-.105-.007-.106-.007-.106-.007-.105-.009-.106-.008-.106-.01-.105-.01-.106-.01-.106-.012-.105-.012-.106-.012-.106-.013-.106-.014-.105-.014-.106-.015-.106-.015-.105-.016-.106-.017-.105-.017-.106-.017-.105-.019-.106-.019-.105-.019-.106-.02-.105-.021-.105-.021-.105-.022-.106-.022-.105-.023-.105-.024-.105-.024-.105-.025-.105-.025-.105-.026-.105-.026-.105-.027-.105-.028-.104-.028-.105-.03-.104-.028-.105-.03-.104-.03-.105-.032-.104-.032-.104-.032-.104-.032-.104-.034-.104-.034-.103-.034-.104-.035-.103-.036-.104-.036-.103-.037-.103-.037-.103-.038-.103-.039-.104-.039-.102-.04-.103-.04-.102-.04-.103-.042-.102-.041-.102-.043-.102-.043-.102-.043-.102-.045-.102-.044-.1-.045-.102-.046-.101-.046-.101-.047-.101-.048-.1-.048-.101-.049-.1-.049-.1-.05-.101-.05-.1-.05-.1-.052-.1-.052-.099-.052-.099-.053-.099-.054-.099-.054-.099-.055-.098-.055-.098-.056-.098-.056-.098-.057-.098-.057-.097-.058-.097-.059-.097-.058-.096-.06-.096-.059-.095-.06-.095-.06-.094-.061-.095-.062-.094-.062-.093-.062-.093-.062-.093-.063-.092-.064-.092-.064-.092-.064-.091-.065-.091-.065-.09-.066-.09-.066-.09-.066-.09-.067-.088-.068-.089-.067-.087-.068-.088-.069-.088-.069-.086-.069-.087-.07-.086-.07-.085-.07-.085-.07-.085-.072-.084-.072-.084-.072-.084-.072-.083-.073-.082-.074-.083-.073-.081-.074-.082-.074-.08-.075-.081-.075-.08-.076-.08-.076-.079-.076-.079-.076-.078-.077-.078-.078-.077-.077-.077-.078-.077-.078-.076-.08-.075-.078-.075-.08-.075-.08-.074-.08-.074-.08-.073-.08-.073-.082-.073-.081-.071-.082-.072-.082-.07-.083-.071-.083-.07-.083-.07-.083-.07-.084-.068-.084-.068-.085-.067-.084-.068-.086-.066-.085-.066-.086-.066-.086-.065-.086-.065-.087-.064-.087-.064-.087-.063-.088-.063-.088-.062-.088-.062-.088-.061-.09-.06-.088-.061-.09-.06-.09-.059-.09-.059-.09-.058-.09-.057-.091-.057-.09-.057-.092-.056-.092-.056-.092-.055-.092-.055-.093-.053-.092-.054-.094-.053-.093-.052-.093-.052-.094-.051-.094-.051-.095-.05-.094-.05-.095-.05-.095-.048-.096-.048-.095-.047-.096-.047-.096-.047-.097-.046-.096-.045-.097-.045-.097-.044-.097-.043-.098-.043-.098-.043-.098-.042-.098-.041-.098-.041-.1-.04-.098-.04-.1-.039-.099-.038-.099-.03-.077-.028-.077-.029-.077-.028-.077-.027-.077-.028-.077-.027-.077-.026-.077-.026-.077-.026-.077-.025-.077-.025-.078-.025-.077-.024-.077-.024-.078-.023-.077-.023-.077-.022-.078-.023-.077-.022-.078-.021-.077-.021-.078-.02-.078-.021-.077-.02-.078-.02-.077-.018-.078-.02-.078-.017-.078-.018-.077-.018-.078-.017-.078-.016-.078-.017-.077-.016-.078-.015-.078-.015-.078-.015-.078-.014-.077-.014-.078-.014-.078-.013-.078-.012-.078-.013-.078-.012-.078-.011-.078-.011-.077-.011-.079-.01-.077-.01-.078-.01-.078-.009-.078-.009-.078-.008-.078-.008-.077-.007-.079-.007-.077-.007-.078-.006-.078-.006-.078-.005-.077-.005-.078-.005-.078-.003-.061-.003-.026-.006-.08-.006-.08-.005-.079-.004-.078-.003-.08-.003-.078-.001-.078-.001-.078v-.154l.002-.077.002-.077.003-.077.003-.076.005-.075.004-.057.001-.042.003-.062.006-.128.003-.047.004-.048.005-.052.007-.058.008-.062.01-.066.01-.07.014-.072.008-.04.007-.04.009-.04.01-.04.009-.043.01-.042.011-.044.012-.044.012-.045.013-.046.014-.046.014-.048.015-.047.016-.049.017-.049.018-.05.018-.05.02-.051.02-.052.02-.051.023-.053.023-.053.023-.053.025-.054.026-.054.027-.055.028-.055.029-.055.03-.055.03-.056.033-.056.033-.056.035-.056.035-.057.037-.057.038-.057.04-.056.04-.057.041-.057.043-.057.044-.057.046-.056.047-.057.048-.057.05-.056.05-.057.053-.055.053-.056.05-.05.048-.048.05-.048.049-.046.05-.045.049-.044.05-.043.049-.042.049-.04.05-.04.049-.039.049-.037.049-.037.049-.036.048-.035.049-.033.048-.033.048-.032.048-.03.047-.03.047-.03.046-.028.046-.027.046-.026.045-.026.045-.025.045-.023.043-.023.044-.023.042-.021.043-.02.041-.021.041-.02.04-.018.04-.017.039-.017.038-.017.038-.016.071-.029.07-.026.065-.024.063-.022.058-.02.054-.018.05-.015.046-.013.041-.012.036-.01.034-.008.016-.004.032-.01.057-.016.057-.016.057-.016.058-.015.058-.015.058-.014.058-.015.059-.013.059-.014.058-.013.06-.012.059-.012.06-.012.059-.011.06-.01.07-.013.072-.011.072-.01.07-.01.072-.009.072-.007.071-.007.072-.006.071-.005.072-.004.071-.003.072-.003.071-.001h.143l.071.001.072.002.071.003.071.004.072.004.07.006.072.006.07.007.072.009.07.009.071.01.07.01.07.012.071.013.07.013.07.014.07.015.07.016.07.016.069.018.069.019.069.019.069.02.068.02.068.023.069.022.067.023.068.025.067.025.068.026.067.026.066.028.067.028.066.03.066.03.066.03.065.032.065.032.065.033.064.034.064.035.064.036.064.036.063.037.062.038.063.04.062.039.062.04.06.04.047.033.046.032.046.033.046.033.045.033.044.034.045.033.044.035.043.034.043.035.043.035.043.036.042.036.042.036.041.037.041.037.041.038.04.037.04.038.04.039.04.038.038.04.038.038.038.04.038.04.037.04.037.041.037.04.036.042.035.041.036.042.035.042.034.043.034.042.034.043.033.044.033.043.032.044.033.044.031.045.031.044.031.046.03.045.03.045.03.046.03.046.028.047.01.018.01-.006.04-.021.038-.022.038-.02.039-.022.039-.02.04-.02.039-.02.039-.019.04-.02.04-.018.04-.019.04-.018.04-.018.04-.017.041-.017.041-.018.04-.016.042-.016.041-.016.042-.016.041-.015.042-.015.042-.015.042-.014.042-.014.043-.014.042-.013.042-.013.043-.013.043-.012.043-.012.043-.012.043-.012.043-.01.044-.011.043-.01.044-.01.044-.01.044-.01.043-.009.044-.009.045-.008.045-.008.07-.012.071-.011.072-.01.071-.01.072-.009.071-.008.072-.006.071-.006.072-.005.071-.004.072-.004.071-.002.072-.001h.213l.073.003.07.003.072.003.071.005.071.006.071.006.071.008.071.007.071.01.07.01.07.01.071.012.07.013.07.013.07.014.07.015.07.016.07.016.07.018.068.019.069.019.069.02.069.02.068.022.068.023.068.023.068.025.067.025.067.026.067.026.067.028.067.028.066.03.066.03.065.03.066.032.065.032.064.033.065.035.064.034.064.036.015.009.018-.024.046-.059.048-.057.047-.057.049-.056.05-.056.05-.055.05-.054.052-.053.052-.053.053-.05.054-.052.054-.05.056-.05.055-.048.057-.048.057-.047.057-.046.06-.046.058-.044.06-.044.06-.043.061-.042.062-.041.062-.041.063-.04.063-.038.064-.038.065-.038.064-.036.066-.035.066-.034.067-.034.067-.033.068-.031.068-.031.069-.03.07-.03.07-.027.07-.028.07-.026.071-.025.072-.025.072-.023.072-.023.073-.022.073-.02.074-.02.074-.02.075-.017.075-.017.075-.016.076-.015.076-.014.071-.012.071-.011.072-.01.071-.01.072-.009.07-.007.072-.007.072-.006.071-.005.072-.004.072-.003.07-.003.072-.001H98.734l.071.003.071.003.072.004.07.004.072.006.07.006.072.007.07.009.071.009.071.01.07.01.071.012.07.012.07.014.07.014.07.015.07.016.07.017.069.017.069.018.069.02.069.02.068.02.069.022.068.023.068.023.067.025.068.025.067.026.067.026.067.028.066.028.066.03.066.03.066.03.065.032.065.032.065.033.065.034.064.035.063.036.064.036.063.038.063.038.062.038.062.04.062.04.061.041.062.043.061.043.06.044.06.044.06.045.059.046.058.046.058.047.056.048.056.048.056.049.055.049.054.05.053.05.053.051.052.052.052.052.05.053.05.053.05.054.049.055.048.055.047.055.047.056.046.057.045.057.044.057.044.058.043.059.042.059.042.06.04.06.04.06.04.06.038.062.038.062.037.062.036.063.035.063.035.064.034.064.033.065.032.064.031.066.03.066.03.065.03.067.027.067.028.067.027.068.025.068.025.068.024.069.023.069.022.069.022.07.02.07.02.07.019.07.018.072.017.07.016.072.016.072.013.07.917 4.72.004.023.005.021.005.021.005.021.005.021.005.02.005.021.006.02.006.02.007.02.006.02.007.02.007.02.007.02.007.018.008.02.007.018.008.02.008.018.008.018.009.019.008.018.01.018.008.018.01.017.009.018.01.017.01.017.01.017.01.017.01.017.01.016.011.017.01.016.012.016.011.016.012.016.011.015.012.015.012.016.012.015.012.015.012.014.013.015.013.014.013.014.013.014.013.014.013.014.014.013.013.013.014.013.015.014.014.012.014.013.015.012.014.012.015.012.015.012.016.012.015.011.015.012.016.01.016.012.015.01.016.01.015.01.016.01.015.01.016.008.016.01.016.008.016.008.017.009.016.008.017.008.016.008.017.008.017.007.016.007.017.007.017.007.017.007.018.006.017.006.017.006.018.006.017.005.018.006.018.005.018.005.017.004.019.005.018.004.018.004.018.004.018.004.019.003.018.003.019.003.018.003.019.003.019.002.019.002.019.002.019.001.019.002.019.001.02.001.018.001h.02l.019.001h.059l.019-.001h.02l.02-.002.02-.001.019-.002.02-.001.02-.003.02-.002.02-.002.02-.003.02-.003.02-.003.02-.004.034-.006.034-.006.033-.007.032-.007.03-.008.032-.007.03-.008.029-.008.028-.008.028-.009.027-.008.027-.009.026-.009.025-.009.024-.01.024-.009.024-.01.023-.01.021-.009.022-.01.02-.01.021-.01.02-.01.019-.011.019-.01.018-.012.017-.01.018-.011.017-.011.016-.011.016-.012.015-.01.015-.012.015-.012.014-.011.014-.012.014-.012.013-.012.013-.012.013-.012.012-.012.012-.013.012-.012.011-.013.012-.013.01-.013.011-.014.011-.013.01-.014.01-.014.01-.013.01-.015.01-.014.01-.015.009-.015.009-.015.009-.016.008-.015.009-.016.009-.016.008-.017.008-.017.008-.017.007-.018.008-.017.008-.018.007-.019.007-.018.007-.02.006-.018.007-.02.007-.02.006-.02.006-.02.006-.021.006-.021.005-.022.006-.022.005-.022.005-.022.005-.022.005-.023.004-.024.005-.023.004-.024.004-.024.004-.025.003-.023.007-.052.006-.051.005-.053.005-.053.004-.054.003-.055.002-.057.002-.057.001-.058.001-.058v-.06l-.001-.06-.001-.06-.002-.063-.002-.062-.003-.062-.004-.064-.004-.064-.004-.064-.004-.062-.005-.053-.005-.057-.006-.058-.006-.058-.006-.057-.007-.058-.007-.057-.007-.058-.007-.058-.008-.057-.008-.058-.008-.057-.009-.058-.009-.058-.009-.058-.01-.057-.01-.058-.01-.058-.01-.058-.01-.058-.011-.058-.011-.058-.012-.057-.012-.058-.012-.058-.012-.058-.013-.058-.013-.058-.013-.058-.014-.058-.014-.058-.014-.058-.014-.058-.015-.058-.015-.058-.016-.058-.015-.058-.016-.058-.016-.058-.017-.058-.016-.058-.017-.058-.018-.058-.018-.058-.018-.058-.018-.058-.019-.058-.018-.058-.02-.058-.019-.058-.02-.058-.02-.058-.02-.057-.02-.059-.021-.057-.021-.058-.022-.058-.021-.058-.023-.058-.022-.058-.023-.057-.023-.058-.023-.058-.023-.057-.03-.075-.032-.074-.031-.074-.032-.074-.033-.073-.033-.074-.033-.073-.033-.073-.034-.073-.035-.073-.035-.073-.035-.072-.036-.073-.036-.072-.037-.072-.037-.072-.037-.072-.038-.071-.039-.071-.038-.072-.04-.07-.04-.071-.04-.071-.04-.07-.04-.071-.041-.07-.042-.07-.042-.07-.043-.07-.042-.07-.044-.068-.043-.07-.044-.068-.045-.069-.044-.068-.046-.069-.045-.068-.046-.068-.047-.067-.047-.067-.047-.068-.047-.067-.048-.067-.049-.066-.049-.067-.049-.066-.049-.066-.05-.066-.05-.065-.05-.065-.052-.066-.052-.065-.051-.064-.052-.065-.053-.064-.053-.064-.053-.064-.053-.063-.055-.064-.054-.063-.055-.063-.055-.062-.055-.062-.056-.063-.056-.061-.057-.062-.057-.062-.057-.06-.058-.062-.057-.06-.059-.06-.059-.061-.059-.06-.059-.06-.06-.059-.06-.06-.06-.058-.06-.058-.062-.059-.061-.058-.062-.058-.062-.057-.062-.058-.063-.057-.063-.056-.064-.057-.063-.056-.064-.056-.065-.055-.065-.056-.065-.055-.065-.054-.066-.055-.066-.054-.066-.054-.067-.054-.067-.053-.067-.053-.068-.053-.068-.053-.068-.051-.068-.052-.07-.052-.069-.051-.069-.051-.07-.05-.07-.05-.07-.051-.07-.05-.072-.05-.071-.048-.072-.05-.071-.048-.072-.048-.073-.047-.073-.048-.073-.047-.073-.047-.074-.047-.074-.046-.074-.046-.074-.045-.075-.046-.075-.044-.075-.045-.076-.044-.076-.044-.076-.043-.076-.044-.077-.042-.076-.043-.077-.042-.077-.041-.077-.041-.077-.04-.077-.04-.077-.04-.078-.04-.077-.039-.078-.038-.078-.039-.078-.037-.078-.037-.077-.037-.079-.037-.078-.035-.078-.036-.079-.035-.078-.035-.079-.034-.079-.034-.078-.033-.08-.033-.078-.033-.08-.032-.079-.031-.079-.031-.079-.031-.08-.03-.079-.03-.079-.03-.08-.03-.08-.028-.079-.028-.08-.028-.08-.027-.08-.027-.079-.027-.08-.025-.08-.026-.08-.025-.08-.025-.08-.024-.08-.024-.08-.023-.081-.023-.08-.023-.08-.022-.08-.021-.081-.022-.08-.02-.081-.021-.08-.02-.081-.02-.08-.018-.081-.019-.08-.018-.081-.018-.08-.017-.081-.017-.08-.016-.081-.016-.081-.015-.08-.016-.081-.014-.08-.014-.081-.014-.08-.014-.082-.012-.08-.013-.08-.011-.081-.012-.08-.011-.081-.01-.08-.011-.08-.01-.081-.01-.08-.008-.081-.008-.08-.008-.08-.007-.081-.008-.08-.006-.08-.007-.081-.005-.08-.005-.08-.005-.08-.005-.08-.003-.08-.004-.08-.003-.08-.003-.08-.002-.08-.001-.08-.002h-.317l-.08.001-.079.002-.079.001-.079.003-.079.003-.079.003-.079.004-.079.004-.078.005-.08.005-.078.005-.078.006-.079.007-.078.007-.078.007-.078.008-.078.008-.078.009-.078.01-.078.009-.077.01-.078.01-.077.011-.077.012-.078.012-.077.012-.076.013-.088.015-.058.01-.059.012-.058.01-.059.012-.057.011-.058.012-.058.012-.058.013-.057.012-.058.013-.057.013-.057.013-.057.014-.057.014-.056.014-.057.014-.056.014-.056.015-.056.015-.056.016-.056.015-.055.016-.055.016-.056.016-.055.017-.054.017-.055.016-.055.018-.054.017-.055.018-.054.018-.053.018-.055.019-.053.018-.053.02-.054.018-.053.02-.053.02-.052.02-.053.02-.053.02-.052.02-.052.022-.052.02-.052.022-.051.021-.052.022-.051.022-.051.022-.051.023-.051.023-.05.022-.051.024-.05.023-.05.024-.05.024-.05.024-.05.024-.049.025-.05.024-.048.026-.05.025-.048.025-.048.026-.049.026-.048.026-.048.026-.047.027-.048.027-.047.027-.047.027-.048.028-.046.027-.047.028-.047.029-.046.028-.046.029-.046.029-.046.029-.045.029-.045.03-.046.03-.045.03-.044.03-.045.03-.044.03-.045.031-.044.031-.043.032-.044.03-.044.033-.043.032-.043.032-.043.032-.043.033-.042.033-.042.032-.042.034-.042.033-.042.034-.041.034-.042.034-.04.034-.042.035-.04.034-.04.035-.041.035-.04.036-.04.036-.04.035-.04.036-.039.037-.039.036-.038.037-.04.037-.038.036-.038.038-.038.037-.038.038-.038.038-.037.038-.037.038-.037.039-.037.038-.037.04-.036.039-.036.04-.04.042-.021.024-.026.027-.026.026-.027.026-.028.025-.028.024-.029.024-.029.023-.03.023-.03.021-.03.021-.03.02-.032.02-.031.02-.032.018-.032.017-.033.018-.033.016-.033.016-.033.014-.034.015-.034.013-.034.013-.035.012-.035.012-.035.01-.035.01-.035.01-.036.009-.035.008-.036.007-.038.007-.05.008-.053.007-.053.006-.052.004-.052.003-.053.002h-.104l-.052-.003-.052-.004-.052-.005-.052-.006-.05-.007-.052-.009-.051-.01-.051-.01-.05-.013-.05-.013-.05-.015-.05-.015-.049-.017-.049-.018-.048-.019-.048-.02-.048-.021-.047-.023-.047-.023-.047-.025-.046-.025-.045-.027-.045-.028-.05-.032-.016-.012-.03-.02-.042-.03-.041-.031-.04-.032-.04-.032-.038-.034-.038-.034-.037-.035-.036-.035-.036-.036-.034-.038-.034-.038-.032-.038-.032-.04-.031-.04-.03-.04-.03-.041-.028-.043-.027-.042-.027-.044-.025-.044-.024-.045-.023-.045-.023-.046-.02-.046-.02-.048-.02-.048-.018-.048-.016-.05-.015-.049-.015-.05-.012-.05-.012-.052-.01-.051-.008-.052-.007-.052-.006-.051-.004-.052-.003-.052v-.156l.004-.052.005-.051.006-.052.009-.051.009-.051.011-.051.012-.051.014-.05.016-.05.017-.05.02-.048.02-.049.021-.047.024-.048.025-.046.026-.046.028-.045.03-.044.03-.043.033-.042.033-.042.032-.036.052-.057.049-.053.049-.053.049-.053.05-.052.05-.052.05-.052.05-.051.051-.051.05-.051.052-.05.051-.05.052-.051.052-.05.053-.05.053-.048.052-.05.053-.048.054-.048.053-.048.055-.048.054-.047.054-.047.055-.047.055-.047.055-.046.056-.046.056-.045.055-.046.057-.045.057-.044.056-.045.057-.044.058-.044.057-.043.058-.043.058-.044.059-.042.058-.043.059-.041.06-.042.059-.042.059-.04.06-.041.06-.04.06-.041.06-.04.061-.04.061-.039.062-.04.06-.037.063-.039.062-.038.062-.038.062-.037.063-.037.063-.037.063-.037.063-.036.063-.036.064-.035.064-.035.065-.035.064-.035.065-.034.065-.034.064-.034.066-.034.065-.032.066-.033.066-.033.066-.032.067-.032.066-.031.067-.031.067-.031.067-.03.068-.031.067-.03.068-.03.068-.029.069-.028.068-.029.069-.028.069-.028.069-.028.07-.027.069-.027.07-.027.069-.026.07-.026.07-.026.071-.025.07-.025.071-.025.071-.024.072-.025.07-.023.072-.024.072-.023.072-.022.073-.023.072-.022.072-.022.073-.021.073-.022.073-.02.073-.02.073-.02.074-.02.074-.02.074-.02.074-.018.075-.018.074-.018.075-.018.074-.018.075-.017.075-.017.076-.016.075-.016.076-.016.076-.015.076-.016.076-.014.076-.015.077-.014.076-.014.082-.014.082-.014.082-.013.083-.013.099-.016.1-.014.1-.015.099-.013.1-.013.1-.012.1-.012.1-.011.1-.01.1-.011.101-.01.101-.009.1-.008.101-.008.101-.007.101-.006.101-.006.101-.006.101-.004.102-.005.101-.004.101-.003.102-.002.102-.002.101-.002h.305zm-.2.745h-.097l-.097.002-.098.002-.097.002-.097.003-.097.004-.097.004-.097.004-.097.006-.097.006-.097.006-.096.007-.097.007-.096.008-.096.008-.097.01-.096.01-.096.01-.096.01-.096.011-.095.012-.096.013-.095.013-.096.013-.095.014-.095.015-.079.013-.078.012-.079.014-.078.013-.073.013-.073.014-.073.014-.073.014-.072.014-.073.015-.072.015-.072.015-.072.016-.072.016-.072.016-.07.017-.072.017-.071.017-.071.018-.071.018-.07.018-.07.019-.071.019-.07.019-.07.02-.07.02-.069.02-.07.02-.068.02-.07.022-.068.02-.068.022-.069.022-.068.023-.068.022-.067.023-.068.023-.067.024-.068.024-.067.024-.066.024-.067.025-.067.025-.066.025-.066.026-.066.026-.065.026-.065.027-.066.027-.065.027-.065.027-.064.028-.065.028-.064.028-.064.03-.064.028-.063.03-.064.029-.063.03-.063.03-.063.03-.062.031-.063.031-.061.032-.062.03-.062.033-.062.032-.06.033-.062.033-.06.033-.062.033-.06.034-.06.034-.06.034-.06.035-.06.034-.058.036-.06.035-.058.035-.059.037-.058.036-.058.037-.058.036-.058.037-.057.038-.057.038-.057.038-.057.038-.057.038-.056.04-.056.039-.056.04-.055.039-.056.04-.055.04-.055.04-.054.041-.055.041-.054.042-.054.041-.053.042-.054.043-.053.042-.053.043-.052.043-.053.043-.052.044-.052.044-.052.044-.05.044-.052.045-.051.045-.05.045-.051.046-.05.046-.05.046-.05.046-.05.047-.048.047-.05.047-.048.047-.048.048-.048.048-.048.048-.047.049-.048.049-.047.048-.046.05-.047.05-.046.05-.046.05-.046.05-.02.022-.018.023-.018.023-.016.023-.017.024-.015.025-.014.025-.014.026-.013.026-.012.026-.011.027-.01.027-.01.027-.009.028-.008.028-.007.028-.006.029-.005.029-.005.03-.003.029-.003.03-.002.03v.03l-.001.03v.03l.002.031.003.03.003.032.004.031.006.031.005.031.007.032.008.03.01.032.008.031.01.03.012.032.012.03.013.03.014.03.014.03.015.03.016.028.016.03.018.028.018.028.019.028.019.027.02.027.02.027.022.027.022.025.023.026.023.025.024.024.024.024.025.024.026.023.026.022.026.022.027.022.028.02.028.02.029.02.01.007.03.02.03.019.032.018.031.018.032.017.032.016.032.015.033.015.033.013.032.013.034.012.033.011.033.01.034.01.034.01.033.008.034.007.034.007.034.005.034.005.033.004.034.004.034.002.034.001.034.001h.067l.033-.003.034-.002.033-.004.033-.005.032-.005.023-.004.022-.005.022-.005.022-.005.021-.006.022-.006.02-.006.021-.008.021-.007.02-.007.021-.008.02-.009.02-.009.019-.009.02-.01.018-.01.02-.01.017-.01.018-.011.018-.011.018-.012.017-.012.017-.012.017-.013.016-.013.016-.014.016-.013.016-.014.015-.015.015-.015.015-.015.014-.015.038-.043.04-.042.039-.042.039-.042.04-.042.04-.042.04-.041.04-.041.04-.04.041-.041.041-.04.041-.04.042-.04.041-.04.042-.04.042-.039.043-.04.042-.038.043-.038.043-.039.043-.038.043-.038.044-.037.044-.037.043-.038.045-.037.044-.036.045-.037.045-.036.045-.036.045-.035.046-.036.045-.035.046-.035.046-.035.046-.034.047-.035.047-.034.046-.034.047-.033.048-.034.047-.033.048-.033.048-.032.048-.033.048-.032.049-.032.048-.031.05-.032.048-.031.05-.03.05-.032.048-.03.05-.03.05-.03.05-.03.051-.03.05-.03.051-.028.051-.028.052-.03.05-.027.052-.028.052-.028.052-.028.052-.027.052-.027.053-.027.052-.026.053-.027.053-.025.053-.026.053-.026.054-.025.054-.025.053-.025.054-.024.055-.024.054-.025.055-.023.054-.024.055-.023.055-.023.055-.023.056-.022.055-.023.056-.021.056-.022.056-.021.056-.022.057-.02.056-.021.057-.02.057-.021.057-.02.057-.02.058-.019.057-.019.058-.019.058-.018.058-.019.058-.018.058-.017.059-.018.059-.017.058-.017.06-.017.058-.017.06-.016.06-.016.058-.015.06-.016.06-.015.06-.015.06-.015.06-.014.061-.014.06-.014.062-.014.06-.013.062-.013.06-.013.062-.012.061-.012.062-.012.062-.012.061-.011.063-.012.092-.016.081-.013.082-.013.081-.013.082-.012.082-.012.081-.01.082-.012.082-.01.082-.01.083-.009.082-.008.082-.009.083-.007.082-.008.083-.006.083-.007.083-.006.083-.005.083-.005.083-.005.083-.003.083-.004.084-.003.083-.002.083-.002.084-.002.083-.001h.335l.084.002.084.001.084.003.084.002.084.003.084.004.084.004.084.005.084.005.084.006.085.006.084.006.084.007.085.007.084.008.084.008.085.01.084.009.084.01.085.01.085.01.084.011.084.012.085.012.084.013.085.013.084.013.085.014.084.014.085.015.084.015.084.016.085.017.084.016.085.017.084.018.084.018.085.018.084.02.084.019.085.02.084.02.084.021.084.022.084.021.084.022.085.023.083.023.085.024.083.024.084.024.084.025.084.025.084.026.083.027.084.026.083.027.084.028.083.028.084.029.083.029.083.029.083.03.083.03.083.031.083.032.083.031.083.032.082.033.083.033.082.033.083.034.082.035.082.035.082.035.082.035.082.036.082.037.082.037.081.037.082.038.081.039.081.039.082.039.08.04.082.04.08.04.08.041.082.042.08.041.08.043.08.043.08.043.08.044.08.044.08.044.08.045.079.045.079.046.078.046.079.047.078.046.078.048.078.047.077.048.077.048.077.048.076.05.076.048.076.05.075.05.076.05.074.05.075.051.074.051.074.052.074.052.073.052.073.052.073.053.073.053.071.053.072.054.072.054.07.055.072.055.07.054.07.056.07.055.07.056.069.057.069.056.069.057.068.057.068.058.067.057.067.058.067.059.067.058.066.06.066.058.065.06.066.06.064.06.065.06.064.061.064.06.063.062.063.062.063.061.062.062.062.063.062.062.061.063.061.063.06.064.061.063.06.064.06.064.058.065.059.065.059.064.057.066.058.065.057.066.057.066.057.066.056.067.056.066.055.068.055.067.055.067.054.068.053.068.054.068.053.068.053.07.052.068.052.07.051.068.051.07.05.07.051.07.05.07.05.07.049.071.048.072.049.07.048.072.047.071.047.072.047.072.046.072.045.073.046.073.045.072.044.073.045.074.043.073.043.074.043.074.043.074.042.074.041.074.042.075.04.075.04.075.04.075.04.076.039.075.038.076.038.076.038.076.037.076.037.077.036.076.036.077.036.077.034.077.035.078.034.077.034.078.033.078.032.078.033.078.025.06.024.062.024.06.024.061.023.062.024.06.023.061.022.061.022.061.022.061.022.061.022.061.02.062.022.061.02.061.02.061.02.061.02.062.019.06.019.062.018.061.019.062.018.061.018.061.017.062.017.061.017.062.017.061.016.061.016.062.016.061.015.062.015.061.015.061.014.062.014.061.014.062.014.061.013.062.012.06.013.062.012.062.012.061.012.062.011.061.01.062.012.061.01.062.01.06.01.062.01.062.009.061.009.061.008.062.008.061.008.061.007.062.008.06.007.062.007.061.006.062.006.061.005.061.006.061.005.07.005.068.004.07.003.068.004.068.002.069.002.068.002.068v.201l-.001.067-.002.066-.003.066-.004.065-.005.065-.005.064-.007.064-.007.064-.009.063-.004.03-.005.032-.005.03-.006.032-.005.03-.006.03-.006.03-.007.031-.007.03-.007.03-.007.03-.008.029-.008.03-.008.028-.009.03-.009.028-.01.029-.009.028-.01.028-.01.028-.01.028-.012.028-.011.027-.012.027-.012.027-.012.027-.013.027-.013.026-.013.026-.014.026-.015.026-.014.025-.015.025-.015.025-.016.025-.017.024-.016.024-.017.025-.018.023-.018.023-.018.024-.018.023-.02.022-.02.023-.02.022-.02.022-.02.021-.022.022-.022.02-.022.022-.023.02-.023.02-.023.02-.025.02-.024.02-.025.018-.026.019-.026.018-.027.018-.027.018-.027.017-.028.017-.029.017-.03.017-.029.016-.03.016-.03.015-.032.015-.031.015-.032.015-.033.014-.034.014-.034.013-.034.013-.035.013-.036.012-.036.012-.037.012-.037.011-.038.01-.038.011-.04.01-.039.01-.04.01-.041.009-.041.008-.043.008-.042.008-.029.005-.028.004-.029.005-.028.004-.029.003-.028.003-.028.003-.029.003-.029.002-.028.002-.028.002h-.028l-.029.001h-.028l-.028.001h-.056l-.028-.001-.028-.001-.028-.002-.028-.002-.028-.002-.028-.002-.027-.003-.028-.003-.027-.004-.028-.003-.027-.004-.028-.005-.027-.004-.027-.006-.027-.005-.027-.005-.027-.007-.027-.006-.026-.006-.027-.007-.026-.008-.027-.007-.026-.008-.026-.009-.026-.008-.026-.009-.026-.01-.026-.009-.026-.01-.025-.01-.026-.01-.025-.01-.025-.012-.025-.012-.025-.011-.025-.012-.024-.013-.025-.012-.024-.013-.024-.013-.024-.014-.024-.014-.023-.014-.024-.015-.023-.014-.023-.016-.023-.015-.024-.016-.023-.017-.024-.017-.023-.017-.022-.017-.023-.018-.022-.018-.022-.018-.022-.019-.021-.018-.022-.02-.02-.019-.021-.02-.021-.02-.02-.02-.02-.02-.02-.02-.02-.02-.018-.022-.02-.021-.018-.022-.019-.021-.018-.023-.018-.022-.017-.022-.017-.023-.017-.023-.017-.023-.017-.023-.016-.024-.016-.024-.016-.024-.015-.024-.015-.025-.015-.024-.014-.025-.015-.025-.014-.026-.013-.025-.014-.026-.013-.026-.013-.026-.012-.026-.012-.026-.012-.027-.012-.027-.011-.027-.011-.027-.01-.027-.011-.028-.01-.028-.01-.027-.01-.029-.009-.028-.009-.028-.008-.029-.008-.028-.008-.03-.008-.028-.007-.03-.007-.028-.007-.03-.006-.03-.006-.03-.916-4.72-.012-.062-.014-.063-.014-.062-.015-.062-.016-.062-.016-.062-.017-.06-.018-.062-.019-.06-.02-.06-.02-.061-.02-.06-.022-.06-.022-.059-.023-.059-.024-.058-.025-.059-.025-.057-.026-.058-.027-.057-.027-.057-.028-.057-.029-.056-.03-.056-.03-.055-.03-.056-.032-.055-.032-.054-.033-.054-.034-.054-.034-.053-.035-.052-.036-.053-.036-.052-.037-.052-.037-.05-.039-.052-.039-.05-.039-.05-.04-.05-.041-.049-.042-.048-.041-.048-.043-.048-.043-.047-.045-.047-.044-.047-.045-.045-.046-.046-.047-.044-.047-.045-.047-.044-.048-.043-.05-.043-.049-.043-.05-.041-.05-.042-.052-.04-.052-.041-.052-.04-.053-.039-.053-.039-.055-.038-.054-.037-.054-.037-.055-.035-.055-.035-.055-.035-.055-.033-.056-.033-.056-.032-.056-.032-.056-.03-.057-.03-.057-.03-.057-.028-.058-.028-.058-.027-.058-.026-.058-.026-.058-.025-.059-.024-.058-.023-.06-.023-.059-.022-.06-.021-.059-.021-.06-.02-.06-.019-.06-.018-.06-.018-.06-.017-.061-.016-.06-.015-.061-.014-.061-.015-.062-.013-.06-.012-.062-.012-.062-.01-.061-.01-.062-.01-.061-.009-.062-.007-.062-.008-.062-.006-.062-.006-.062-.005-.062-.004-.062-.003-.063-.003-.062-.001-.062-.001h-.125l-.063.001-.062.002-.062.003-.063.004-.062.004-.062.005-.063.006-.062.007-.062.007-.063.008-.062.01-.062.01-.063.01-.066.012-.066.013-.066.014-.065.015-.065.015-.064.017-.064.017-.064.018-.064.019-.062.02-.063.02-.062.021-.062.022-.06.023-.062.024-.06.024-.06.025-.06.026-.059.027-.058.028-.058.027-.058.03-.057.03-.057.03-.056.03-.055.033-.056.033-.054.033-.054.034-.054.035-.053.035-.052.037-.052.037-.052.037-.05.039-.05.039-.05.04-.05.04-.048.041-.048.042-.047.042-.047.043-.046.044-.045.044-.045.045-.045.046-.043.046-.043.047-.042.048-.042.048-.041.05-.04.049-.04.05-.04.05-.038.052-.037.052-.037.052-.037.053-.035.054-.035.054-.034.055-.034.055-.032.056-.032.057-.05-.038-.052-.037-.05-.036-.053-.035-.054-.037-.054-.035-.055-.035-.056-.035-.055-.033-.055-.033-.056-.032-.057-.031-.056-.031-.057-.03-.057-.03-.057-.028-.058-.028-.057-.027-.058-.026-.058-.026-.059-.025-.059-.024-.058-.023-.06-.023-.059-.022-.059-.021-.06-.02-.06-.02-.06-.02-.06-.018-.06-.018-.06-.016-.06-.016-.061-.016-.061-.015-.061-.013-.061-.013-.061-.013-.062-.012-.061-.01-.061-.01-.062-.01-.062-.009-.062-.008-.062-.007-.062-.006-.062-.006-.062-.004-.062-.005-.062-.003-.062-.003-.063-.001-.062-.002h-.125l-.062.002-.063.002-.062.003-.062.004-.063.004-.062.005-.062.006-.063.007-.062.007-.062.009-.063.008-.062.01-.062.011-.039.007-.038.007-.039.008-.038.008-.038.008-.039.008-.037.01-.038.008-.038.01-.038.01-.037.009-.038.01-.037.01-.037.011-.037.011-.037.012-.037.011-.037.012-.036.012-.036.013-.037.012-.036.014-.036.013-.036.013-.036.014-.035.014-.036.014-.035.015-.035.015-.035.015-.035.016-.035.015-.034.016-.035.017-.034.016-.035.017-.033.017-.034.017-.034.018-.033.018-.034.018-.033.019-.033.018-.033.02-.032.018-.033.02-.032.02-.032.02-.033.02-.031.02-.032.02-.031.022-.032.021-.03.022-.032.021-.03.022-.031.023-.03.022-.03.023-.03.023-.03.023-.03.024-.03.024-.029.024-.018-.045-.019-.044-.02-.043-.019-.044-.02-.043-.02-.043-.021-.043-.021-.043-.022-.042-.022-.043-.022-.042-.023-.042-.023-.041-.024-.042-.023-.04-.025-.042-.024-.04-.025-.04-.026-.041-.025-.04-.027-.04-.026-.04-.027-.039-.027-.039-.028-.039-.028-.038-.028-.038-.029-.039-.03-.037-.028-.038-.03-.037-.03-.038-.03-.036-.032-.037-.031-.036-.032-.036-.032-.036-.032-.036-.033-.035-.033-.035-.033-.035-.034-.034-.034-.034-.034-.034-.035-.034-.035-.033-.035-.033-.036-.033-.036-.033-.037-.032-.037-.032-.037-.032-.037-.031-.038-.031-.038-.031-.039-.03-.039-.031-.039-.03-.04-.03-.039-.03-.04-.028-.04-.029-.041-.028-.041-.028-.054-.037-.055-.035-.055-.035-.055-.035-.055-.033-.056-.033-.056-.032-.056-.031-.057-.031-.056-.03-.057-.03-.058-.028-.057-.028-.058-.027-.058-.026-.058-.026-.059-.025-.058-.024-.059-.023-.059-.023-.059-.022-.06-.021-.059-.02-.06-.02-.06-.02-.06-.018-.06-.018-.06-.016-.061-.016-.06-.016-.061-.015-.062-.013-.06-.013-.062-.013-.061-.012-.062-.01-.061-.01-.062-.01-.061-.009-.062-.008-.062-.007-.062-.006-.062-.006-.062-.004-.063-.005-.062-.003-.062-.002-.062-.002-.063-.001h-.124l-.063.001-.062.002-.062.003-.063.004-.062.004-.063.005-.062.006-.062.007-.063.007-.062.009-.062.009-.062.01-.062.01-.055.01-.054.01-.054.01-.055.012-.053.01-.054.013-.053.012-.054.012-.052.013-.053.013-.053.014-.052.014-.052.014-.051.014-.051.016-.051.015-.032.007-.024.006-.027.007-.033.01-.036.01-.041.013-.045.014-.048.016-.052.019-.055.02-.059.023-.061.024-.032.014-.033.014-.033.014-.033.015-.035.016-.035.017-.036.017-.036.018-.036.018-.037.02-.038.019-.038.02-.039.022-.039.022-.039.022-.04.024-.04.024-.04.025-.04.026-.042.026-.04.028-.042.028-.042.029-.042.03-.042.03-.042.032-.042.032-.042.033-.043.035-.042.034-.043.036-.042.037-.043.038-.042.039-.042.04-.043.04-.042.041-.042.043-.046.048-.044.048-.044.048-.042.048-.04.048-.04.048-.04.048-.037.049-.037.048-.035.048-.034.049-.033.048-.033.048-.03.048-.031.048-.03.048-.027.047-.028.048-.026.047-.025.046-.025.047-.023.047-.023.046-.022.046-.021.045-.02.045-.02.045-.018.044-.018.044-.017.044-.016.043-.016.042-.015.042-.014.042-.013.04-.013.041-.012.04-.012.04-.01.038-.011.037-.01.038-.01.036-.008.036-.008.035-.007.035-.008.033-.006.033-.006.032-.011.06-.01.058-.008.054-.006.05-.005.047-.005.041-.003.038-.002.033-.005.116-.003.057-.001.054-.005.067-.004.067-.003.069-.003.068-.002.069-.001.069-.001.07v.07l.001.07.002.07.002.072.003.072.004.071.004.072.005.072.006.073.003.035.004.074.005.074.005.073.005.074.005.074.006.074.007.074.006.074.007.074.008.074.008.074.008.074.009.074.009.074.01.074.009.075.01.074.01.074.012.074.01.074.013.074.012.074.012.075.013.074.014.074.013.074.014.074.014.075.015.074.015.074.016.074.016.074.016.075.017.074.017.074.017.074.018.074.018.075.019.074.019.074.02.074.019.074.02.074.02.074.021.074.022.074.021.074.022.074.023.074.022.074.023.074.024.074.024.074.024.074.025.074.024.074.026.073.026.074.026.074.026.074.027.073.027.074.028.073.028.074.037.096.037.095.038.095.039.095.039.095.04.094.04.095.04.094.042.094.042.094.042.093.043.093.044.093.044.093.044.092.045.093.046.092.046.092.047.091.047.092.048.091.048.091.05.09.048.091.05.09.05.09.051.09.052.09.052.089.052.088.053.089.053.089.055.088.054.087.055.088.056.088.055.087.057.087.057.086.057.086.058.086.059.086.059.086.059.085.06.085.06.085.061.084.062.084.061.083.063.084.063.083.063.083.064.083.064.082.065.082.065.082.065.081.066.081.067.08.067.081.067.08.069.08.068.08.069.08.07.078.069.078.07.079.07.078.072.077.072.078.072.076.072.077.073.076.073.076.074.076.074.075.075.075.075.075.076.074.076.074.076.073.077.073.077.073.078.073.078.072.078.071.08.072.079.07.08.072.08.07.08.07.081.07.081.069.082.069.083.068.082.068.083.068.083.067.084.067.085.066.084.066.085.066.086.066.086.065.086.064.086.065.087.063.088.064.088.063.087.062.09.062.088.062.09.062.089.06.09.061.09.06.09.06.092.06.092.058.091.059.093.058.092.057.093.058.093.056.094.057.094.055.094.056.095.055.095.054.095.054.095.054.096.053.095.052.096.052.096.051.096.05.096.05.097.05.096.05.097.048.097.048.097.048.097.047.097.046.098.046.097.045.098.045.098.044.098.044.098.043.098.043.099.042.098.041.098.041.1.04.098.04.1.04.098.039.1.038.099.038.1.037.099.036.1.036.1.036.099.035.1.034.1.034.1.033.1.033.1.032.1.032.1.03.101.031.1.03.102.03.1.029.1.028.102.027.1.028.101.026.101.027.102.025.1.025.102.024.1.024.102.023.101.023.102.022.101.022.101.02.102.021.101.02.102.02.101.018.102.018.102.018.1.017.102.016.102.016.102.016.102.015.101.014.102.014.101.013.102.012.102.012.101.011.102.011.101.01.102.01.102.01.101.008.102.008.101.007.102.007.101.006.102.006.101.005.101.004.102.004.101.004.101.002.102.003.1.001.102.001h.303l.101-.002.1-.001.101-.003.101-.003.1-.003.102-.004.1-.005.1-.005.1-.006.101-.007.1-.007.1-.008.1-.008.1-.01.1-.009.1-.01.1-.01.099-.012.1-.011.099-.013.099-.013.099-.013.099-.014.099-.015.099-.016.099-.016.098-.016.099-.017.067-.012.067-.013.134-.025.075-.015.074-.015.074-.015.074-.016.074-.016.074-.016.074-.017.073-.017.073-.017.073-.018.073-.018.073-.018.072-.02.072-.018.072-.02.072-.019.072-.02.071-.02.072-.021.07-.02.072-.023.07-.021.07-.022.07-.022.07-.023.07-.023.07-.023.07-.023.07-.024.068-.025.07-.024.068-.025.068-.025.068-.026.068-.025.068-.027.067-.026.068-.027.067-.027.067-.027.067-.028.066-.028.067-.028.066-.03.066-.028.065-.03.065-.029.066-.03.065-.03.064-.03.065-.031.064-.032.064-.031.064-.032.064-.032.063-.033.063-.032.063-.033.063-.034.063-.033.062-.034.062-.034.061-.035.062-.035.062-.035.06-.035.062-.036.06-.036.06-.036.06-.037.06-.037.06-.037.06-.038.059-.038.059-.038.059-.039.058-.039.058-.039.058-.039.058-.04.057-.04.057-.04.057-.04.057-.041.056-.041.057-.042.056-.042.055-.042.056-.042.055-.042.055-.044.055-.043.054-.043.054-.044.054-.044.054-.044.053-.045.053-.045.053-.045.053-.046.052-.046.052-.046.052-.046.051-.047.052-.047.05-.047.051-.048.05-.047.05-.049.051-.048.05-.049.049-.049.049-.049.049-.05.048-.05.049-.05.047-.05.048-.05.048-.051.047-.051.047-.052.046-.051.047-.053.046-.052.045-.052.046-.053.045-.053.045-.054.019-.023.017-.024.017-.024.017-.025.015-.025.015-.025.013-.027.013-.026.012-.027.011-.027.01-.028.01-.027.009-.029.007-.028.007-.03.006-.029.005-.029.004-.03.003-.03.003-.03v-.03l.002-.03v-.032l-.002-.03-.002-.032-.003-.031-.004-.032-.005-.03-.005-.033-.008-.031-.007-.032-.008-.032-.01-.031-.01-.032-.011-.031-.012-.031-.013-.031-.014-.03-.014-.03-.015-.031-.016-.03-.017-.03-.018-.028-.018-.029-.019-.029-.02-.028-.02-.027-.022-.027-.021-.028-.023-.026-.023-.026-.024-.025-.024-.025-.025-.025-.026-.024-.026-.024-.027-.023-.028-.022-.028-.022-.029-.022-.029-.02-.03-.021-.03-.02-.03-.019-.03-.017-.03-.016-.03-.016-.03-.016-.03-.014-.03-.014-.031-.013-.031-.013-.031-.012-.032-.01-.031-.011-.032-.01-.031-.009-.032-.008-.032-.008-.032-.007-.032-.006-.032-.005-.032-.005-.032-.004-.032-.003-.032-.003-.032-.002h-.031l-.032-.001h-.032l-.03.002-.032.001-.031.003-.031.003-.03.005-.031.005-.023.004-.023.005-.023.005-.023.005-.021.006-.023.007-.021.007-.022.007-.02.008-.022.008-.02.008-.02.01-.02.008-.02.01-.02.01-.02.01-.018.011-.019.012-.018.011-.018.012-.018.012-.017.013-.017.013-.017.013-.016.014-.016.014-.016.015-.016.015-.015.015-.014.016-.015.016-.014.016-.039.047-.04.046-.04.046-.039.046-.04.046-.04.045-.041.045-.041.045-.041.045-.041.044-.042.044-.042.044-.042.044-.043.043-.042.043-.043.043-.043.043-.044.042-.044.043-.043.041-.045.042-.044.041-.045.041-.044.041-.045.04-.045.04-.046.041-.046.04-.046.04-.046.039-.047.039-.046.038-.047.039-.048.038-.047.038-.048.038-.047.037-.049.037-.048.037-.048.037-.049.036-.05.036-.048.036-.05.035-.05.036-.05.035-.05.035-.05.034-.05.034-.051.034-.051.034-.051.034-.052.033-.051.033-.052.032-.052.033-.053.032-.052.032-.053.03-.053.032-.053.031-.053.031-.054.03-.054.03-.054.03-.054.03-.054.03-.055.028-.055.03-.055.028-.055.028-.055.028-.056.028-.056.027-.056.027-.056.027-.057.027-.056.026-.057.026-.057.026-.057.025-.058.026-.057.025-.058.024-.058.024-.058.024-.059.024-.059.024-.058.023-.06.023-.058.022-.06.023-.06.022-.06.021-.059.022-.06.021-.06.021-.06.02-.062.021-.06.02-.061.02-.061.02-.062.019-.062.018-.061.019-.062.018-.062.018-.063.018-.062.017-.063.018-.062.016-.063.017-.063.016-.064.016-.063.016-.064.015-.064.015-.064.015-.064.014-.065.015-.064.014-.065.013-.064.014-.065.013-.066.012-.065.013-.065.012-.066.011h-.001l-.08.015-.08.013-.08.013-.08.012-.08.012-.08.012-.08.01-.081.011-.08.01-.081.01-.081.01-.081.008-.081.008-.081.008-.081.007-.082.007-.081.007-.082.005-.08.006-.082.005-.082.004-.082.004-.082.004-.082.003-.082.002-.082.003-.082.001-.082.002h-.33l-.082-.001-.083-.002-.082-.002-.083-.002-.083-.003-.082-.004-.083-.004-.083-.004-.083-.005-.083-.005-.083-.006-.083-.006-.083-.007-.083-.007-.083-.007-.083-.008-.083-.009-.084-.009-.083-.009-.083-.01-.083-.01-.084-.01-.083-.012-.083-.011-.083-.012-.084-.013-.083-.013-.084-.014-.083-.013-.083-.014-.084-.015-.083-.016-.083-.015-.084-.016-.083-.017-.083-.017-.083-.018-.084-.018-.083-.018-.083-.019-.083-.019-.083-.02-.084-.02-.083-.02-.083-.021-.083-.022-.083-.022-.083-.022-.083-.023-.083-.024-.083-.023-.083-.024-.082-.025-.083-.025-.083-.026-.083-.026-.082-.026-.083-.026-.082-.028-.083-.028-.082-.028-.083-.028-.081-.03-.083-.029-.082-.03-.082-.03-.082-.03-.082-.032-.082-.032-.082-.032-.081-.032-.082-.033-.081-.033-.081-.034-.082-.035-.081-.034-.081-.035-.081-.036-.082-.036-.08-.036-.081-.037-.08-.037-.081-.038-.08-.038-.081-.038-.08-.04-.08-.039-.08-.04-.08-.04-.08-.04-.08-.042-.08-.041-.079-.043-.079-.042-.08-.043-.078-.043-.08-.044-.078-.044-.078-.044-.079-.045-.078-.045-.077-.046-.078-.046-.077-.046-.077-.046-.077-.047-.076-.047-.076-.048-.076-.048-.076-.048-.075-.049-.075-.049-.074-.049-.075-.05-.074-.049-.074-.05-.073-.051-.073-.05-.073-.052-.072-.051-.073-.052-.072-.052-.071-.053-.072-.052-.07-.053-.071-.053-.07-.054-.07-.054-.07-.054-.07-.055-.07-.055-.068-.055-.069-.055-.068-.056-.068-.056-.067-.056-.068-.057-.066-.056-.067-.058-.066-.057-.066-.058-.066-.058-.065-.058-.065-.059-.064-.058-.065-.06-.063-.06-.064-.059-.063-.06-.063-.06-.062-.06-.063-.061-.062-.061-.061-.062-.061-.061-.06-.062-.061-.062-.06-.062-.06-.063-.06-.063-.059-.063-.058-.064-.059-.063-.057-.064-.058-.064-.057-.064-.057-.065-.057-.065-.056-.065-.055-.065-.056-.066-.055-.066-.054-.066-.055-.066-.053-.066-.054-.067-.053-.067-.053-.067-.052-.068-.052-.067-.052-.068-.05-.068-.052-.069-.05-.068-.05-.069-.05-.07-.049-.068-.049-.07-.048-.07-.048-.07-.048-.07-.047-.07-.047-.07-.046-.07-.046-.071-.046-.071-.045-.072-.045-.071-.045-.072-.043-.072-.044-.072-.043-.072-.043-.073-.042-.072-.042-.073-.042-.073-.04-.073-.041-.073-.04-.074-.04-.074-.04-.074-.039-.074-.038-.074-.038-.074-.038-.075-.037-.075-.037-.075-.036-.075-.036-.076-.036-.075-.035-.075-.034-.076-.034-.076-.034-.076-.033-.077-.033-.076-.036-.085-.035-.085-.035-.085-.034-.086-.034-.085-.033-.085-.032-.085-.032-.086-.031-.085-.03-.086-.03-.085-.03-.085-.029-.085-.028-.086-.027-.085-.027-.086-.027-.085-.026-.086-.025-.085-.024-.086-.024-.085-.024-.086-.022-.085-.022-.086-.022-.085-.021-.086-.02-.085-.02-.086-.02-.085-.018-.086-.018-.085-.017-.086-.017-.085-.016-.086-.016-.085-.015-.086-.014-.085-.014-.086-.013-.085-.012-.085-.012-.086-.011-.085-.011-.086-.01-.085-.01-.085-.009-.086-.008-.085-.008-.085-.007-.086-.006-.085-.006-.085-.005-.085-.005-.085-.004-.085-.003-.085-.003-.085-.002-.086-.002-.085v-.084l-.001-.085v-.085l.001-.085.002-.085.001-.084.007-.06.006-.06.008-.06.01-.057.009-.058.01-.056.012-.056.013-.054.006-.027.007-.027.007-.027.008-.027.007-.026.008-.026.008-.026.008-.025.01-.026.008-.025.009-.025.01-.025.009-.024.01-.025.01-.024.01-.024.01-.024.01-.024.012-.023.01-.023.012-.023.012-.023.012-.023.012-.022.013-.022.012-.022.013-.022.013-.022.014-.022.013-.02.014-.022.014-.021.015-.02.014-.02.016-.021.014-.02.016-.02.016-.02.016-.02.015-.019.017-.02.016-.018.018-.019.017-.018.017-.019.018-.018.018-.018.018-.018.018-.018.019-.017.019-.017.019-.017.02-.017.019-.017.02-.016.02-.016.02-.017.021-.015.021-.016.021-.016.022-.015.021-.016.022-.014.023-.015.022-.015.023-.014.023-.015.023-.014.024-.014.023-.013.024-.014.025-.013.024-.013.025-.013.025-.013.026-.013.05-.024.053-.024.054-.023.055-.023.055-.022.057-.021.058-.02.059-.02.06-.02.06-.017.062-.018.064-.017.064-.016.065-.016.067-.014.067-.014.068-.014.07-.013.029-.005.028-.004.029-.004.028-.004.028-.004.029-.003.028-.003.029-.002.028-.003.028-.001.029-.002.028-.001.028-.001H83.816l.028.002.028.001.028.002.027.002.028.002.028.003.028.003.027.004.027.004.028.004.027.004.027.005.027.005.027.005.028.006.027.006.026.006.027.007.027.007.026.007.027.008.026.008.026.008.026.009.026.008.026.01.026.01.025.009.026.01.025.01.025.011.026.011.025.012.024.011.025.013.025.012.024.013.024.013.024.013.024.013.024.014.024.014.024.015.023.015.023.015.023.015.024.016.023.017.023.017.023.017.023.018.023.017.022.018.022.018.021.019.022.018.021.02.021.019.02.02.021.019.02.02.02.02.02.021.02.02.019.022.019.021.019.021.018.022.018.022.018.022.018.023.017.022.017.023.016.023.017.024.016.023.016.024.016.024.015.024.015.024.015.025.015.024.014.025.014.026.014.025.013.025.013.026.013.026.012.026.012.027.012.026.012.027.011.026.011.028.01.027.011.027.01.027.01.028.01.028.008.028.01.028.008.029.008.028.008.029.007.029.008.028.006.03.007.029.006.03.006.029.651 3.474.964 5.162.003.018.004.018.005.017.005.018.006.018.006.017.007.018.007.017.007.017.008.017.009.017.009.016.009.017.01.016.01.016.01.016.011.016.012.016.012.015.012.015.013.015.013.014.013.015.014.014.015.014.014.013.015.013.015.013.016.013.016.012.017.012.016.012.017.011.017.011.018.01.017.01.018.01.018.01.018.008.018.008.018.009.019.007.018.007.019.006.018.006.019.006.019.005.019.005.018.004.02.004.018.003.02.003.018.002.019.002.019.001.019.002H88.436l.019-.002.018-.001.019-.002.018-.003.019-.003 1.093-.193.015-.003.015-.003.014-.004.014-.003.014-.004.014-.004.013-.005.014-.005.013-.005.013-.005.012-.006.013-.006.012-.006.012-.006.012-.007.011-.007.012-.007.01-.008.011-.008.011-.007.01-.009.01-.008.01-.008.01-.01.01-.008.009-.01.009-.01.008-.009.008-.01.008-.01.008-.01.008-.01.007-.011.007-.01.007-.012.006-.011.006-.011.006-.012.006-.012.005-.011.005-.013.005-.012.004-.012.004-.013.004-.012.003-.012.004-.014.002-.013.003-.013.002-.013.002-.013.001-.014.002-.013v-.014l.001-.014v-.042l-.001-.014-.001-.014-.002-.014-.002-.015-.001-.014-.003-.015-.926-4.962-.007-.035-.006-.033-.005-.034-.005-.035-.005-.034-.004-.033-.004-.034-.002-.034-.003-.034-.003-.034-.002-.034-.001-.034-.001-.033v-.135l.001-.033.002-.034.002-.033.002-.034.003-.033.003-.033.004-.033.004-.033.004-.033.005-.032.005-.033.006-.033.006-.032.007-.032.006-.033.008-.032.007-.032.008-.032.008-.032.01-.031.008-.032.01-.031.01-.032.01-.03.01-.032.011-.03.012-.031.011-.03.013-.031.012-.03.013-.03.013-.03.013-.03.014-.03.014-.03.015-.029.015-.028.015-.03.015-.028.016-.028.016-.029.017-.028.017-.028.017-.027.018-.028.017-.027.019-.027.018-.027.019-.026.019-.027.02-.026.019-.026.02-.026.02-.025.02-.025.021-.025.022-.025.021-.024.022-.024.022-.024.022-.024.023-.023.023-.024.023-.022.023-.023.024-.022.024-.022.024-.022.025-.021.025-.021.025-.021.025-.02.026-.021.026-.02.026-.02.026-.02.027-.018.027-.019.027-.018.027-.018.028-.018.027-.017.029-.017.028-.017.028-.016.029-.016.03-.015.028-.016.03-.015.03-.015.03-.014.03-.013.03-.014.03-.013.03-.013.032-.012.03-.012.032-.011.032-.012.031-.01.032-.01.032-.01.033-.01.032-.01.033-.008.033-.009.033-.007.033-.008.033-.007.034-.007.033-.006.029-.005.029-.004.028-.004.028-.005.029-.003.028-.003.029-.003.028-.002.029-.003.028-.002.028-.001.029-.001.028-.001h.14l.028.002.028.001.028.002.028.002.028.002.027.003.028.003.027.004.028.003.027.005.028.004.027.005.027.005.027.005.027.006.027.006.027.006.026.007.027.007.027.007.026.008.027.008.025.008.027.008.026.01.025.009.026.009.026.01.025.01.026.01.025.011.025.011.025.012.025.012.025.012.024.012.025.013.024.013.024.013.024.013.024.014.023.014.024.015.023.015.023.015.023.015.024.016.024.017.023.017.023.017.023.018.022.017.022.018.022.019.022.018.021.019.021.019.022.019.02.02.02.02.021.02.02.02.02.02.02.02.018.022.02.021.018.022.018.022.019.022.017.022.018.022.017.023.017.023.017.023.017.024.016.023.016.024.015.024.016.024.015.025.015.024.015.025.014.025.014.025.013.026.014.025.013.026.012.026.013.026.012.027.012.026.012.027.011.027.011.027.01.028.01.027.011.028.01.027.01.028.009.029.008.028.009.028.008.029.008.029.008.029.007.029.007.029.006.03.006.029.007.03.958 5.143.004.018.004.018.005.017.005.018.006.018.006.017.006.017.007.018.008.017.008.017.008.017.01.016.009.017.01.016.01.016.01.016.011.016.012.016.011.015.013.015.013.015.013.015.013.014.014.014.014.014.015.013.015.013.015.013.016.013.016.012.016.012.017.012.017.011.017.011.017.01.018.01.018.01.017.01.019.008.017.009.019.008.018.007.019.007.018.007.019.006.019.005.018.005.02.005.018.004.019.004.019.003.019.003.019.002.019.002.019.002h.018l.02.001h.037l.018-.001.019-.002.018-.002.019-.002.018-.003 1.094-.194.015-.003.015-.003.014-.003.014-.004.014-.004.014-.004.013-.005.013-.005.013-.005.013-.005.013-.006.013-.006.012-.006.012-.006.012-.007.011-.007.011-.007.011-.008.011-.007.01-.008.011-.008.01-.009.01-.009.01-.008.01-.01.008-.008.01-.01.008-.01.008-.01.008-.01.008-.01.008-.01.007-.01.007-.012.006-.01.007-.012.006-.011.006-.012.006-.012.005-.011.005-.012.004-.012.005-.013.004-.012.004-.013.003-.012.003-.013.003-.013.002-.013.003-.014.002-.013.001-.014.002-.013v-.014l.001-.014V108.69l-.001-.015-.001-.014-.002-.014-.002-.015-.002-.014-.002-.015-.926-4.962-.006-.034-.006-.035-.005-.034-.006-.033-.004-.034-.004-.035-.004-.034-.003-.033-.003-.034-.002-.034-.002-.034-.001-.034-.001-.034v-.033l-.001-.034v-.034l.001-.033.001-.034.002-.033.001-.033.003-.033.003-.034.003-.033.004-.033.004-.033.004-.032.005-.033.005-.033.006-.033.006-.032.006-.033.007-.032.007-.032.008-.032.008-.032.008-.032.01-.031.008-.032.01-.031.01-.032.01-.03.01-.032.011-.03.012-.031.011-.031.012-.03.013-.03.013-.03.013-.03.013-.03.014-.03.014-.03.015-.028.014-.03.016-.028.015-.029.016-.029.016-.028.017-.028.016-.028.018-.027.017-.028.018-.027.018-.027.018-.027.02-.027.018-.026.02-.026.02-.026.02-.025.02-.026.02-.025.021-.025.021-.025.022-.024.022-.024.022-.024.022-.024.023-.023.022-.023.024-.023.023-.023.024-.022.024-.022.024-.022.025-.021.025-.022.025-.02.025-.021.025-.02.026-.02.027-.02.026-.019.026-.019.027-.019.027-.018.028-.018.027-.018.028-.017.028-.017.029-.017.028-.016.029-.016.029-.016.029-.015.03-.015.03-.014.029-.015.03-.013.03-.014.03-.013.031-.013.031-.012.031-.012.032-.012.031-.01.032-.012.032-.01.032-.01.032-.01.033-.009.032-.008.033-.008.033-.009.034-.007.033-.007.033-.007.034-.006.029-.005.028-.004.029-.005.028-.003.029-.004.028-.003.028-.003.029-.003.028-.002.029-.002.028-.001.028-.001.028-.001H99.113l.028.002.028.001.028.002.028.002.027.003.028.002.028.004.027.003.028.004.027.004.027.004.028.005.027.005.027.005.027.006.027.006.026.006.027.007.027.007.026.007.027.008.026.008.026.008.026.009.026.008.026.01.026.01.026.009.025.01.025.01.026.011.025.011.025.012.025.011.024.012.025.013.024.012.024.013.025.014.024.013.023.014.024.014.023.015.024.015.023.015.023.015.024.017.023.016.024.017.023.017.022.017.023.018.022.018.022.018.022.019.021.019.022.019.02.019.021.02.02.02.02.02.02.02.02.02.02.021.02.021.018.022.019.021.018.022.019.022.017.022.018.023.017.023.017.022.017.023.017.024.016.024.016.023.016.024.015.025.015.024.015.025.014.025.015.025.013.025.014.025.013.026.014.026.012.026.013.026.012.027.012.027.012.026.011.027.01.027.012.028.01.027.01.028.01.028.01.028.009.028.008.029.009.028.008.029.008.029.008.029.007.029.007.029.006.03.006.03.006.029.917 4.72.012.063.014.062.014.062.015.063.015.061.017.062.017.061.018.061.019.06.02.061.02.06.02.06.022.06.022.059.023.059.024.058.024.059.026.058.026.057.027.058.027.057.028.056.029.057.03.055.03.056.03.055.032.055.032.054.033.054.033.054.035.053.035.053.035.052.037.052.036.052.038.051.038.051.04.05.039.05.04.05.04.05.042.048.042.048.043.047.043.048.044.047.045.046.045.046.046.045.047.045.047.045.047.043.048.044.05.043.049.042.05.042.05.041.052.041.051.04.053.04.053.04.053.038.054.038.055.038.054.036.054.036.055.035.056.034.055.033.055.033.056.033.057.03.056.031.057.03.057.03.057.028.058.028.057.027.058.027.059.025.058.025.059.024.058.024.06.022.059.022.059.022.06.02.06.02.06.02.06.017.06.018.06.017.06.016.061.015.061.015.061.014.061.013.062.012.06.012.062.011.062.01.061.01.062.008.062.008.062.007.062.007.062.005.062.005.062.004.062.003.063.003.062.002h.062l.062.001h.063l.062-.002.063-.002.062-.003.063-.003.062-.004.062-.006.063-.006.062-.006.062-.008.062-.008.063-.009.062-.01.062-.01.067-.013.066-.013.068-.014.066-.014.067-.016.067-.016.067-.017.066-.018.03-.006.02-.005.026-.006.03-.008.033-.01.037-.01.04-.012.045-.015.047-.016.05-.018.054-.02.057-.023.03-.012.03-.013.03-.014.03-.013.033-.015.032-.015.033-.016.034-.017.034-.017.035-.018.035-.019.035-.019.037-.02.036-.02.037-.022.037-.022.038-.024.038-.023.039-.025.038-.026.04-.026.039-.027.04-.028.04-.029.04-.03.04-.03.04-.032.041-.032.041-.034.042-.034.04-.035.042-.036.041-.037.042-.039.041-.039.042-.04.042-.041.041-.042.024-.025.024-.025.023-.025.023-.025.022-.025.023-.024.043-.05.042-.051.042-.05.04-.051.038-.05.037-.051.036-.051.035-.051.034-.05.033-.051.031-.051.03-.05.03-.051.029-.05.027-.05.026-.05.026-.05.024-.05.024-.048.022-.05.022-.048.02-.047.02-.048.02-.047.018-.047.017-.046.017-.046.015-.045.015-.045.015-.044.013-.043.013-.043.012-.042.011-.042.011-.04.01-.04.01-.04.01-.038.007-.037.008-.037.007-.035.008-.035.006-.034.005-.033.006-.031.01-.061.007-.056.006-.052.006-.047.003-.042.003-.037.002-.03.002-.026.001-.095.001-.094V106.982l-.001-.095-.002-.095-.003-.095-.004-.095-.003-.094-.005-.095-.005-.095-.006-.094-.006-.095-.008-.094-.008-.095-.005-.079-.02-.199h-.002l-.008-.07-.007-.068-.008-.07-.009-.069-.009-.069-.009-.07-.01-.069-.01-.069-.01-.07-.01-.068-.01-.07-.012-.07-.011-.068-.012-.07-.012-.069-.013-.07-.013-.069-.013-.07-.013-.068-.014-.07-.014-.07-.015-.068-.014-.07-.016-.069-.015-.07-.016-.069-.016-.069-.016-.07-.017-.068-.017-.07-.018-.069-.017-.07-.018-.069-.019-.069-.019-.069-.019-.07-.02-.068-.02-.07-.02-.069-.02-.069-.02-.069-.021-.069-.022-.069-.021-.069-.022-.069-.023-.069-.023-.069-.023-.069-.023-.069-.024-.068-.024-.07-.024-.068-.025-.069-.025-.069-.025-.068-.025-.069-.026-.069-.027-.068-.026-.069-.027-.068-.027-.069-.028-.069-.028-.068-.028-.068-.038-.091-.039-.09-.039-.091-.04-.09-.04-.09-.04-.091-.041-.09-.042-.09-.042-.089-.043-.089-.043-.089-.044-.088-.044-.09-.045-.087-.045-.089-.046-.088-.046-.088-.047-.087-.047-.087-.048-.087-.048-.087-.05-.087-.049-.086-.05-.087-.05-.085-.05-.086-.051-.086-.052-.085-.052-.085-.053-.085-.053-.084-.054-.085-.054-.084-.055-.084-.054-.083-.056-.083-.056-.084-.056-.083-.058-.082-.057-.083-.058-.082-.058-.082-.059-.081-.059-.081-.06-.081-.06-.081-.06-.08-.061-.081-.062-.08-.062-.08-.063-.08-.062-.078-.064-.08-.063-.078-.065-.078-.064-.078-.065-.078-.066-.078-.066-.077-.066-.076-.067-.077-.067-.077-.068-.076-.068-.075-.069-.076-.069-.075-.069-.075-.07-.074-.07-.075-.07-.073-.072-.074-.07-.073-.073-.073-.072-.073-.073-.072-.073-.072-.074-.072-.073-.071-.075-.072-.075-.07-.075-.07-.075-.07-.076-.07-.076-.07-.077-.069-.077-.069-.078-.068-.078-.068-.078-.068-.079-.068-.079-.067-.079-.066-.08-.067-.08-.066-.08-.065-.081-.066-.082-.065-.081-.064-.083-.064-.082-.064-.083-.064-.083-.063-.083-.063-.084-.062-.084-.063-.085-.061-.085-.061-.085-.061-.086-.06-.086-.061-.086-.06-.087-.06-.087-.058-.088-.059-.087-.058-.088-.058-.089-.057-.089-.058-.089-.056-.09-.057-.09-.056-.09-.055-.09-.055-.09-.055-.091-.054-.092-.054-.092-.054-.092-.053-.092-.052-.093-.052-.092-.052-.093-.051-.093-.05-.094-.05-.093-.05-.093-.05-.094-.048-.094-.048-.093-.048-.095-.047-.094-.046-.094-.047-.095-.045-.094-.045-.095-.045-.095-.044-.095-.043-.095-.043-.096-.043-.095-.042-.095-.042-.096-.04-.095-.04-.097-.041-.096-.04-.096-.038-.096-.039-.096-.038-.096-.037-.097-.037-.096-.036-.097-.036-.097-.035-.097-.035-.096-.035-.098-.034-.097-.033-.097-.033-.097-.032-.097-.032-.098-.03-.097-.031-.098-.03-.097-.03-.098-.03-.098-.028-.098-.028-.097-.028-.098-.027-.098-.026-.098-.026-.098-.026-.098-.025-.099-.024-.098-.024-.098-.023-.098-.023-.098-.022-.099-.022-.098-.022-.098-.02-.099-.02-.098-.02-.099-.02-.098-.018-.099-.018-.098-.017-.098-.017-.1-.017-.097-.016-.099-.015-.098-.015-.099-.015-.099-.013-.098-.014-.098-.012-.099-.013-.098-.011-.099-.011-.098-.01-.098-.01-.099-.01-.098-.01-.099-.008-.098-.008-.098-.007-.098-.007-.099-.006-.098-.006-.098-.005-.098-.005-.098-.004-.098-.004-.098-.003-.098-.002-.098-.002-.097-.001-.098-.001h-.195z" fill="#E10505"/></g></svg>
