<svg id="icon" xmlns="http://www.w3.org/2000/svg" viewBox="0 0 512 512"><title>African Mask</title><path d="M148.132,270.781a6.858,6.858,0,0,0,1.017-.545,5.281,5.281,0,0,0,.883-.737,5.433,5.433,0,0,0,.737-.9,6.185,6.185,0,0,0,.545-1.017,5.59,5.59,0,0,0,.338-1.105,5.853,5.853,0,0,0,.118-1.148,5.939,5.939,0,0,0-.456-2.253,6.809,6.809,0,0,0-.545-1.017,6.141,6.141,0,0,0-.737-.9,5.194,5.194,0,0,0-.883-.721,5.637,5.637,0,0,0-1.017-.545,5.94,5.94,0,0,0-1.105-.339,6.116,6.116,0,0,0-2.312,0,5.742,5.742,0,0,0-1.089.339,4.76,4.76,0,0,0-1.017.545,5.393,5.393,0,0,0-.9.721,6.272,6.272,0,0,0-.737.9,6.707,6.707,0,0,0-.543,1.017,5.86,5.86,0,0,0-.34,1.1,6.115,6.115,0,0,0-.1,1.149,5.87,5.87,0,0,0,1.723,4.168,5.482,5.482,0,0,0,.9.737,6.145,6.145,0,0,0,1.017.545,7.187,7.187,0,0,0,1.089.339,6.276,6.276,0,0,0,1.163.1,6.1,6.1,0,0,0,1.149-.1A8,8,0,0,0,148.132,270.781Z" style="fill:#333"/><path d="M167.884,270.1a5.7,5.7,0,0,0-1.1-.339,6.042,6.042,0,0,0-2.3,0,5.7,5.7,0,0,0-1.1.339,5.621,5.621,0,0,0-1.015.545,5.767,5.767,0,0,0-2.623,4.89,5.066,5.066,0,0,0,.118,1.149,5.636,5.636,0,0,0,.34,1.1,6.667,6.667,0,0,0,.529,1.016,6.378,6.378,0,0,0,.737.9,7.189,7.189,0,0,0,.9.736,6.752,6.752,0,0,0,1.015.546,5.666,5.666,0,0,0,1.1.324,5.009,5.009,0,0,0,1.149.118,5.09,5.09,0,0,0,1.149-.118,5.666,5.666,0,0,0,1.1-.324,6.656,6.656,0,0,0,1.015-.546,6.978,6.978,0,0,0,.9-.736,5.356,5.356,0,0,0,.723-.9,5.913,5.913,0,0,0,.883-2.121,5.851,5.851,0,0,0-1.606-5.317,5.889,5.889,0,0,0-.9-.722A5.555,5.555,0,0,0,167.884,270.1Z" style="fill:#333"/><path d="M148.441,295.835a6.809,6.809,0,0,0,1.017.545,5.556,5.556,0,0,0,1.1.323,5.031,5.031,0,0,0,1.148.118,4.949,4.949,0,0,0,1.149-.118,5.6,5.6,0,0,0,1.1-.323,6.858,6.858,0,0,0,1.017-.545,6.233,6.233,0,0,0,.9-.737,5.886,5.886,0,0,0,0-8.322,4.8,4.8,0,0,0-.9-.736,5.176,5.176,0,0,0-1.017-.545,5.567,5.567,0,0,0-1.1-.339,6.037,6.037,0,0,0-2.3,0,5.527,5.527,0,0,0-1.1.339,5.6,5.6,0,0,0-1.017.545,5.431,5.431,0,0,0-.9.736,5.235,5.235,0,0,0-.72.884,5.507,5.507,0,0,0-.545,1.016,5.967,5.967,0,0,0-.34,1.105,6.137,6.137,0,0,0-.118,1.149,5.94,5.94,0,0,0,1.723,4.168A7.345,7.345,0,0,0,148.441,295.835Z" style="fill:#333"/><path d="M198.314,389.526A6.683,6.683,0,0,0,197.3,389a5.856,5.856,0,0,0-1.1-.339,5.867,5.867,0,1,0,3.019,1.605A7.2,7.2,0,0,0,198.314,389.526Z" style="fill:#333"/><path d="M212.661,411.782a5.283,5.283,0,0,0-.545-1.017,4.931,4.931,0,0,0-.737-.9,5.934,5.934,0,0,0-5.3-1.6,5.666,5.666,0,0,0-1.1.324,5.551,5.551,0,0,0-1.015.545,5.4,5.4,0,0,0-.9.736,5.482,5.482,0,0,0-.737.9,6.261,6.261,0,0,0-.545,1.017,5.636,5.636,0,0,0-.324,1.1,4.959,4.959,0,0,0-.117,1.149,5.024,5.024,0,0,0,.117,1.148,5.943,5.943,0,0,0,.324,1.105,6.9,6.9,0,0,0,.545,1.017,6.08,6.08,0,0,0,.737.9,5.883,5.883,0,0,0,8.322,0,5.407,5.407,0,0,0,.737-.9,5.731,5.731,0,0,0,.545-1.017,5.746,5.746,0,0,0,.338-3.4A5.739,5.739,0,0,0,212.661,411.782Z" style="fill:#333"/><path d="M219.539,425.891a5.954,5.954,0,0,0-2.122.884,6.21,6.21,0,0,0-.9.722,6.038,6.038,0,0,0-.72.9,5.507,5.507,0,0,0-.545,1.016,5.636,5.636,0,0,0-.34,1.105,5.648,5.648,0,0,0,0,2.3,5.6,5.6,0,0,0,.34,1.1,5.443,5.443,0,0,0,.545,1.016,5.748,5.748,0,0,0,4.889,2.622,5.89,5.89,0,1,0-1.148-11.666Z" style="fill:#333"/><path d="M241.338,448.383a5.258,5.258,0,0,0-.545-1.017,5.484,5.484,0,0,0-.722-.9,7.268,7.268,0,0,0-.9-.736,5.5,5.5,0,0,0-1.017-.53,5.866,5.866,0,0,0-1.105-.339,5.531,5.531,0,0,0-2.313,0,5.683,5.683,0,0,0-1.088.339,5.038,5.038,0,0,0-1.017.53,6.369,6.369,0,0,0-.9.736,6.494,6.494,0,0,0-.737.9,6.3,6.3,0,0,0-.545,1.017,5.677,5.677,0,0,0-.324,1.1,5.074,5.074,0,0,0-.117,1.15,5.144,5.144,0,0,0,.117,1.148,5.965,5.965,0,0,0,.324,1.1,6.891,6.891,0,0,0,.545,1.016,7.378,7.378,0,0,0,.737.9,5.393,5.393,0,0,0,.9.721,5.2,5.2,0,0,0,1.017.546,5.751,5.751,0,0,0,1.088.338,6.228,6.228,0,0,0,1.164.118,6.047,6.047,0,0,0,1.149-.118,5.937,5.937,0,0,0,1.105-.338,5.706,5.706,0,0,0,1.017-.546,5.761,5.761,0,0,0,2.621-4.889,5.865,5.865,0,0,0-.118-1.15A5.782,5.782,0,0,0,241.338,448.383Z" style="fill:#333"/><path d="M298.846,21.492a5.892,5.892,0,0,0-3.49,11.256q1.458.45,2.94.948a5.892,5.892,0,0,0,3.749-11.172Q300.431,21.983,298.846,21.492Z" style="fill:#333"/><path d="M379.956,183.3a27.031,27.031,0,0,0,15.534-26.4q-.649-8.734-1.876-16.958v-.007c-6.9-46.78-27.425-81.38-61.174-102.976a5.891,5.891,0,0,0-6.352,9.924,115.5,115.5,0,0,1,12.506,9.239c-13.965,8.672-47.293,31.995-64.07,66.022a78.039,78.039,0,0,0-37.045,0c-16.766-34-50.061-57.319-64.042-66,36.338-30.831,81.83-29.525,82.326-29.512.154.007.315.006.469,0,.03,0,3.166-.113,8.35.264a5.891,5.891,0,0,0,.854-11.752c-5.112-.371-8.5-.319-9.423-.293-4.653-.149-61.455-.968-101.739,43.457A5.892,5.892,0,1,0,163,66.224c.518-.572,1.051-1.1,1.576-1.659,10.461,6.275,44.9,28.754,61.677,61.517a68.182,68.182,0,0,0-26.061,21.35c-17.248-19.4-48.948-35.293-61.25-41a137.184,137.184,0,0,1,6.478-14.655c9.613,4.3,32.8,15.962,50.78,35.506a5.891,5.891,0,1,0,8.671-7.978c-24.768-26.92-57.459-39.569-59.713-40.419a5.873,5.873,0,0,0-7.5,2.448c-9.492,16.7-15.937,36.335-19.252,58.524-.01.058-.019.114-.027.172q-1.221,8.21-1.874,16.876a27.037,27.037,0,0,0,15.536,26.4c21.818,10.115,37.772,19.831,45.448,27.623-.453,3.944-.685,7.149-.8,9.331-6.184,3.988-23.61,14.578-43.875,21.209a22.7,22.7,0,0,0-15.438,24.556,379.528,379.528,0,0,0,12.979,59.17c0,.015.01.03.014.045A369.823,369.823,0,0,0,147.7,371.286c2.63,5.765,5.409,11.367,8.287,16.861.059.114.095.235.162.347.021.035.047.064.068.1,23.894,45.452,56.235,81.571,96.374,107.5l.03.02c.062.04.123.084.186.125s.1.051.148.081c.155.093.313.18.475.259.093.045.186.088.28.127.146.062.294.115.444.165.1.035.211.071.317.1.15.04.3.069.453.1.1.019.206.044.31.058a6.144,6.144,0,0,0,.678.047c.027,0,.054.006.081.006h.011c.027,0,.054-.006.081-.006a6.11,6.11,0,0,0,.678-.047c.1-.014.207-.039.31-.058.152-.028.3-.057.453-.1.107-.029.212-.065.318-.1.15-.05.3-.1.443-.165.1-.039.188-.082.28-.127.163-.079.32-.166.475-.259.049-.03.1-.05.148-.081.069-.045.134-.091.2-.135l.007,0c75.538-48.789,109.621-124.83,124.909-180.056a5.892,5.892,0,0,0-11.357-3.144c-.249.9-.517,1.818-.776,2.728-9.529-4.285-28.192-12.356-44.033-17.283a380.585,380.585,0,0,0,6.413-48.613,5.892,5.892,0,0,0-11.758-.788,353.523,353.523,0,0,1-31.968,126.2,42.216,42.216,0,0,0-6.131-6.224,45.171,45.171,0,0,0-57.4,0h0a42.243,42.243,0,0,0-6.089,6.167A355.394,355.394,0,0,1,189.2,248.939a5.892,5.892,0,0,0-11.758.788,382.2,382.2,0,0,0,6.387,48.621c-15.9,4.946-34.628,13.054-44.119,17.325a369.514,369.514,0,0,1-10.653-51.2,10.914,10.914,0,0,1,7.423-11.805,211.119,211.119,0,0,0,49.347-24.328c.14-.1.251-.219.38-.326.148-.123.3-.238.439-.376a5.586,5.586,0,0,0,.41-.489c.1-.131.214-.255.307-.4a5.832,5.832,0,0,0,.3-.546c.08-.154.166-.3.233-.464a5.787,5.787,0,0,0,.186-.577c.051-.172.109-.339.145-.518a5.975,5.975,0,0,0,.074-.654c.012-.14.046-.273.048-.415,0-.236.422-23.908,9.349-47.078a97.426,97.426,0,0,1,7.691-15.8c.062-.092.117-.187.174-.282C217.324,141.351,234.224,131.7,256,131.7s38.676,9.649,50.432,28.711c.057.095.112.19.174.282a97.344,97.344,0,0,1,7.691,15.8c8.924,23.162,9.347,46.827,9.35,47.078,0,.156.037.3.051.455a3.813,3.813,0,0,0,.23,1.182c.052.172.1.346.165.514.076.185.174.356.267.531s.165.325.266.479a5.863,5.863,0,0,0,.364.468c.115.141.221.287.351.418a5.856,5.856,0,0,0,.535.459c.1.082.187.178.3.254a211.144,211.144,0,0,0,49.347,24.328,10.914,10.914,0,0,1,7.423,11.806c-.95,7.161-2.208,14.642-3.734,22.231a5.892,5.892,0,0,0,4.616,6.937,5.827,5.827,0,0,0,1.167.118,5.9,5.9,0,0,0,5.77-4.732c1.577-7.845,2.877-15.584,3.861-23a22.7,22.7,0,0,0-15.438-24.556c-20.212-6.613-37.679-17.221-43.875-21.212-.117-2.181-.349-5.386-.8-9.328C342.184,203.132,358.138,193.416,379.956,183.3ZM202.349,361.542c-15.524,4.007-30.988,11.681-38.851,15.913q-2.293-4.575-4.4-9.124a152.854,152.854,0,0,1,25.25-11.24,5.892,5.892,0,0,0-3.766-11.165,164.182,164.182,0,0,0-26.266,11.57q-1.917-4.554-3.659-9.044c8.165-4.151,26.14-12.893,41.2-17.44C195.068,341.924,198.621,352.111,202.349,361.542Zm53.634,122.671c-40.248-26.8-67.957-61.586-87.01-96.312,7.6-4.084,23.148-11.818,37.945-15.353,20.137,46.279,43.152,71.718,44.75,73.453.053.057.118.1.173.151s.1.13.167.188c.111.1.237.177.354.269s.259.211.4.3a5.738,5.738,0,0,0,.621.347c.133.066.261.141.4.2a5.767,5.767,0,0,0,.754.235c.114.03.223.073.338.1A5.883,5.883,0,0,0,256,447.9h0a5.872,5.872,0,0,0,1.128-.114c.117-.023.229-.066.345-.1a5.7,5.7,0,0,0,.746-.234c.139-.056.268-.132.4-.2a5.762,5.762,0,0,0,.617-.345c.139-.091.267-.2.4-.3s.242-.165.354-.268c.062-.058.106-.128.166-.188s.12-.094.173-.151a186.82,186.82,0,0,0,14.736-19.176,5.892,5.892,0,0,0-9.712-6.674c-3.747,5.452-6.967,9.689-9.348,12.677a248.648,248.648,0,0,1-15.2-21.639,55.342,55.342,0,0,0,15.093,2.425h.19c2.65,0,29.71-.574,40.423-23.167l.024-.049h0c.008-.015.019-.029.027-.044q4.448-8.805,8.379-17.838c14.7,3.49,30.212,11.173,37.9,15.294C323.784,422.609,296.105,457.49,255.983,484.213Zm-23.578-90.626h47.189c-9.579,8.217-23.383,8.288-23.65,8.243C255.8,401.844,242,401.82,232.405,393.587ZM320.113,331c14.967,4.514,32.826,13.18,41.07,17.367q-1.745,4.483-3.662,9.037a164.084,164.084,0,0,0-26.1-11.48,5.892,5.892,0,0,0-3.766,11.165,152.914,152.914,0,0,1,25.079,11.144q-2.106,4.548-4.4,9.128c-7.935-4.261-23.347-11.883-38.8-15.853Q315.489,346.524,320.113,331Zm48.629-4q-1.608,5.037-3.435,10.234c-9.066-4.575-26.692-13-42.051-17.6q1.264-4.844,2.4-9.735C341.35,314.894,360.174,323.133,368.742,327.006Zm-133.943,51h0a33.37,33.37,0,0,1,42.4,0,30.735,30.735,0,0,1,3.871,3.8H230.928A30.735,30.735,0,0,1,234.8,378.007Zm-48.483-68.089q1.145,4.953,2.39,9.737c-15.433,4.624-33.148,13.107-42.162,17.66q-1.821-5.2-3.419-10.249C151.626,323.221,170.545,314.931,186.316,309.918Zm7.166-152.179a110.555,110.555,0,0,0-6.04,12.689c-19.169-17.023-46.035-28.994-56.655-33.337a179.347,179.347,0,0,1,4.436-19.375C148.226,123.862,179.3,139.8,193.482,157.739ZM137,172.611a15.194,15.194,0,0,1-8.741-14.831c.217-2.917.5-5.782.815-8.613,12.236,5.23,37.945,17.4,54.129,33.433-1.5,5.066-2.668,9.984-3.567,14.547C167.919,187.883,150.8,179.008,137,172.611ZM318.52,157.74c14.185-17.942,45.327-33.908,58.305-40.044a179.222,179.222,0,0,1,4.4,19.392c-10.615,4.34-37.489,16.313-56.663,33.34A110.456,110.456,0,0,0,318.52,157.74ZM375,172.611c-13.8,6.4-30.917,15.272-42.636,24.536-.9-4.563-2.064-9.481-3.567-14.547,16.187-16.033,41.9-28.207,54.134-33.435q.477,4.242.809,8.615A15.192,15.192,0,0,1,375,172.611Zm-89.251-46.528c16.772-32.741,51.3-55.284,61.719-61.54a114.708,114.708,0,0,1,13.245,16.928c-11.057,5-34.64,17.244-53.583,37.833a5.891,5.891,0,1,0,8.671,7.978c18.008-19.573,41.242-31.249,50.829-35.528a136.77,136.77,0,0,1,6.465,14.66c-12.276,5.694-44.021,21.6-61.285,41.018A68.194,68.194,0,0,0,285.748,126.083Z" style="fill:#333"/><path d="M371.026,268.6a6.265,6.265,0,0,0,.546-1.017,5.623,5.623,0,0,0,.323-1.105,4.951,4.951,0,0,0,.118-1.148,5.039,5.039,0,0,0-.118-1.149,5.952,5.952,0,0,0-.323-1.1,6.907,6.907,0,0,0-.546-1.017,7.279,7.279,0,0,0-.736-.9,5.873,5.873,0,0,0-6.422-1.266,5.629,5.629,0,0,0-1.016.545,5.329,5.329,0,0,0-.885.721,5.4,5.4,0,0,0-.736.9,5.662,5.662,0,0,0-.544,1.017,5.856,5.856,0,0,0-.339,1.1,6.137,6.137,0,0,0-.118,1.149,6.009,6.009,0,0,0,.118,1.148,5.527,5.527,0,0,0,.339,1.105,5.225,5.225,0,0,0,.544,1.017,4.845,4.845,0,0,0,.736.9,5.887,5.887,0,0,0,8.323,0A6.3,6.3,0,0,0,371.026,268.6Z" style="fill:#333"/><path d="M351.275,272.268a7.187,7.187,0,0,0-.737-.9,6.023,6.023,0,0,0-.9-.722,5.954,5.954,0,0,0-2.122-.884,6.037,6.037,0,0,0-2.3,0,5.954,5.954,0,0,0-2.122.884,6.143,6.143,0,0,0-.9.722,5.99,5.99,0,0,0-1.723,4.168,6.137,6.137,0,0,0,.118,1.149,5.567,5.567,0,0,0,.339,1.1,6.672,6.672,0,0,0,.53,1.016,6.372,6.372,0,0,0,.736.9,7.337,7.337,0,0,0,.9.736,6.554,6.554,0,0,0,1.017.531,5.593,5.593,0,0,0,1.1.339,6.118,6.118,0,0,0,1.148.118,6.019,6.019,0,0,0,1.149-.118,5.634,5.634,0,0,0,1.105-.339,6.645,6.645,0,0,0,1.017-.531,7.169,7.169,0,0,0,.9-.736,6.242,6.242,0,0,0,.737-.9,8.453,8.453,0,0,0,.545-1.016,5.664,5.664,0,0,0,.323-1.1,5.653,5.653,0,0,0,0-2.3,5.664,5.664,0,0,0-.323-1.105A8.529,8.529,0,0,0,351.275,272.268Z" style="fill:#333"/><path d="M359.14,285.156a5.567,5.567,0,0,0-1.1.339,5.985,5.985,0,0,0-1.915,1.281,5.866,5.866,0,0,0-1.723,4.154,5.066,5.066,0,0,0,.118,1.149,5.666,5.666,0,0,0,.324,1.105,6.175,6.175,0,0,0,.545,1.016,5.573,5.573,0,0,0,.736.9,5.4,5.4,0,0,0,.9.737,5.656,5.656,0,0,0,1.016.545,6.87,6.87,0,0,0,1.1.338,5.925,5.925,0,0,0,1.149.1,5.888,5.888,0,1,0-1.149-11.665Z" style="fill:#333"/><path d="M322.73,393.282a4.807,4.807,0,0,0-.338-1.1,5.652,5.652,0,0,0-.531-1.016,7.37,7.37,0,0,0-.736-.9,6.032,6.032,0,0,0-.9-.721,5.944,5.944,0,0,0-2.12-.884,5.5,5.5,0,0,0-2.3,0A5.888,5.888,0,0,0,314.7,389a5.555,5.555,0,0,0-1.015.545,5.982,5.982,0,0,0-.9.721,6.1,6.1,0,0,0-.722.9,5.722,5.722,0,0,0-.545,1.016,5.611,5.611,0,0,0-.338,1.1,5.653,5.653,0,0,0,0,2.3,5.622,5.622,0,0,0,.338,1.1,5.766,5.766,0,0,0,.545,1.017,6.148,6.148,0,0,0,.722.9,7.117,7.117,0,0,0,.9.736,6.484,6.484,0,0,0,1.015.53,5.567,5.567,0,0,0,1.105.339,5.658,5.658,0,0,0,2.3,0,5.578,5.578,0,0,0,1.1-.339,6,6,0,0,0,1.016-.53,7.189,7.189,0,0,0,.9-.736,7.437,7.437,0,0,0,.736-.9,5.694,5.694,0,0,0,.531-1.017,4.814,4.814,0,0,0,.338-1.1,5.653,5.653,0,0,0,0-2.3Z" style="fill:#333"/><path d="M310.225,411.782a5.971,5.971,0,0,0-.546-1.017,6.234,6.234,0,0,0-.736-.9,5.9,5.9,0,0,0-8.335,0,5.3,5.3,0,0,0-.722.9,5.128,5.128,0,0,0-.546,1.017,5.812,5.812,0,0,0-.339,1.1,6.019,6.019,0,0,0-.118,1.149,5.925,5.925,0,0,0,.457,2.253,5.548,5.548,0,0,0,.546,1.017,5.858,5.858,0,0,0,.722.9,5.9,5.9,0,0,0,8.335,0,7.022,7.022,0,0,0,.736-.9,6.55,6.55,0,0,0,.546-1.017,5.946,5.946,0,0,0,.325-1.105,5.137,5.137,0,0,0,.116-1.148,5.07,5.07,0,0,0-.116-1.149A5.638,5.638,0,0,0,310.225,411.782Z" style="fill:#333"/><path d="M296.748,429.412a5.757,5.757,0,0,0-.545-1.016,5.358,5.358,0,0,0-.736-.9,6.185,6.185,0,0,0-.885-.736,6.664,6.664,0,0,0-1.015-.531,5.83,5.83,0,0,0-3.4-.339,5.772,5.772,0,0,0-1.1.339,6.155,6.155,0,0,0-1.016.531,6.426,6.426,0,0,0-.9.736,6.145,6.145,0,0,0-.736.9,5.913,5.913,0,0,0-.883,2.121,6.034,6.034,0,0,0-.1,1.149,5.885,5.885,0,0,0,10.046,4.168,5.358,5.358,0,0,0,.736-.9,5.688,5.688,0,0,0,.545-1.016,5.59,5.59,0,0,0,.338-1.1,5.648,5.648,0,0,0,0-2.3A5.631,5.631,0,0,0,296.748,429.412Z" style="fill:#333"/><path d="M279.367,445.732a5.955,5.955,0,0,0-1.015-.53,5.567,5.567,0,0,0-1.1-.339,5.892,5.892,0,1,0,0,11.547,5.631,5.631,0,0,0,1.1-.338,5.217,5.217,0,0,0,1.015-.546,5.885,5.885,0,0,0,.9-9.058A7.133,7.133,0,0,0,279.367,445.732Z" style="fill:#333"/><path d="M261.442,462.832a6.751,6.751,0,0,0-.544-1.016,5.373,5.373,0,0,0-.736-.884,4.882,4.882,0,0,0-.9-.737,4.826,4.826,0,0,0-1.017-.544,5.861,5.861,0,0,0-1.089-.339,5.945,5.945,0,0,0-5.318,1.62,4.679,4.679,0,0,0-.736.884,5.507,5.507,0,0,0-.545,1.016,6.276,6.276,0,0,0-.338,1.105,5.726,5.726,0,0,0,0,2.313,5.783,5.783,0,0,0,.338,1.089,4.688,4.688,0,0,0,.545,1.016,4.741,4.741,0,0,0,.736.9,6.032,6.032,0,0,0,.884.737,6.892,6.892,0,0,0,1.016.544,6.248,6.248,0,0,0,1.1.339,6.047,6.047,0,0,0,1.149.118,5.887,5.887,0,0,0,4.169-1.738,5.444,5.444,0,0,0,.736-.9,5.557,5.557,0,0,0,.544-1.016,7.144,7.144,0,0,0,.339-1.089,6.482,6.482,0,0,0,0-2.313A7.864,7.864,0,0,0,261.442,462.832Z" style="fill:#333"/><path d="M317.282,250.547c-.012-.078-.042-.154-.057-.233a5.87,5.87,0,0,0-.283-1c-.014-.037-.017-.076-.032-.113-.274-.668-6.936-16.424-22.318-19.953-11.243-2.577-23.575,2.037-36.663,13.717a2.9,2.9,0,0,1-3.857,0c-13.09-11.68-25.427-16.291-36.663-13.717-15.382,3.529-22.043,19.285-22.318,19.953-.015.037-.018.076-.032.113a5.777,5.777,0,0,0-.282,1c-.016.079-.046.155-.058.233a5.947,5.947,0,0,0-.064,1.242l0,.062v.008c.1,1.55,1.784,23.735,18.635,35.965a41.36,41.36,0,0,0,22.808,7.6c-4.047,11.567-5.2,25.428-5.359,36.055a17.732,17.732,0,0,0,17.732,18h14.669a17.724,17.724,0,0,0,17.718-18.465,170.34,170.34,0,0,0-2.66-24.5,5.892,5.892,0,0,0-11.576,2.207,158.538,158.538,0,0,1,2.464,22.789,5.941,5.941,0,0,1-5.946,6.186H248.476a5.947,5.947,0,0,1-5.949-6.039c.237-15.734,2.58-28.733,6.626-37.029,2.228-.357,4.507-.814,6.848-1.391a72.359,72.359,0,0,0,17.26,2.27c9.873,0,18.391-2.567,25.445-7.686,16.851-12.23,18.538-34.415,18.636-35.965v-.008l0-.062A5.815,5.815,0,0,0,317.282,250.547Zm-97.238-9.811c7.3-1.671,16.108,2.034,26.183,11.023a14.67,14.67,0,0,0,19.547,0c10.043-8.962,18.822-12.675,26.116-11.039a18.9,18.9,0,0,1,10.08,6.63c-12.07,3.071-27.745,9.138-39.971,14.237a15.47,15.47,0,0,1-12,0c-12.225-5.1-27.9-11.165-39.967-14.237A18.95,18.95,0,0,1,220.044,240.736Zm72.128,37.254-.6-1.694a5.891,5.891,0,1,0-11.11,3.925l.933,2.641c-6.7,1.487-14.691,1.027-23.894-1.4a5.857,5.857,0,0,0-3,0c-9.2,2.425-17.189,2.884-23.894,1.4l.933-2.64a5.891,5.891,0,1,0-11.11-3.925l-.6,1.694c-6.9-5.209-10.285-13.114-11.922-19.008,9.165,2.418,22.258,7.1,37.559,13.48a27.172,27.172,0,0,0,21.068,0c15.32-6.388,28.427-11.074,37.594-13.489C302.508,264.852,299.13,272.741,292.172,277.99Z" style="fill:#333"/></svg>