<svg id="icon" xmlns="http://www.w3.org/2000/svg" viewBox="0 0 512 512"><title>big ben</title><path d="M155.078,353.18h176.4a5.921,5.921,0,0,0,5.92-5.92V221.173a5.921,5.921,0,0,0-5.92-5.921H285.755V201.321a5.921,5.921,0,1,0-11.841,0v13.931H249.2V201.321a5.921,5.921,0,1,0-11.841,0v13.931H212.643V201.321a5.921,5.921,0,0,0-11.842,0v13.931H155.078a5.921,5.921,0,0,0-5.92,5.921v39.695a5.921,5.921,0,1,0,11.841,0V227.093h11.72v95a5.921,5.921,0,0,0,11.841,0v-95H302v95a5.921,5.921,0,0,0,11.841,0v-95h11.722V341.339H161V284.216a5.921,5.921,0,1,0-11.841,0V347.26A5.921,5.921,0,0,0,155.078,353.18Z" style="fill:#333"/><path d="M206.406,260.771a5.919,5.919,0,0,0-7.854,2.9,49.177,49.177,0,1,0,23.679-23.949,5.921,5.921,0,0,0,5.07,10.7,37.018,37.018,0,0,1,15.977-3.577,37.334,37.334,0,1,1-33.968,21.774A5.921,5.921,0,0,0,206.406,260.771Z" style="fill:#333"/><path d="M169.844,205.155a5.921,5.921,0,0,0,5.92-5.921V186.176H310.792v13.058a5.921,5.921,0,1,0,11.842,0V180.256a5.921,5.921,0,0,0-5.921-5.921H169.844a5.921,5.921,0,0,0-5.921,5.921v18.978A5.921,5.921,0,0,0,169.844,205.155Z" style="fill:#333"/><path d="M183.092,165.692a5.921,5.921,0,0,0,5.92-5.921v-5.683H297.543v5.683a5.921,5.921,0,1,0,11.841,0v-11.6a5.921,5.921,0,0,0-5.92-5.92H290.548v-32.8c0-.028-.008-.053-.008-.081a5.959,5.959,0,0,0-.069-.688c-.022-.166-.03-.335-.065-.5s-.1-.324-.151-.486a5.853,5.853,0,0,0-.222-.646c-.011-.026-.015-.053-.027-.079L248.657,17.085a5.92,5.92,0,0,0-10.757,0L226.52,41.822a5.92,5.92,0,1,0,10.757,4.949l6-13.045,32.109,69.8H211.169l5.836-12.688a5.92,5.92,0,1,0-10.757-4.948l-9.7,21.083c-.011.025-.015.052-.026.077a5.961,5.961,0,0,0-.224.652c-.05.16-.113.318-.149.48s-.044.331-.065.5a6.133,6.133,0,0,0-.07.686c0,.028-.008.053-.008.081v32.8H183.092a5.921,5.921,0,0,0-5.921,5.92v11.6A5.921,5.921,0,0,0,183.092,165.692Zm24.758-50.328h70.857v26.883H207.85Z" style="fill:#333"/><path d="M218.207,74.058a5.917,5.917,0,0,0,7.853-2.9l.757-1.647a5.92,5.92,0,1,0-10.757-4.949L215.3,66.2A5.92,5.92,0,0,0,218.207,74.058Z" style="fill:#333"/><path d="M243.278,260.232a5.921,5.921,0,0,0-5.92,5.92v18.064a5.921,5.921,0,0,0,5.92,5.92h11.386a5.921,5.921,0,1,0,0-11.841H249.2V266.152A5.921,5.921,0,0,0,243.278,260.232Z" style="fill:#333"/><path d="M138.247,498.361h202.14a5.921,5.921,0,1,0,0-11.841H322.634v-40.9a5.921,5.921,0,1,0-11.842,0v40.9H285.755v-40.9a5.921,5.921,0,1,0-11.841,0v40.9H249.2v-40.9a5.921,5.921,0,1,0-11.841,0v40.9H212.643v-40.9a5.921,5.921,0,1,0-11.842,0v40.9H175.764V425.771H331.479a5.921,5.921,0,0,0,0-11.842h-8.845v-44a5.921,5.921,0,1,0-11.842,0v44H285.755v-40.9a5.921,5.921,0,0,0-11.841,0v40.9H249.2v-40.9a5.921,5.921,0,0,0-11.841,0v40.9H212.643v-40.9a5.921,5.921,0,0,0-11.842,0v40.9H175.764v-44a5.921,5.921,0,1,0-11.841,0v44h-8.845a5.921,5.921,0,0,0,0,11.842h8.845V486.52H138.247a5.921,5.921,0,1,0,0,11.841Z" style="fill:#333"/><path d="M369.421,498.361h4.332a5.921,5.921,0,1,0,0-11.841h-4.332a5.921,5.921,0,1,0,0,11.841Z" style="fill:#333"/></svg>