<svg id="icon" xmlns="http://www.w3.org/2000/svg" viewBox="0 0 512 512"><title>Altes Segelboot</title><path d="M486.343,452.355h-2.664a5.892,5.892,0,1,0,0,11.783h2.664a5.892,5.892,0,1,0,0-11.783Z" style="fill:#333"/><path d="M477.786,327.426a5.892,5.892,0,0,0-8.754-5.679q-15.7,8.827-31.333,16.4c-6.022-5.665-20.668-21.909-25.366-49.328,2.757,3.112,5.474,6.241,8.112,9.382a17.289,17.289,0,0,0,12.623,6.157c.2.007.393.01.588.01a17.2,17.2,0,0,0,12.857-28.608c-36.871-41.681-81.724-79.408-133.983-112.795L316.9,131.5a15.469,15.469,0,0,0-30.6-4.529l-2.873,18.285q-32.484-18.807-68.349-35.531a5.892,5.892,0,0,0-4.979,10.68q39.281,18.312,74.453,39.171a5.994,5.994,0,0,0,.69.405q8.883,5.277,17.487,10.72a5.751,5.751,0,0,0,.675.429c52.526,33.232,97.485,70.844,134.281,112.441a5.463,5.463,0,0,1-.156,7.372,5.269,5.269,0,0,1-4.057,1.642,5.422,5.422,0,0,1-4.008-1.96c-6.423-7.649-13.231-15.258-20.232-22.616-.026-.028-.059-.047-.086-.074-.109-.11-.233-.2-.35-.3a6.085,6.085,0,0,0-.541-.443c-.075-.05-.16-.085-.237-.132a5.93,5.93,0,0,0-.763-.412c-.064-.027-.135-.04-.2-.064a5.824,5.824,0,0,0-.887-.274c-.086-.018-.177-.018-.264-.032a5.784,5.784,0,0,0-.889-.089c-.018,0-.035-.006-.053-.006h-.048c-.111,0-.214.029-.324.036a5.747,5.747,0,0,0-.751.081c-.163.032-.316.083-.473.128a5.913,5.913,0,0,0-.618.2c-.174.071-.334.161-.5.247s-.344.173-.507.28a6.132,6.132,0,0,0-.527.409c-.1.085-.214.149-.311.242-.022.021-.037.047-.059.069a5.93,5.93,0,0,0-.485.564c-.086.109-.185.21-.262.323a5.731,5.731,0,0,0-.363.651c-.06.117-.135.228-.186.348a5.742,5.742,0,0,0-.228.7c-.037.128-.088.251-.115.381a5.93,5.93,0,0,0-.08.659c-.016.166-.044.329-.046.5,0,.042-.012.081-.011.124.2,25.714,8.3,44.811,16.563,57.646-33.134-12.292-68.609-18.491-102.993-20.931a5.921,5.921,0,0,0-1.244-.189,5.649,5.649,0,0,0-.885.05,550.862,550.862,0,0,0-56.988-.724,210.769,210.769,0,0,1-7.651-36.81,5.892,5.892,0,0,0-11.694,1.455,228.037,228.037,0,0,0,7.219,35.928c-13.059.743-25.5,1.85-37.039,3.157-23.063,2.614-44.3,6.173-62.479,9.786-23.9-54.271-23.122-115.689-18.148-158a5.892,5.892,0,0,0-11.7-1.375c-5.076,43.175-5.9,105.7,18.046,161.81-9.545,2.05-17.992,4.049-25.119,5.838-.091.02-.183.021-.274.047l-.907.25c-8.979,2.27-15.751,4.174-19.8,5.355-2.09-3.292-4.08-6.633-6.018-10-.543-1.113-1.118-2.214-1.761-3.288l-1.355-2.264A273.966,273.966,0,0,1,43.213,218.441,5.892,5.892,0,0,0,31.5,219.75,285.728,285.728,0,0,0,64.316,325.191c.027.048.041.1.069.148l.182.3c1.035,1.9,2.072,3.788,3.151,5.661a31.4,31.4,0,0,1-.2,26.582l-6.952,14.619a5.891,5.891,0,1,0,10.641,5.06l6.952-14.619,2.723-5.725a24,24,0,0,1,15.31-12.842l10.917-3.01a761.6,761.6,0,0,1,98.58-17.955,621.629,621.629,0,0,1,73.208-4.071l-10.037,72.2q-6.309,1.038-12.487,1.934l8.711-55.457a5.891,5.891,0,1,0-11.64-1.829L244.186,395.1a638.672,638.672,0,0,1-75.059,4.927c-80.378.467-134.6-14.4-135.137-14.55a5.893,5.893,0,0,0-7.422,6.5c.253,1.788,5.615,37.579,30.516,60.376H25.657a5.892,5.892,0,1,0,0,11.783H75.891l.013,0,.021,0h54.134a5.892,5.892,0,1,0,0-11.783h-52.7c-11.39-6-19.608-15.415-25.471-25.129a899.617,899.617,0,0,0,109.706,7.132h.031a5.892,5.892,0,0,0,.032-11.784c-59.6-.316-104.349-6.372-116.249-8.151a118.24,118.24,0,0,1-5.231-15.289c18.977,4.3,65.336,12.988,128.587,12.682a650.529,650.529,0,0,0,80.305-5.452c.08,0,.163.018.243.018a5.844,5.844,0,0,0,1.74-.284c7.484-1,15.113-2.132,22.906-3.455.043,0,.086.009.128.009a5.836,5.836,0,0,0,2.139-.411A624.969,624.969,0,0,0,438.746,350.7a5.9,5.9,0,0,0,1.106-.526c8.157-3.913,16.339-8.035,24.537-12.435-1.089,6.2-2.82,14.553-5.443,24-64.553,33.292-143.829,53.164-235.7,59.054a5.892,5.892,0,0,0,.371,11.771c.127,0,.255,0,.383-.012,88.684-5.685,165.986-24.237,230.036-55.179a203.8,203.8,0,0,1-9.791,23.249c-7.152,4.169-47.566,24.038-95.555,30.191a5.891,5.891,0,1,0,1.5,11.687c28.88-3.7,54.622-12.117,71.132-18.525,4.667-1.811,8.76-3.524,12.285-5.07-8.931,13.171-20.239,25.054-34.513,33.443H169.284a5.892,5.892,0,1,0,0,11.783H455.19a5.892,5.892,0,1,0,0-11.783H419.511C469.484,410.728,477.444,331.115,477.786,327.426ZM297.941,128.8a3.686,3.686,0,0,1,7.293,1.08l-3.647,26.227q-3.6-2.214-7.244-4.4ZM290.76,319.555q7.092.2,14.279.605l-1.9,47.476a5.894,5.894,0,0,0,5.651,6.123c.081,0,.16,0,.241,0a5.893,5.893,0,0,0,5.883-5.656l1.89-47.147c35.7,2.915,72.316,10.11,105.788,24.261A613.638,613.638,0,0,1,281.049,389.4Z" style="fill:#333"/><path d="M190.17,434.07l1.393-.037a5.893,5.893,0,0,0,5.735-6.044,5.834,5.834,0,0,0-6.046-5.735l-1.392.037a5.892,5.892,0,0,0,.152,11.781Z" style="fill:#333"/><path d="M33.371,82.054c2.864.622,6.694,1.486,11.366,2.607a315.423,315.423,0,0,0-12.5,57.472,5.892,5.892,0,1,0,11.691,1.475A305.042,305.042,0,0,1,56.215,87.524c14.773,3.814,34.487,9.393,57.462,17.083-24.081,8.612-42.855-2.279-43.816-2.852a5.891,5.891,0,0,0-6.121,10.067c1.159.709,25.774,15.332,56.5,2.925-.986,4.217-2.11,9.38-3.261,15.359a5.89,5.89,0,0,0,4.672,6.9,5.88,5.88,0,0,0,6.9-4.672c1.059-5.5,2.1-10.291,3.021-14.268a101.675,101.675,0,0,0,16.435,17c15.257,12.475,41.634,26.218,80.658,20.843a18.766,18.766,0,0,1,7.47.475,544.774,544.774,0,0,0-4.59,64.523,5.892,5.892,0,0,0,5.828,5.954h.065a5.891,5.891,0,0,0,5.89-5.829,544.735,544.735,0,0,1,3.977-59.067c.36.193.719.389,1.079.583a28.217,28.217,0,0,1,10.279,13.186c15.562,41,55.869,44.134,72.832,43.524-1.588,14.355-4.2,47.162.944,75.7a5.891,5.891,0,0,0,11.6-2.09c-4.471-24.8-2.632-53.917-1.152-68.993A545.573,545.573,0,0,1,384.319,259.7a5.891,5.891,0,1,0,8.155-8.505c-55.789-53.493-127.01-98.614-211.686-134.108-17.391-7.29-34.042-13.605-49.555-19.052l-.06-.022-.075-.025A824.235,824.235,0,0,0,35.871,70.539,5.509,5.509,0,1,1,38.331,59.8a898.182,898.182,0,0,1,100.9,31.047,5.891,5.891,0,1,0,4.1-11.048A910.239,910.239,0,0,0,41.066,48.339a17.286,17.286,0,0,0-21.3,16.821A17.377,17.377,0,0,0,33.371,82.054Zm237.934,93.389c16.557,9.709,33.113,20.306,49.368,31.863C305.053,206.013,282.455,199.7,271.305,175.443Zm-56.856-30.149c-36.163,1.025-58.28-16.387-69.833-29.705C166.385,123.761,190.011,133.59,214.449,145.294Z" style="fill:#333"/><path d="M178.272,93.523a5.892,5.892,0,1,0-4.519,10.882q1.914.8,3.842,1.606a5.892,5.892,0,0,0,4.568-10.863Q180.21,94.328,178.272,93.523Z" style="fill:#333"/><path d="M29.674,175.587q-.081,3.14-.109,6.345a5.892,5.892,0,0,0,5.847,5.936h.046a5.891,5.891,0,0,0,5.89-5.847q.024-3.093.107-6.12a5.893,5.893,0,0,0-11.781-.314Z" style="fill:#333"/><path d="M237.589,240.186a5.892,5.892,0,0,0-5.611,6.159l.11,2.17a5.89,5.89,0,0,0,5.877,5.583c.1,0,.21,0,.315-.008a5.891,5.891,0,0,0,5.574-6.192l-.1-2.1A5.882,5.882,0,0,0,237.589,240.186Z" style="fill:#333"/></svg>