<svg id="icon" xmlns="http://www.w3.org/2000/svg" viewBox="0 0 512 512"><title>Brandenburg Gate</title><path d="M40.542,186.1v28.606a5.892,5.892,0,1,0,11.783,0V189.462H91.649a5.892,5.892,0,0,0,0-11.783H48.785l-13.3-12.623h88.792a5.892,5.892,0,1,0,0-11.783H20.721a5.892,5.892,0,0,0-4.057,10.165Z" style="fill:#333"/><path d="M46.434,343.005a5.892,5.892,0,0,0,5.891-5.892V336.3a5.892,5.892,0,0,0-11.783,0v.809A5.892,5.892,0,0,0,46.434,343.005Z" style="fill:#333"/><path d="M361.676,265.5a5.892,5.892,0,1,0,0-11.783h-3.4a5.892,5.892,0,0,0,0,11.783Z" style="fill:#333"/><path d="M40.542,261.948v47.214a5.892,5.892,0,1,0,11.783,0V297.413H71.519V454.592H52.325v-92.6a5.892,5.892,0,1,0-11.783,0v94.69a16.386,16.386,0,0,0-8.4,14.292v15a5.892,5.892,0,0,0,5.891,5.892H85.813a5.892,5.892,0,0,0,5.892-5.892v-15a16.383,16.383,0,0,0-8.4-14.292V297.413H95.778a5.892,5.892,0,1,0,0-11.783H52.325V265.5H324.159a5.892,5.892,0,1,0,0-11.783H48.973L34.39,238.275H96.616a5.892,5.892,0,1,0,0-11.783H20.721a5.891,5.891,0,0,0-4.283,9.937ZM79.921,480.076h-36v-9.105a4.6,4.6,0,0,1,4.6-4.6H75.326a4.6,4.6,0,0,1,4.6,4.6Z" style="fill:#333"/><path d="M122.805,226.492a5.892,5.892,0,0,0,0,11.783h2.428a5.892,5.892,0,1,0,0-11.783Z" style="fill:#333"/><path d="M491.279,226.492H153.27a5.892,5.892,0,0,0,0,11.783H477.611l-14.584,15.439h-66.39a5.892,5.892,0,1,0,0,11.783h63.038V285.63H119.347a5.892,5.892,0,0,0-5.891,5.891V456.679a16.382,16.382,0,0,0-8.4,14.292v15a5.892,5.892,0,0,0,5.891,5.892h47.783a5.892,5.892,0,0,0,5.891-5.892v-15a16.386,16.386,0,0,0-8.4-14.292V297.413h30.153V456.679a16.383,16.383,0,0,0-8.4,14.292v15a5.892,5.892,0,0,0,5.892,5.892H231.64a5.892,5.892,0,0,0,5.891-5.892v-15a16.384,16.384,0,0,0-8.4-14.292V297.413h84.72V454.592H294.654v-139.5a5.892,5.892,0,1,0-11.783,0V456.679a16.386,16.386,0,0,0-8.4,14.292v15a5.892,5.892,0,0,0,5.891,5.892h47.783a5.892,5.892,0,0,0,5.891-5.892v-15a16.386,16.386,0,0,0-8.4-14.292V297.413h30.153V456.679a16.383,16.383,0,0,0-8.4,14.292v15a5.892,5.892,0,0,0,5.892,5.892h47.782a5.892,5.892,0,0,0,5.891-5.892v-15a16.384,16.384,0,0,0-8.4-14.292V297.413H428.7V456.679a16.384,16.384,0,0,0-8.4,14.292v15a5.892,5.892,0,0,0,5.892,5.892h47.782a5.892,5.892,0,0,0,5.892-5.892v-15a16.386,16.386,0,0,0-8.4-14.292V261.948l24.1-25.519a5.891,5.891,0,0,0-4.283-9.937ZM152.835,480.076h-36v-9.105a4.6,4.6,0,0,1,4.6-4.6h26.807a4.6,4.6,0,0,1,4.6,4.6Zm-8.4-25.484H125.239V297.413h19.194Zm81.315,25.484h-36v-9.105a4.6,4.6,0,0,1,4.595-4.6h26.807a4.6,4.6,0,0,1,4.6,4.6Zm-8.4-25.484H198.152V297.413h19.194Zm104.9,25.484h-36v-9.105a4.6,4.6,0,0,1,4.6-4.6h26.807a4.6,4.6,0,0,1,4.6,4.6Zm72.913,0h-36v-9.105a4.6,4.6,0,0,1,4.6-4.6h26.807a4.6,4.6,0,0,1,4.6,4.6Zm-8.4-25.484H367.568V297.413h19.194Zm72.913-157.179V454.592H440.481V297.413Zm8.4,182.663h-36v-9.105a4.6,4.6,0,0,1,4.6-4.6h26.806a4.6,4.6,0,0,1,4.6,4.6Z" style="fill:#333"/><path d="M147.714,165.056h16.737v12.623H113.019a5.892,5.892,0,0,0-5.891,5.892V190.3a5.892,5.892,0,1,0,11.783,0v-.84h45.54v12.624H77.411a5.892,5.892,0,0,0-5.892,5.891v6.731a5.892,5.892,0,1,0,11.783,0v-.839h81.149v.839a5.892,5.892,0,1,0,11.783,0V165.056H335.767v49.652a5.892,5.892,0,1,0,11.783,0v-.839H428.7v.839a5.892,5.892,0,1,0,11.783,0v-6.731a5.892,5.892,0,0,0-5.892-5.891H347.55V189.462h45.54v.84a5.892,5.892,0,1,0,11.783,0v-6.731a5.892,5.892,0,0,0-5.892-5.892H347.55V165.056h16.736a5.892,5.892,0,0,0,5.892-5.892v-24.4a5.892,5.892,0,0,0-5.892-5.892h-23.1V124.4a22.157,22.157,0,0,0-12.039-19.762l-20.6-10.631a3.913,3.913,0,0,1-.989-6.226L321.4,73.77a4.678,4.678,0,0,1,8.008,3.287v2.506a4.7,4.7,0,0,1-2.723,4.252,5.891,5.891,0,0,0,4.936,10.7,16.514,16.514,0,0,0,9.57-14.951V77.057A16.461,16.461,0,0,0,313.012,65.49L299.174,79.5a15.7,15.7,0,0,0,3.97,24.977l20.6,10.632a10.415,10.415,0,0,1,5.66,9.29v4.465H304.721V119.35a5.892,5.892,0,1,0-11.783,0v9.517h-9.082v-6.788a23.626,23.626,0,0,0-9.382-18.793l-12.582-9.46v-4.62a11.436,11.436,0,0,1,3.895-8.6L291.347,58.2a23.383,23.383,0,0,0,7.862-19.236l-1-13.37a5.891,5.891,0,0,0-9.117-4.479L256,42.922,222.912,21.113a5.892,5.892,0,0,0-9.118,4.478l-1,13.372A23.386,23.386,0,0,0,220.654,58.2L236.2,71.825a5.892,5.892,0,1,0,7.769-8.86L228.422,49.338a11.541,11.541,0,0,1-3.881-9.494l.253-3.378L252.758,54.9a5.9,5.9,0,0,0,6.484,0l27.964-18.43.253,3.377a11.543,11.543,0,0,1-3.881,9.494l-25.56,22.411a23.226,23.226,0,0,0-7.91,17.457v4.62l-12.582,9.46a23.631,23.631,0,0,0-9.382,18.793v6.788h-9.081V119.35a5.892,5.892,0,1,0-11.783,0v9.517H182.6V124.4a10.414,10.414,0,0,1,5.659-9.29l20.6-10.632a15.7,15.7,0,0,0,3.97-24.977L198.988,65.49a16.46,16.46,0,0,0-28.173,11.567v2.506a16.515,16.515,0,0,0,9.569,14.951,5.892,5.892,0,1,0,4.937-10.7,4.7,4.7,0,0,1-2.723-4.252V77.057a4.678,4.678,0,0,1,8.006-3.288l13.838,14.014a3.913,3.913,0,0,1-.99,6.226l-20.6,10.631A22.158,22.158,0,0,0,170.815,124.4v4.465h-23.1a5.892,5.892,0,0,0-5.891,5.892v24.405A5.892,5.892,0,0,0,147.714,165.056Zm92.214-42.977a11.783,11.783,0,0,1,4.679-9.374L256,104.139l11.393,8.566a11.784,11.784,0,0,1,4.68,9.374v6.788H239.928ZM153.606,140.65H358.4v12.623H153.606Z" style="fill:#333"/><path d="M214.222,175.873a13.524,13.524,0,0,0-13.509,13.51v12.782a13.524,13.524,0,0,0,13.509,13.51h83.556a13.524,13.524,0,0,0,13.509-13.51V189.383a13.524,13.524,0,0,0-13.509-13.51Zm85.282,13.51v12.782a1.728,1.728,0,0,1-1.726,1.726H214.222a1.728,1.728,0,0,1-1.726-1.726V189.383a1.729,1.729,0,0,1,1.726-1.727h83.556A1.729,1.729,0,0,1,299.5,189.383Z" style="fill:#333"/><path d="M387.722,165.056h88.792l-13.3,12.623H420.352a5.892,5.892,0,0,0,0,11.783h39.323v25.246a5.892,5.892,0,0,0,11.784,0V186.1l23.877-22.664a5.892,5.892,0,0,0-4.057-10.165H387.722a5.892,5.892,0,1,0,0,11.783Z" style="fill:#333"/></svg>