<svg id="icon" xmlns="http://www.w3.org/2000/svg" viewBox="0 0 512 512"><title>chichen itza</title><path d="M217.407,96.067a5.921,5.921,0,0,0,0-11.842h-.54a5.921,5.921,0,1,0,0,11.842Z" style="fill:#333"/><path d="M238.29,329.109h-.748a5.921,5.921,0,0,0,0,11.842h.748a5.921,5.921,0,0,0,0-11.842Z" style="fill:#333"/><path d="M459.624,415.933H313.336V369.892h17.812v31.4a5.921,5.921,0,0,0,11.841,0v-31.4H444.081v29.76a5.921,5.921,0,0,0,11.841,0V363.971a5.921,5.921,0,0,0-5.92-5.92H342.989V312.009h64.005v29.76a5.921,5.921,0,1,0,11.842,0v-35.68a5.921,5.921,0,0,0-5.921-5.921H342.989V254.127h23.4v29.759a5.921,5.921,0,0,0,11.842,0v-35.68a5.921,5.921,0,0,0-5.921-5.921H342.989V190.323a5.921,5.921,0,0,0-5.92-5.92H313.336V142a5.921,5.921,0,1,0-11.841,0v42.4H274.557V151.3a5.92,5.92,0,0,0-5.92-5.92H233.082a5.92,5.92,0,0,0-5.921,5.92v33.1H200.223V124.62H323.057a5.921,5.921,0,1,0,0-11.841h-9.721V96.067h9.721a5.921,5.921,0,0,0,0-11.842H240.845a5.921,5.921,0,1,0,0,11.842H301.5v16.712H200.223V90.146a5.921,5.921,0,0,0-5.921-5.921h-15.64a5.921,5.921,0,1,0,0,11.842h9.72v16.712h-9.72a5.921,5.921,0,1,0,0,11.841h9.72V184.4H164.65a5.921,5.921,0,0,0-5.921,5.92v51.962H129.411a5.921,5.921,0,0,0-5.92,5.921v35.68a5.921,5.921,0,1,0,11.841,0V254.127h53.05v46.041H170.57V269.693a5.921,5.921,0,1,0-11.841,0v30.475H88.8a5.921,5.921,0,0,0-5.92,5.921v35.68a5.921,5.921,0,1,0,11.841,0v-29.76h64.005v46.042H51.717a5.921,5.921,0,0,0-5.921,5.92v35.681a5.921,5.921,0,0,0,11.842,0v-29.76H158.729v46.041H25.437a5.921,5.921,0,0,0,0,11.842H459.624a5.921,5.921,0,1,0,0-11.842Zm-259.4-17.1H301.5v17.1H200.223ZM301.5,386.992H200.223v-17.1H301.5ZM200.223,340.951h12.863a5.921,5.921,0,1,0,0-11.842H200.223v-17.1H301.5v17.1H259.762a5.921,5.921,0,0,0,0,11.842H301.5v17.1H200.223Zm130.925,17.1H313.336V312.009h17.812Zm0-57.883H313.336V254.127h17.812Zm0-57.883H313.336V196.244h17.812Zm-130.925-17.1h83.366a5.921,5.921,0,0,0,0-11.841H200.223v-17.1H301.5v46.041H200.223ZM239,157.222h23.714V184.4H239ZM170.57,242.285V196.244h17.812v46.041ZM301.5,254.127v17.1H200.223v-17.1ZM200.223,283.068H301.5v17.1H200.223ZM170.57,312.009h17.812v46.042H170.57Zm0,57.883h17.812v46.041H170.57Z" style="fill:#333"/><path d="M486.563,415.933h-7.079a5.921,5.921,0,0,0,0,11.842h7.079a5.921,5.921,0,0,0,0-11.842Z" style="fill:#333"/></svg>