<svg id="icon" xmlns="http://www.w3.org/2000/svg" viewBox="0 0 512 512"><title>christ jesus brazil</title><path d="M46.628,170.464H66.78a20.453,20.453,0,0,0,14.559-6.03,8.691,8.691,0,0,1,6.186-2.562h3.926L107,180.068a35.534,35.534,0,0,0,27.053,12.469h40.767a63.725,63.725,0,0,0,19.617,15.109v42.925a42.968,42.968,0,0,0,12.584,30.194,58.178,58.178,0,0,1,7.306,9.3c1.405,2.906,10.088,19.827,26.6,31.268l.012.009c1.405.973,2.86,1.911,4.379,2.793a92.191,92.191,0,0,1,19.836,15.192l.045.043.027.027a69.845,69.845,0,0,0,22.886,15.759,21.169,21.169,0,0,0,13.04,1.139l.865,75.878h-9.26V415a5.921,5.921,0,0,0-11.841,0v17.238a5.9,5.9,0,0,0,.572,11.783h30.171a15.111,15.111,0,0,1,15.093,15.094v27.3H181.731v-27.3a15.11,15.11,0,0,1,15.093-15.094h64.218a5.921,5.921,0,0,0,0-11.841H253.6l1.268-33.531a5.92,5.92,0,1,0-11.832-.448l-1.286,33.979h-10.5l2.842-86.268a5.921,5.921,0,1,0-11.836-.39L219.4,432.177H206.622l4.713-126.339A5.92,5.92,0,1,0,199.5,305.4l-4.734,126.886a26.952,26.952,0,0,0-24.88,26.831v27.3H148.214a5.921,5.921,0,0,0,0,11.841H353.436a5.921,5.921,0,1,0,0-11.841H338.587v-27.3a26.955,26.955,0,0,0-24.733-26.824l-.929-81.425a5.876,5.876,0,0,0-.283-1.655,21,21,0,0,0,4.9-13.462l.025-143.209h60.385a35.538,35.538,0,0,0,27.053-12.469l15.552-18.2c.029,0,.055.008.084.008h3.834a8.688,8.688,0,0,1,6.186,2.563,20.454,20.454,0,0,0,14.559,6.029h20.152a21.962,21.962,0,1,0,0-43.923h-26.01a5.747,5.747,0,0,0-.618.062,5.932,5.932,0,0,0-.857-.062c-5.237,0-10.871-.271-16.746-.8a5.92,5.92,0,1,0-1.067,11.792q2.7.244,5.336.419L396,172.375a23.71,23.71,0,0,1-18.05,8.321H317.568V154.82a5.921,5.921,0,0,0-11.842,0v31.8L305.7,335.743a9.088,9.088,0,0,1-4.123,7.692,9.283,9.283,0,0,1-8.87.815,57.635,57.635,0,0,1-17.4-11.534V301.691a5.921,5.921,0,0,0-11.842,0v20.373a113.037,113.037,0,0,0-12.212-8.165c-.372-.216-.735-.441-1.1-.665V232.37a5.921,5.921,0,1,0-11.841,0v71.218a78.747,78.747,0,0,1-13.43-18.873,5.763,5.763,0,0,0-.383-.7,70.348,70.348,0,0,0-9.042-11.546,31.2,31.2,0,0,1-9.189-21.9V211.228a67.192,67.192,0,0,0,10.941.946,42.389,42.389,0,0,0,16.1-2.858,5.92,5.92,0,1,0-4.524-10.942c-10.151,4.2-24.188.52-26.385-.1a51.762,51.762,0,0,1-20.159-15.317c-10.541-13.95-10.658-30.246-10.658-30.47a5.922,5.922,0,0,0-5.874-5.951h-.048a5.922,5.922,0,0,0-5.92,5.875,67.545,67.545,0,0,0,7.213,28.284H134.048A23.712,23.712,0,0,1,116,172.377L86.59,137.951q1.381-.09,2.78-.2a5.921,5.921,0,0,0-.936-11.8c-4.989.4-9.808.6-14.321.6H46.628a21.962,21.962,0,1,0,0,43.923Zm426.715-28.2a10.12,10.12,0,0,1-7.971,16.356H445.22a8.7,8.7,0,0,1-6.186-2.561,20.464,20.464,0,0,0-9.024-5.264l10.607-12.416h24.755A10.06,10.06,0,0,1,473.343,142.267Zm-434.686,0a10.06,10.06,0,0,1,7.971-3.885H71.383L81.99,150.8a20.469,20.469,0,0,0-9.024,5.262,8.7,8.7,0,0,1-6.186,2.563H46.628a10.12,10.12,0,0,1-7.971-16.356Z" style="fill:#333"/><path d="M386.046,498.254a5.921,5.921,0,1,0,0-11.841h-3.555a5.921,5.921,0,1,0,0,11.841Z" style="fill:#333"/><path d="M173.8,115.343a5.921,5.921,0,0,0-3.654-11.264c-6.167,2-11.892,4.114-17.017,6.281a198.475,198.475,0,0,1-37.52,11.84c-.116.023-.218.073-.33.1-1.446-2.057-2.29-3.308-2.324-3.359a5.921,5.921,0,0,0-9.828,6.606c.618.919,15.3,22.69,30.335,38.086a5.921,5.921,0,1,0,8.473-8.272,246.5,246.5,0,0,1-19.049-22.631,214.281,214.281,0,0,0,34.855-11.466C162.551,119.231,167.954,117.239,173.8,115.343Z" style="fill:#333"/><path d="M295.422,135.771a52.287,52.287,0,0,0,7.986-.654,18.538,18.538,0,0,0,3.445-1.028,22.134,22.134,0,0,0,13.81-17.269,22.63,22.63,0,0,0-7.924-21.171l-.157-.13A31.036,31.036,0,0,1,301.36,71.592v-12.7a45.409,45.409,0,0,0-23.446-39.724,5.921,5.921,0,1,0-5.728,10.364,33.564,33.564,0,0,1,17.333,29.36v12.7a42.843,42.843,0,0,0,15.493,33.032l.157.13a10.893,10.893,0,0,1,3.8,10.193,10.265,10.265,0,0,1-6.467,8.127,8.977,8.977,0,0,1-1.167.382c-7.812,1.184-13.549.195-17.053-2.946-4.623-4.147-4.357-11.233-4.356-11.26.007-.119.011-.239.011-.359V65.4a23.94,23.94,0,0,0-47.88,0v43.493c0,.09,0,.226.009.315,0,.071.268,7.157-4.354,11.3-3.5,3.143-9.24,4.134-17.054,2.946a8.983,8.983,0,0,1-1.166-.382,10.266,10.266,0,0,1-6.467-8.127,10.9,10.9,0,0,1,3.812-10.2l.149-.124a42.842,42.842,0,0,0,15.492-33.031v-12.7a33.415,33.415,0,0,1,30-33.337,5.92,5.92,0,1,0-1.226-11.777,45.227,45.227,0,0,0-40.618,45.114v12.7a31.046,31.046,0,0,1-11.23,23.935l-.149.124a22.623,22.623,0,0,0-7.924,21.169,22.131,22.131,0,0,0,13.808,17.267,18.348,18.348,0,0,0,3.557,1.048,51.524,51.524,0,0,0,7.881.644c7.941,0,14.369-2.2,19.168-6.571,8.232-7.5,8.213-18.605,8.151-20.434V98.37a23.724,23.724,0,0,0,24.2,0v10.4a28.006,28.006,0,0,0,.261,4.441,26.812,26.812,0,0,1-9.33,1.077,5.92,5.92,0,1,0-.419,11.832c.575.022,1.173.034,1.79.034a37.321,37.321,0,0,0,11.855-1.767,22.861,22.861,0,0,0,3.994,4.817C281.041,133.573,287.453,135.771,295.422,135.771ZM256,89.846a12.113,12.113,0,0,1-12.1-12.1V65.4a12.1,12.1,0,0,1,24.2,0V77.747A12.113,12.113,0,0,1,256,89.846Z" style="fill:#333"/><path d="M275.311,148.5a5.921,5.921,0,0,0-11.842,0V253.331a5.921,5.921,0,0,0,11.842,0Z" style="fill:#333"/><path d="M269.39,271.366a5.921,5.921,0,0,0-5.921,5.921v2.148a5.921,5.921,0,0,0,11.842,0v-2.148A5.921,5.921,0,0,0,269.39,271.366Z" style="fill:#333"/><path d="M241.816,175.314c-36.886,6.525-44.939-13.971-45.312-14.985a5.921,5.921,0,0,0-11.2,3.846c.379,1.122,8.652,24.284,42.711,24.284a91.018,91.018,0,0,0,15.864-1.486,5.92,5.92,0,1,0-2.064-11.659Z" style="fill:#333"/><path d="M249.835,374.982c.077,0,.152,0,.228,0a5.921,5.921,0,0,0,5.913-5.7l.083-2.19a5.92,5.92,0,1,0-11.832-.448l-.084,2.19A5.921,5.921,0,0,0,249.835,374.982Z" style="fill:#333"/><path d="M361.873,157.308a5.92,5.92,0,0,0,6.431,9.942c22.247-14.391,37.609-40.939,38.253-42.062a5.92,5.92,0,1,0-10.276-5.883c-.027.047-.564.974-1.548,2.532a199.786,199.786,0,0,1-35.861-11.478c-5.113-2.161-10.828-4.27-16.986-6.271a5.921,5.921,0,1,0-3.657,11.263c5.837,1.895,11.23,3.886,16.031,5.914a215.688,215.688,0,0,0,33.18,11.052C381.293,140.413,372.342,150.535,361.873,157.308Z" style="fill:#333"/></svg>