<svg id="icon" xmlns="http://www.w3.org/2000/svg" viewBox="0 0 512 512"><title>colosseum</title><path d="M483.212,375.507h-6.5a5.921,5.921,0,0,0,0,11.842h6.5a5.921,5.921,0,0,0,0-11.842Z" style="fill:#333"/><path d="M353.307,203.129a5.921,5.921,0,0,0,5.92-5.92V157.778a5.921,5.921,0,1,0-11.841,0v39.431A5.921,5.921,0,0,0,353.307,203.129Z" style="fill:#333"/><path d="M98.806,181.805v7.413a5.921,5.921,0,1,0,11.841,0v-7.413a5.921,5.921,0,1,0-11.841,0Z" style="fill:#333"/><path d="M169.828,181.805v7.413a5.921,5.921,0,1,0,11.841,0v-7.413a5.921,5.921,0,1,0-11.841,0Z" style="fill:#333"/><path d="M240.851,181.805v7.413a5.921,5.921,0,0,0,11.842,0v-7.413a5.921,5.921,0,1,0-11.842,0Z" style="fill:#333"/><path d="M311.875,181.805v7.413a5.921,5.921,0,1,0,11.841,0v-7.413a5.921,5.921,0,1,0-11.841,0Z" style="fill:#333"/><path d="M394.738,189.218v-7.413a5.921,5.921,0,1,0-11.841,0v7.413a5.921,5.921,0,1,0,11.841,0Z" style="fill:#333"/><path d="M36.172,163.7H51.728V190a5.921,5.921,0,1,0,11.841,0V163.7H74.915a5.921,5.921,0,0,0,0-11.842H42.092V136.493h190a5.921,5.921,0,0,0,0-11.842H36.172a5.921,5.921,0,0,0-5.921,5.921v27.206A5.921,5.921,0,0,0,36.172,163.7Z" style="fill:#333"/><path d="M265.114,136.493h.451a5.921,5.921,0,0,0,0-11.842h-.451a5.921,5.921,0,1,0,0,11.842Z" style="fill:#333"/><path d="M99.654,151.857a5.921,5.921,0,0,0,0,11.842h34.663v33.51a5.921,5.921,0,0,0,11.841,0V163.7H205.34v33.51a5.921,5.921,0,0,0,11.842,0V163.7h59.18v33.51a5.921,5.921,0,0,0,11.842,0V163.7h46.741a5.92,5.92,0,0,0,5.212-8.729L325.5,127.764a5.921,5.921,0,0,0-5.212-3.113h-20.6a5.921,5.921,0,1,0,0,11.842h17.064l8.278,15.364Z" style="fill:#333"/><path d="M457.372,124.651h-61.56a5.922,5.922,0,0,0-5.529,3.8l-10.42,27.206a5.92,5.92,0,0,0,5.529,8.039h22.733a5.921,5.921,0,0,0,0-11.842H394l5.884-15.364h51.568v15.364H435.9a5.921,5.921,0,0,0-5.92,5.921v52.158H57.649a5.921,5.921,0,0,0-5.921,5.921c0,.106.026.205.031.31s-.031.2-.031.31v159.03H28.788a5.921,5.921,0,0,0,0,11.842H452.374a5.921,5.921,0,0,0,0-11.842H441.816V299.986a3.35,3.35,0,0,1,0-1.343,5.921,5.921,0,0,0-5.921-5.921H416.311V261.466a27.493,27.493,0,0,0-54.985,0v31.256H345.287V261.466a27.419,27.419,0,0,0-1.61-9.285,5.92,5.92,0,0,0-11.145,4,15.618,15.618,0,0,1,.914,5.286v31.256h-31.3V261.466a15.668,15.668,0,0,1,15.652-15.65c.284,0,.568.007.85.022a5.921,5.921,0,0,0,.621-11.826q-.731-.038-1.473-.038A27.522,27.522,0,0,0,290.3,261.466v31.256H274.264V261.466a27.492,27.492,0,1,0-54.984,0v31.256H160.1V261.466a15.651,15.651,0,0,1,31.3,0v16.869a5.921,5.921,0,1,0,11.841,0V261.466a27.492,27.492,0,1,0-54.984,0v31.256H132.218V261.466a27.493,27.493,0,0,0-54.985,0v31.256H63.569V221.777h70.748v10.784a5.921,5.921,0,1,0,11.841,0V221.777H205.34v10.784a5.921,5.921,0,0,0,11.842,0V221.777h59.18v10.784a5.921,5.921,0,0,0,11.842,0V221.777h59.182v10.784a5.921,5.921,0,1,0,11.841,0V221.777h70.748v47.255a5.921,5.921,0,1,0,11.841,0V163.7h15.556a5.921,5.921,0,0,0,5.921-5.921V130.572A5.921,5.921,0,0,0,457.372,124.651ZM191.4,375.507H160.1V344.252a15.651,15.651,0,1,1,31.3,0Zm71.022,0h-31.3V344.252a15.65,15.65,0,1,1,31.3,0Zm142.047,0h-31.3V344.252a15.651,15.651,0,0,1,31.3,0Zm-31.3-114.041a15.651,15.651,0,0,1,31.3,0v31.256h-31.3Zm-284.092,0a15.651,15.651,0,0,1,31.3,0v31.256h-31.3Zm45.242,43.1v10.784a5.921,5.921,0,1,0,11.841,0V304.563H205.34v10.784a5.921,5.921,0,0,0,11.842,0V304.563h27.289a5.921,5.921,0,1,0,0-11.841H231.122V261.466a15.65,15.65,0,0,1,31.3,0v37.177a5.921,5.921,0,0,0,5.921,5.92h8.019v10.784a5.921,5.921,0,0,0,11.842,0V304.563h59.182v10.784a5.921,5.921,0,1,0,11.841,0V304.563h70.748v70.944H416.311V344.252a27.493,27.493,0,0,0-54.985,0v31.255H302.144V344.252a15.651,15.651,0,1,1,31.3,0v16.165a5.921,5.921,0,1,0,11.841,0V344.252a27.492,27.492,0,1,0-54.984,0v31.255H274.264V344.252a27.492,27.492,0,0,0-54.984,0v31.255H203.241V344.252a27.492,27.492,0,1,0-54.984,0v31.255H132.218V344.252a27.493,27.493,0,0,0-54.985,0v17.507a5.921,5.921,0,0,0,11.842,0V344.252a15.651,15.651,0,0,1,31.3,0v31.255H63.569V304.563Z" style="fill:#333"/></svg>