<svg id="icon" xmlns="http://www.w3.org/2000/svg" viewBox="0 0 512 512"><title>Eagle</title><path d="M141.882,136.009a145.455,145.455,0,0,0-1.375,19.1,2.619,2.619,0,0,1-1.414,2.357,2.4,2.4,0,0,1-2.547-.12c-5.28-3.531-12.217-9.347-15.282-17.009a5.892,5.892,0,0,0-10.153-1.388c-.2.266-5.017,6.588-10.48,15.065a3.724,3.724,0,0,1-3.424,1.705,3.5,3.5,0,0,1-3-2.014l-.067-.143a5.892,5.892,0,0,0-10.7,4.931l.11.236a15.15,15.15,0,0,0,12.878,8.748,15.572,15.572,0,0,0,14.108-7.081c1.649-2.558,3.247-4.926,4.664-6.969A58.066,58.066,0,0,0,130,167.145a14.244,14.244,0,0,0,14.637.723,14.435,14.435,0,0,0,7.656-12.73c0-.9.016-1.789.039-2.663a66.039,66.039,0,0,0,37.908,19.243,15.478,15.478,0,0,0,2.326.178,14.486,14.486,0,0,0,13.026-8.09,14.689,14.689,0,0,0-2.73-17.268c-8.692-8.714-13.61-16.457-16.379-22.138a63.625,63.625,0,0,0,33.752-10.621c6.446,3.165,12.127,7.308,15.939,12.741a5.892,5.892,0,0,0,10.715-3.384c0-1.783-.4-43.82-35.475-58.928a5.892,5.892,0,0,0-4.662,10.822c15.646,6.739,22.659,20.95,25.8,32.188-14.31-9.362-33.477-13.207-49.129-14.709A38.646,38.646,0,0,0,197.537,64.1c.595-14.123-6.673-27.948-18.967-36.08-18.1-11.971-39.076-13.543-60.674-4.545A88.217,88.217,0,0,0,81.379,52.318C52.328,91.2,46.985,124.929,47.618,146.377a13.863,13.863,0,0,0,9.164,12.68,14.037,14.037,0,0,0,4.806.853,13.871,13.871,0,0,0,10.376-4.676c5.822-6.533,11.546-12.106,11.6-12.162a5.892,5.892,0,1,0-8.211-8.451c-.245.238-6.073,5.91-12.189,12.774A2.161,2.161,0,0,1,59.4,146.03c-.578-19.575,4.405-50.5,31.423-86.66a76.438,76.438,0,0,1,31.608-25.02c18.06-7.523,34.764-6.347,49.642,3.495,8.869,5.867,14.117,15.736,13.7,25.757-.337,8.009-3.786,14.793-10.253,20.164a11.615,11.615,0,0,0-3.7,12.4,11.429,11.429,0,0,0,9.9,8.015,141.744,141.744,0,0,1,23.885,4.192,49.508,49.508,0,0,1-23.243,4.131,5.886,5.886,0,0,0-11.048,3.384c.075.716,2.068,17.775,23.21,38.97a2.99,2.99,0,0,1,.562,3.618,2.775,2.775,0,0,1-3.059,1.592c-16.988-2.6-30.206-11.437-39.288-26.265a5.891,5.891,0,0,0-10.85,2.2Z" style="fill:#333"/><path d="M149.927,60.131a38.144,38.144,0,0,1,6.605,5.029,5.891,5.891,0,0,0,7.882-8.758,46.067,46.067,0,0,0-9.162-6.783,5.892,5.892,0,0,0-5.325,10.512Z" style="fill:#333"/><path d="M461.372,376.032c-37.906-4.845-59.977-18.949-60.186-19.085a5.893,5.893,0,0,0-7.241.615c-22.876,21.281-83.935,9.857-84.552,9.738a5.9,5.9,0,0,0-1.365-.1c-32.754,1.411-61.193-3.425-85.077-14.4a5.893,5.893,0,0,0-1.723-.813,130.012,130.012,0,0,1-40.06-29.493c-22.051-23.945-28.143-49.019-28.2-49.269h0a5.891,5.891,0,0,0-11.476,2.668c.212.917,4.491,18.806,18.95,39.553-19.734-10.819-33.842-25.284-42.072-43.188-18.014-39.188-1.842-82.369-1.642-82.89a5.892,5.892,0,0,0-10.992-4.247c-.752,1.945-18.2,48.136,1.879,91.951a98.839,98.839,0,0,0,24.341,32.72c3.947,9.783,28.745,66.175,82.494,84.761a5.891,5.891,0,0,0,3.85-11.136c-32.894-11.374-54.3-39.443-65.728-58.9a158.705,158.705,0,0,0,25.452,11.6,142.73,142.73,0,0,0,37.029,25.755,118.681,118.681,0,0,0,21.706,30.791c17.232,17.523,37.976,26.568,60.6,26.568a88.826,88.826,0,0,0,12.167-.863c10.074,7.718,23.941,14.876,40.753,14.876a62.955,62.955,0,0,0,18.779-2.95,47.591,47.591,0,0,0,22.392,5.637,54.689,54.689,0,0,0,19.7-3.861,5.892,5.892,0,1,0-4.229-11c-34.962,13.436-52.738-21.674-53.5-23.217a5.892,5.892,0,0,0-10.594,5.161,64.69,64.69,0,0,0,13.458,18.05C323,425.265,301.916,394.444,300.954,393a5.892,5.892,0,0,0-9.813,6.524,74.356,74.356,0,0,0,6.459,7.921c-33.721.183-54.635-22.779-64.91-38.31,20.221,6.955,44.981,11.084,75.17,9.861,7.25,1.318,63.093,10.618,90.681-9.956,8.239,4.524,29.476,14.6,61.337,18.677a4.777,4.777,0,0,1,2.205,8.633c-19.364,13.833-43.845,12.085-70.8-5.055a5.892,5.892,0,0,0-6.323,9.944c18.744,11.919,34.868,16.24,48.4,16.239a60.393,60.393,0,0,0,35.568-11.54,16.561,16.561,0,0,0-7.56-29.91Z" style="fill:#333"/><path d="M343.038,336.5c.2,0,20.573.355,31.932,15.364a5.892,5.892,0,0,0,9.4-7.112c-11.584-15.305-29.6-18.919-37.418-19.772-12.6-25.155-37.082-38.969-45.715-43.221a145.186,145.186,0,0,0-16.73-46.923,5.891,5.891,0,1,0-10.29,5.74A132.582,132.582,0,0,1,290.057,286.6a5.9,5.9,0,0,0,3.547,4.6c.315.132,31.618,13.579,44.1,41.792A5.892,5.892,0,0,0,343.038,336.5Z" style="fill:#333"/><path d="M263.268,219.806a5.892,5.892,0,0,0,4.592-9.579q-1.671-2.079-3.352-4.064a5.892,5.892,0,0,0-8.993,7.614q1.579,1.866,3.153,3.825A5.883,5.883,0,0,0,263.268,219.806Z" style="fill:#333"/><path d="M222.7,168.672a5.892,5.892,0,1,0-6.233,10,165.624,165.624,0,0,1,20.583,16.1,5.891,5.891,0,1,0,7.89-8.751A175.257,175.257,0,0,0,222.7,168.672Z" style="fill:#333"/><path d="M133.631,254.1a5.7,5.7,0,0,0,.546,1.016,5.3,5.3,0,0,0,.736.9,5.929,5.929,0,0,0,4.153,1.723,6.287,6.287,0,0,0,1.164-.118,5.746,5.746,0,0,0,1.09-.339,4.752,4.752,0,0,0,1.016-.545,5.363,5.363,0,0,0,.9-.721,6.134,6.134,0,0,0,.736-.9,6.667,6.667,0,0,0,.545-1.016,6.773,6.773,0,0,0,.339-1.1,6.032,6.032,0,0,0,.1-1.149,5.925,5.925,0,0,0-.1-1.149,6.8,6.8,0,0,0-.339-1.1,6.028,6.028,0,0,0-.545-1.016,5.469,5.469,0,0,0-.736-.9,6.191,6.191,0,0,0-.9-.736,5.531,5.531,0,0,0-1.016-.546,5.764,5.764,0,0,0-1.09-.323,5.881,5.881,0,0,0-5.317,1.6,4.8,4.8,0,0,0-.736.9,5.225,5.225,0,0,0-.546,1.016,5.792,5.792,0,0,0-.338,1.1,5.932,5.932,0,0,0-.118,1.149,6.055,6.055,0,0,0,.118,1.149A5.77,5.77,0,0,0,133.631,254.1Z" style="fill:#333"/><path d="M194.219,258.946c8.522,14.489,25.406,31.432,57.882,32.756a33.758,33.758,0,0,0,22.506,8.832,35.27,35.27,0,0,0,3.776-.2,5.892,5.892,0,1,0-1.26-11.716c-7.684.828-13.721-2.46-18.148-6.558a5.981,5.981,0,0,0-.737-.7,42.269,42.269,0,0,1-8.426-12.185,5.892,5.892,0,0,0-10.857,4.579,45.653,45.653,0,0,0,2.562,4.971c-37.423-7.119-43.579-40.836-43.845-42.418a5.892,5.892,0,0,0-11.63,1.9,54.978,54.978,0,0,0,2.426,8.533c-11.123-1.267-19.785-5.052-25.8-11.312-9.982-10.38-9.559-24.507-9.549-24.763a5.892,5.892,0,0,0-11.77-.571c-.039.777-.806,19.2,12.69,33.36C163.33,253.2,176.84,258.4,194.219,258.946Z" style="fill:#333"/><path d="M240.531,331.334c8.37,8.06,21.807,16.439,41.551,16.439a75.674,75.674,0,0,0,10.544-.759,5.844,5.844,0,0,0,1.108-.271,42.99,42.99,0,0,0,17.572,3.548,63.306,63.306,0,0,0,17.79-2.752,5.891,5.891,0,0,0-3.311-11.308c-30.859,9.034-40.581-12.11-41.017-13.1a5.891,5.891,0,0,0-10.848,4.6,36.117,36.117,0,0,0,5.379,8.175c-28-1.368-38.729-23.126-39.243-24.207a5.891,5.891,0,0,0-10.682,4.972c.023.051.384.8,1.1,2.024-34.312-5.8-47.414-39.571-48.008-41.154a5.892,5.892,0,0,0-11.046,4.1C171.6,282.14,190.358,331.21,240.531,331.334Z" style="fill:#333"/><path d="M286.59,482.5H215.732a13.336,13.336,0,0,1,11.626-8.546l27.552-1.678a5.891,5.891,0,0,0,5.533-5.881V445.1a5.892,5.892,0,0,0-4.659-5.762,71.117,71.117,0,0,1-28.112-13.16,5.879,5.879,0,0,0-1.878-1.47,76.415,76.415,0,0,1-15.276-16.3,5.892,5.892,0,0,0-9.994,6.243,68.357,68.357,0,0,0,6.051,7.926,152.693,152.693,0,0,1-21.176-4.711c-.028-.011-.057-.015-.084-.025a168.427,168.427,0,0,1-30.407-12.479,39.5,39.5,0,0,0,7.469-6.406,38.527,38.527,0,0,0,15.551.574,5.892,5.892,0,1,0-1.973-11.617,26.414,26.414,0,0,1-13.253-1.176,5.889,5.889,0,0,0-7.136,1.937,27.556,27.556,0,0,1-12.718,9.743,201.723,201.723,0,0,1-21.9-15.893,5.892,5.892,0,0,0-7.54,9.056c15.5,12.9,37.522,27.6,64.878,36.421a209.152,209.152,0,0,1,4.046,26.591c-10.251,2.307-32.251,9.325-39.432,27.9H132.351a5.892,5.892,0,1,0,0,11.784h50.492a5.892,5.892,0,1,0,0-11.784H156.128c9.276-13.853,32.767-17.171,33.033-17.206a5.892,5.892,0,0,0,5.128-5.842c0-8.822-1.776-20.034-3.264-27.883a162.388,162.388,0,0,0,16.014,2.969v18.433a5.892,5.892,0,1,0,11.783,0V435.678c.63.037,1.268.059,1.9.089a83.537,83.537,0,0,0,27.936,13.946v11.133l-22.019,1.342a25.129,25.129,0,0,0-23.565,25.045v1.154a5.892,5.892,0,0,0,5.892,5.892H286.59a5.892,5.892,0,1,0,0-11.784Z" style="fill:#333"/><path d="M323.561,482.5h-9.674c-3.118-14.526-17.638-20.823-28.645-22.741V446.33a40.242,40.242,0,0,0,15.585-12.817,5.892,5.892,0,1,0-9.553-6.9,29.538,29.538,0,0,1-17.632,11.265,5.891,5.891,0,0,0-.183,11.628V465a5.892,5.892,0,0,0,5.608,5.885c.238.011,23.652,1.325,23.652,17.5a5.892,5.892,0,0,0,5.891,5.892h14.951a5.892,5.892,0,0,0,0-11.784Z" style="fill:#333"/><path d="M115.618,486.14a5.57,5.57,0,0,0-.545-1.017,6.36,6.36,0,0,0-.736-.9,5.9,5.9,0,0,0-8.337,0,5.391,5.391,0,0,0-.722.9,4.736,4.736,0,0,0-.544,1.017,5.724,5.724,0,0,0-.339,1.09,5.721,5.721,0,0,0,0,2.312,6.248,6.248,0,0,0,.339,1.105,5.53,5.53,0,0,0,.544,1.016,5.286,5.286,0,0,0,.722.884,5.892,5.892,0,0,0,10.06-4.154,5.075,5.075,0,0,0-.118-1.163A5.819,5.819,0,0,0,115.618,486.14Z" style="fill:#333"/><path d="M446.065,477.813A195.153,195.153,0,0,1,397.781,443.9a5.891,5.891,0,1,0-8.259,8.4A194.666,194.666,0,0,0,413.6,472.111c-39.689,3.347-51.177-23.065-51.711-24.358a5.892,5.892,0,0,0-10.936,4.388,41.169,41.169,0,0,0,4.158,7.165c-26.817-3.194-35.858-23.654-36.3-24.689a5.891,5.891,0,0,0-10.884,4.513c.14.34,13.829,32.379,54.4,32.379,1.4,0,2.841-.053,4.305-.132,8.753,6.811,21.73,12.815,40.295,12.815a102.979,102.979,0,0,0,21.061-2.314c.192-.041.366-.117.55-.175,3.861,2.261,7.937,4.5,12.267,6.657a5.892,5.892,0,0,0,5.256-10.547Z" style="fill:#333"/><path d="M47.959,245.473a25.508,25.508,0,0,0,22.705,2.361,27.848,27.848,0,0,0,11.289,5.855,5.892,5.892,0,0,0,3.1-11.368c-5.39-1.47-7.414-4.057-7.77-4.567a5.463,5.463,0,0,0-3.464-2.962,5.756,5.756,0,0,0-4.715.727l-.6.348a13.767,13.767,0,0,1-20.562-12.982c1.846-23.127,7.725-38.237,7.782-38.38a5.892,5.892,0,0,0-10.949-4.355c-.268.673-6.582,16.774-8.579,41.8A25.416,25.416,0,0,0,47.959,245.473Z" style="fill:#333"/><path d="M120.628,366.191c4.4.894,11.614,1.588,18.5-1.18a5.892,5.892,0,0,0-4.4-10.933c-6.344,2.55-14.264-.08-14.321-.1a5.89,5.89,0,0,0-6.651,2.029c-4.41,5.879-8.91,7.914-11.5,8.621-.555-.634-.852-.99-.855-.994a5.939,5.939,0,0,0-.756-.765,148.186,148.186,0,0,1-26.733-29.044,31.929,31.929,0,0,0,11.373-4.106,25.6,25.6,0,0,0,17.218,6.3,33.452,33.452,0,0,0,5.942-.55,5.892,5.892,0,0,0-2.092-11.6c-10.384,1.874-14.707-4.313-15.118-4.947a5.891,5.891,0,0,0-8.747-1.564c-6.66,5.357-12.754,5.327-15.729,4.862a136.514,136.514,0,0,1-12.533-32.279c5.367,1.079,12.339.836,20.678-2.972a27.477,27.477,0,0,0,19.46,7.99,5.892,5.892,0,0,0,0-11.783,16.013,16.013,0,0,1-13-6.67A5.89,5.89,0,0,0,73.4,274.5c-11.735,6.791-19.115,3.774-22.016,1.9-.926-5.446-1.6-10.8-2.133-16.006a5.892,5.892,0,0,0-11.723,1.192c.625,6.15,1.444,12.482,2.6,18.936.016.1.031.2.052.3,5.321,29.413,17.842,61.4,52.489,90.739.5.59,1.515,1.755,3,3.356l.015.013a5.918,5.918,0,0,0,.889.775c.134.1.28.162.42.245a5.9,5.9,0,0,0,.6.335c.173.076.352.123.53.183a6.14,6.14,0,0,0,.587.182,6.232,6.232,0,0,0,.626.083c.155.017.3.056.463.061l.17,0h.1C102.078,376.792,111.551,376.229,120.628,366.191Z" style="fill:#333"/></svg>