<svg id="icon" xmlns="http://www.w3.org/2000/svg" viewBox="0 0 512 512"><title>eiffel tower</title><path d="M199.8,255.005h11.323a5.921,5.921,0,0,0,0-11.842h-5.4V226.747h5.695l.012,0,.017,0h70.409l.017,0,.013,0h5.7v16.416H259.445a5.921,5.921,0,0,0,0,11.842H293.5a5.921,5.921,0,0,0,5.921-5.921V220.827a5.921,5.921,0,0,0-5.921-5.921h-6.919c-4.745-20.5-9.4-42.471-13.857-65.442a5.921,5.921,0,1,0-11.625,2.254q.736,3.792,1.48,7.541l-9.518,7.7a5.921,5.921,0,0,0,7.444,9.209l4.708-3.806q2.762,13.507,5.6,26.434l-6.1-3.382a5.921,5.921,0,0,0-5.741,10.357l15.305,8.485c.051.22.1.435.152.655H218.878c.054-.235.108-.465.162-.7l15.224-8.44a5.921,5.921,0,0,0-5.742-10.357l-6.019,3.337q2.823-12.865,5.578-26.34l4.647,3.757a5.921,5.921,0,0,0,7.444-9.209l-9.457-7.645c.5-2.521,1-5.046,1.489-7.591a5.92,5.92,0,1,0-11.624-2.254c-4.455,22.971-9.112,44.947-13.858,65.442H199.8a5.921,5.921,0,0,0-5.921,5.921v28.257A5.921,5.921,0,0,0,199.8,255.005Z" style="fill:#333"/><path d="M233.57,243.163a5.921,5.921,0,0,0,0,11.842h.994a5.921,5.921,0,0,0,0-11.842Z" style="fill:#333"/><path d="M222.814,135.961h27.421a5.921,5.921,0,0,0,0-11.841h-21.5V111.877h35.839V130.04a5.921,5.921,0,1,0,11.841,0V105.956a5.921,5.921,0,0,0-5.92-5.921h-6.783c-6.972-40.672-10.841-69.489-11.172-71.983a5.921,5.921,0,0,0-11.745-.2c-.007.051-.015.1-.02.153-.251,1.889-4.128,30.9-11.18,72.034h-6.781a5.921,5.921,0,0,0-5.921,5.921V130.04A5.921,5.921,0,0,0,222.814,135.961Zm23.84-66.689c1.431,9.1,3.117,19.461,5.045,30.763H241.608C243.536,88.732,245.222,78.369,246.654,69.272Z" style="fill:#333"/><path d="M166.4,359.538H236.45a5.921,5.921,0,1,0,0-11.841H172.323V330.461H320.986V347.7h-48.97a5.921,5.921,0,1,0,0,11.841h54.891a5.921,5.921,0,0,0,5.921-5.921V324.54a5.921,5.921,0,0,0-5.921-5.92H315.641c-5.3-15.2-10.6-32.32-15.753-50.979a5.921,5.921,0,0,0-7.284-4.13,5.861,5.861,0,0,0-3.189,2.238L275.662,281.1a5.92,5.92,0,1,0,8.82,7.9l6.947-7.756c2.877,10,5.79,19.512,8.72,28.488l-11.34-7.936a5.921,5.921,0,0,0-6.79,9.7l10.171,7.118H275.03L263.8,276.978a5.919,5.919,0,0,0-5.717-4.38H235.221a5.921,5.921,0,0,0-5.717,4.38L218.278,318.62H200.65l10.17-7.118a5.921,5.921,0,0,0-6.789-9.7L193.3,309.312q4.266-13.1,8.468-27.669l6.592,7.36a5.92,5.92,0,1,0,8.82-7.9L203.408,265.73c-.088-.1-.194-.171-.287-.262a5.916,5.916,0,0,0-.529-.484,5.621,5.621,0,0,0-.5-.32c-.159-.1-.309-.2-.479-.287a5.891,5.891,0,0,0-.7-.272c-.114-.039-.217-.1-.336-.13-.019-.006-.037,0-.056-.01a5.952,5.952,0,0,0-.749-.129c-.14-.019-.279-.055-.418-.064a5.953,5.953,0,0,0-.6.019c-.184.007-.37,0-.551.022s-.379.087-.569.132-.361.068-.534.126-.364.161-.545.244-.341.138-.5.229c-.137.078-.261.184-.393.275a5.959,5.959,0,0,0-.563.411c-.018.015-.038.025-.055.04-.108.1-.187.212-.287.315a5.656,5.656,0,0,0-.455.5,5.927,5.927,0,0,0-.336.522c-.093.152-.194.295-.273.457a5.909,5.909,0,0,0-.277.711c-.038.112-.095.213-.127.329-5.116,18.485-10.369,35.447-15.626,50.518H166.4a5.921,5.921,0,0,0-5.921,5.92v29.077A5.921,5.921,0,0,0,166.4,359.538Zm73.355-75.1h13.794l9.214,34.181H230.542Z" style="fill:#333"/><path d="M204.376,372.134l-4.312,9.931a5.921,5.921,0,1,0,10.861,4.717l4.312-9.931a5.921,5.921,0,0,0-10.861-4.717Z" style="fill:#333"/><path d="M281.143,369.062a5.92,5.92,0,0,0-3.073,7.789l4.313,9.931a5.921,5.921,0,1,0,10.861-4.717l-4.312-9.931A5.922,5.922,0,0,0,281.143,369.062Z" style="fill:#333"/><path d="M64.627,489.218H199a5.921,5.921,0,1,0,0-11.841H181.049c2.566-13.048,9.852-42.364,26.274-62.3.077-.074.166-.129.24-.209a5.89,5.89,0,0,0,.581-.768c9.557-11.207,22.116-19.212,38.51-19.212,45.56,0,61.532,61.769,65.605,82.484h-11.7a5.921,5.921,0,1,0,0,11.841H416.976a5.921,5.921,0,0,0,0-11.841H404.005c-22.153-23.166-48.475-71.415-62.4-98.558a5.921,5.921,0,0,0-10.536,5.406c4.31,8.4,9.791,18.784,15.981,29.856l-27.663-4.212a5.921,5.921,0,0,0-1.782,11.707l36.941,5.625c10.5,17.955,22.323,36.366,33.683,50.176h-57.4l20.6-28.724a5.921,5.921,0,1,0-9.622-6.9l-19.24,26.824c-3.361-14.854-10.493-38.643-24.332-57.368L321,390.067a5.921,5.921,0,0,0-8.057-8.678l-22.369,20.772c-11.009-11.273-25.34-19.109-43.918-19.109-18.622,0-32.977,7.872-44,19.187L181.073,382.2a5.92,5.92,0,1,0-8.057,8.677L195.01,411.3c-13.795,18.711-20.911,42.447-24.266,57.277L151.5,441.75a5.921,5.921,0,1,0-9.622,6.9l20.6,28.724H105.07c11.355-13.826,23.2-32.307,33.657-50.171l36.979-5.63a5.921,5.921,0,0,0-1.782-11.707l-27.692,4.216c9.829-17.561,17.727-33.124,21.68-41.095a5.92,5.92,0,0,0-10.608-5.261c-9.443,19.04-41.778,82.209-68.012,109.648H64.627a5.921,5.921,0,0,0,0,11.841Z" style="fill:#333"/><path d="M242.2,489.218a5.921,5.921,0,1,0,0-11.841h-8.131a5.921,5.921,0,1,0,0,11.841Z" style="fill:#333"/><path d="M442.235,489.218h5.137a5.921,5.921,0,1,0,0-11.841h-5.137a5.921,5.921,0,1,0,0,11.841Z" style="fill:#333"/></svg>