<svg id="icon" xmlns="http://www.w3.org/2000/svg" viewBox="0 0 512 512"><title>Elephant</title><path d="M259.832,142.636a6.363,6.363,0,0,0,.737.884,5.35,5.35,0,0,0,.9.736,5.092,5.092,0,0,0,1.017.544,5.565,5.565,0,0,0,1.1.34,6.017,6.017,0,0,0,1.148.117,6.119,6.119,0,0,0,1.149-.117,5.636,5.636,0,0,0,1.1-.34,5.57,5.57,0,0,0,1.017-.544,5.784,5.784,0,0,0,1.62-1.62,5.663,5.663,0,0,0,.545-1.016,6.415,6.415,0,0,0,.338-1.105,5.884,5.884,0,0,0-2.5-6.054,5.928,5.928,0,0,0-2.122-.883,6,6,0,0,0-2.3,0,6.767,6.767,0,0,0-1.1.338,6.145,6.145,0,0,0-1.017.545,6.077,6.077,0,0,0-.9.737,6.378,6.378,0,0,0-.737.9,7.381,7.381,0,0,0-.543,1.016,7,7,0,0,0-.326,1.09,5.286,5.286,0,0,0-.117,1.164,5.159,5.159,0,0,0,.117,1.149,7.736,7.736,0,0,0,.326,1.105A8.516,8.516,0,0,0,259.832,142.636Z" style="fill:#333"/><path d="M366.9,142.636a5.412,5.412,0,0,0,.737.884,4.717,4.717,0,0,0,.9.736,5.076,5.076,0,0,0,1.015.544,5.636,5.636,0,0,0,1.105.34,6.011,6.011,0,0,0,1.149.117,6.144,6.144,0,0,0,1.149-.117,6.311,6.311,0,0,0,1.105-.34,5.554,5.554,0,0,0,1.015-.544,5.257,5.257,0,0,0,.885-.736,4.821,4.821,0,0,0,.736-.884,5.658,5.658,0,0,0,.544-1.016,6.338,6.338,0,0,0,.34-1.105,6.146,6.146,0,0,0,.118-1.149,5.881,5.881,0,0,0-1.738-4.168,5.967,5.967,0,0,0-.885-.737,6.838,6.838,0,0,0-1.015-.545,7.9,7.9,0,0,0-1.105-.338,6,6,0,0,0-2.3,0,6.87,6.87,0,0,0-1.105.338,6.125,6.125,0,0,0-1.015.545,5.272,5.272,0,0,0-.9.737,5.868,5.868,0,0,0-1.724,4.168,5.045,5.045,0,0,0,.118,1.149,6.347,6.347,0,0,0,.324,1.105A6.9,6.9,0,0,0,366.9,142.636Z" style="fill:#333"/><path d="M279.79,224.286v22.336a82.708,82.708,0,0,0-8.735-5.362,23.036,23.036,0,0,1-10.012-30.476l.16-.319c.365-.718.711-1.446,1.018-2.2a64.979,64.979,0,0,0,4.359-21.877,34.886,34.886,0,0,0-12.953-28.385l-7.057-5.721a19.128,19.128,0,0,1-7.111-14.921V127.2a5.892,5.892,0,1,0-11.783,0v10.168a30.86,30.86,0,0,0,11.472,24.073l7.057,5.721a23.057,23.057,0,0,1,8.6,18.735,53.4,53.4,0,0,1-3.485,17.895c-.186.45-.4.889-.619,1.325l-.237.476a34.607,34.607,0,0,0,1.632,33.5,88.535,88.535,0,0,0-17.109,35.39c-4.1,18.18-.434,36.89,10.051,51.337.422.578.855,1.157,1.305,1.738a13.153,13.153,0,0,0,10.474,5.218,14.26,14.26,0,0,0,6.332-1.522,14.414,14.414,0,0,0,7.767-16.693,40.054,40.054,0,0,1,2.312-28.157,5.892,5.892,0,0,0-10.647-5.048c-5.39,11.366-6.418,23.555-3.054,36.229a2.789,2.789,0,0,1-1.606,3.109c-1.433.71-2.02-.038-2.267-.357-.374-.483-.735-.966-1.082-1.443-8.494-11.7-11.442-26.945-8.089-41.821a77.23,77.23,0,0,1,13.579-29.008,35.846,35.846,0,0,0,5.426,3.58c6.75,3.617,11.838,7.486,14.3,10.817v16.793a157.5,157.5,0,0,0,4.309,32.926,94.733,94.733,0,0,0,92.251,72.759q2.232,0,4.485-.1c54.28-2.536,81.894-35.558,91.246-49.639a18.3,18.3,0,0,0,2.573-14.222,17.715,17.715,0,0,0-8.407-11.413l-.138-.08a8.415,8.415,0,0,1-4.11-5.753l-.066-.361a13.154,13.154,0,0,0-10.592-10.595,13.337,13.337,0,0,0-13.9,6.146,91.723,91.723,0,0,1-19.3,21.736,5.891,5.891,0,0,0-2.274,4.061c-.147,1.4-1.246,13.959,5.28,22.662a5.892,5.892,0,0,0,9.427-7.069c-2.5-3.334-3.069-8.705-3.079-12.1a103.233,103.233,0,0,0,19.975-23.1,1.573,1.573,0,0,1,1.707-.753,1.322,1.322,0,0,1,1.168,1.134l.055.3a20.1,20.1,0,0,0,9.923,13.956,6.042,6.042,0,0,1,2.857,3.9,6.388,6.388,0,0,1-.912,5.032c-8.36,12.585-33.082,42.1-81.981,44.388-1.317.061-2.625.092-3.931.092a82.952,82.952,0,0,1-80.788-63.685,148.472,148.472,0,0,1-3.993-30.217v-54.97a5.892,5.892,0,1,0-11.783,0Z" style="fill:#333"/><path d="M344.81,213.221a69.67,69.67,0,0,0-37.462-1.5,5.892,5.892,0,0,0,2.784,11.45,57.719,57.719,0,0,1,31.042,1.258,5.892,5.892,0,0,0,3.636-11.208Z" style="fill:#333"/><path d="M311.831,258.632c4.062-2.5,16.937-3.524,26.827-1.041a5.892,5.892,0,1,0,2.871-11.428c-10.9-2.739-27.726-2.587-35.88,2.438a5.891,5.891,0,1,0,6.182,10.031Z" style="fill:#333"/><path d="M309.159,287.939a5.892,5.892,0,1,0,6.783,9.636c.177-.126,17.114-11.8,37.062-6.632a60.359,60.359,0,0,0,3.925,14.36,5.892,5.892,0,0,0,10.8-4.708,53.716,53.716,0,0,1-3.566-14.444,5.935,5.935,0,0,0-.075-.624c-.138-1.16-.261-2.333-.361-3.525-.008-.153.006-.3-.014-.457-.026-.2-.044-.414-.068-.615-.168-2.266-.275-4.571-.327-6.887a14.09,14.09,0,0,1,7.734-11.017A45.835,45.835,0,0,0,387.9,249.319a77.12,77.12,0,0,1,12.654,27.756c3.353,14.875.405,30.118-8.092,41.823-.347.48-.708.96-1.077,1.437-.251.321-.836,1.068-2.269.36a2.79,2.79,0,0,1-1.606-3.11,51.532,51.532,0,0,0-3.054-36.228,5.892,5.892,0,0,0-10.647,5.048,40.052,40.052,0,0,1,2.312,28.156,14.415,14.415,0,0,0,7.767,16.694,14.251,14.251,0,0,0,6.33,1.522,13.149,13.149,0,0,0,10.477-5.221c.452-.581.888-1.163,1.306-1.74,10.483-14.442,14.145-33.152,10.049-51.331a88.278,88.278,0,0,0-18.278-36.807,47.492,47.492,0,0,0,2-15.622,52.58,52.58,0,0,0-6.882-23.788c-.817-1.48-1.612-3.1-2.364-4.812a17.594,17.594,0,0,1,4.309-20.057c20.284-18,11.53-46.755,11.148-47.971a5.892,5.892,0,0,0-11.24,3.537c.071.225,6.907,22.635-7.727,35.62a29.116,29.116,0,0,0-7.278,33.61c.895,2.037,1.848,3.977,2.835,5.765a40.942,40.942,0,0,1,5.421,18.472c.438,13.683-5.689,23.794-18.21,30.055-.62.31-1.221.646-1.808,1,.836-10.783,2.129-18.829,2.161-19.019a5.892,5.892,0,0,0-11.628-1.913,252.725,252.725,0,0,0-2.955,40.589,25.694,25.694,0,0,0-.077,3.879c.03.537.077,1.048.116,1.572C328.457,274.63,310.023,287.331,309.159,287.939Z" style="fill:#333"/><path d="M354.2,315.82c-16.1,2.5-23.713,17.024-24.028,17.64a5.891,5.891,0,1,0,10.486,5.374c.05-.1,5.283-9.8,15.355-11.371A5.892,5.892,0,0,0,354.2,315.82Z" style="fill:#333"/><path d="M386.034,340.706a5.888,5.888,0,0,0-6.828,4.777,36.235,36.235,0,0,0,.012,11.88,5.892,5.892,0,0,0,11.582-2.174,25.15,25.15,0,0,1,.011-7.657A5.892,5.892,0,0,0,386.034,340.706Z" style="fill:#333"/><path d="M303.027,56.4a5.861,5.861,0,0,0,.756-.049q1.663-.211,3.381-.386a5.892,5.892,0,0,0-1.18-11.724q-1.881.189-3.7.423a5.892,5.892,0,0,0,.742,11.736Z" style="fill:#333"/><path d="M460.18,47.923a62.783,62.783,0,0,0-35.373-16.107c-22.031-2.319-39.83,7.305-50.881,15.789A14.83,14.83,0,0,1,359.5,49.544a5.619,5.619,0,0,0-.6-.17,125.873,125.873,0,0,0-22.579-4.921,5.891,5.891,0,0,0-1.458,11.692,113.941,113.941,0,0,1,21.894,4.927l.06.02c11.594,3.916,23.81,10.5,31.873,21.625a5.892,5.892,0,1,0,9.542-6.913A65.561,65.561,0,0,0,378.989,58.4c.722-.448,1.431-.921,2.112-1.443,9.351-7.177,24.318-15.329,42.472-13.418A51.08,51.08,0,0,1,452.315,56.7C463.963,67.137,479,86.427,484.507,119.037a32.459,32.459,0,0,1-1.312,15.768,191.782,191.782,0,0,1-25.423,48.764,13.762,13.762,0,0,0-21.217,12.254l.352,6.935a10.631,10.631,0,0,1-3.866,8.714c-5.6,4.6-14.355,10.607-24.272,13.087a5.891,5.891,0,1,0,2.857,11.43c12.045-3.01,22.362-10.043,28.9-15.413a22.469,22.469,0,0,0,8.153-18.417l-.353-6.934a1.979,1.979,0,0,1,3.084-1.739l4.453,3.013a5.89,5.89,0,0,0,8-1.322,205.211,205.211,0,0,0,30.5-56.59,44.294,44.294,0,0,0,1.772-21.511C490.054,81.108,473.227,59.617,460.18,47.923Z" style="fill:#333"/><path d="M162.812,188.373l15.945-5.978-.564,1.314a28.488,28.488,0,0,0,8.611,33.555,210.371,210.371,0,0,0,38.921,24,5.891,5.891,0,1,0,5.072-10.635A197.655,197.655,0,0,1,194.088,208a16.685,16.685,0,0,1-5.064-19.651l6-14a5.892,5.892,0,0,0-7.484-7.837l-24.611,9.229c-12.878-19.421-15.615-43.447-16.068-56.5a30.742,30.742,0,0,1,6.051-19.581c16.382-21.681,38.639-35.517,50.449-41.835a29.88,29.88,0,0,1,19.652-3.23c8.523,1.653,16.025,6.318,20.818,9.94a24.68,24.68,0,0,0,3.941,2.417,57.059,57.059,0,0,0-10.529,11.151,5.892,5.892,0,0,0,9.873,6.434c.068-.105,5.74-8.607,19.633-16.445a24.33,24.33,0,0,0,4-1.824l2.8-1.611c1.4-.636,2.855-1.26,4.386-1.861a5.892,5.892,0,0,0-4.3-10.969,100.1,100.1,0,0,0-11.484,5.357,12.649,12.649,0,0,1-11.207-2.05c-5.788-4.373-14.94-10.024-25.68-12.106A41.679,41.679,0,0,0,197.8,47.439c-12.662,6.773-36.554,21.642-54.292,45.12a42.561,42.561,0,0,0-8.427,27.1c.53,15.254,3.959,44.21,20.958,66.75A5.885,5.885,0,0,0,162.812,188.373Z" style="fill:#333"/><path d="M180.776,480.535h44.393a5.9,5.9,0,0,0,5.056-8.915c-.2-.335-19.778-34.124-9.069-88.156a5.892,5.892,0,0,0-11.559-2.292c-8.432,42.548.384,73.282,6.24,87.58H180.776a10.3,10.3,0,0,1-10.361-9.734c-2.095-42.561-24.028-69.078-24.96-70.186a5.892,5.892,0,0,0-9.023,7.579c.2.243,20.323,24.766,22.215,63.187A22.071,22.071,0,0,0,180.776,480.535Z" style="fill:#333"/><path d="M123.636,474.643a5.892,5.892,0,0,0-5.891-5.891H100.4c-.444-10.812-1.2-35.211.1-53.648a40.932,40.932,0,0,1,6.386-19.283c3.774-5.852,9.923-14.1,17.778-20.183a5.707,5.707,0,0,0,.465-.44,226.637,226.637,0,0,0,22.984,1.188c22.439,0,49.757-3.532,74.05-16.506,9.379,27.046,18.373,61.34,20.738,97.853a24.418,24.418,0,0,0,24.308,22.8h72.886a5.892,5.892,0,0,0,0-11.783H326.325c-2.855-9.494-9.708-37.145-9.708-83.857a5.892,5.892,0,0,0-11.784,0c0,43.737,5.748,71.257,9.208,83.857H267.208a12.611,12.611,0,0,1-12.551-11.78c-5.554-85.792-45.338-157.508-47.029-160.519a5.891,5.891,0,1,0-10.273,5.77c.2.355,10.15,18.289,20.759,46.462-47.961,26.585-112.542,11.57-113.2,11.411a5.891,5.891,0,0,0-2.756,11.456c.539.13,3.3.777,7.754,1.556a105.483,105.483,0,0,0-12.925,16.324,52.758,52.758,0,0,0-8.239,24.845c-1.332,18.944-.607,43.213-.144,54.475H37.171A10.123,10.123,0,0,1,27.061,458.5c1.477-114.431,10.216-185.29,12.86-204.282a98.038,98.038,0,0,1,3.169-14.841c17.6-58.606,80.759-104.355,81.4-104.81a5.892,5.892,0,0,0-6.854-9.585c-2.728,1.951-67.049,48.5-85.827,111.005A109.881,109.881,0,0,0,28.25,252.59c-2.667,19.163-11.485,90.636-12.973,205.753a21.908,21.908,0,0,0,21.894,22.192h80.574A5.892,5.892,0,0,0,123.636,474.643Z" style="fill:#333"/><path d="M145.845,471.372a6.191,6.191,0,0,0-.736-.9,5.95,5.95,0,0,0-5.318-1.606,6.393,6.393,0,0,0-1.1.339,6.579,6.579,0,0,0-1.015.531,6.24,6.24,0,0,0-.885.736,5.392,5.392,0,0,0-.736.9,5.73,5.73,0,0,0-.544,1.017,5.648,5.648,0,0,0-.34,1.1,5.653,5.653,0,0,0,0,2.3,5.987,5.987,0,0,0,.884,2.121,5.352,5.352,0,0,0,.736.9,6.18,6.18,0,0,0,.885.737,6.758,6.758,0,0,0,1.015.531,6.476,6.476,0,0,0,1.1.338,5.086,5.086,0,0,0,1.163.118,5.924,5.924,0,0,0,4.155-1.724,6.137,6.137,0,0,0,.736-.9,6.708,6.708,0,0,0,.545-1.016,6.87,6.87,0,0,0,.338-1.105,6.4,6.4,0,0,0,0-2.3,6.889,6.889,0,0,0-.338-1.1A6.815,6.815,0,0,0,145.845,471.372Z" style="fill:#333"/><path d="M375.4,474.643a5.891,5.891,0,0,0-5.892-5.891H369.5a5.892,5.892,0,1,0,5.906,5.891Z" style="fill:#333"/><path d="M474.624,468.752H469.33l1.891-17.518a56.564,56.564,0,0,0-5.6-31.329c-5.286-10.617-13.378-25.574-21.916-36.535a5.891,5.891,0,1,0-9.3,7.241c7.938,10.191,15.618,24.411,20.662,34.544a44.81,44.81,0,0,1,4.432,24.815l-2.028,18.782H412.322a5.978,5.978,0,0,1-5.927-6.7c.33-2.761.624-5.728.871-8.815a31.7,31.7,0,0,0-5.529-20.623,256.375,256.375,0,0,0-28.148-33.392,5.891,5.891,0,1,0-8.216,8.446,248.273,248.273,0,0,1,26.7,31.683,19.9,19.9,0,0,1,3.45,12.947c-.234,2.933-.512,5.742-.825,8.351a17.762,17.762,0,0,0,17.627,19.882h62.3a5.892,5.892,0,1,0,0-11.783Z" style="fill:#333"/></svg>