<svg id="icon" xmlns="http://www.w3.org/2000/svg" viewBox="0 0 512 512"><title>forbidden city</title><path d="M194.979,366.781h126.1a5.921,5.921,0,0,0,5.921-5.92V338.316a5.921,5.921,0,0,0-5.921-5.921H309.848a5.921,5.921,0,1,0,0,11.841h5.305v10.7H200.9v-10.7h52.686a5.921,5.921,0,1,0,0-11.841H194.979a5.921,5.921,0,0,0-5.921,5.921v22.545A5.921,5.921,0,0,0,194.979,366.781Z" style="fill:#333"/><path d="M277.653,344.236h2.413a5.921,5.921,0,1,0,0-11.841h-2.413a5.921,5.921,0,0,0,0,11.841Z" style="fill:#333"/><path d="M149.5,65.544H281.938a5.921,5.921,0,0,0,0-11.841H149.5a15.676,15.676,0,0,0-15.659,15.658V84.13c-1.927,2.547-4.984,6.41-9.094,11.037a5.921,5.921,0,0,0,8.855,7.864c5.041-5.678,8.6-10.272,10.588-12.962H375.721c5.85,7.5,24.9,30.605,50.683,48.641h-6.43a5.921,5.921,0,1,0,0,11.841H447.5a5.92,5.92,0,0,0,2.715-11.182C419.042,123.287,393.792,93.7,385.958,83.9V69.361A15.677,15.677,0,0,0,370.3,53.7H342.623a5.921,5.921,0,1,0,0,11.841H370.3a3.822,3.822,0,0,1,3.818,3.817v8.867H145.678V69.361A3.822,3.822,0,0,1,149.5,65.544Z" style="fill:#333"/><path d="M315.415,65.544a5.921,5.921,0,1,0,0-11.841h-.606a5.921,5.921,0,0,0,0,11.841Z" style="fill:#333"/><path d="M237.858,227.381h44.08a5.921,5.921,0,0,0,5.92-5.921V170.178a5.921,5.921,0,0,0-5.92-5.921h-44.08a5.921,5.921,0,0,0-5.921,5.921V221.46A5.921,5.921,0,0,0,237.858,227.381Zm5.92-51.283h32.239V215.54H243.778Z" style="fill:#333"/><path d="M27.894,458.3h8.427a5.921,5.921,0,1,0,0-11.841H27.894a5.921,5.921,0,0,0,0,11.841Z" style="fill:#333"/><path d="M490.026,452.377a5.921,5.921,0,0,0-5.92-5.921h-39.4V315.5a5.921,5.921,0,0,0-5.92-5.921h-6.971V259.037H447.5a5.92,5.92,0,0,0,2.865-11.1c-31.114-17.206-56.309-43.723-64.407-52.755v-44.63h9.916a5.921,5.921,0,0,0,0-11.841H93.368q8.374-5.753,16.405-12.5a5.92,5.92,0,1,0-7.616-9.066A190.978,190.978,0,0,1,69.5,139.408a5.921,5.921,0,0,0,2.79,11.143h61.543v44.63c-8.1,9.032-33.293,35.549-64.408,52.753a5.921,5.921,0,0,0,2.865,11.1H87.979v50.544H77.267a5.921,5.921,0,0,0-5.92,5.921V446.456H61.53a5.921,5.921,0,0,0,0,11.841H484.106A5.921,5.921,0,0,0,490.026,452.377Zm-70.052-142.8H407.7V259.037h12.278Zm-34.016,0V259.037h9.9v50.544ZM374.116,189.9H340.045V150.551h34.071Zm-58.191,0V150.551H328.2V189.9Zm-124.334,0V150.551H203.87V189.9ZM179.75,150.551V189.9H145.678V150.551ZM143.865,201.74h75.4a5.921,5.921,0,1,0,0-11.842h-3.555V150.551h88.373V189.9h-2.079a5.921,5.921,0,1,0,0,11.842H375.93A293.166,293.166,0,0,0,426.8,247.2H370.3a5.921,5.921,0,1,0,0,11.841h3.819v50.544H340.045V259.037h4.345a5.921,5.921,0,1,0,0-11.841H92.991A293.246,293.246,0,0,0,143.865,201.74Zm172.06,107.841V259.037H328.2v50.544Zm-100.214,0V259.037h88.373v50.544Zm-24.12,0V259.037H203.87v50.544Zm-45.913,0V259.037H179.75v50.544Zm-21.738,0V259.037h9.9v50.544ZM99.82,259.037H112.1v50.544H99.82ZM83.188,321.422H432.865V446.456H377.437V401.934a5.921,5.921,0,0,0-5.92-5.921H321.074a5.921,5.921,0,0,0-5.921,5.921v44.522h-17.9v-60.7a5.921,5.921,0,0,0-5.92-5.921H224.715a5.921,5.921,0,0,0-5.92,5.921v60.7H200.9V401.934a5.921,5.921,0,0,0-5.921-5.921H144.537a5.921,5.921,0,0,0-5.921,5.921v44.522H83.188ZM365.6,446.456H327v-38.6h38.6Zm-80.179,0H230.636V391.675h54.781Zm-96.359,0h-38.6v-38.6h38.6Z" style="fill:#333"/></svg>