<svg id="icon" xmlns="http://www.w3.org/2000/svg" viewBox="0 0 512 512"><title>golden gate bridge</title><path d="M498.26,267.64c-.032-.187-.079-.367-.128-.548s-.1-.367-.17-.547-.152-.356-.238-.529-.169-.335-.269-.5-.21-.309-.324-.459-.237-.306-.371-.45-.27-.265-.412-.391-.283-.248-.438-.361a5.778,5.778,0,0,0-.541-.339c-.106-.06-.2-.137-.307-.192a191.955,191.955,0,0,1-27.59-16.6,5.921,5.921,0,0,0-6.949,9.588c3.06,2.218,6.238,4.332,9.466,6.4h-23.65V231.222c0-.15-.033-.29-.044-.436a5.788,5.788,0,0,0-.069-.683,5.9,5.9,0,0,0-.181-.634c-.049-.156-.083-.313-.144-.465a6.035,6.035,0,0,0-.356-.693c-.062-.107-.108-.22-.177-.325a5.89,5.89,0,0,0-.689-.86c-.013-.013-.021-.03-.034-.043l-.009-.009c-.017-.018-.033-.037-.051-.055a181.706,181.706,0,0,1-33.31-47.3,5.92,5.92,0,0,0-10.632,5.212q3.636,7.417,7.843,14.433v63.7a5.906,5.906,0,0,0,1.957,11.484H486.52v16.51H25.48v-16.51H183.771a5.294,5.294,0,0,0,3.087,0H388.4a5.921,5.921,0,0,0,5.92-5.92V125.144a5.921,5.921,0,0,0-5.92-5.921H360.045a5.921,5.921,0,0,0-5.921,5.921V262.716H332.606V240.369a5.921,5.921,0,1,0-11.841,0v22.347H299.247V226.083a105.859,105.859,0,0,0,21.518-12.652v8.687a5.921,5.921,0,1,0,11.841,0V202.929a104.932,104.932,0,0,0,12.84-16.189,5.921,5.921,0,1,0-9.955-6.412,93.262,93.262,0,0,1-44.064,36.209,5.861,5.861,0,0,0-.6.232,95.9,95.9,0,0,1-33.6,6.554,5.749,5.749,0,0,0-2.369-.017,95.5,95.5,0,0,1-33.662-6.523c-.168-.08-.341-.148-.518-.212a96.49,96.49,0,0,1-11.466-5.427,5.92,5.92,0,0,0-5.773,10.338q4.585,2.56,9.31,4.628v36.606H191.235V201.834a5.906,5.906,0,0,0-1.644-5.394,93.834,93.834,0,0,1-11.68-14,5.921,5.921,0,0,0-9.783,6.672,105.791,105.791,0,0,0,11.266,13.81v59.791H157.877V125.144a5.921,5.921,0,0,0-5.921-5.921H123.6a5.921,5.921,0,0,0-5.92,5.921V262.716h-14.17V256a5.921,5.921,0,0,0-11.841,0v6.716H77.5V233.672a187.547,187.547,0,0,0,14.17-16.679v18.939a5.921,5.921,0,1,0,11.841,0V199.383c2.492-4.187,4.865-8.482,7.084-12.912a5.921,5.921,0,0,0-10.588-5.3A180.828,180.828,0,0,1,67.557,226.9c-.121.113-.233.232-.345.355a184.571,184.571,0,0,1-50.274,36.07c-.111.055-.2.132-.307.192a5.993,5.993,0,0,0-.541.339c-.155.113-.3.236-.437.361a5.661,5.661,0,0,0-.413.392,5.6,5.6,0,0,0-.37.448c-.115.15-.225.3-.325.461a5.6,5.6,0,0,0-.268.493,5.66,5.66,0,0,0-.239.533c-.067.177-.119.358-.169.542s-.1.364-.13.553a6.1,6.1,0,0,0-.064.635c-.007.121-.036.236-.036.36v28.351a5.921,5.921,0,0,0,5.921,5.92h98.124v78.028h-4.89a5.921,5.921,0,0,0,0,11.841h39.162a5.973,5.973,0,0,0,.7-.07,5.973,5.973,0,0,0,.7.07h36.99a5.921,5.921,0,1,0,0-11.841H157.877V319.883a5.921,5.921,0,0,0-11.842,0v61.053h-16.51V302.908h224.6v78.028H258.019a5.921,5.921,0,0,0,0,11.841H404.808a5.921,5.921,0,1,0,0-11.841H394.316V319.367a5.921,5.921,0,0,0-11.841,0v61.569h-16.51V302.908H492.44a5.921,5.921,0,0,0,5.921-5.92V268.637c0-.122-.029-.236-.036-.356A5.7,5.7,0,0,0,498.26,267.64Zm-132.3-136.576h16.51V262.716h-16.51ZM287.406,262.716H261.921V235a107.975,107.975,0,0,0,25.485-4.527ZM224.6,230.488A107.244,107.244,0,0,0,250.079,235v27.712H224.6Zm-95.07-99.424h16.51V262.716h-16.51ZM65.662,245.014v17.7H42.084A193.667,193.667,0,0,0,65.662,245.014ZM434.5,233.575v29.141h-14.17V216.938A190.09,190.09,0,0,0,434.5,233.575Z" style="fill:#333"/><path d="M87.3,380.936H65.894a5.921,5.921,0,1,0,0,11.841H87.3a5.921,5.921,0,1,0,0-11.841Z" style="fill:#333"/><path d="M467.6,386.857a5.921,5.921,0,0,0-5.92-5.921H435.9a5.921,5.921,0,1,0,0,11.841H461.68A5.921,5.921,0,0,0,467.6,386.857Z" style="fill:#333"/><path d="M225.944,392.777a5.921,5.921,0,1,0,0-11.841H222.68a5.921,5.921,0,1,0,0,11.841Z" style="fill:#333"/></svg>