<svg id="icon" xmlns="http://www.w3.org/2000/svg" viewBox="0 0 512 512"><title>great wall</title><path d="M238.682,88.536H217.4a5.921,5.921,0,0,0-5.921,5.92V218.131a5.921,5.921,0,1,0,11.841,0V199.812a170.987,170.987,0,0,0,51.159,49.068,5.921,5.921,0,1,0,6.25-10.058,159.011,159.011,0,0,1-53.684-55.558h31.1a5.921,5.921,0,0,0,0-11.842H245.056V150.9a4.27,4.27,0,1,1,8.539,0v6.382a5.921,5.921,0,1,0,11.841,0V150.9a16.111,16.111,0,1,0-32.221,0v20.527h-9.9V100.377h9.445v9.776a5.921,5.921,0,0,0,5.921,5.92h21.287a5.921,5.921,0,0,0,5.921-5.92v-9.776h9.445v76.966c0,.114.027.222.034.335a5.548,5.548,0,0,0,.064.64c.032.189.077.372.127.555s.1.366.169.547a5.979,5.979,0,0,0,.263.582c.052.1.083.209.141.31,16.63,28.7,41.34,49.045,73.444,60.477a5.921,5.921,0,0,0,3.973-11.156c-28.889-10.286-51.2-28.444-66.374-53.947V94.456a5.921,5.921,0,0,0-5.921-5.92H259.969a5.921,5.921,0,0,0-5.92,5.92v9.776H244.6V94.456A5.921,5.921,0,0,0,238.682,88.536Z" style="fill:#333"/><path d="M394.17,177.343a5.921,5.921,0,0,0-5.92-5.921H311.836a5.921,5.921,0,1,0,0,11.842H388.25A5.921,5.921,0,0,0,394.17,177.343Z" style="fill:#333"/><path d="M149.2,190.881a5.921,5.921,0,0,0,5.92-5.92V81.827a5.921,5.921,0,0,0-5.92-5.92H125.4a5.921,5.921,0,0,0-5.921,5.92V98.1H107.526V81.827a5.921,5.921,0,0,0-5.92-5.92h-23.8a5.921,5.921,0,0,0-5.92,5.92V98.1H59.93V81.827a5.921,5.921,0,0,0-5.921-5.92h-23.8a5.921,5.921,0,0,0-5.921,5.92v42.716a5.921,5.921,0,0,0,11.841,0V87.748H48.088v16.269a5.921,5.921,0,0,0,5.921,5.92h23.8a5.921,5.921,0,0,0,5.921-5.92V87.748H95.685v16.269a5.921,5.921,0,0,0,5.921,5.92h23.8a5.921,5.921,0,0,0,5.921-5.92V87.748h11.958v97.213A5.921,5.921,0,0,0,149.2,190.881Z" style="fill:#333"/><path d="M70.2,151.347v19.989a5.921,5.921,0,0,0,5.921,5.92H103.3a5.921,5.921,0,0,0,5.921-5.92V151.347a19.511,19.511,0,1,0-39.021,0Zm27.179,0v14.068H82.038V151.347a7.669,7.669,0,0,1,15.338,0Z" style="fill:#333"/><path d="M354.884,259.237c-.412.119-.827.235-1.244.351A5.92,5.92,0,1,0,356.78,271q.716-.195,1.42-.4a5.92,5.92,0,0,0-3.316-11.367Z" style="fill:#333"/><path d="M481.791,119.2H460.5a5.92,5.92,0,0,0-5.92,5.92V134.9h-9.445v-9.775a5.92,5.92,0,0,0-5.921-5.92H417.931a5.92,5.92,0,0,0-5.921,5.92v82.037c-1.3,4.212-9.887,28.639-37.485,43.98a5.921,5.921,0,1,0,5.753,10.35,92.934,92.934,0,0,0,41.916-47.56h52.028C459.594,268.1,420.9,295.065,359.034,294.161a181.993,181.993,0,0,1-87.354-24.372,218.187,218.187,0,0,0,48.187,5.9q6.5,0,12.685-.5a5.921,5.921,0,0,0-.953-11.8c-29.354,2.367-64.7-4.377-105.063-20.058-25.862-14.208-47.563-24.31-63.042-30.934a127.516,127.516,0,0,0-50.46-10.308h-76.9V151.459a5.921,5.921,0,1,0-11.841,0v54.818a4.329,4.329,0,0,1,0,1.732v65.984c0,89.383,72.717,162.1,162.1,162.1h92.435c1.566,0,3.1-.051,4.657-.074.105,0,.2.031.31.031H433.533a5.921,5.921,0,1,0,0-11.841H358.926A209.87,209.87,0,0,0,416.173,395.8a206.558,206.558,0,0,0,61.05-68.121,84.238,84.238,0,0,0,10.488-40.724V125.122A5.92,5.92,0,0,0,481.791,119.2Zm-57.939,11.841H433.3v9.774a5.921,5.921,0,0,0,5.92,5.921H460.5a5.921,5.921,0,0,0,5.921-5.921v-9.774h9.446v71.045h-9.9V181.561a16.111,16.111,0,1,0-32.222,0v20.527h-9.9Zm30.278,71.045h-8.54V181.561a4.27,4.27,0,1,1,8.54,0Zm21.74,84.865a72.373,72.373,0,0,1-9,34.988c-21.162,38.21-73.73,102.311-188.041,102.311H186.389c-82.854,0-150.259-67.405-150.259-150.259V213.929h76.9a115.729,115.729,0,0,1,45.8,9.354c22.379,9.576,57.974,26.532,100.465,52.923,30.54,18.971,64.965,29.273,99.554,29.8,41.068.593,91.336-10.72,117.016-62.674Z" style="fill:#333"/><path d="M118.79,279.1a5.921,5.921,0,0,0,11.841,0V267.961H149.2a5.921,5.921,0,0,0,0-11.841H67.552a5.921,5.921,0,1,0,0,11.841H118.79Z" style="fill:#333"/><path d="M183.1,302.135a5.921,5.921,0,0,0-5.921-5.92h-90a5.921,5.921,0,1,0,0,11.841h90A5.921,5.921,0,0,0,183.1,302.135Z" style="fill:#333"/><path d="M180.507,352.7H141.641V337.288a5.921,5.921,0,1,0-11.841,0V352.7H112.26a5.921,5.921,0,0,0,0,11.842h68.247a5.921,5.921,0,0,0,0-11.842Z" style="fill:#333"/><path d="M220.356,296.215H210.019a5.921,5.921,0,0,0,0,11.841h10.337a5.921,5.921,0,1,0,0-11.841Z" style="fill:#333"/><path d="M219.75,322.41a5.921,5.921,0,0,0-5.92,5.92v23.034a5.921,5.921,0,1,0,11.841,0V328.33A5.921,5.921,0,0,0,219.75,322.41Z" style="fill:#333"/><path d="M381.119,338.784c-1.429.374-2.937.731-4.478,1.058a5.921,5.921,0,1,0,2.46,11.584c1.723-.367,3.413-.766,5.022-1.188a5.921,5.921,0,1,0-3-11.454Z" style="fill:#333"/><path d="M344.022,342.7a302.26,302.26,0,0,1-55.5-6.025,5.92,5.92,0,0,0-2.557,11.561c.5.112,6.147,1.344,14.9,2.69l-.745,10.063a5.922,5.922,0,0,0,5.469,6.342c.148.01.3.016.442.016a5.924,5.924,0,0,0,5.9-5.485l.691-9.343a287.7,287.7,0,0,0,31.323,2.022h.039a5.921,5.921,0,0,0,.036-11.841Z" style="fill:#333"/><path d="M314.893,381.984c-22.783,1.037-58.4.252-58.76.247a5.92,5.92,0,1,0-.266,11.838c.217,0,13.3.292,28.736.292,10.263,0,21.57-.127,30.828-.548a5.921,5.921,0,1,0-.538-11.829Z" style="fill:#333"/><path d="M474.694,424.209h-6.827a5.921,5.921,0,1,0,0,11.841h6.827a5.921,5.921,0,0,0,0-11.841Z" style="fill:#333"/></svg>