<svg id="icon" xmlns="http://www.w3.org/2000/svg" viewBox="0 0 512 512"><title>Kilimanjaro</title><path d="M106.571,267.242,91.542,303.824l0,.007v0l-6.41,15.6a5.891,5.891,0,1,0,10.9,4.477l6.408-15.6,0-.007a3.657,3.657,0,0,1,2.685-2.272,3.428,3.428,0,0,1,3.174,1.007l6.928,7.017a25.745,25.745,0,0,0,37.062-.289l7.22-7.538a13.96,13.96,0,0,1,20.022-.305l9.723,9.572a29.921,29.921,0,0,0,20.988,8.647q1.234,0,2.478-.1a30.086,30.086,0,0,0,21.853-12.438l10.078-13.948a22.958,22.958,0,0,1,36.435-1.41l15.224,18.072a21.415,21.415,0,0,0,16.307,7.669h.076a21.4,21.4,0,0,0,16.281-7.55l1.85-2.162a9.566,9.566,0,0,1,6.971-3.416,9.448,9.448,0,0,1,7.166,2.86,5.892,5.892,0,0,0,8.357-8.308,21.323,21.323,0,0,0-31.451,1.208l-1.849,2.161a9.517,9.517,0,0,1-7.323,3.424h-.035a9.518,9.518,0,0,1-7.337-3.478L290.1,288.657a34.741,34.741,0,0,0-55,2.1L225.02,304.705a18.316,18.316,0,0,1-13.288,7.6,17.879,17.879,0,0,1-14.213-5.2l-9.724-9.572a25.742,25.742,0,0,0-36.8.552l-7.22,7.538a13.983,13.983,0,0,1-10.057,4.385,14.232,14.232,0,0,1-10.111-4.226l-6.928-7.016a15.325,15.325,0,0,0-8.526-4.374l9.314-22.671A19.689,19.689,0,0,1,135.623,259.3H250.775a5.892,5.892,0,0,0,0-11.783H135.623A31.429,31.429,0,0,0,106.571,267.242Z" style="fill:#333"/><path d="M279.868,259.3h5.012a5.892,5.892,0,1,0,0-11.783h-5.012a5.892,5.892,0,1,0,0,11.783Z" style="fill:#333"/><path d="M315.969,259.3h19.959a19.746,19.746,0,0,1,17.8,11.616c4.114,8.96,8.606,18.129,13.351,27.249a5.892,5.892,0,0,0,10.454-5.438c-4.657-8.95-9.063-17.942-13.1-26.728a31.561,31.561,0,0,0-28.512-18.482H315.969a5.892,5.892,0,0,0,0,11.783Z" style="fill:#333"/><path d="M492.765,431.615c-29.59-16.668-59.043-47.354-87.538-91.208-.009-.013-.021-.023-.03-.037a5.875,5.875,0,0,0-.491-.61c-.084-.1-.156-.209-.246-.3a5.9,5.9,0,0,0-.5-.417c-.127-.1-.243-.221-.378-.312a5.9,5.9,0,0,0-1.5-.7c-.194-.062-.384-.138-.582-.18-.12-.025-.247-.025-.368-.042a5.944,5.944,0,0,0-.8-.081c-.015,0-.03,0-.045,0h-33.6a26.322,26.322,0,0,0,2.893-5.481c5.438-14.154,21.515-13.961,22.177-13.945a5.9,5.9,0,0,0,6.081-5.753c.4-17.241,6.886-27.64,19.277-30.91a23.6,23.6,0,0,1,17.848,2.326c14.014,8.216,8.381,28.38,8.139,29.218a5.891,5.891,0,0,0,4.508,7.448,17.711,17.711,0,0,1,9.417,5.1,7.1,7.1,0,0,1,1.486,7.838,6.54,6.54,0,0,1-6.068,4.156H426.177a5.892,5.892,0,1,0,0,11.783h26.272a18.138,18.138,0,0,0,16.944-11.4,18.927,18.927,0,0,0-3.987-20.664,29.816,29.816,0,0,0-9.809-6.655c1.368-9.279,1.611-27.444-14.67-36.99a35.453,35.453,0,0,0-26.814-3.554c-9.551,2.52-25.268,10.632-27.742,36.689-7.908,1.155-21.771,5.434-27.785,21.085a15.393,15.393,0,0,1-14.351,9.708H325.4a5.892,5.892,0,0,0,0,11.783h71.715c23.622,35.859,48.054,63.143,72.861,81.348h-24.6a5.892,5.892,0,1,0,0,11.783h44.5a5.891,5.891,0,0,0,2.891-11.025Z" style="fill:#333"/><path d="M213.045,440.014a6.36,6.36,0,0,0,.736.9,6.133,6.133,0,0,0,.9.737,6.809,6.809,0,0,0,1.017.545,5.566,5.566,0,0,0,1.1.323,4.96,4.96,0,0,0,1.149.118,5.039,5.039,0,0,0,1.149-.118,5.6,5.6,0,0,0,1.1-.323,6.848,6.848,0,0,0,1.016-.545,6.08,6.08,0,0,0,.9-.737,5.341,5.341,0,0,0,.722-.9,5.225,5.225,0,0,0,.546-1.016,5.953,5.953,0,0,0,.338-1.091,6.191,6.191,0,0,0,.117-1.163,5.761,5.761,0,0,0-2.621-4.89,5.629,5.629,0,0,0-1.016-.545,5.567,5.567,0,0,0-1.1-.339,6.042,6.042,0,0,0-2.3,0,5.538,5.538,0,0,0-1.1.339,5.6,5.6,0,0,0-1.017.545,6.088,6.088,0,0,0-.9.721,7.354,7.354,0,0,0-.736.9,6.589,6.589,0,0,0-.531,1.016,6.04,6.04,0,0,0-.339,1.105,6.137,6.137,0,0,0-.118,1.149,6.277,6.277,0,0,0,.118,1.163,5.88,5.88,0,0,0,.339,1.091A5.969,5.969,0,0,0,213.045,440.014Z" style="fill:#333"/><path d="M103.5,442.64h78.113a5.892,5.892,0,1,0,0-11.783H163.653c22.46-23.825,24.225-61.881,24.3-63.765a5.892,5.892,0,0,0-11.775-.457c-.018.471-2.232,46.613-31.009,64.222h-14.2a66.325,66.325,0,0,0,5.837-5.505,5.892,5.892,0,0,0-8.582-8.075c-5.286,5.619-13.912,12.514-25.033,13.58H45.035c.4-.55.78-1.112,1.141-1.7,5.083-8.2,10.5-17.934,16.126-28.942h14.45a5.892,5.892,0,0,0,0-11.784H32.216c2.782-6.807,11.042-9.28,11.449-9.4a5.892,5.892,0,0,0,3.579-8.532c-.1-.175-9.534-17.586,1.747-29.426,1.664-1.4,11.293-8.729,20.4-.029.054.051.108.1.163.15.078.07,7.818,7.244,5.755,16.773a5.917,5.917,0,0,0,7.835,6.76,13.868,13.868,0,0,1,9.589.4c3.338,1.559,5.98,4.879,7.857,9.874a33.287,33.287,0,0,0,6.834,13.424h-5.384a5.892,5.892,0,1,0,0,11.784h31.791a5.892,5.892,0,0,0,0-11.784c-17.726,0-21.441-14.625-21.8-16.253a6.014,6.014,0,0,0-.235-.832c-3.025-8.339-7.836-14.055-14.3-16.99a23.874,23.874,0,0,0-10.148-2.1c-1-11.265-8.784-18.778-9.875-19.779-14-13.316-29.971-5.882-36.463-.082-.1.09-.2.184-.293.281-12.533,12.856-9.42,28.969-6.387,37.546-7.321,3.947-15.512,11.818-14.765,24.451a5.892,5.892,0,0,0,5.881,5.545H49.036c-4.48,8.529-8.8,16.157-12.874,22.733a16.463,16.463,0,0,1-14.036,7.9,5.892,5.892,0,1,0,0,11.783c.766,0,1.525-.041,2.28-.1a5.8,5.8,0,0,0,1.01.1Z" style="fill:#333"/><path d="M266.878,372.758c.151,0,.3-.006.458-.017a5.893,5.893,0,0,0,5.439-5.869c0-.152-.006-.3-.017-.458l-.038-.49a5.892,5.892,0,0,0-11.766.447c0,.152.006.305.018.458l.037.49A5.893,5.893,0,0,0,266.878,372.758Z" style="fill:#333"/><path d="M318.216,404.08a5.891,5.891,0,0,0-11.225,3.581,56.674,56.674,0,0,0,15.736,23.2H303.792c-16.062-9.825-23.825-28.516-27.5-42.669a5.891,5.891,0,1,0-11.4,2.962c3.208,12.358,9.241,27.792,20.44,39.707H266.883a5.892,5.892,0,0,0,0,11.783h80.95l.015,0,.017,0H411.4l.024,0,.021,0H416.9a5.892,5.892,0,1,0,0-11.783h-3.97c-18.858-10.172-30.329-23.144-40.6-45.858a5.892,5.892,0,1,0-10.736,4.856c8.193,18.113,17.457,30.96,29.958,41H348.471C325.693,426.2,318.522,405.017,318.216,404.08Z" style="fill:#333"/><path d="M133.508,201.581a5.7,5.7,0,0,0,1.1-.339,6.1,6.1,0,0,0,1.016-.545,4.811,4.811,0,0,0,.9-.737,7.04,7.04,0,0,0,.737-.883,8.689,8.689,0,0,0,.545-1.017,7.8,7.8,0,0,0,.323-1.1,5.726,5.726,0,0,0,0-2.313,7.811,7.811,0,0,0-.323-1.1,8.6,8.6,0,0,0-.545-1.016,6.054,6.054,0,0,0-.737-.883,4.733,4.733,0,0,0-.9-.737,5.221,5.221,0,0,0-1.016-.545,5.7,5.7,0,0,0-1.1-.339,6.042,6.042,0,0,0-2.3,0,5.959,5.959,0,0,0-2.121.884,5.784,5.784,0,0,0-1.62,1.62,5.629,5.629,0,0,0-.545,1.016,6.307,6.307,0,0,0-.339,1.1,6.166,6.166,0,0,0-.118,1.163,5.884,5.884,0,0,0,5.892,5.878A6,6,0,0,0,133.508,201.581Z" style="fill:#333"/><path d="M28.288,201.691h79a5.892,5.892,0,1,0,0-11.783H52.2c-.81-6.521-.3-18.254,12.742-21.941a5.891,5.891,0,0,0,3.192-9.093c-.125-.176-12.441-17.721-2.946-30.549a21.933,21.933,0,0,1,14.931-8.354c11.478-1.46,18.254,4.784,20.708,19.1a5.893,5.893,0,0,0,7.119,4.749c1.242-.283,30.44-6.631,36.782,20.425a57.614,57.614,0,0,0,14.71,25.665h-4.429a5.892,5.892,0,1,0,0,11.783h49.552a5.892,5.892,0,0,0,0-11.783H187.548c-23.833,0-31.1-27.373-31.373-28.439-6.3-26.882-29.621-31.572-44.993-30.073-6.518-23.638-24.654-24.124-32.557-23.114a33.761,33.761,0,0,0-22.911,13.032c-10.166,13.734-5.08,29.488-.858,38.062A26.325,26.325,0,0,0,44.123,169.9c-3.8,6.833-4.145,14.5-3.691,20H28.288a5.892,5.892,0,0,0,0,11.783Z" style="fill:#333"/><path d="M229.15,201.691h1.374a5.892,5.892,0,1,0,0-11.783H229.15a5.892,5.892,0,1,0,0,11.783Z" style="fill:#333"/><path d="M489.874,142.491h-4.809a24.065,24.065,0,0,0-4.742-14.243,20.232,20.232,0,0,0-10.94-6.961c1.91-11.341,2.91-34.264-16.54-46.385a37.188,37.188,0,0,0-26.409-4.919c-16.872,3.08-27.805,14.256-31.039,31.235a23.1,23.1,0,0,0-10.772-1.526,24.955,24.955,0,0,0-16.41,8.442c-4.668,5.293-9.634,14.469-6.792,28.127a5.041,5.041,0,0,1-1.054,4.256,5.323,5.323,0,0,1-4.143,1.974H332.377a5.892,5.892,0,1,0,0,11.783h79.049a5.892,5.892,0,1,0,0-11.783H372.465a16.773,16.773,0,0,0,.492-8.631c-1.485-7.135-.108-13.169,4.093-17.933a13.4,13.4,0,0,1,8.674-4.5,11.76,11.76,0,0,1,9.85,3.9,5.891,5.891,0,0,0,10.6-3.48c.167-17.406,7.694-27.591,22.373-30.27A25.42,25.42,0,0,1,446.612,84.9c18.236,11.366,10.091,39.331,10.011,39.6a5.893,5.893,0,0,0,5.492,7.608c4.267.1,7.189,1.217,8.931,3.4a12.374,12.374,0,0,1,2.217,6.979H441.642a5.892,5.892,0,0,0,0,11.783h48.232a5.892,5.892,0,1,0,0-11.783Z" style="fill:#333"/></svg>