<svg id="icon" xmlns="http://www.w3.org/2000/svg" viewBox="0 0 512 512"><title>moai easter island</title><path d="M117.309,322.7a5.921,5.921,0,0,0,4.342-11.017,22.485,22.485,0,0,1-13.676-24.8c5.12-29.277,8.29-62.755,9.422-99.508a5.921,5.921,0,1,0-11.836-.364c-1.114,36.193-4.226,69.108-9.251,97.831A34.37,34.37,0,0,0,117.309,322.7Z" style="fill:#333"/><path d="M229.676,311.516a5.888,5.888,0,0,0-6.265-5.557c-37.617,2.251-55.553,14.195-56.3,14.7a5.921,5.921,0,0,0,6.639,9.805c.159-.105,16.353-10.652,50.366-12.685A5.922,5.922,0,0,0,229.676,311.516Z" style="fill:#333"/><path d="M196.905,343.559a5.952,5.952,0,0,0,2.011-.352c.184-.068,18.854-6.686,44.159-5.513a150.334,150.334,0,0,1,29.9,5.586,5.92,5.92,0,0,0,3.56-11.293,159.649,159.649,0,0,0-32.658-6.107c-.028,0-.055,0-.083,0s-.046-.009-.07-.01c-27.688-1.311-47.981,5.89-48.832,6.2a5.921,5.921,0,0,0,2.01,11.491Z" style="fill:#333"/><path d="M301.211,331.477a5.921,5.921,0,0,0,3.338-10.816c-.745-.507-18.682-12.452-56.308-14.7a5.922,5.922,0,0,0-.705,11.822c33.921,2.026,50.121,12.519,50.372,12.684A5.878,5.878,0,0,0,301.211,331.477Z" style="fill:#333"/><path d="M245.2,281.148a5.921,5.921,0,0,0,5.921,5.921h37.047a5.921,5.921,0,0,0,5.921-5.921v-5.137a35.02,35.02,0,0,0-6.8-20.658l-29.358-39.762V157.366c9.981,5.641,20.121,8.5,30.235,8.5a76.443,76.443,0,0,0,20.76-2.643,5.921,5.921,0,0,0-3.229-11.394,64.637,64.637,0,0,1-17.531,2.2c-9.941,0-20.112-3.583-30.235-10.643v-7.407a5.921,5.921,0,0,0-11.841,0V217.54a5.93,5.93,0,0,0,1.157,3.517l30.516,41.33a23.122,23.122,0,0,1,4.471,12.84H251.118A5.921,5.921,0,0,0,245.2,281.148Z" style="fill:#333"/><path d="M188.057,35.3a5.942,5.942,0,0,0,1.524-.2q2.331-.617,4.595-1.144a5.921,5.921,0,1,0-2.694-11.532q-2.433.57-4.939,1.231A5.922,5.922,0,0,0,188.057,35.3Z" style="fill:#333"/><path d="M323.506,39.542c-42.467-25-86.344-21.465-88.193-21.306a5.92,5.92,0,0,0,1.031,11.8c.417-.037,42.067-3.3,81.154,19.715a35.062,35.062,0,0,1,17.079,30.17v30.524a4.686,4.686,0,0,1-6.343,4.382c-2.544-.953-9.64-3.322-16.246-5.513l-.537-.178a5.92,5.92,0,0,0-3.73,11.237l.538.179c3.047,1.011,9.247,3.069,13.138,4.413-2.939,135.183,5.954,216.5,7.647,230.538-8.138,12.411-20.275,23.207-36.1,32.115a5.921,5.921,0,1,0,5.808,10.321c18.326-10.313,32.277-23.078,41.471-37.939a5.935,5.935,0,0,0,.831-3.909c-.111-.817-10.948-82.989-7.843-229.47a16.482,16.482,0,0,0,13.211-16.176v-8.713c.389.305.8.605,1.183.912a18.985,18.985,0,0,1,7.016,15.449c-1.206,28.268-2.735,101.3,9.07,168.8a22.483,22.483,0,0,1-13.675,24.8,5.921,5.921,0,1,0,4.342,11.017,34.369,34.369,0,0,0,21-37.858c-11.6-66.352-10.093-138.368-8.9-166.252a30.869,30.869,0,0,0-11.38-25.142c-2.576-2.093-5.372-4.146-8.312-6.1-.108-.072-.226-.115-.337-.179V79.917A46.953,46.953,0,0,0,323.506,39.542Z" style="fill:#333"/><path d="M290.666,115.74a5.92,5.92,0,1,0,2.564-11.56l-1.883-.412a5.92,5.92,0,0,0-2.5,11.572Z" style="fill:#333"/><path d="M154.164,49.749a5.921,5.921,0,1,0-6.007-10.205,46.948,46.948,0,0,0-22.913,40.372V87.17c-.113.065-.232.108-.342.181-2.942,1.959-5.736,4.01-8.306,6.1a30.864,30.864,0,0,0-11.379,25.142c.408,9.614.875,25.019.781,43.817a5.92,5.92,0,0,0,5.89,5.951h.03a5.92,5.92,0,0,0,5.921-5.89c.095-19.031-.377-34.64-.792-44.382a18.978,18.978,0,0,1,7.016-15.448c.378-.306.793-.606,1.181-.911v8.712a16.482,16.482,0,0,0,13.211,16.176c3.1,146.481-7.732,228.653-7.842,229.47a5.929,5.929,0,0,0,.831,3.909c12.1,19.556,32.11,35.264,59.489,46.686a116.359,116.359,0,0,0,83.539,2.4,5.92,5.92,0,1,0-3.926-11.17,104.557,104.557,0,0,1-75.055-2.16c-24.211-10.1-41.988-23.638-52.872-40.254,1.549-12.847,9.129-82.067,8.149-197.356,6.823,4.028,17.282,7.718,32.73,7.718A56.84,56.84,0,0,0,201.62,162.8a5.92,5.92,0,0,0-3.775-11.223,45.027,45.027,0,0,1-14.347,2.44c-21.8,0-30.511-8.144-32.9-11.014q-.129-8.871-.33-18.081a275.117,275.117,0,0,1,63.471-14.8V215.591l-29.358,39.764a35.017,35.017,0,0,0-6.8,20.656v5.137a5.921,5.921,0,0,0,5.92,5.921h40.267a5.921,5.921,0,0,0,0-11.842H189.434a23.1,23.1,0,0,1,4.469-12.839l30.515-41.331a5.924,5.924,0,0,0,1.158-3.517V109.2q5.075-.255,10.256-.262c3.366,0,6.8.118,10.256.291v5.8a5.921,5.921,0,1,0,11.841,0v-4.89c3.588.372,7.2.8,10.835,1.343a5.921,5.921,0,0,0,1.755-11.711A235.071,235.071,0,0,0,235.832,97.1c-39.193,0-74.717,11.1-92.4,17.723a4.685,4.685,0,0,1-6.342-4.382V79.916A35.057,35.057,0,0,1,154.164,49.749Z" style="fill:#333"/><path d="M427.387,482.181h-30.41c-.028-.364-.05-.712-.086-1.092a86.747,86.747,0,0,0-27.323-55.178c-8.746-8.189-19.033-17.259-30.577-26.96a5.921,5.921,0,0,0-7.617,9.066c11.381,9.565,21.508,18.492,30.1,26.538A74.931,74.931,0,0,1,385.1,482.181H241.753v-9.454a5.921,5.921,0,0,0-11.842,0v9.454H86.562a74.935,74.935,0,0,1,23.625-47.626c9.366-8.768,20.507-18.544,33.113-29.057a5.921,5.921,0,0,0-7.583-9.095c-12.78,10.658-24.092,20.586-33.624,29.508a86.756,86.756,0,0,0-27.322,55.181c-.035.379-.057.726-.085,1.089H44.7a5.921,5.921,0,1,0,0,11.841H427.387a5.921,5.921,0,0,0,0-11.841Z" style="fill:#333"/><path d="M467.305,482.181h-7.1a5.921,5.921,0,1,0,0,11.841h7.1a5.921,5.921,0,1,0,0-11.841Z" style="fill:#333"/></svg>