<svg id="icon" xmlns="http://www.w3.org/2000/svg" viewBox="0 0 512 512"><title>mountain fuji</title><path d="M368.722,317.528a5.92,5.92,0,0,0-.7,8.343l.381.456a5.921,5.921,0,0,0,9.083-7.6l-.416-.5A5.92,5.92,0,0,0,368.722,317.528Z" style="fill:#333"/><path d="M189.444,286.381a5.921,5.921,0,0,0-8.3,1.124c-9.418,12.375-19.917,24.861-31.2,37.112a5.921,5.921,0,0,0,6.69,9.453c2.8-1.2,5.49-2.29,8-3.231a7.175,7.175,0,0,1,9.557,5.237l.093.437a21.7,21.7,0,0,0,35.6,11.853c5.02-4.442,9.8-8.546,14.194-12.2a25.959,25.959,0,0,1,33.295.085c5.107,4.292,10.168,8.78,15.041,13.341a21.562,21.562,0,0,0,14.768,5.871,21.9,21.9,0,0,0,7.8-1.446,21.527,21.527,0,0,0,13.873-18.3c.762-8.449,1.7-16.39,2.781-23.6a9.034,9.034,0,0,1,15.312-5.042c3.04,3.043,6.242,6.074,9.519,9.013a15.28,15.28,0,0,0,22.411-20.568A472.137,472.137,0,0,1,313.3,221.74,26.092,26.092,0,0,0,290,207.232h-3.837a5.921,5.921,0,1,0,0,11.842H290a14.175,14.175,0,0,1,12.662,7.873,484.391,484.391,0,0,0,46.745,75.69,3.438,3.438,0,0,1-5.037,4.638c-3.116-2.792-6.159-5.675-9.045-8.563a20.875,20.875,0,0,0-35.4,11.651c-1.118,7.443-2.082,15.618-2.865,24.3a9.863,9.863,0,0,1-16.555,6.288c-5.026-4.7-10.247-9.333-15.516-13.759a37.794,37.794,0,0,0-48.474-.132c-4.493,3.731-9.364,7.915-14.477,12.438a9.86,9.86,0,0,1-16.167-5.407l-.1-.467A19.013,19.013,0,0,0,170.9,318.906c6.95-8.058,13.532-16.165,19.67-24.228A5.921,5.921,0,0,0,189.444,286.381Z" style="fill:#333"/><path d="M215.468,246.8a5.916,5.916,0,0,0,8.041-2.333c3.18-5.777,6.176-11.617,8.907-17.357a14.163,14.163,0,0,1,12.73-8.038H261.8a5.921,5.921,0,1,0,0-11.842H245.146a26.058,26.058,0,0,0-23.422,14.792c-2.632,5.532-5.522,11.162-8.589,16.736A5.922,5.922,0,0,0,215.468,246.8Z" style="fill:#333"/><path d="M68.071,272.341a5.921,5.921,0,0,0-5.92-5.921h-8.43a16.6,16.6,0,0,1,15.066-8.885,5.945,5.945,0,0,0,6.179-4.728c.815-4,2.459-6.827,4.887-8.411,4.029-2.625,9.363-1.507,9.368-1.508a5.92,5.92,0,0,0,7.272-5.989,21.3,21.3,0,0,1,4.255-13.687A21.7,21.7,0,0,1,118.9,214.12c17.56.328,19.674,20.6,19.753,21.445a5.92,5.92,0,0,0,8.253,4.92c5-2.168,9.359-2.357,13.312-.575,9.118,4.108,13.453,17.132,13.5,17.264l.006.012a5.846,5.846,0,0,0,.386.884c.035.065.055.141.091.2l.009.012a5.9,5.9,0,0,0,.68.956l.007.009c.048.056.108.095.158.148a5.819,5.819,0,0,0,.68.635,5.5,5.5,0,0,0,.473.3c.164.1.321.217.494.3a5.8,5.8,0,0,0,.551.22c.173.066.34.142.519.192s.355.069.534.1a5.692,5.692,0,0,0,.6.1c.185.014.369,0,.555,0a5.743,5.743,0,0,0,.586-.017,5.826,5.826,0,0,0,.823-.176c.1-.025.194-.031.29-.062l.017-.007a6.01,6.01,0,0,0,.839-.364c.082-.042.174-.068.254-.113s.127-.094.194-.136a5.925,5.925,0,0,0,.777-.553l.015-.01c7.006-6.131,15.6,1.465,16.607,2.4a34,34,0,0,0,6.027,4.209H94.167a5.921,5.921,0,0,0,0,11.842H237.574a5.921,5.921,0,0,0,1.574-11.629c-9.36-2.582-26.137-8.439-31.236-13.093-4.848-4.588-15.426-10.623-25.811-6.7-2.985-5.8-8.421-13.823-16.958-17.7a25.675,25.675,0,0,0-16.038-1.733c-3.107-11.043-11.686-24.788-29.989-25.129A34.161,34.161,0,0,0,85.027,230.84a23.48,23.48,0,0,0-11.493,3.541,22.186,22.186,0,0,0-8.921,11.555c-8.136,1.146-19.093,6.35-23.682,20.484H25.6a5.921,5.921,0,0,0,0,11.842H62.151A5.921,5.921,0,0,0,68.071,272.341Z" style="fill:#333"/><path d="M328.827,158.64A5.931,5.931,0,0,0,338.272,156c.042-.124,4.3-12.509,13.28-16.563,4.041-1.823,8.491-1.667,13.608.481a5.935,5.935,0,0,0,8.187-4.907c.2-2.082,2.49-20.337,19.753-20.649a22.155,22.155,0,0,1,18.2,8.806,19.894,19.894,0,0,1,4.2,13.064,5.923,5.923,0,0,0,7.232,6.006c.054-.013,5.478-1.09,9.527,1.5,2.407,1.542,3.969,4.157,4.776,7.993a5.948,5.948,0,0,0,6.161,4.691c.583-.033,14.3-.7,17.509,15.323l0,.012c.017.084.051.161.072.243a5.885,5.885,0,0,0,.256.824c.047.115.11.22.164.331a5.794,5.794,0,0,0,.348.64c.071.111.154.211.232.316a6.054,6.054,0,0,0,.438.531c.1.1.2.194.3.289a5.75,5.75,0,0,0,.5.416c.118.087.237.168.362.246a6.052,6.052,0,0,0,.571.311c.13.062.257.126.391.179a5.87,5.87,0,0,0,.705.218c.112.029.22.068.335.09a5.908,5.908,0,0,0,1.116.114h10.847a5.921,5.921,0,0,0,0-11.841h-6.33a28.582,28.582,0,0,0-23.687-19.851,21.785,21.785,0,0,0-8.688-11.045,23.817,23.817,0,0,0-11.7-3.579,31.835,31.835,0,0,0-6.2-14.163,33.743,33.743,0,0,0-27.864-13.5c-18.235.329-26.82,13.623-29.958,24.357a26.219,26.219,0,0,0-16.324,1.8c-8.354,3.8-13.709,11.473-16.67,17.042-10.356-3.839-20.924,2-25.7,6.38-5.177,4.583-21.968,10.262-31.336,12.765a5.921,5.921,0,0,0,1.528,11.641H432.663a5.921,5.921,0,1,0,0-11.841H306.707a32.9,32.9,0,0,0,5.45-3.766C312.536,160.549,321.528,152.454,328.827,158.64Z" style="fill:#333"/><path d="M246.329,164.662a5.921,5.921,0,1,0,0,11.841h4.242a5.921,5.921,0,1,0,0-11.841Z" style="fill:#333"/><path d="M486.4,397.644H468.813c-27-16.411-52.684-37.359-76.368-62.305a5.92,5.92,0,1,0-8.587,8.153,394.367,394.367,0,0,0,63.11,54.152H402.912c-14.631-12.121-22.4-21.5-22.482-21.6a5.921,5.921,0,0,0-9.162,7.5,158.965,158.965,0,0,0,13.682,14.094H320.591a100.867,100.867,0,0,1-10-24.008,5.92,5.92,0,0,0-11.52,2.736,108.775,108.775,0,0,0,8.075,21.272H172.68a105.628,105.628,0,0,0,9.9-15.054,5.921,5.921,0,0,0-10.446-5.576,102.877,102.877,0,0,1-15.013,20.63H88.794a633.24,633.24,0,0,0,51.96-46.4,5.921,5.921,0,0,0-8.358-8.39,593.131,593.131,0,0,1-63.061,54.793H56.013a5.921,5.921,0,1,0,0,11.841H486.4a5.921,5.921,0,1,0,0-11.841Z" style="fill:#333"/><path d="M32.805,397.644H25.6a5.921,5.921,0,1,0,0,11.841h7.2a5.921,5.921,0,1,0,0-11.841Z" style="fill:#333"/></svg>