<svg id="icon" xmlns="http://www.w3.org/2000/svg" viewBox="0 0 512 512"><title>opera house</title><path d="M206.016,163.158a5.921,5.921,0,1,0-6.064,10.171q1.5.9,3,1.84a5.921,5.921,0,0,0,6.328-10.009Q207.65,164.133,206.016,163.158Z" style="fill:#333"/><path d="M480.376,314.483H450.988L496.2,221.637a5.922,5.922,0,0,0-5.3-8.513c-38.321-.176-62.2,13.87-75.549,25.666a5.921,5.921,0,0,0,7.842,8.873c10.672-9.434,29.117-20.479,58.071-22.4l-43.448,89.225h-59.5c-5.852-10.575-26-44.28-57.072-67.958,17.764-2.41,49.933-2.9,74.272,18.428l-13.258,26.215a5.92,5.92,0,1,0,10.567,5.343l10.66-21.078,17.579,26.747a5.921,5.921,0,1,0,9.9-6.5l-23.2-35.292-.014-.019c-.021-.031-.048-.06-.07-.091a5.988,5.988,0,0,0-.641-.774c-.025-.025-.041-.056-.067-.081-.045-.045-.091-.083-.136-.127s-.095-.09-.144-.133c-40.165-39.229-99.523-22.138-102.036-21.388a5.921,5.921,0,0,0-1.415,10.714c30.32,18.692,52.12,50.714,61.352,66H319.952l7.163-26.521a5.921,5.921,0,0,0-11.432-3.087l-5.106,18.9-51.121-80.9c6.219-8.825,29.126-34.726,80.875-29.259l-5.3,19.625a5.921,5.921,0,0,0,11.432,3.088l7.069-26.174a5.921,5.921,0,0,0-4.832-7.4c-55.427-8.364-83.963,15.288-95.374,28.749a126.4,126.4,0,0,0-23.564-30.45,5.921,5.921,0,1,0-8.15,8.592,115.037,115.037,0,0,1,23.981,32.671l-41.49,59a5.92,5.92,0,1,0,9.686,6.811l32.738-46.551v72.9H225.642l-32.687-15.618c-1.891-34.809-11.226-96.183-50.636-145.329a167.448,167.448,0,0,1,32.893,8.161,5.921,5.921,0,1,0,4.027-11.136c-27.337-9.885-50.044-10.167-51-10.175H128.2a5.921,5.921,0,0,0-4.31,9.98c42.659,45.3,54.068,106.11,56.84,142.949a127.775,127.775,0,0,0-47.422-9.211H123.3c-.4-24.3-6.021-56.465-28.292-82.768a162.746,162.746,0,0,1,39.739,3.564,5.921,5.921,0,0,0,2.519-11.57c-30.839-6.717-55.019-2.885-56.032-2.718a5.92,5.92,0,0,0-3.083,10.169c26.527,24.779,32.869,58.456,33.306,83.323H80.184c-3.076-16.133-11.749-35.632-34.368-47.878a79.668,79.668,0,0,1,28.618-7.784,5.921,5.921,0,0,0-.83-11.812,90.53,90.53,0,0,0-44.286,15.508,5.921,5.921,0,0,0,1.5,10.3c20.27,7.447,32.77,21.461,37.259,41.664H19.56a5.921,5.921,0,1,0,0,11.842H133.306a115.754,115.754,0,0,1,49.6,11.24l15.272,7.3H162.939a5.921,5.921,0,0,0,0,11.841H480.376a6.151,6.151,0,0,1,6.144,6.143v27.305H25.48V320.4a5.921,5.921,0,0,0-11.841,0v45.29a5.921,5.921,0,0,0,5.921,5.921H492.44a5.921,5.921,0,0,0,5.921-5.921V332.467A18,18,0,0,0,480.376,314.483ZM258.367,243.324l44.967,71.159H258.367Z" style="fill:#333"/><path d="M134.755,326.324a5.921,5.921,0,1,0,0-11.841H116.636a5.921,5.921,0,1,0,0,11.841Z" style="fill:#333"/><path d="M85.574,326.324a5.921,5.921,0,1,0,0-11.841H83.706a5.921,5.921,0,0,0,0,11.841Z" style="fill:#333"/></svg>