<svg id="icon" xmlns="http://www.w3.org/2000/svg" viewBox="0 0 512 512"><title>pyramid</title><path d="M19.56,451.158h90.183a5.921,5.921,0,0,0,0-11.842H105.2l42.823-133.729,11.663,14.031a5.92,5.92,0,1,0,9.106-7.568l-18.563-22.333c-.062-.075-.143-.129-.209-.2a5.9,5.9,0,0,0-.633-.611c-.121-.1-.251-.177-.378-.265a5.954,5.954,0,0,0-.648-.395c-.16-.082-.324-.147-.491-.213-.132-.053-.251-.125-.389-.169-.092-.03-.185-.035-.278-.059-.174-.047-.348-.082-.528-.112a5.708,5.708,0,0,0-.733-.082c-.09,0-.176-.029-.266-.029s-.15.022-.226.025a5.783,5.783,0,0,0-.768.085c-.154.026-.307.048-.457.087a5.748,5.748,0,0,0-.749.256c-.134.054-.27.1-.4.16a5.845,5.845,0,0,0-.825.5c-.068.048-.143.083-.209.134a5.907,5.907,0,0,0-.893.861c-.008.01-.018.016-.026.025L15.006,441.453a5.921,5.921,0,0,0,4.554,9.705Zm52.122-59.367H91.3a5.921,5.921,0,1,0,0-11.841H81.524l49.217-59.214-29.17,91.1H76.7a5.921,5.921,0,0,0,0,11.842h21.08L92.77,439.316H32.18Z" style="fill:#333"/><path d="M175.349,329.2a5.921,5.921,0,0,0-.769,8.338l5.627,6.77a5.921,5.921,0,0,0,9.107-7.57l-5.628-6.77A5.918,5.918,0,0,0,175.349,329.2Z" style="fill:#333"/><path d="M361.769,297.287a5.922,5.922,0,0,0,9.107-7.571l-1.272-1.529a5.921,5.921,0,0,0-9.107,7.569Z" style="fill:#333"/><path d="M496.994,441.453,388.409,310.812a5.92,5.92,0,0,0-9.106,7.568l51.174,61.57H405.8a5.921,5.921,0,1,0,0,11.841h34.52l39.5,47.525H253.929l20.346-63.537a5.87,5.87,0,0,0,.93-2.906l41.548-129.747,26.9,32.363a5.921,5.921,0,1,0,9.107-7.569l-33.8-40.664c-.063-.076-.144-.131-.211-.2a5.76,5.76,0,0,0-.631-.608c-.121-.1-.251-.179-.379-.266a5.879,5.879,0,0,0-.647-.4c-.16-.082-.325-.147-.492-.214-.131-.052-.251-.125-.388-.169-.092-.029-.186-.034-.279-.059-.173-.046-.346-.081-.523-.111a5.708,5.708,0,0,0-.742-.082c-.089,0-.173-.029-.261-.029s-.147.021-.222.024a5.9,5.9,0,0,0-.777.086c-.152.026-.3.048-.45.086a5.874,5.874,0,0,0-.754.257c-.132.054-.268.1-.4.159a6.054,6.054,0,0,0-.822.5c-.069.049-.146.085-.213.137a5.94,5.94,0,0,0-.892.86c-.008.01-.019.016-.027.026l-178.035,214.2a5.921,5.921,0,0,0,4.554,9.705H492.44a5.921,5.921,0,0,0,4.554-9.705ZM199.558,378.48H214.51a5.921,5.921,0,0,0,0-11.842H209.4l18.767-22.579h30.6a5.921,5.921,0,0,0,0-11.841h-20.76l20.77-24.988h12.969a5.921,5.921,0,0,0,0-11.841h-3.127l30.847-37.114-34.7,108.363H239.346a5.921,5.921,0,1,0,0,11.842h21.63l-6.528,20.385H199a5.921,5.921,0,1,0,0,11.841h51.66l-9.162,28.61h-92.5Z" style="fill:#333"/><path d="M277.388,413.969a5.921,5.921,0,0,0,5.921,5.921h40.37a5.921,5.921,0,1,0,0-11.842h-40.37A5.921,5.921,0,0,0,277.388,413.969Z" style="fill:#333"/><path d="M376.481,391.791h4.588a5.921,5.921,0,1,0,0-11.841h-4.588a5.921,5.921,0,0,0,0,11.841Z" style="fill:#333"/><path d="M310.375,338.23a5.921,5.921,0,0,0,0-11.842h-4.128a5.921,5.921,0,0,0,0,11.842Z" style="fill:#333"/><path d="M329.081,332.309A5.921,5.921,0,0,0,335,338.23h24a5.921,5.921,0,0,0,0-11.842H335A5.921,5.921,0,0,0,329.081,332.309Z" style="fill:#333"/><path d="M213.852,94.438a52.66,52.66,0,1,0,36.89,16.232A52.272,52.272,0,0,0,213.852,94.438Zm27.078,82.13a40.818,40.818,0,1,1-28.25-70.3q.458,0,.915.01a40.818,40.818,0,0,1,27.335,70.291Z" style="fill:#333"/><path d="M129.711,170.751a5.921,5.921,0,0,0,11.39-3.238,74.428,74.428,0,0,1-1.948-8.891,5.921,5.921,0,1,0-11.7,1.823A86.445,86.445,0,0,0,129.711,170.751Z" style="fill:#333"/><path d="M272.371,209.412A85.524,85.524,0,0,0,293.3,177.948a5.921,5.921,0,1,0-11.061-4.228,74.493,74.493,0,0,1-114.421,32.768,5.921,5.921,0,1,0-7.152,9.438,85.857,85.857,0,0,0,111.7-6.514Z" style="fill:#333"/><path d="M285.189,130.061a5.921,5.921,0,0,0,11.531-2.7,86.363,86.363,0,0,0-4.142-12.976,5.92,5.92,0,0,0-10.959,4.483A74.325,74.325,0,0,1,285.189,130.061Z" style="fill:#333"/><path d="M142,108.382a5.918,5.918,0,0,0,8.188-1.749A74.562,74.562,0,0,1,250.651,83.014a5.92,5.92,0,1,0,6.039-10.185,86.4,86.4,0,0,0-116.439,27.364A5.921,5.921,0,0,0,142,108.382Z" style="fill:#333"/></svg>