<svg id="icon" xmlns="http://www.w3.org/2000/svg" viewBox="0 0 512 512"><title>Rhinoceros</title><path d="M480.544,203.492c20.352-35.743,17.522-65.471,11.353-84.37a15.856,15.856,0,0,0-30.636,1.872c-.253,1.3-.509,2.553-.763,3.755a62.128,62.128,0,0,1-9.437,22.376c-8.066,11.815-15.393,22.195-15.467,22.3a5.892,5.892,0,0,0,9.626,6.8c.073-.1,7.452-10.557,15.573-22.452a73.834,73.834,0,0,0,11.235-26.591c.265-1.256.533-2.57.8-3.925a4.073,4.073,0,0,1,7.87-.475c7.544,23.114,4.522,47.376-8.92,72.208q-4.66-4.188-9.2-7.56a5.892,5.892,0,0,0-7.022,9.463,137.031,137.031,0,0,1,17.383,15.686,18.5,18.5,0,0,1,1.851,23.356c-1.753,2.561-3.67,5.175-5.7,7.768a5.667,5.667,0,0,1-4.5,2.209h-.033a5.961,5.961,0,0,1-4.672-2.261c-14.01-17.492-35.371-26.28-36.273-26.646a5.892,5.892,0,0,0-4.43,10.919,95.97,95.97,0,0,1,21.274,12.947l-10.389,9.647a13.209,13.209,0,0,1-14.038,2.492,124.251,124.251,0,0,0-39.267-8.8c-28.456-1.368-46.842-8.65-54.648-21.645-9.249-15.4-.426-34.651-.256-35.014a5.891,5.891,0,0,0-10.632-5.078c-.487,1.015-11.771,25.118.729,46.062,9.93,16.639,31.544,25.873,64.329,27.449a114.159,114.159,0,0,1,35.218,7.908,25.02,25.02,0,0,0,26.583-4.735l10.915-10.136c.575.654,1.141,1.317,1.688,2a17.68,17.68,0,0,0,13.867,6.679h.1a17.452,17.452,0,0,0,13.719-6.729c2.183-2.791,4.252-5.61,6.146-8.378a30.579,30.579,0,0,0-3.03-38.123C481.169,204.132,480.857,203.816,480.544,203.492Z" style="fill:#333"/><path d="M389.849,177.145a5.433,5.433,0,0,0-.736.9,5.766,5.766,0,0,0-.545,1.017,5.622,5.622,0,0,0-.338,1.1,5.653,5.653,0,0,0,0,2.3,5.611,5.611,0,0,0,.338,1.105,5.722,5.722,0,0,0,.545,1.016,5.44,5.44,0,0,0,.736.9,5.892,5.892,0,1,0,0-8.337Z" style="fill:#333"/><path d="M289.41,216.247a5.893,5.893,0,0,0-4.559,6.974l.077.388a5.892,5.892,0,0,0,11.559-2.294l-.1-.506A5.893,5.893,0,0,0,289.41,216.247Z" style="fill:#333"/><path d="M75.673,152a5.856,5.856,0,0,0,3.122-.9q1.725-1.08,3.405-2.042a5.892,5.892,0,1,0-5.863-10.221q-1.872,1.072-3.8,2.278A5.892,5.892,0,0,0,75.673,152Z" style="fill:#333"/><path d="M104.246,139.746c1.078-.289,1.805-.453,2.109-.518,11.48-1.432,26.165,1.66,42.469,8.949a81.621,81.621,0,0,0,61.437,2.284l41.963-15.212.145-.055c27.435-10.769,44.337-5.369,52.3-.861-12.3,10.516-23.391,28.818-23.343,60.648a5.891,5.891,0,0,0,5.892,5.883h.008a5.893,5.893,0,0,0,5.883-5.9c-.049-32.08,12.376-47.823,24.133-55.553a5.712,5.712,0,0,0,.533-.341c1.07-.683,2.133-1.314,3.179-1.872a34.573,34.573,0,0,0-3.49,16.3,5.891,5.891,0,1,0,11.774-.42c-.471-13.246,11.47-22.093,11.571-22.166.02-.015.034-.035.054-.049a5.9,5.9,0,0,0,.917-.826c.032-.036.054-.079.086-.115a5.969,5.969,0,0,0,.625-.886c.065-.114.111-.237.169-.355a5.863,5.863,0,0,0,.321-.776c.046-.145.077-.294.112-.443a5.788,5.788,0,0,0,.132-.772c.008-.08.036-.155.04-.236.006-.1-.016-.189-.015-.285,0-.121.023-.238.017-.361s-.043-.245-.058-.37c-.021-.18-.045-.358-.082-.535a5.808,5.808,0,0,0-.2-.686c-.058-.171-.114-.339-.188-.5a5.649,5.649,0,0,0-.31-.567,5.728,5.728,0,0,0-.323-.522c-.087-.117-.192-.216-.288-.326a5.8,5.8,0,0,0-.489-.552c-12.194-11.016-7.648-25.039-5.126-30.559a68.77,68.77,0,0,0,4.266-11.89c.033-.137.068-.273.1-.408,6.9,6.256,10.133,14.187,11.524,21.489a5.9,5.9,0,0,0,.255,1.474,57.258,57.258,0,0,1-.3,19.315,5.907,5.907,0,0,0,6.456,7.122c.677-.074,16.763-1.764,24.506,11.476a5.894,5.894,0,0,0,7.554,2.375c1.06-.489,22.108-10.352,34.855-27.092,2.623,9,3.918,22.633-5.839,34.669l-6.021-4.772a5.891,5.891,0,0,0-7.318,9.235l14.868,11.783a5.876,5.876,0,0,0,7.677-8.886c16.937-20.949,9.412-46.8,2.626-58.083a5.891,5.891,0,0,0-10.455.7c-6.207,14.339-23.01,25.046-31,29.491-7.7-9.357-18.289-11.976-25.354-12.6a67.579,67.579,0,0,0-.445-15.016c4.266-6.117,13.338-17.591,22.106-23.3,1.731,3.067,3.611,7.653,3.055,12.483-.561,4.872-3.622,9.336-9.1,13.268a5.892,5.892,0,1,0,6.873,9.572c8.288-5.951,12.976-13.182,13.934-21.493,1.58-13.738-8.048-24.921-8.459-25.391a5.892,5.892,0,0,0-6.715-1.552c-9.782,4.109-19.329,14.271-25.586,22.023a47.006,47.006,0,0,0-20.924-23.532,5.894,5.894,0,0,0-8.712,4.457,75.289,75.289,0,0,1-1.6,8.339,56.98,56.98,0,0,1-3.553,9.855c-2.369,5.187-8.227,21.2,1.092,36.1a62.983,62.983,0,0,0-11.428,4.769c-8.091-6.047-29.921-17.5-67.019-2.962l-41.892,15.187a69.9,69.9,0,0,1-52.611-1.964c-18.65-8.336-35.144-11.649-49-9.85-.121.016-.242.035-.361.058s-1.22.241-3.08.74a5.891,5.891,0,1,0,3.058,11.379Z" style="fill:#333"/><path d="M77.334,292.568A5.892,5.892,0,1,0,74,303.871c.149.043,14.82,4.507,21.2,18a131.626,131.626,0,0,0,8.746,18.468c15.105,26.273,46.14,57.108,108.581,57.283a190.933,190.933,0,0,0,.331,32.514A20.971,20.971,0,0,0,233.846,449.1h66.6a5.892,5.892,0,0,0,0-11.784h-7.154c-.594-8.4-3.456-23.013-15.719-30.381-1.023-8.975-2.487-38.211,18.255-57.391,3.654.052,9.994-.533,15.079-4.577a18.049,18.049,0,0,0,5.994-8.889c7.879-1.164,23.278-5.466,32.077-21.358a42.978,42.978,0,0,0,5.142-21.909c-.132-5.3-.09-15.264,1.682-22.375a5.892,5.892,0,0,0-11.435-2.848c-2,8.034-2.207,18.311-2.027,25.518a31.2,31.2,0,0,1-3.672,15.908,28.826,28.826,0,0,1-5.908,7.465,54.705,54.705,0,0,0-.153-23.138c9.024-25.145-5.678-43.094-14.955-49.175a5.892,5.892,0,0,0-6.459,9.855c.59.386,10.976,7.395,12.343,20.752a58.5,58.5,0,0,0-24.782-17.684,5.891,5.891,0,1,0-3.711,11.183c.164.055,16.457,5.61,23.689,20.857,4.587,9.673,4.523,21.327-.166,34.656-1.232.3-2.352.5-3.3.642-5.032-8.116-12.707-14.8-22.868-19.9a63.273,63.273,0,0,0-40.449-5.607,52.915,52.915,0,0,0-17.93,6.924c-19.6-13.289-10.951-40.094-10.554-41.281a5.892,5.892,0,0,0-11.161-3.778c-4.232,12.453-6.3,37.914,12.425,52.868a23.767,23.767,0,0,0-2.208,2.91,5.892,5.892,0,1,0,10.106,6.06c.053-.089,5.794-9.012,21.612-12.145a51.4,51.4,0,0,1,32.873,4.58c8.639,4.337,14.918,9.953,18.755,16.681a6.722,6.722,0,0,1-2.259,3.98,11.362,11.362,0,0,1-6.284,2.01c-13.059-21.233-45.452-14.921-46.891-14.627a5.892,5.892,0,0,0,2.349,11.547c.257-.051,23.768-4.576,33.463,7.787-22.637,22.341-21.7,53.723-20.467,65.111a37.591,37.591,0,0,0-16.929,29.769h-15a9.229,9.229,0,0,1-9.255-8.326c-4.129-42.385,8.511-77.3,12.484-86.989a5.892,5.892,0,1,0-10.9-4.469,201.154,201.154,0,0,0-12.425,48.3c-46.189.186-79.607-16.941-99.363-51a129.625,129.625,0,0,1-16.452-54.225,5.892,5.892,0,0,0-11.778.362A113.14,113.14,0,0,0,88.3,297.729,49.234,49.234,0,0,0,77.334,292.568ZM272.153,417.5c6.827,4.662,8.789,13.888,9.312,19.823H260.641A25.373,25.373,0,0,1,272.153,417.5Z" style="fill:#333"/><path d="M37.206,449.1H75.668a5.892,5.892,0,0,0,5.888-5.668,55.9,55.9,0,0,0-2.73-18.316,20.618,20.618,0,0,1,1.12-15.68c3.388,8.833,9.152,20.848,17.907,30.031a31.479,31.479,0,0,0,22.712,9.633h46.013a5.893,5.893,0,0,0,5.872-6.38c-.095-1.136-2.533-27.975-21.639-42.907a50.167,50.167,0,0,1-7.47-6.894c-.91-1.065-1.708-2.07-2.374-2.987a5.892,5.892,0,0,0-9.537,6.921c.847,1.168,1.841,2.42,2.953,3.721a61.191,61.191,0,0,0,9.173,8.523c.573.448,1.123.916,1.659,1.395a29.725,29.725,0,0,0-10.251,10.246,28.062,28.062,0,0,0-3.549,16.578h-10.85a19.641,19.641,0,0,1-14.183-5.98c-13.151-13.793-18.8-36.428-18.857-36.65-.026-.107-.062-.21-.094-.315-.017-.057-.031-.113-.051-.17-.011-.033-.018-.066-.029-.1-7.6-21.381-30.6-54.574-32.221-56.9-24.956-38.4-23.508-90.183-23.49-90.7,0-.068,0-.137,0-.206,0-33.625,9.738-60.713,28.944-80.511a5.892,5.892,0,0,0-8.457-8.205c-21.393,22.053-32.25,51.868-32.27,88.617-.111,3.484-1.3,56.437,25.446,97.512.035.054.071.107.107.159.224.321,21.433,30.8,29.674,51.151-.968,1.371-2.247,3.306-4.008,6.125a33.986,33.986,0,0,0-3.945,8.977,30.8,30.8,0,0,0-15.741,9.361c-4.127,4.772-6.416,10.76-6.886,17.829h-7.3a9.859,9.859,0,0,1-9.8-10.963l3.081-27.3a27.933,27.933,0,0,1,4.856-12.681A57.4,57.4,0,0,0,44.831,361.3a5.892,5.892,0,1,0-11.737-1.044,46.235,46.235,0,0,1-7.435,19.419,39.768,39.768,0,0,0-6.876,18.066l-3.081,27.3a21.643,21.643,0,0,0,21.5,24.069ZM152.692,419.65a61.038,61.038,0,0,1,6.91,17.669H143.241C142.117,426.917,148.25,421.891,152.692,419.65Zm-86.464,3.079a31.056,31.056,0,0,0,1.475,6.279,38.369,38.369,0,0,1,1.792,8.311H56.325C57.188,428.691,61.984,424.632,66.228,422.729Z" style="fill:#333"/><path d="M322,437.319a5.892,5.892,0,0,0,0,11.784h31.929a5.892,5.892,0,0,0,0-11.784H343.655c-.683-14.162-11.054-25.139-12.978-27.056-16.9-20.5-6.474-48.748-1.192-59.968a5.891,5.891,0,1,0-10.661-5.018c-5.752,12.218-16.528,41.651-1.6,66.3a23.488,23.488,0,0,0-10.946,14.8,5.891,5.891,0,1,0,11.412,2.928,12.208,12.208,0,0,1,6.8-8.3c2.662,3.257,6.824,9.381,7.36,16.315Z" style="fill:#333"/><path d="M372.337,446.48a7.187,7.187,0,0,0,.737.9,5.9,5.9,0,0,0,8.337,0,7.454,7.454,0,0,0,.736-.9,6.543,6.543,0,0,0,.529-1.017,5.627,5.627,0,0,0,.34-1.1,6.137,6.137,0,0,0,.118-1.149,5.892,5.892,0,1,0-11.784,0,6.137,6.137,0,0,0,.118,1.149,5.76,5.76,0,0,0,.338,1.1A6.919,6.919,0,0,0,372.337,446.48Z" style="fill:#333"/></svg>