<svg id="icon" xmlns="http://www.w3.org/2000/svg" viewBox="0 0 512 512"><title>Saint Basil&amp;apos;s Cathedral</title><path d="M111.892,496.716H136.1A5.892,5.892,0,0,0,142,490.825V406.559h5.928a5.892,5.892,0,0,0,5.892-5.891v-21.9a5.892,5.892,0,0,0-5.892-5.892H126.284V360.153H141.63a5.89,5.89,0,0,0,4.937-9.106L93.573,269.658V259.445a5.892,5.892,0,0,0-11.783,0v10.213L28.8,351.047a5.89,5.89,0,0,0,4.937,9.106H49.08v12.725H27.44a5.892,5.892,0,0,0-5.892,5.892v21.9a5.892,5.892,0,0,0,5.892,5.891h5.928v84.266a5.892,5.892,0,0,0,5.892,5.891H72.55a5.892,5.892,0,1,0,0-11.783H69.362V434.178a5.138,5.138,0,0,1,.068-.588,5.63,5.63,0,0,1,4.206-4.6,6.013,6.013,0,0,1,6.281,1.912,10.336,10.336,0,0,1,2.014,4.459,5.892,5.892,0,0,0,11.5,0,10.336,10.336,0,0,1,2.014-4.459,6.012,6.012,0,0,1,6.281-1.912,5.628,5.628,0,0,1,4.206,4.6c.047.284.064.493.067.493v56.746A5.892,5.892,0,0,0,111.892,496.716ZM87.681,282.2l43.083,66.166H44.6ZM33.332,384.661H54.971a5.892,5.892,0,0,0,5.892-5.891V360.153H114.5v12.725H78.989a5.892,5.892,0,1,0,0,11.783h63.042v10.115H33.332Zm71.524,32.966a17.672,17.672,0,0,0-17.175,4.342,17.678,17.678,0,0,0-17.174-4.342A17.383,17.383,0,0,0,57.8,431.69a15.544,15.544,0,0,0-.221,2.389v50.854H45.151V406.559h85.061v78.374H117.784V434.079a15.652,15.652,0,0,0-.22-2.389A17.384,17.384,0,0,0,104.856,417.627Z" style="fill:#333"/><path d="M97.346,487.554a5.982,5.982,0,0,0-.721-.9,5.92,5.92,0,0,0-5.317-1.606,5.729,5.729,0,0,0-1.105.339,6.077,6.077,0,0,0-1.016.531,6.257,6.257,0,0,0-.9.736,7.212,7.212,0,0,0-.737.9,6.842,6.842,0,0,0-.544,1.016,5.531,5.531,0,0,0-.324,1.105,5.034,5.034,0,0,0-.118,1.149,5.922,5.922,0,0,0,1.723,4.168,6.257,6.257,0,0,0,.9.736,6.077,6.077,0,0,0,1.016.531,5.727,5.727,0,0,0,1.105.338,5.93,5.93,0,0,0,1.148.118,5.949,5.949,0,0,0,2.254-.456,6.769,6.769,0,0,0,1.016-.531,7.279,7.279,0,0,0,.9-.736,5.313,5.313,0,0,0,.721-.9,5.563,5.563,0,0,0,.545-1.016,5.634,5.634,0,0,0,.339-1.105,5.648,5.648,0,0,0,0-2.3,5.939,5.939,0,0,0-.884-2.121Z" style="fill:#333"/><path d="M491.279,330.949h-54.92a5.892,5.892,0,0,0,0,11.784h49.029v8.583H162.264a5.892,5.892,0,0,0,0,11.783H243.2v40.3H167.786a5.892,5.892,0,0,0,0,11.784H243.2v69.746H228.277V464.944a35.678,35.678,0,1,0-71.355,0v19.989h-1.6a5.892,5.892,0,0,0,0,11.783h41.7a5.892,5.892,0,0,0,0-11.783H168.705V464.944a23.895,23.895,0,1,1,47.789,0v25.881a5.892,5.892,0,0,0,5.892,5.891H364.319a5.892,5.892,0,0,0,5.891-5.891V363.1h101.4v40.3H388.824a5.892,5.892,0,0,0,0,11.784h82.783v69.746H388.824a5.892,5.892,0,0,0,0,11.783H477.5a5.892,5.892,0,0,0,5.892-5.891V363.1h7.888a5.892,5.892,0,0,0,5.892-5.891V336.841A5.892,5.892,0,0,0,491.279,330.949ZM358.427,403.4H272.7a5.892,5.892,0,0,0,0,11.784h85.729v69.746H254.987V363.1h103.44Z" style="fill:#333"/><path d="M396.866,330.949a5.892,5.892,0,0,0,0,11.784H403.5a5.892,5.892,0,0,0,0-11.784Z" style="fill:#333"/><path d="M364.949,342.733a5.892,5.892,0,0,0,0-11.784h-211.1a5.892,5.892,0,0,0,0,11.784Z" style="fill:#333"/><path d="M296.536,471.707h20.341a5.892,5.892,0,0,0,5.892-5.892v-32.05a5.892,5.892,0,0,0-5.892-5.892H296.536a5.892,5.892,0,0,0-5.891,5.892v32.05A5.892,5.892,0,0,0,296.536,471.707Zm5.892-32.051h8.558v20.268h-8.558Z" style="fill:#333"/><path d="M432.552,471.707a5.892,5.892,0,0,0,5.891-5.892v-32.05a5.892,5.892,0,0,0-5.891-5.892H412.211a5.892,5.892,0,0,0-5.892,5.892v32.05a5.892,5.892,0,0,0,5.892,5.892ZM418.1,439.656h8.557v20.268H418.1Z" style="fill:#333"/><path d="M292.075,391.375a5.892,5.892,0,0,0,5.891-5.892v-4.464a5.892,5.892,0,1,0-11.783,0v4.464A5.892,5.892,0,0,0,292.075,391.375Z" style="fill:#333"/><path d="M321.339,391.375a5.892,5.892,0,0,0,5.892-5.892v-4.464a5.892,5.892,0,1,0-11.783,0v4.464A5.892,5.892,0,0,0,321.339,391.375Z" style="fill:#333"/><path d="M413.641,385.483v-4.464a5.892,5.892,0,0,0-11.784,0v4.464a5.892,5.892,0,0,0,11.784,0Z" style="fill:#333"/><path d="M442.905,385.483v-4.464a5.892,5.892,0,1,0-11.783,0v4.464a5.892,5.892,0,1,0,11.783,0Z" style="fill:#333"/><path d="M183.859,385.483v-4.464a5.892,5.892,0,1,0-11.783,0v4.464a5.892,5.892,0,1,0,11.783,0Z" style="fill:#333"/><path d="M213.123,385.483v-4.464a5.892,5.892,0,1,0-11.783,0v4.464a5.892,5.892,0,1,0,11.783,0Z" style="fill:#333"/><path d="M172.337,185.584a5.892,5.892,0,0,0-5.892,5.892v2.1c-1.2,2.286-5.57,9.3-17.062,16.122-.935.528-22.856,13.124-22.958,33.142-.27,6.6,2.712,19.272,15.084,25.1v22.05h-7.217a5.892,5.892,0,0,0-5.891,5.892v10.561a5.892,5.892,0,1,0,11.783,0v-4.67h64.305v16.048a5.892,5.892,0,0,0,11.784,0V295.884a5.892,5.892,0,0,0-5.892-5.892h-7.217v-22.05c12.37-5.832,15.353-18.508,15.084-25.1-.1-20.018-22.023-32.615-22.846-33.078-11.649-6.917-16.021-13.975-17.174-16.175v-2.11A5.892,5.892,0,0,0,172.337,185.584ZM153.292,289.992V269.815h38.089v20.177ZM189.5,219.959c.17.1,16.965,9.935,16.965,23.019,0,.064,0,.178,0,.242.038,1.176.065,11.359-10.1,14.811H148.3c-10.165-3.452-10.138-13.635-10.1-14.765,0-.1.007-.192.007-.288,0-13.193,16.806-22.929,17.077-23.085a64.714,64.714,0,0,0,17.056-14.112A65.249,65.249,0,0,0,189.5,219.959Z" style="fill:#333"/><path d="M462.172,223.686c-14.025-8.328-17.519-16.884-17.523-16.888a5.907,5.907,0,0,0-5.529-3.939,5.836,5.836,0,0,0-5.529,3.857c-.034.086-3.528,8.642-17.44,16.9-.935.528-22.855,13.125-22.958,33.143-.269,6.6,2.714,19.271,15.084,25.1v22.051H403.5a5.892,5.892,0,1,0,0,11.783h68.11v2.123a5.892,5.892,0,0,0,11.784,0v-8.014a5.892,5.892,0,0,0-5.892-5.892h-7.566V281.866c12.37-5.832,15.353-18.508,15.084-25.1C484.915,236.745,462.994,224.148,462.172,223.686ZM420.06,303.917V283.74h38.09v20.177Zm43.078-31.961H415.072c-10.166-3.453-10.139-13.636-10.1-14.765,0-.1.008-.192.008-.289,0-13.193,16.806-22.929,17.077-23.084a64.726,64.726,0,0,0,17.055-14.112,65.2,65.2,0,0,0,17.149,14.171c.169.1,16.976,9.832,16.976,23.025,0,.064,0,.178,0,.242C473.277,258.32,473.3,268.5,463.138,271.956Z" style="fill:#333"/><path d="M238.584,196.673c-.376,9.035,3.158,25.885,17.549,35.347v33.738h-6.414a18,18,0,0,0-6.516,34.779v17.286a5.892,5.892,0,0,0,11.784,0V301.775h25.862v16.048a5.892,5.892,0,1,0,11.783,0V301.775h28.614v16.048a5.892,5.892,0,1,0,11.783,0V301.775h25.4v16.048a5.892,5.892,0,1,0,11.783,0V300.537a18,18,0,0,0-6.514-34.779h-6.415V232.02c14.391-9.462,17.925-26.311,17.549-35.347-.095-30.57-32.54-50.187-33.809-50.938C320.9,133.162,314.05,120.108,312.6,116.9V98.883a5.892,5.892,0,0,0-11.783,0v18.011c-1.481,3.272-8.335,16.287-28.308,28.771C271.125,146.486,238.679,166.1,238.584,196.673Zm131.337,87.094a6.231,6.231,0,0,1-6.225,6.225H249.719a6.225,6.225,0,1,1,0-12.45H363.7A6.231,6.231,0,0,1,369.921,283.767ZM310,265.758h-6.576v-7.515a3.288,3.288,0,0,1,6.576,0Zm11.783,0v-7.515a15.071,15.071,0,1,0-30.142,0v7.515h-23.72V237.175H345.5v28.583Zm41.273-68.7c.034.894.6,21.687-18.494,28.142h-75.7a25.637,25.637,0,0,1-16.176-15.528l8.616-5.439a5.68,5.68,0,0,1,6.561.357l6.914,5.494a17.431,17.431,0,0,0,22.456-.615l5.711-5.071a5.677,5.677,0,0,1,7.537,0l5.71,5.07a17.43,17.43,0,0,0,22.455.615l6.915-5.5a5.624,5.624,0,0,1,4.213-1.192,5.891,5.891,0,1,0,1.409-11.7,17.561,17.561,0,0,0-12.952,3.665l-6.916,5.494a5.664,5.664,0,0,1-7.3-.2l-5.71-5.071a17.467,17.467,0,0,0-23.186,0l-5.71,5.071a5.665,5.665,0,0,1-7.3.2l-6.915-5.493a17.475,17.475,0,0,0-20.182-1.1l-4.65,2.935c0-.052,0-.1,0-.121,0-.091.006-.182.006-.274,0-11.425,6.374-21.255,13.068-28.436a5.7,5.7,0,0,1,4.423,1.15l6.914,5.494a17.431,17.431,0,0,0,22.456-.613l5.711-5.071a5.677,5.677,0,0,1,7.537,0l5.711,5.071a17.43,17.43,0,0,0,22.454.614l6.915-5.5a5.693,5.693,0,0,1,4.429-1.148c6.685,7.174,13.061,17.006,13.061,28.434C363.046,196.881,363.049,196.982,363.051,197.056ZM306.71,130.088c4.84,6.938,13.457,16.508,28.173,25.705.074.044,2.049,1.248,4.911,3.417a17.118,17.118,0,0,0-1.568,1.086l-6.916,5.5a5.664,5.664,0,0,1-7.3-.2l-5.71-5.07a17.465,17.465,0,0,0-23.186,0l-5.71,5.07a5.665,5.665,0,0,1-7.3.2l-6.915-5.494a17.239,17.239,0,0,0-1.564-1.084c2.9-2.2,4.911-3.423,5.014-3.485C293.291,146.57,301.881,137.018,306.71,130.088Z" style="fill:#333"/><path d="M31.124,226.891v81.42a5.892,5.892,0,0,0,11.784,0v-81.42h73.776a5.892,5.892,0,1,0,0-11.783H26.612V204.764H137.256a5.892,5.892,0,1,0,0-11.783H115.478V171.475c16.265-7.009,20.1-23.322,19.742-31.674-.1-25.177-27.934-41.164-29.009-41.769-16.214-9.627-22-19.551-23.368-22.3v-13.5a5.892,5.892,0,1,0-11.783,0V75.743c-.847,1.722-3.394,6.2-9.117,11.667-.023.019-.042.041-.064.061a78.2,78.2,0,0,1-14.074,10.5c-1.187.67-29.02,16.657-29.122,41.834-.355,8.352,3.477,24.664,19.741,31.674v21.506h-17.7a5.892,5.892,0,0,0-5.892,5.891V221a5.892,5.892,0,0,0,5.892,5.891Zm92.313-86.95c0,.072,0,.181,0,.253a21.759,21.759,0,0,1-.311,3.963c-13.517-9.511-19.8-23.115-22.519-35.746C103.333,110.069,123.437,122.927,123.437,139.941ZM87.33,99.043c1.358,15.448,7.387,40.677,30.985,56.079a20.512,20.512,0,0,1-9.617,6.339h-4.192c-31.48-16.187-32.985-57.321-32.879-67.092a65.038,65.038,0,0,0,5.328-6.1A70.209,70.209,0,0,0,87.33,99.043ZM30.459,140.229c0-.1.007-.192.007-.288,0-6.432,2.819-12.233,6.491-17.067.715,8.931,3.075,20.462,9.668,30.891a5.891,5.891,0,0,0,9.959-6.3c-8.509-13.462-8.351-29.919-7.957-35.886a57.5,57.5,0,0,1,5.08-3.419c2.315-1.374,4.447-2.761,6.421-4.145C61.237,119,65.993,144.106,84.3,161.461H45.2C30.041,156.512,30.436,140.869,30.459,140.229Zm19.748,33.016H103.7v19.736H50.207Z" style="fill:#333"/><path d="M154.444,161.035v8.522a5.892,5.892,0,0,0,11.783,0v-7.42H231.22a5.892,5.892,0,0,0,0-11.784H160.335a4.78,4.78,0,0,1,0-9.559h94.072a5.892,5.892,0,1,0,0-11.783h-4.136L218.516,56.366a18.291,18.291,0,0,0-7.47-29.878V21.175a5.892,5.892,0,0,0-11.783,0v5.313a18.291,18.291,0,0,0-7.47,29.878L187.04,67.241a5.891,5.891,0,1,0,10.8,4.719l3.652-8.354h7.332l28.592,65.406H172.9l4.837-11.067a5.892,5.892,0,0,0-10.8-4.719l-6.907,15.8a16.545,16.545,0,0,0-5.587,32.009ZM205.155,37.282a6.559,6.559,0,1,1-6.559,6.559A6.566,6.566,0,0,1,205.155,37.282Z" style="fill:#333"/><path d="M179.621,98.92a5.886,5.886,0,0,0,7.758-3.039l1.148-2.625a5.891,5.891,0,0,0-10.8-4.72l-1.148,2.626A5.892,5.892,0,0,0,179.621,98.92Z" style="fill:#333"/><path d="M396.473,190v18.8a5.892,5.892,0,1,0,11.783,0V193.025h55.806V207.1a5.892,5.892,0,0,0,11.784,0v-15.7c16.53-6.932,20.411-23.4,20.054-31.811-.1-25.175-27.934-41.164-29.008-41.768-16.214-9.627-22-19.551-23.368-22.3V89.372a5.892,5.892,0,1,0-11.783,0V95.5c-1.382,2.791-7.143,12.683-23.256,22.252-1.187.669-29.019,16.657-29.122,41.833C379.028,167.465,382.417,182.443,396.473,190Zm87.644-30.273c0,.1,0,.192.007.288a21.311,21.311,0,0,1-.273,3.955c-13.545-9.513-19.833-23.131-22.559-35.775C464.044,129.849,484.117,142.547,484.117,159.722Zm-36.107-40.9c1.359,15.459,7.395,40.71,31.034,56.11a20.708,20.708,0,0,1-9.663,6.308h-4.194c-31.48-16.188-32.985-57.321-32.879-67.092a65.038,65.038,0,0,0,5.328-6.1A70.2,70.2,0,0,0,448.01,118.824ZM391.139,160.01c0-.1.008-.192.008-.288,0-6.433,2.819-12.234,6.491-17.068.715,8.931,3.075,20.463,9.668,30.892a5.891,5.891,0,1,0,9.959-6.3c-8.512-13.466-8.351-29.924-7.956-35.888a57.7,57.7,0,0,1,5.078-3.417c2.315-1.375,4.448-2.762,6.422-4.146,1.109,14.982,5.865,40.087,24.173,57.443h-39.1C390.721,176.293,391.116,160.649,391.139,160.01Z" style="fill:#333"/></svg>