<svg id="icon" xmlns="http://www.w3.org/2000/svg" viewBox="0 0 512 512"><title>statue of liberty</title><path d="M202.106,167.574a5.931,5.931,0,0,0,5.85-6.882c-3.3-20.105-4.282-43.631-4.521-59.824a5.92,5.92,0,0,0-5.919-5.833h-.089a5.923,5.923,0,0,0-5.832,6.009c.245,16.594,1.255,40.745,4.675,61.567A5.923,5.923,0,0,0,202.106,167.574Z" style="fill:#333"/><path d="M196.379,76.218a5.921,5.921,0,0,0-5.921-5.921H163.213a5.921,5.921,0,1,0,0,11.842h27.245A5.921,5.921,0,0,0,196.379,76.218Z" style="fill:#333"/><path d="M176.8,88.227a5.92,5.92,0,0,0-5.917,5.807l-.214,11.11a5.919,5.919,0,0,0,5.805,6.033h.116a5.919,5.919,0,0,0,5.917-5.806l.214-11.11a5.918,5.918,0,0,0-5.805-6.033C176.879,88.227,176.84,88.227,176.8,88.227Z" style="fill:#333"/><path d="M188.52,17.891a5.919,5.919,0,0,0-5.583-1.449c-.668.175-16.469,4.452-24.165,20.609l-.19.411A21.011,21.011,0,0,0,161.7,59.89a5.921,5.921,0,0,0,9.056-7.629,9.306,9.306,0,0,1-1.381-9.926l.132-.285a26.652,26.652,0,0,1,8.847-10.37,17.8,17.8,0,0,0,2.155,6.255l.149.25c2.177,3.66,6.228,10.471,3.688,14.79a5.92,5.92,0,1,0,10.206,6c6.092-10.355-.782-21.91-3.717-26.845l-.146-.244c-1.119-1.884-.938-6.19-.468-8.485A5.922,5.922,0,0,0,188.52,17.891Z" style="fill:#333"/><path d="M232.507,256.16l1.305-1.264a5.92,5.92,0,0,0-8.238-8.5l-1.305,1.263a5.921,5.921,0,1,0,8.238,8.506Z" style="fill:#333"/><path d="M145.757,489.828a5.921,5.921,0,0,0,5.921,5.921H328.63a5.921,5.921,0,0,0,0-11.841h-20.1v-9.942a20.209,20.209,0,0,0-20.186-20.186h-.134l-6.85-103.027A27.42,27.42,0,0,0,288.59,332.2V315.6l.013-.011,38.98-42.106,21.79,18.284A7.2,7.2,0,0,1,350,302.208l-33.472,35.718a7.159,7.159,0,0,1-10.056.447,5.922,5.922,0,0,0-7.887,8.835,18.937,18.937,0,0,0,26.582-1.184l33.473-35.718a19.046,19.046,0,0,0-1.655-27.615l-26.109-21.907a5.92,5.92,0,0,0-8.15.513L288.59,298.168V278.837c.236.28.462.584.7.857a5.92,5.92,0,1,0,8.913-7.8A67.477,67.477,0,0,1,289.5,258.96a5.853,5.853,0,0,0-.906-1.243V245.83a42.492,42.492,0,0,0-24.646-38.607c-1.537-.7-3.018-1.408-4.472-2.112,6.371-4.393,10.082-11.961,10.082-21.654V158.983l7.988.1h.079a5.921,5.921,0,0,0,.076-11.841l-8.831-.115a23.74,23.74,0,0,0-2.334-6.016l6.292-7.741a5.92,5.92,0,1,0-9.189-7.468l-5.33,6.558a23.816,23.816,0,0,0-6.77-2.906v-7.911a5.921,5.921,0,1,0-11.842,0v7.911a23.81,23.81,0,0,0-6.769,2.906l-5.331-6.559a5.921,5.921,0,0,0-9.189,7.47l6.291,7.74a23.788,23.788,0,0,0-2.345,6.061l-2.963.071a5.921,5.921,0,0,0,.139,11.84h.145l2-.048v21.677a59.065,59.065,0,0,1-6.214-6.272,5.92,5.92,0,0,0-10.034,1.062c-3.841,8.048-11.208,13.967-16.9,17.6A130.929,130.929,0,0,1,182.636,153V125.588a5.921,5.921,0,0,0-11.842,0V153A141.174,141.174,0,0,0,178.047,199c-4.007,3.028-8.726,9.1-6.817,17.507,1.853,8.149,9.718,11.584,15.235,13.008v31.531a19.914,19.914,0,0,0-3.885,14.087,19.7,19.7,0,0,0,6.12,12.309c-.115,10.982-.863,28.686-2.226,52.718a5.921,5.921,0,0,0,11.823.671c1.391-24.518,2.145-42.552,2.247-53.708l16.815-16.289a5.921,5.921,0,0,0-8.24-8.5l-14.2,13.756a8.056,8.056,0,0,1,1.58-8.6l.122-.13,35.151-35a5.921,5.921,0,0,0-8.355-8.393l-25.111,25V224.576a5.92,5.92,0,0,0-5.428-5.9c-3.3-.275-9.492-2.111-10.1-4.792-.751-3.3,2.048-5.265,2.854-5.752,2.519-1.1,16.875-7.759,26.173-20.385,7.291,6.915,22.047,18.726,47.212,30.242a30.627,30.627,0,0,1,17.733,27.841V332.2a15.589,15.589,0,0,1-5.362,11.768L246.064,365.98l17.547-65.263a5.921,5.921,0,1,0-11.435-3.076l-22.587,84.007a12.981,12.981,0,0,0,4.967,17l5.169,3.085a1.2,1.2,0,0,1,.053,2.02l-44.016,29.508a2.178,2.178,0,0,1-3.389-1.958c.754-10.483,1.9-26.745,3.088-44.679a5.882,5.882,0,0,0-.122-1.536l36.545-68.023a5.92,5.92,0,0,0-10.431-5.6l-43.825,81.573a5.9,5.9,0,0,0,4.948,8.707c-.781,11.431-1.492,21.458-2.014,28.711a13.919,13.919,0,0,0,6.942,13.124c.043.025.088.041.131.065l-.749,10.141h-.174a20.209,20.209,0,0,0-20.185,20.186v9.942H151.678A5.921,5.921,0,0,0,145.757,489.828Zm99.857-349.2A12.107,12.107,0,0,1,257.7,152.441a23.719,23.719,0,0,0-24.168,0A12.107,12.107,0,0,1,245.614,140.628Zm-12.1,48.752V173.072a12.1,12.1,0,0,1,24.2,0v10.385c0,9.156-4.225,13.871-12.537,14.046-4.456-2.61-8.356-5.136-11.724-7.5A5.551,5.551,0,0,0,233.515,189.38ZM178.368,473.966a8.354,8.354,0,0,1,8.344-8.345h50.6a5.921,5.921,0,1,0,0-11.841H198.76l.681-9.225a14.078,14.078,0,0,0,2.915-1.462l44.015-29.508a13.035,13.035,0,0,0-.578-22.023l-5.169-3.085a1.2,1.2,0,0,1-.172-1.929l29.7-25.819,6.188,93.051h-6.994a5.921,5.921,0,1,0,0,11.841h19a8.355,8.355,0,0,1,8.345,8.345v9.942H178.368Z" style="fill:#333"/><path d="M351.859,489.828a5.921,5.921,0,0,0,5.92,5.921h2.543a5.921,5.921,0,1,0,0-11.841h-2.543A5.921,5.921,0,0,0,351.859,489.828Z" style="fill:#333"/></svg>