<svg xmlns="http://www.w3.org/2000/svg" xmlns:xlink="http://www.w3.org/1999/xlink" viewBox="0 0 4448 3852">
  <defs>
    <path id="a" d="M0 0h4448v3852H0z"/>
  </defs>
  <g id="template" fill="#000">
    <mask id="b" fill="#fff">
      <use xlink:href="#a"/>
    </mask>
    <g fill-rule="nonzero" mask="url(#b)">
      <g transform="translate(399.32 484.155)">
        <g class="dec" transform="rotate(30 152.7379 156.512)">
          <path d="M156.129 20.9724L290.4726 155.316l-75.2578 75.2578c-1.9016 1.9016-1.9065 4.9798-.011 6.8753 1.8955 1.8955 4.9737 1.8906 6.8753-.011l78.701-78.701c1.9016-1.9016 1.9065-4.9798.011-6.8753L159.5833 10.6539c-1.8956-1.8955-4.9737-1.8905-6.8753.011l-31.4804 31.4805c-1.9016 1.9016-1.9066 4.9798-.011 6.8753 1.8954 1.8955 4.9736 1.8905 6.8752-.011l28.0373-28.0373zM155.8705 290.0913L21.527 155.7478l92.9656-92.9655c1.9016-1.9016 1.9065-4.9798.011-6.8753-1.8955-1.8955-4.9737-1.8906-6.8753.011l-96.4087 96.4088c-1.9016 1.9016-1.9065 4.9797-.011 6.8753l141.2077 141.2077c1.8955 1.8955 4.9737 1.8906 6.8753-.011l25.5778-25.5779c1.9016-1.9016 1.9066-4.9798.011-6.8753-1.8955-1.8955-4.9736-1.8905-6.8752.011l-22.1347 22.1347z"/>
          <path d="M156.085 83.8323l71.5844 71.5845-12.297 12.297c-1.9016 1.9016-1.9066 4.9798-.011 6.8753 1.8954 1.8955 4.9736 1.8906 6.8752-.011l15.7402-15.7402c1.9016-1.9016 1.9066-4.9798.011-6.8753l-78.4487-78.4488c-1.8955-1.8955-4.9737-1.8905-6.8753.011l-51.1556 51.1557c-1.9016 1.9016-1.9066 4.9798-.011 6.8753 1.8955 1.8955 4.9736 1.8906 6.8752-.011l47.7125-47.7125zM155.9966 227.2314L80.98 152.2148c-1.8955-1.8955-4.9737-1.8906-6.8753.011-1.9016 1.9017-1.9065 4.9798-.011 6.8754l78.4487 78.4487c1.8955 1.8955 4.9737 1.8906 6.8753-.011l17.7077-17.7078c1.9017-1.9016 1.9066-4.9798.011-6.8753-1.8954-1.8955-4.9736-1.8905-6.8752.011l-14.2646 14.2646zM201.6407 181.6126l-17.7077 17.7077c-1.9017 1.9016-1.9066 4.9798-.011 6.8753 1.8954 1.8955 4.9736 1.8906 6.8752-.011l17.7077-17.7077c1.9017-1.9016 1.9066-4.9798.011-6.8753-1.8954-1.8956-4.9736-1.8906-6.8752.011zM199.6637 246.541l-7.8701 7.87c-1.9016 1.9016-1.9066 4.9798-.011 6.8753 1.8955 1.8955 4.9737 1.8906 6.8753-.011l7.87-7.8701c1.9017-1.9016 1.9066-4.9798.0111-6.8753-1.8955-1.8955-4.9737-1.8906-6.8753.011z"/>
        </g>
      </g>
    </g>
    <g class="dec" fill-rule="nonzero" mask="url(#b)">
      <g transform="translate(399.32 -183.645)">
        <g transform="rotate(30 245.5338 212.067)">
          <path d="M38.8602 262.2506l31.279-55.0887c1.3269-2.3368.5142-5.3102-1.815-6.6412-2.3293-1.3311-5.2932-.5158-6.62 1.821L26.292 264.7098c-1.8432 3.2462.4936 7.2795 4.2175 7.2795h194.1507c2.6807 0 4.8538-2.1801 4.8538-4.8694s-2.1731-4.8694-4.8538-4.8694h-185.8zM84.596 183.3678l8.3207-13.9125c1.3792-2.306.6338-5.2971-1.6648-6.6808-2.2987-1.3836-5.2802-.6358-6.6594 1.6702l-8.3207 13.9125c-1.3792 2.306-.6338 5.2971 1.6648 6.6808 2.2987 1.3836 5.2802.6358 6.6593-1.6702zM158.0533 56.9092L277.236 262.2506h-30.3872c-2.6807 0-4.8538 2.1801-4.8538 4.8694s2.1731 4.8694 4.8538 4.8694h38.8301c3.7444 0 6.0787-4.0734 4.1945-7.3196L162.2887 44.8523c-1.863-3.2097-6.478-3.2294-8.368-.0358l-52.6981 89.04c-1.3686 2.3124-.6095 5.3 1.6955 6.673 2.305 1.373 5.283.6114 6.6515-1.701l48.4837-81.9193z"/>
        </g>
      </g>
    </g>
    <g class="icon" mask="url(#b)">
      <g transform="rotate(112 104.904 202.8257)">
        <path d="M0 0h512v512H0z"/>
      </g>
    </g>
    <g class="dec" fill-rule="nonzero" mask="url(#b)">
      <g transform="translate(1511.32 484.155)">
        <path d="M38.8602 262.2506l31.279-55.0887c1.3269-2.3368.5142-5.3102-1.815-6.6412-2.3293-1.3311-5.2932-.5158-6.62 1.821L26.292 264.7098c-1.8432 3.2462.4936 7.2795 4.2175 7.2795h194.1507c2.6807 0 4.8538-2.1801 4.8538-4.8694s-2.1731-4.8694-4.8538-4.8694h-185.8zM84.596 183.3678l8.3207-13.9125c1.3792-2.306.6338-5.2971-1.6648-6.6808-2.2987-1.3836-5.2802-.6358-6.6594 1.6702l-8.3207 13.9125c-1.3792 2.306-.6338 5.2971 1.6648 6.6808 2.2987 1.3836 5.2802.6358 6.6593-1.6702zM158.0533 56.9092L277.236 262.2506h-30.3872c-2.6807 0-4.8538 2.1801-4.8538 4.8694s2.1731 4.8694 4.8538 4.8694h38.8301c3.7444 0 6.0787-4.0734 4.1945-7.3196L162.2887 44.8523c-1.863-3.2097-6.478-3.2294-8.368-.0358l-52.6981 89.04c-1.3686 2.3124-.6095 5.3 1.6955 6.673 2.305 1.373 5.283.6114 6.6515-1.701l48.4837-81.9193z"/>
      </g>
    </g>
    <g fill-rule="nonzero" mask="url(#b)">
      <g transform="translate(1511.32 -183.645)">
        <g class="dec" transform="rotate(30 200.5126 168.6588)">
          <path d="M30.5094 205.2094c18.0124 0 31.7313-5.2352 51.8238-17.4516 1.3306-.809 2.6893-1.6448 4.4872-2.7578-.102.0632 3.47-2.1506 4.478-2.773 25.1696-15.5387 40.6171-21.5376 64.0222-21.5376 14.2391 0 26.9116 2.7303 39.6258 8.0198 2.4761 1.0302 5.316-.1485 6.3428-2.6326 1.0269-2.4842-.148-5.333-2.6242-6.3633-13.851-5.7624-27.7762-8.7627-43.3444-8.7627-25.595 0-42.546 6.5829-69.1098 22.9824a5455.658 5455.658 0 0 0-4.488 2.779c-1.7778 1.1006-3.1165 1.924-4.421 2.7172-18.7106 11.3762-30.9359 16.0414-46.7924 16.0414-2.6807 0-4.8538 2.1801-4.8538 4.8694s2.1731 4.8694 4.8538 4.8694zM217.0716 180.0686a611.6904 611.6904 0 0 1 3.7273 2.2005c1.054.6266 4.6285 2.7598 5.0738 3.025 2.0097 1.197 3.5671 2.1173 5.083 3.0006 20.2037 11.7726 34.2209 16.9147 51.9496 16.9147 2.6807 0 4.8538-2.1801 4.8538-4.8694s-2.1731-4.8694-4.8538-4.8694c-15.6505 0-28.2195-4.6108-47.074-15.5972-1.4846-.8651-3.0176-1.771-5.0029-2.9534-.4388-.2613-4.018-2.3974-5.0806-3.029a621.0036 621.0036 0 0 0-3.7859-2.235c-2.3156-1.3549-5.2876-.5699-6.638 1.7532-1.3505 2.3231-.568 5.3047 1.7477 6.6594zM30.5094 244.1644c9.6382 0 18.6186-1.7321 27.597-5.0877 2.512-.9388 3.7898-3.7428 2.854-6.263-.9358-2.52-3.7308-3.8019-6.2428-2.863-7.9276 2.9628-15.7676 4.475-24.2082 4.475-2.6807 0-4.8538 2.18-4.8538 4.8693s2.1731 4.8694 4.8538 4.8694zM83.374 226.078c1.8008-1.1015 8.3552-5.1619 7.9245-4.896 25.1695-15.5387 40.617-21.5376 64.022-21.5376 23.4312 0 39.301 6.0173 65.4784 21.5797 1.054.6266 4.6285 2.7598 5.0738 3.025 2.0097 1.197 3.5671 2.1173 5.083 3.0006 20.2037 11.7726 34.2209 16.9147 51.9496 16.9147 2.6807 0 4.8538-2.1801 4.8538-4.8694s-2.1731-4.8694-4.8538-4.8694c-15.6505 0-28.2195-4.6108-47.074-15.5972-1.4846-.8651-3.0176-1.771-5.0029-2.9534-.4388-.2613-4.018-2.3974-5.0806-3.029-27.5457-16.376-44.8584-22.9404-70.4272-22.9404-25.595 0-42.546 6.5829-69.1098 22.9824.409-.2525-6.1173 3.7903-7.8905 4.875-2.2888 1.4-3.0129 4.3963-1.6173 6.6925 1.3955 2.296 4.3822 3.0225 6.671 1.6225z"/>
          <path d="M30.5094 166.2544c18.0124 0 31.7313-5.2352 51.8238-17.4516 1.3306-.809 2.6893-1.6448 4.4872-2.7578-.102.0632 3.47-2.1506 4.478-2.773 25.1696-15.5387 40.6171-21.5376 64.0222-21.5376 23.4311 0 39.3009 6.0173 65.4783 21.5797 1.054.6266 4.6285 2.7598 5.0738 3.025 2.0097 1.197 3.5671 2.1173 5.083 3.0006 20.2037 11.7726 34.2209 16.9147 51.9496 16.9147 2.6807 0 4.8538-2.1801 4.8538-4.8694s-2.1731-4.8694-4.8538-4.8694c-15.6505 0-28.2195-4.6108-47.074-15.5972-1.4846-.8651-3.0176-1.771-5.0029-2.9534-.4388-.2613-4.018-2.3974-5.0806-3.029-27.5457-16.376-44.8584-22.9404-70.4272-22.9404-25.595 0-42.546 6.5829-69.1098 22.9824a5455.658 5455.658 0 0 0-4.488 2.779c-1.7778 1.1006-3.1165 1.924-4.421 2.7172-18.7106 11.3762-30.9359 16.0414-46.7924 16.0414-2.6807 0-4.8538 2.1801-4.8538 4.8694s2.1731 4.8694 4.8538 4.8694zM30.5094 127.2994c18.0124 0 31.7313-5.2352 51.8238-17.4516a587.9895 587.9895 0 0 0 3.664-2.2486c.8591-.5309 1.8274-1.131 3.6542-2.2634 2.281-1.4129 2.9883-4.4132 1.58-6.7014-1.4084-2.2883-4.3991-2.998-6.68-1.585a3255.3018 3255.3018 0 0 1-3.6454 2.258 578.7314 578.7314 0 0 1-3.6042 2.2118c-18.7106 11.3762-30.9359 16.0414-46.7924 16.0414-2.6807 0-4.8538 2.1801-4.8538 4.8694s2.1731 4.8694 4.8538 4.8694zM110.8325 93.2622c3.1919-1.552 6.3285-2.9187 9.4793-4.1172 2.5065-.9534 3.768-3.7648 2.8176-6.2794-.9504-2.5146-3.7527-3.7802-6.2593-2.8268-3.429 1.3044-6.8286 2.7857-10.2715 4.4598-2.4123 1.173-3.42 4.0856-2.2508 6.5056 1.1691 2.42 4.0725 3.431 6.4847 2.258zM144.2868 83.3612c3.5774-.3856 7.249-.5818 11.0338-.5818 23.4311 0 39.3009 6.0173 65.4783 21.5797 1.054.6266 4.6285 2.7598 5.0738 3.025 2.0097 1.197 3.5671 2.1173 5.083 3.0006 20.2037 11.7726 34.2209 16.9147 51.9496 16.9147 2.6807 0 4.8538-2.1801 4.8538-4.8694s-2.1731-4.8694-4.8538-4.8694c-15.6505 0-28.2195-4.6108-47.074-15.5972-1.4846-.8651-3.0176-1.771-5.0029-2.9534-.4388-.2613-4.018-2.3974-5.0806-3.029-27.5457-16.376-44.8584-22.9404-70.4272-22.9404-4.1303 0-8.148.2147-12.0708.6376-2.6654.2873-4.5939 2.6878-4.3075 5.3617.2864 2.6739 2.6792 4.6086 5.3445 4.3213z"/>
        </g>
      </g>
    </g>
    <g class="icon" mask="url(#b)">
      <g transform="rotate(22 511.1574 2488.7968)">
        <path d="M0 0h512v512H0z"/>
      </g>
    </g>
    <g class="dec" fill-rule="nonzero" mask="url(#b)">
      <g transform="translate(955.32 1447.155)">
        <path d="M36.0374 152.0957l84.0437-48.5226c2.3215-1.3404 3.1134-4.315 1.7688-6.644-1.3446-2.3289-4.3166-3.1304-6.6382-1.79L23.936 147.837c-3.225 1.862-3.232 6.5233-.0127 8.413l217.9984 127.962c3.2519 1.9088 7.3321-.447 7.305-4.2176l-.4152-57.696c-.0194-2.6871-2.2099-4.8558-4.8926-4.844-2.6828.012-4.8419 2.2-4.8225 4.887l.3537 49.1546L36.0374 152.0957zM238.9687 196.312c.0194 2.6871 2.2099 4.8558 4.8926 4.844 2.6828-.012 4.8419-2.2 4.8225-4.887l-1.218-169.2585c-.027-3.7329-4.0673-6.0574-7.2923-4.1955l-33.6279 19.4151c-2.3215 1.3403-3.1134 4.3149-1.7688 6.6439 1.3447 2.329 4.3167 3.1304 6.6382 1.7901l26.3959-15.2397 1.1578 160.8876zM173.0357 61.7185l-16.814 9.7075c-2.3215 1.3403-3.1134 4.3149-1.7688 6.6439 1.3447 2.329 4.3167 3.1304 6.6382 1.7901l16.814-9.7075c2.3215-1.3404 3.1134-4.315 1.7688-6.644-1.3447-2.329-4.3167-3.1304-6.6382-1.79z"/>
        <path d="M196.2708 107.7234l1.4062 91.4673-26.1168-14.9715c-2.3312-1.3363-5.2974-.5298-6.6251 1.8014-1.3278 2.3313-.5143 5.3045 1.8169 6.6409l33.509 19.209c3.2672 1.873 7.319-.5167 7.2612-4.2825l-1.6647-108.2793c-.0571-3.715-4.082-6.0088-7.2918-4.1557L104.888 149.238c-3.251 1.877-3.2254 6.5874.046 8.4469l41.1965 23.417c2.336 1.3278 5.2992.5104 6.6185-1.8257 1.3192-2.3361.495-5.3064-1.8411-6.6342l-33.801-19.2132 79.1639-45.7053z"/>
      </g>
    </g>
    <g class="dec" fill-rule="nonzero" mask="url(#b)">
      <g transform="translate(955.32 779.355)">
        <path d="M38.8602 262.2506l31.279-55.0887c1.3269-2.3368.5142-5.3102-1.815-6.6412-2.3293-1.3311-5.2932-.5158-6.62 1.821L26.292 264.7098c-1.8432 3.2462.4936 7.2795 4.2175 7.2795h194.1507c2.6807 0 4.8538-2.1801 4.8538-4.8694s-2.1731-4.8694-4.8538-4.8694h-185.8zM84.596 183.3678l8.3207-13.9125c1.3792-2.306.6338-5.2971-1.6648-6.6808-2.2987-1.3836-5.2802-.6358-6.6594 1.6702l-8.3207 13.9125c-1.3792 2.306-.6338 5.2971 1.6648 6.6808 2.2987 1.3836 5.2802.6358 6.6593-1.6702zM158.0533 56.9092L277.236 262.2506h-30.3872c-2.6807 0-4.8538 2.1801-4.8538 4.8694s2.1731 4.8694 4.8538 4.8694h38.8301c3.7444 0 6.0787-4.0734 4.1945-7.3196L162.2887 44.8523c-1.863-3.2097-6.478-3.2294-8.368-.0358l-52.6981 89.04c-1.3686 2.3124-.6095 5.3 1.6955 6.673 2.305 1.373 5.283.6114 6.6515-1.701l48.4837-81.9193z"/>
      </g>
    </g>
    <g class="icon" mask="url(#b)">
      <g transform="rotate(-113 746.371 672.0481)">
        <path d="M0 0h512v512H0z"/>
      </g>
    </g>
    <g class="dec" fill-rule="nonzero" mask="url(#b)">
      <g transform="translate(2623.32 484.155)">
        <path d="M194.8441 278.9456H110.25V169.7325c0-2.6893-2.1731-4.8694-4.8538-4.8694s-4.8538 2.1801-4.8538 4.8694V283.815c0 2.6893 2.1731 4.8694 4.8538 4.8694h94.3018c2.6806 0 4.8538-2.1801 4.8538-4.8694V255.99c0-2.6893-2.1732-4.8694-4.8538-4.8694-2.6807 0-4.8538 2.1801-4.8538 4.8694v22.9556zM110.2499 32.6944h84.5942V228.165c0 2.6893 2.1731 4.8694 4.8538 4.8694 2.6806 0 4.8538-2.1801 4.8538-4.8694V27.825c0-2.6893-2.1732-4.8694-4.8538-4.8694H105.396c-2.6807 0-4.8538 2.1801-4.8538 4.8694v41.7375c0 2.6893 2.1731 4.8694 4.8538 4.8694s4.8538-2.1801 4.8538-4.8694V32.6944zM110.2499 141.9075v-50.085c0-2.6893-2.1731-4.8694-4.8538-4.8694s-4.8538 2.1801-4.8538 4.8694v50.085c0 2.6893 2.1731 4.8694 4.8538 4.8694s4.8538-2.1801 4.8538-4.8694z"/>
      </g>
    </g>
    <g class="dec" fill-rule="nonzero" mask="url(#b)">
      <g transform="translate(2623.32 -183.645)">
        <path d="M38.8602 262.2506l31.279-55.0887c1.3269-2.3368.5142-5.3102-1.815-6.6412-2.3293-1.3311-5.2932-.5158-6.62 1.821L26.292 264.7098c-1.8432 3.2462.4936 7.2795 4.2175 7.2795h194.1507c2.6807 0 4.8538-2.1801 4.8538-4.8694s-2.1731-4.8694-4.8538-4.8694h-185.8zM84.596 183.3678l8.3207-13.9125c1.3792-2.306.6338-5.2971-1.6648-6.6808-2.2987-1.3836-5.2802-.6358-6.6594 1.6702l-8.3207 13.9125c-1.3792 2.306-.6338 5.2971 1.6648 6.6808 2.2987 1.3836 5.2802.6358 6.6593-1.6702zM158.0533 56.9092L277.236 262.2506h-30.3872c-2.6807 0-4.8538 2.1801-4.8538 4.8694s2.1731 4.8694 4.8538 4.8694h38.8301c3.7444 0 6.0787-4.0734 4.1945-7.3196L162.2887 44.8523c-1.863-3.2097-6.478-3.2294-8.368-.0358l-52.6981 89.04c-1.3686 2.3124-.6095 5.3 1.6955 6.673 2.305 1.373 5.283.6114 6.6515-1.701l48.4837-81.9193z"/>
      </g>
    </g>
    <g class="icon" mask="url(#b)">
      <g transform="rotate(-68 1289.1658 -1168.5987)">
        <path d="M0 0h512v512H0z"/>
      </g>
    </g>
    <g fill-rule="nonzero" mask="url(#b)">
      <g transform="translate(2067.32 1447.155)">
        <g class="dec" transform="rotate(-30 58.1663 237.9716)">
          <path d="M38.8602 262.2506l31.279-55.0887c1.3269-2.3368.5142-5.3102-1.815-6.6412-2.3293-1.3311-5.2932-.5158-6.62 1.821L26.292 264.7098c-1.8432 3.2462.4936 7.2795 4.2175 7.2795h194.1507c2.6807 0 4.8538-2.1801 4.8538-4.8694s-2.1731-4.8694-4.8538-4.8694h-185.8zM84.596 183.3678l8.3207-13.9125c1.3792-2.306.6338-5.2971-1.6648-6.6808-2.2987-1.3836-5.2802-.6358-6.6594 1.6702l-8.3207 13.9125c-1.3792 2.306-.6338 5.2971 1.6648 6.6808 2.2987 1.3836 5.2802.6358 6.6593-1.6702zM158.0533 56.9092L277.236 262.2506h-30.3872c-2.6807 0-4.8538 2.1801-4.8538 4.8694s2.1731 4.8694 4.8538 4.8694h38.8301c3.7444 0 6.0787-4.0734 4.1945-7.3196L162.2887 44.8523c-1.863-3.2097-6.478-3.2294-8.368-.0358l-52.6981 89.04c-1.3686 2.3124-.6095 5.3 1.6955 6.673 2.305 1.373 5.283.6114 6.6515-1.701l48.4837-81.9193z"/>
        </g>
      </g>
    </g>
    <g class="dec" fill-rule="nonzero" mask="url(#b)">
      <g transform="translate(2067.32 779.355)">
        <path d="M196.7442 227.4271c13.3821-7.807 24.3566-19.2688 31.5862-33.0034 1.2518-2.378.345-5.3239-2.0255-6.5797-2.3704-1.2558-5.3068-.346-6.5586 2.032-6.3802 12.1207-16.0708 22.2417-27.8821 29.1324-2.3174 1.3519-3.1035 4.3324-1.7559 6.6572 1.3476 2.3248 4.3186 3.1134 6.6359 1.7615zM237.8346 155.82c0-7.5398-1.0061-14.9505-2.971-22.0869-.7136-2.5922-3.3869-4.1132-5.9708-3.3972-2.5839.716-4.1 3.3978-3.3863 5.99 1.7328 6.294 2.6206 12.8325 2.6206 19.4941 0 2.6893 2.1731 4.8694 4.8538 4.8694 2.6806 0 4.8537-2.1801 4.8537-4.8694zM222.8929 108.3006c-5.4527-7.79-12.2097-14.5938-19.9545-20.0929-13.8199-9.8125-30.3245-15.167-47.6178-15.167-20.9348 0-40.6588 7.8587-55.7735 21.773-1.9751 1.8182-2.107 4.8984-.2946 6.8799 1.8124 1.9815 4.8828 2.1138 6.858.2955 13.341-12.2813 30.7298-19.2097 49.21-19.2097 15.268 0 29.8166 4.72 42.0098 13.3776 6.8375 4.8548 12.8043 10.8629 17.6181 17.7402 1.5405 2.2009 4.5678 2.7322 6.7616 1.1867 2.1938-1.5454 2.7234-4.5824 1.1829-6.7833zM83.2723 115.4423c-6.828 12.2374-10.4658 26.0482-10.4658 40.3777 0 9.0729 1.457 17.9536 4.2817 26.3856 3.1223 9.3208 7.8826 17.9886 14.03 25.618 7.7423 9.6086 17.5398 17.3896 28.6553 22.7205 2.4185 1.1599 5.3164.1332 6.4725-2.293 1.1562-2.4263.1329-5.3335-2.2856-6.4934-9.8074-4.7035-18.4571-11.573-25.2927-20.0564-5.4254-6.7332-9.6245-14.3793-12.3777-22.598-2.4908-7.4354-3.776-15.2686-3.776-23.2833 0-12.653 3.2069-24.8277 9.2291-35.6209 1.3094-2.3466.4745-5.3138-1.8646-6.6274s-5.2968-.476-6.6062 1.8706z"/>
        <path d="M28.0445 156.0157c0 70.0802 56.9939 126.8914 127.2994 126.8914 47.1318 0 89.7161-25.7568 111.8584-66.2689 1.2866-2.354.4152-5.3019-1.9464-6.5844-2.3616-1.2824-5.319-.4138-6.6055 1.9402-20.453 37.4214-59.776 61.2056-103.3065 61.2056-64.927 0-117.5606-52.465-117.5606-117.1839 0-2.6806-2.1801-4.8537-4.8694-4.8537s-4.8694 2.173-4.8694 4.8537zM277.6685 190.4584c3.2016-11.2206 4.8427-22.8943 4.8427-34.7809 0-70.0802-56.9938-126.8914-127.2994-126.8914-14.7263 0-29.1172 2.4952-42.71 7.3197a126.7688 126.7688 0 0 0-13.2864 5.5855c-2.4144 1.1806-3.4115 4.0887-2.227 6.4954 1.1844 2.4066 4.1019 3.4005 6.5163 2.2199a117.013 117.013 0 0 1 12.2639-5.1557c12.5477-4.4536 25.834-6.7572 39.4432-6.7572 64.927 0 117.5607 52.465 117.5607 117.1838 0 10.9863-1.5155 21.7664-4.4712 32.1252-.7357 2.5784.7648 5.2631 3.3515 5.9965 2.5867.7333 5.28-.7624 6.0157-3.3408z"/>
      </g>
    </g>
    <g class="icon" mask="url(#b)">
      <g transform="rotate(-103 1371.1495 209.82)">
        <path d="M0 0h512v512H0z"/>
      </g>
    </g>
    <g class="dec" fill-rule="nonzero" mask="url(#b)">
      <g transform="translate(3735.32 484.155)">
        <path d="M30.5094 205.2094c18.0124 0 31.7313-5.2352 51.8238-17.4516 1.3306-.809 2.6893-1.6448 4.4872-2.7578-.102.0632 3.47-2.1506 4.478-2.773 25.1696-15.5387 40.6171-21.5376 64.0222-21.5376 14.2391 0 26.9116 2.7303 39.6258 8.0198 2.4761 1.0302 5.316-.1485 6.3428-2.6326 1.0269-2.4842-.148-5.333-2.6242-6.3633-13.851-5.7624-27.7762-8.7627-43.3444-8.7627-25.595 0-42.546 6.5829-69.1098 22.9824a5455.658 5455.658 0 0 0-4.488 2.779c-1.7778 1.1006-3.1165 1.924-4.421 2.7172-18.7106 11.3762-30.9359 16.0414-46.7924 16.0414-2.6807 0-4.8538 2.1801-4.8538 4.8694s2.1731 4.8694 4.8538 4.8694zM217.0716 180.0686a611.6904 611.6904 0 0 1 3.7273 2.2005c1.054.6266 4.6285 2.7598 5.0738 3.025 2.0097 1.197 3.5671 2.1173 5.083 3.0006 20.2037 11.7726 34.2209 16.9147 51.9496 16.9147 2.6807 0 4.8538-2.1801 4.8538-4.8694s-2.1731-4.8694-4.8538-4.8694c-15.6505 0-28.2195-4.6108-47.074-15.5972-1.4846-.8651-3.0176-1.771-5.0029-2.9534-.4388-.2613-4.018-2.3974-5.0806-3.029a621.0036 621.0036 0 0 0-3.7859-2.235c-2.3156-1.3549-5.2876-.5699-6.638 1.7532-1.3505 2.3231-.568 5.3047 1.7477 6.6594zM30.5094 244.1644c9.6382 0 18.6186-1.7321 27.597-5.0877 2.512-.9388 3.7898-3.7428 2.854-6.263-.9358-2.52-3.7308-3.8019-6.2428-2.863-7.9276 2.9628-15.7676 4.475-24.2082 4.475-2.6807 0-4.8538 2.18-4.8538 4.8693s2.1731 4.8694 4.8538 4.8694zM83.374 226.078c1.8008-1.1015 8.3552-5.1619 7.9245-4.896 25.1695-15.5387 40.617-21.5376 64.022-21.5376 23.4312 0 39.301 6.0173 65.4784 21.5797 1.054.6266 4.6285 2.7598 5.0738 3.025 2.0097 1.197 3.5671 2.1173 5.083 3.0006 20.2037 11.7726 34.2209 16.9147 51.9496 16.9147 2.6807 0 4.8538-2.1801 4.8538-4.8694s-2.1731-4.8694-4.8538-4.8694c-15.6505 0-28.2195-4.6108-47.074-15.5972-1.4846-.8651-3.0176-1.771-5.0029-2.9534-.4388-.2613-4.018-2.3974-5.0806-3.029-27.5457-16.376-44.8584-22.9404-70.4272-22.9404-25.595 0-42.546 6.5829-69.1098 22.9824.409-.2525-6.1173 3.7903-7.8905 4.875-2.2888 1.4-3.0129 4.3963-1.6173 6.6925 1.3955 2.296 4.3822 3.0225 6.671 1.6225z"/>
        <path d="M30.5094 166.2544c18.0124 0 31.7313-5.2352 51.8238-17.4516 1.3306-.809 2.6893-1.6448 4.4872-2.7578-.102.0632 3.47-2.1506 4.478-2.773 25.1696-15.5387 40.6171-21.5376 64.0222-21.5376 23.4311 0 39.3009 6.0173 65.4783 21.5797 1.054.6266 4.6285 2.7598 5.0738 3.025 2.0097 1.197 3.5671 2.1173 5.083 3.0006 20.2037 11.7726 34.2209 16.9147 51.9496 16.9147 2.6807 0 4.8538-2.1801 4.8538-4.8694s-2.1731-4.8694-4.8538-4.8694c-15.6505 0-28.2195-4.6108-47.074-15.5972-1.4846-.8651-3.0176-1.771-5.0029-2.9534-.4388-.2613-4.018-2.3974-5.0806-3.029-27.5457-16.376-44.8584-22.9404-70.4272-22.9404-25.595 0-42.546 6.5829-69.1098 22.9824a5455.658 5455.658 0 0 0-4.488 2.779c-1.7778 1.1006-3.1165 1.924-4.421 2.7172-18.7106 11.3762-30.9359 16.0414-46.7924 16.0414-2.6807 0-4.8538 2.1801-4.8538 4.8694s2.1731 4.8694 4.8538 4.8694zM30.5094 127.2994c18.0124 0 31.7313-5.2352 51.8238-17.4516a587.9895 587.9895 0 0 0 3.664-2.2486c.8591-.5309 1.8274-1.131 3.6542-2.2634 2.281-1.4129 2.9883-4.4132 1.58-6.7014-1.4084-2.2883-4.3991-2.998-6.68-1.585a3255.3018 3255.3018 0 0 1-3.6454 2.258 578.7314 578.7314 0 0 1-3.6042 2.2118c-18.7106 11.3762-30.9359 16.0414-46.7924 16.0414-2.6807 0-4.8538 2.1801-4.8538 4.8694s2.1731 4.8694 4.8538 4.8694zM110.8325 93.2622c3.1919-1.552 6.3285-2.9187 9.4793-4.1172 2.5065-.9534 3.768-3.7648 2.8176-6.2794-.9504-2.5146-3.7527-3.7802-6.2593-2.8268-3.429 1.3044-6.8286 2.7857-10.2715 4.4598-2.4123 1.173-3.42 4.0856-2.2508 6.5056 1.1691 2.42 4.0725 3.431 6.4847 2.258zM144.2868 83.3612c3.5774-.3856 7.249-.5818 11.0338-.5818 23.4311 0 39.3009 6.0173 65.4783 21.5797 1.054.6266 4.6285 2.7598 5.0738 3.025 2.0097 1.197 3.5671 2.1173 5.083 3.0006 20.2037 11.7726 34.2209 16.9147 51.9496 16.9147 2.6807 0 4.8538-2.1801 4.8538-4.8694s-2.1731-4.8694-4.8538-4.8694c-15.6505 0-28.2195-4.6108-47.074-15.5972-1.4846-.8651-3.0176-1.771-5.0029-2.9534-.4388-.2613-4.018-2.3974-5.0806-3.029-27.5457-16.376-44.8584-22.9404-70.4272-22.9404-4.1303 0-8.148.2147-12.0708.6376-2.6654.2873-4.5939 2.6878-4.3075 5.3617.2864 2.6739 2.6792 4.6086 5.3445 4.3213z"/>
      </g>
    </g>
    <g fill-rule="nonzero" mask="url(#b)">
      <g transform="translate(3735.32 -183.645)">
        <g class="dec" transform="rotate(90 154.6285 156.512)">
          <path d="M196.7442 227.4271c13.3821-7.807 24.3566-19.2688 31.5862-33.0034 1.2518-2.378.345-5.3239-2.0255-6.5797-2.3704-1.2558-5.3068-.346-6.5586 2.032-6.3802 12.1207-16.0708 22.2417-27.8821 29.1324-2.3174 1.3519-3.1035 4.3324-1.7559 6.6572 1.3476 2.3248 4.3186 3.1134 6.6359 1.7615zM237.8346 155.82c0-7.5398-1.0061-14.9505-2.971-22.0869-.7136-2.5922-3.3869-4.1132-5.9708-3.3972-2.5839.716-4.1 3.3978-3.3863 5.99 1.7328 6.294 2.6206 12.8325 2.6206 19.4941 0 2.6893 2.1731 4.8694 4.8538 4.8694 2.6806 0 4.8537-2.1801 4.8537-4.8694zM222.8929 108.3006c-5.4527-7.79-12.2097-14.5938-19.9545-20.0929-13.8199-9.8125-30.3245-15.167-47.6178-15.167-20.9348 0-40.6588 7.8587-55.7735 21.773-1.9751 1.8182-2.107 4.8984-.2946 6.8799 1.8124 1.9815 4.8828 2.1138 6.858.2955 13.341-12.2813 30.7298-19.2097 49.21-19.2097 15.268 0 29.8166 4.72 42.0098 13.3776 6.8375 4.8548 12.8043 10.8629 17.6181 17.7402 1.5405 2.2009 4.5678 2.7322 6.7616 1.1867 2.1938-1.5454 2.7234-4.5824 1.1829-6.7833zM83.2723 115.4423c-6.828 12.2374-10.4658 26.0482-10.4658 40.3777 0 9.0729 1.457 17.9536 4.2817 26.3856 3.1223 9.3208 7.8826 17.9886 14.03 25.618 7.7423 9.6086 17.5398 17.3896 28.6553 22.7205 2.4185 1.1599 5.3164.1332 6.4725-2.293 1.1562-2.4263.1329-5.3335-2.2856-6.4934-9.8074-4.7035-18.4571-11.573-25.2927-20.0564-5.4254-6.7332-9.6245-14.3793-12.3777-22.598-2.4908-7.4354-3.776-15.2686-3.776-23.2833 0-12.653 3.2069-24.8277 9.2291-35.6209 1.3094-2.3466.4745-5.3138-1.8646-6.6274s-5.2968-.476-6.6062 1.8706z"/>
          <path d="M28.0445 156.0157c0 70.0802 56.9939 126.8914 127.2994 126.8914 47.1318 0 89.7161-25.7568 111.8584-66.2689 1.2866-2.354.4152-5.3019-1.9464-6.5844-2.3616-1.2824-5.319-.4138-6.6055 1.9402-20.453 37.4214-59.776 61.2056-103.3065 61.2056-64.927 0-117.5606-52.465-117.5606-117.1839 0-2.6806-2.1801-4.8537-4.8694-4.8537s-4.8694 2.173-4.8694 4.8537zM277.6685 190.4584c3.2016-11.2206 4.8427-22.8943 4.8427-34.7809 0-70.0802-56.9938-126.8914-127.2994-126.8914-14.7263 0-29.1172 2.4952-42.71 7.3197a126.7688 126.7688 0 0 0-13.2864 5.5855c-2.4144 1.1806-3.4115 4.0887-2.227 6.4954 1.1844 2.4066 4.1019 3.4005 6.5163 2.2199a117.013 117.013 0 0 1 12.2639-5.1557c12.5477-4.4536 25.834-6.7572 39.4432-6.7572 64.927 0 117.5607 52.465 117.5607 117.1838 0 10.9863-1.5155 21.7664-4.4712 32.1252-.7357 2.5784.7648 5.2631 3.3515 5.9965 2.5867.7333 5.28-.7624 6.0157-3.3408z"/>
        </g>
      </g>
    </g>
    <g class="icon" mask="url(#b)">
      <g transform="rotate(-23 1960.1578 -7277.3842)">
        <path d="M0 0h512v512H0z"/>
      </g>
    </g>
    <g class="dec" fill-rule="nonzero" mask="url(#b)">
      <g transform="translate(3179.32 1447.155)">
        <g transform="rotate(60 154.122 156.512)">
          <path d="M52.0203 229.765c7.5895 10.6524 16.7779 20.0849 27.2181 27.9431 2.1442 1.614 5.1867 1.1785 6.7955-.9726 1.6087-2.1512 1.1747-5.2034-.9696-6.8173-9.6454-7.26-18.135-15.9752-25.1465-25.8162-1.5588-2.1879-4.5903-2.6938-6.7712-1.13-2.1808 1.5638-2.6851 4.6051-1.1263 6.793zM224.0066 48.7651c-20.3173-13.1455-43.9837-20.2445-68.686-20.2445-70.0802 0-126.8914 56.9939-126.8914 127.2994 0 12.5337 1.8073 24.83 5.3265 36.6076.7697 2.576 3.4753 4.0384 6.043 3.2662 2.5678-.7722 4.0254-3.4865 3.2557-6.0625-3.2488-10.8729-4.9177-22.2272-4.9177-33.8113 0-64.927 52.465-117.5606 117.1839-117.5606 22.822 0 44.6641 6.5518 63.4245 18.69 2.2528 1.4576 5.2569.807 6.7098-1.453 1.4529-2.26.8044-5.2737-1.4483-6.7313zM155.3206 283.1194c70.0801 0 126.8913-56.9939 126.8913-127.2994 0-37.0177-15.8443-71.477-42.978-95.492-2.0103-1.7791-5.0775-1.5866-6.851.43-1.7734 2.0167-1.5815 5.0938.4287 6.873 25.0665 22.1853 39.6928 53.9956 39.6928 88.189 0 64.927-52.465 117.5606-117.1838 117.5606-2.6807 0-4.8538 2.1801-4.8538 4.8694s2.1731 4.8694 4.8538 4.8694z"/>
        </g>
      </g>
    </g>
    <g class="dec" fill-rule="nonzero" mask="url(#b)">
      <g transform="translate(3179.32 779.355)">
        <g transform="rotate(90 154.6285 156.512)">
          <path d="M156.129 20.9724L290.4726 155.316l-75.2578 75.2578c-1.9016 1.9016-1.9065 4.9798-.011 6.8753 1.8955 1.8955 4.9737 1.8906 6.8753-.011l78.701-78.701c1.9016-1.9016 1.9065-4.9798.011-6.8753L159.5833 10.6539c-1.8956-1.8955-4.9737-1.8905-6.8753.011l-31.4804 31.4805c-1.9016 1.9016-1.9066 4.9798-.011 6.8753 1.8954 1.8955 4.9736 1.8905 6.8752-.011l28.0373-28.0373zM155.8705 290.0913L21.527 155.7478l92.9656-92.9655c1.9016-1.9016 1.9065-4.9798.011-6.8753-1.8955-1.8955-4.9737-1.8906-6.8753.011l-96.4087 96.4088c-1.9016 1.9016-1.9065 4.9797-.011 6.8753l141.2077 141.2077c1.8955 1.8955 4.9737 1.8906 6.8753-.011l25.5778-25.5779c1.9016-1.9016 1.9066-4.9798.011-6.8753-1.8955-1.8955-4.9736-1.8905-6.8752.011l-22.1347 22.1347z"/>
          <path d="M156.085 83.8323l71.5844 71.5845-12.297 12.297c-1.9016 1.9016-1.9066 4.9798-.011 6.8753 1.8954 1.8955 4.9736 1.8906 6.8752-.011l15.7402-15.7402c1.9016-1.9016 1.9066-4.9798.011-6.8753l-78.4487-78.4488c-1.8955-1.8955-4.9737-1.8905-6.8753.011l-51.1556 51.1557c-1.9016 1.9016-1.9066 4.9798-.011 6.8753 1.8955 1.8955 4.9736 1.8906 6.8752-.011l47.7125-47.7125zM155.9966 227.2314L80.98 152.2148c-1.8955-1.8955-4.9737-1.8906-6.8753.011-1.9016 1.9017-1.9065 4.9798-.011 6.8754l78.4487 78.4487c1.8955 1.8955 4.9737 1.8906 6.8753-.011l17.7077-17.7078c1.9017-1.9016 1.9066-4.9798.011-6.8753-1.8954-1.8955-4.9736-1.8905-6.8752.011l-14.2646 14.2646zM201.6407 181.6126l-17.7077 17.7077c-1.9017 1.9016-1.9066 4.9798-.011 6.8753 1.8954 1.8955 4.9736 1.8906 6.8752-.011l17.7077-17.7077c1.9017-1.9016 1.9066-4.9798.011-6.8753-1.8954-1.8956-4.9736-1.8906-6.8752.011zM199.6637 246.541l-7.8701 7.87c-1.9016 1.9016-1.9066 4.9798-.011 6.8753 1.8955 1.8955 4.9737 1.8906 6.8753-.011l7.87-7.8701c1.9017-1.9016 1.9066-4.9798.0111-6.8753-1.8955-1.8955-4.9737-1.8906-6.8753.011z"/>
        </g>
      </g>
    </g>
    <g class="icon" mask="url(#b)">
      <g transform="rotate(-158 1617.6059 525.7892)">
        <path d="M0 0h512v512H0z"/>
      </g>
    </g>
    <g class="icon" mask="url(#b)">
      <g transform="rotate(112 2328.904 1702.9326)">
        <path d="M0 0h512v512H0z"/>
      </g>
    </g>
    <g class="dec" fill-rule="nonzero" mask="url(#b)">
      <g transform="translate(4290.32 1447.155)">
        <path d="M38.8602 262.2506l31.279-55.0887c1.3269-2.3368.5142-5.3102-1.815-6.6412-2.3293-1.3311-5.2932-.5158-6.62 1.821L26.292 264.7098c-1.8432 3.2462.4936 7.2795 4.2175 7.2795h194.1507c2.6807 0 4.8538-2.1801 4.8538-4.8694s-2.1731-4.8694-4.8538-4.8694h-185.8zM84.596 183.3678l8.3207-13.9125c1.3792-2.306.6338-5.2971-1.6648-6.6808-2.2987-1.3836-5.2802-.6358-6.6594 1.6702l-8.3207 13.9125c-1.3792 2.306-.6338 5.2971 1.6648 6.6808 2.2987 1.3836 5.2802.6358 6.6593-1.6702zM158.0533 56.9092L277.236 262.2506h-30.3872c-2.6807 0-4.8538 2.1801-4.8538 4.8694s2.1731 4.8694 4.8538 4.8694h38.8301c3.7444 0 6.0787-4.0734 4.1945-7.3196L162.2887 44.8523c-1.863-3.2097-6.478-3.2294-8.368-.0358l-52.6981 89.04c-1.3686 2.3124-.6095 5.3 1.6955 6.673 2.305 1.373 5.283.6114 6.6515-1.701l48.4837-81.9193z"/>
      </g>
    </g>
    <g fill-rule="nonzero" mask="url(#b)">
      <g transform="translate(4290.32 779.355)">
        <g class="dec" transform="rotate(-60 139.2494 164.1642)">
          <path d="M30.5094 205.2094c18.0124 0 31.7313-5.2352 51.8238-17.4516 1.3306-.809 2.6893-1.6448 4.4872-2.7578-.102.0632 3.47-2.1506 4.478-2.773 25.1696-15.5387 40.6171-21.5376 64.0222-21.5376 14.2391 0 26.9116 2.7303 39.6258 8.0198 2.4761 1.0302 5.316-.1485 6.3428-2.6326 1.0269-2.4842-.148-5.333-2.6242-6.3633-13.851-5.7624-27.7762-8.7627-43.3444-8.7627-25.595 0-42.546 6.5829-69.1098 22.9824a5455.658 5455.658 0 0 0-4.488 2.779c-1.7778 1.1006-3.1165 1.924-4.421 2.7172-18.7106 11.3762-30.9359 16.0414-46.7924 16.0414-2.6807 0-4.8538 2.1801-4.8538 4.8694s2.1731 4.8694 4.8538 4.8694zM217.0716 180.0686a611.6904 611.6904 0 0 1 3.7273 2.2005c1.054.6266 4.6285 2.7598 5.0738 3.025 2.0097 1.197 3.5671 2.1173 5.083 3.0006 20.2037 11.7726 34.2209 16.9147 51.9496 16.9147 2.6807 0 4.8538-2.1801 4.8538-4.8694s-2.1731-4.8694-4.8538-4.8694c-15.6505 0-28.2195-4.6108-47.074-15.5972-1.4846-.8651-3.0176-1.771-5.0029-2.9534-.4388-.2613-4.018-2.3974-5.0806-3.029a621.0036 621.0036 0 0 0-3.7859-2.235c-2.3156-1.3549-5.2876-.5699-6.638 1.7532-1.3505 2.3231-.568 5.3047 1.7477 6.6594zM30.5094 244.1644c9.6382 0 18.6186-1.7321 27.597-5.0877 2.512-.9388 3.7898-3.7428 2.854-6.263-.9358-2.52-3.7308-3.8019-6.2428-2.863-7.9276 2.9628-15.7676 4.475-24.2082 4.475-2.6807 0-4.8538 2.18-4.8538 4.8693s2.1731 4.8694 4.8538 4.8694zM83.374 226.078c1.8008-1.1015 8.3552-5.1619 7.9245-4.896 25.1695-15.5387 40.617-21.5376 64.022-21.5376 23.4312 0 39.301 6.0173 65.4784 21.5797 1.054.6266 4.6285 2.7598 5.0738 3.025 2.0097 1.197 3.5671 2.1173 5.083 3.0006 20.2037 11.7726 34.2209 16.9147 51.9496 16.9147 2.6807 0 4.8538-2.1801 4.8538-4.8694s-2.1731-4.8694-4.8538-4.8694c-15.6505 0-28.2195-4.6108-47.074-15.5972-1.4846-.8651-3.0176-1.771-5.0029-2.9534-.4388-.2613-4.018-2.3974-5.0806-3.029-27.5457-16.376-44.8584-22.9404-70.4272-22.9404-25.595 0-42.546 6.5829-69.1098 22.9824.409-.2525-6.1173 3.7903-7.8905 4.875-2.2888 1.4-3.0129 4.3963-1.6173 6.6925 1.3955 2.296 4.3822 3.0225 6.671 1.6225z"/>
          <path d="M30.5094 166.2544c18.0124 0 31.7313-5.2352 51.8238-17.4516 1.3306-.809 2.6893-1.6448 4.4872-2.7578-.102.0632 3.47-2.1506 4.478-2.773 25.1696-15.5387 40.6171-21.5376 64.0222-21.5376 23.4311 0 39.3009 6.0173 65.4783 21.5797 1.054.6266 4.6285 2.7598 5.0738 3.025 2.0097 1.197 3.5671 2.1173 5.083 3.0006 20.2037 11.7726 34.2209 16.9147 51.9496 16.9147 2.6807 0 4.8538-2.1801 4.8538-4.8694s-2.1731-4.8694-4.8538-4.8694c-15.6505 0-28.2195-4.6108-47.074-15.5972-1.4846-.8651-3.0176-1.771-5.0029-2.9534-.4388-.2613-4.018-2.3974-5.0806-3.029-27.5457-16.376-44.8584-22.9404-70.4272-22.9404-25.595 0-42.546 6.5829-69.1098 22.9824a5455.658 5455.658 0 0 0-4.488 2.779c-1.7778 1.1006-3.1165 1.924-4.421 2.7172-18.7106 11.3762-30.9359 16.0414-46.7924 16.0414-2.6807 0-4.8538 2.1801-4.8538 4.8694s2.1731 4.8694 4.8538 4.8694zM30.5094 127.2994c18.0124 0 31.7313-5.2352 51.8238-17.4516a587.9895 587.9895 0 0 0 3.664-2.2486c.8591-.5309 1.8274-1.131 3.6542-2.2634 2.281-1.4129 2.9883-4.4132 1.58-6.7014-1.4084-2.2883-4.3991-2.998-6.68-1.585a3255.3018 3255.3018 0 0 1-3.6454 2.258 578.7314 578.7314 0 0 1-3.6042 2.2118c-18.7106 11.3762-30.9359 16.0414-46.7924 16.0414-2.6807 0-4.8538 2.1801-4.8538 4.8694s2.1731 4.8694 4.8538 4.8694zM110.8325 93.2622c3.1919-1.552 6.3285-2.9187 9.4793-4.1172 2.5065-.9534 3.768-3.7648 2.8176-6.2794-.9504-2.5146-3.7527-3.7802-6.2593-2.8268-3.429 1.3044-6.8286 2.7857-10.2715 4.4598-2.4123 1.173-3.42 4.0856-2.2508 6.5056 1.1691 2.42 4.0725 3.431 6.4847 2.258zM144.2868 83.3612c3.5774-.3856 7.249-.5818 11.0338-.5818 23.4311 0 39.3009 6.0173 65.4783 21.5797 1.054.6266 4.6285 2.7598 5.0738 3.025 2.0097 1.197 3.5671 2.1173 5.083 3.0006 20.2037 11.7726 34.2209 16.9147 51.9496 16.9147 2.6807 0 4.8538-2.1801 4.8538-4.8694s-2.1731-4.8694-4.8538-4.8694c-15.6505 0-28.2195-4.6108-47.074-15.5972-1.4846-.8651-3.0176-1.771-5.0029-2.9534-.4388-.2613-4.018-2.3974-5.0806-3.029-27.5457-16.376-44.8584-22.9404-70.4272-22.9404-4.1303 0-8.148.2147-12.0708.6376-2.6654.2873-4.5939 2.6878-4.3075 5.3617.2864 2.6739 2.6792 4.6086 5.3445 4.3213z"/>
        </g>
      </g>
    </g>
    <g class="icon" mask="url(#b)">
      <g transform="rotate(67 1294.9199 3516.1875)">
        <path d="M0 0h512v512H0z"/>
      </g>
    </g>
    <g class="dec" fill-rule="nonzero" mask="url(#b)">
      <g transform="translate(1511.32 2410.155)">
        <path d="M38.8602 262.2506l31.279-55.0887c1.3269-2.3368.5142-5.3102-1.815-6.6412-2.3293-1.3311-5.2932-.5158-6.62 1.821L26.292 264.7098c-1.8432 3.2462.4936 7.2795 4.2175 7.2795h194.1507c2.6807 0 4.8538-2.1801 4.8538-4.8694s-2.1731-4.8694-4.8538-4.8694h-185.8zM84.596 183.3678l8.3207-13.9125c1.3792-2.306.6338-5.2971-1.6648-6.6808-2.2987-1.3836-5.2802-.6358-6.6594 1.6702l-8.3207 13.9125c-1.3792 2.306-.6338 5.2971 1.6648 6.6808 2.2987 1.3836 5.2802.6358 6.6593-1.6702zM158.0533 56.9092L277.236 262.2506h-30.3872c-2.6807 0-4.8538 2.1801-4.8538 4.8694s2.1731 4.8694 4.8538 4.8694h38.8301c3.7444 0 6.0787-4.0734 4.1945-7.3196L162.2887 44.8523c-1.863-3.2097-6.478-3.2294-8.368-.0358l-52.6981 89.04c-1.3686 2.3124-.6095 5.3 1.6955 6.673 2.305 1.373 5.283.6114 6.6515-1.701l48.4837-81.9193z"/>
      </g>
    </g>
    <g fill-rule="nonzero" mask="url(#b)">
      <g transform="translate(1511.32 1742.355)">
        <g class="dec" transform="rotate(-60 139.2494 164.1642)">
          <path d="M30.5094 205.2094c18.0124 0 31.7313-5.2352 51.8238-17.4516 1.3306-.809 2.6893-1.6448 4.4872-2.7578-.102.0632 3.47-2.1506 4.478-2.773 25.1696-15.5387 40.6171-21.5376 64.0222-21.5376 14.2391 0 26.9116 2.7303 39.6258 8.0198 2.4761 1.0302 5.316-.1485 6.3428-2.6326 1.0269-2.4842-.148-5.333-2.6242-6.3633-13.851-5.7624-27.7762-8.7627-43.3444-8.7627-25.595 0-42.546 6.5829-69.1098 22.9824a5455.658 5455.658 0 0 0-4.488 2.779c-1.7778 1.1006-3.1165 1.924-4.421 2.7172-18.7106 11.3762-30.9359 16.0414-46.7924 16.0414-2.6807 0-4.8538 2.1801-4.8538 4.8694s2.1731 4.8694 4.8538 4.8694zM217.0716 180.0686a611.6904 611.6904 0 0 1 3.7273 2.2005c1.054.6266 4.6285 2.7598 5.0738 3.025 2.0097 1.197 3.5671 2.1173 5.083 3.0006 20.2037 11.7726 34.2209 16.9147 51.9496 16.9147 2.6807 0 4.8538-2.1801 4.8538-4.8694s-2.1731-4.8694-4.8538-4.8694c-15.6505 0-28.2195-4.6108-47.074-15.5972-1.4846-.8651-3.0176-1.771-5.0029-2.9534-.4388-.2613-4.018-2.3974-5.0806-3.029a621.0036 621.0036 0 0 0-3.7859-2.235c-2.3156-1.3549-5.2876-.5699-6.638 1.7532-1.3505 2.3231-.568 5.3047 1.7477 6.6594zM30.5094 244.1644c9.6382 0 18.6186-1.7321 27.597-5.0877 2.512-.9388 3.7898-3.7428 2.854-6.263-.9358-2.52-3.7308-3.8019-6.2428-2.863-7.9276 2.9628-15.7676 4.475-24.2082 4.475-2.6807 0-4.8538 2.18-4.8538 4.8693s2.1731 4.8694 4.8538 4.8694zM83.374 226.078c1.8008-1.1015 8.3552-5.1619 7.9245-4.896 25.1695-15.5387 40.617-21.5376 64.022-21.5376 23.4312 0 39.301 6.0173 65.4784 21.5797 1.054.6266 4.6285 2.7598 5.0738 3.025 2.0097 1.197 3.5671 2.1173 5.083 3.0006 20.2037 11.7726 34.2209 16.9147 51.9496 16.9147 2.6807 0 4.8538-2.1801 4.8538-4.8694s-2.1731-4.8694-4.8538-4.8694c-15.6505 0-28.2195-4.6108-47.074-15.5972-1.4846-.8651-3.0176-1.771-5.0029-2.9534-.4388-.2613-4.018-2.3974-5.0806-3.029-27.5457-16.376-44.8584-22.9404-70.4272-22.9404-25.595 0-42.546 6.5829-69.1098 22.9824.409-.2525-6.1173 3.7903-7.8905 4.875-2.2888 1.4-3.0129 4.3963-1.6173 6.6925 1.3955 2.296 4.3822 3.0225 6.671 1.6225z"/>
          <path d="M30.5094 166.2544c18.0124 0 31.7313-5.2352 51.8238-17.4516 1.3306-.809 2.6893-1.6448 4.4872-2.7578-.102.0632 3.47-2.1506 4.478-2.773 25.1696-15.5387 40.6171-21.5376 64.0222-21.5376 23.4311 0 39.3009 6.0173 65.4783 21.5797 1.054.6266 4.6285 2.7598 5.0738 3.025 2.0097 1.197 3.5671 2.1173 5.083 3.0006 20.2037 11.7726 34.2209 16.9147 51.9496 16.9147 2.6807 0 4.8538-2.1801 4.8538-4.8694s-2.1731-4.8694-4.8538-4.8694c-15.6505 0-28.2195-4.6108-47.074-15.5972-1.4846-.8651-3.0176-1.771-5.0029-2.9534-.4388-.2613-4.018-2.3974-5.0806-3.029-27.5457-16.376-44.8584-22.9404-70.4272-22.9404-25.595 0-42.546 6.5829-69.1098 22.9824a5455.658 5455.658 0 0 0-4.488 2.779c-1.7778 1.1006-3.1165 1.924-4.421 2.7172-18.7106 11.3762-30.9359 16.0414-46.7924 16.0414-2.6807 0-4.8538 2.1801-4.8538 4.8694s2.1731 4.8694 4.8538 4.8694zM30.5094 127.2994c18.0124 0 31.7313-5.2352 51.8238-17.4516a587.9895 587.9895 0 0 0 3.664-2.2486c.8591-.5309 1.8274-1.131 3.6542-2.2634 2.281-1.4129 2.9883-4.4132 1.58-6.7014-1.4084-2.2883-4.3991-2.998-6.68-1.585a3255.3018 3255.3018 0 0 1-3.6454 2.258 578.7314 578.7314 0 0 1-3.6042 2.2118c-18.7106 11.3762-30.9359 16.0414-46.7924 16.0414-2.6807 0-4.8538 2.1801-4.8538 4.8694s2.1731 4.8694 4.8538 4.8694zM110.8325 93.2622c3.1919-1.552 6.3285-2.9187 9.4793-4.1172 2.5065-.9534 3.768-3.7648 2.8176-6.2794-.9504-2.5146-3.7527-3.7802-6.2593-2.8268-3.429 1.3044-6.8286 2.7857-10.2715 4.4598-2.4123 1.173-3.42 4.0856-2.2508 6.5056 1.1691 2.42 4.0725 3.431 6.4847 2.258zM144.2868 83.3612c3.5774-.3856 7.249-.5818 11.0338-.5818 23.4311 0 39.3009 6.0173 65.4783 21.5797 1.054.6266 4.6285 2.7598 5.0738 3.025 2.0097 1.197 3.5671 2.1173 5.083 3.0006 20.2037 11.7726 34.2209 16.9147 51.9496 16.9147 2.6807 0 4.8538-2.1801 4.8538-4.8694s-2.1731-4.8694-4.8538-4.8694c-15.6505 0-28.2195-4.6108-47.074-15.5972-1.4846-.8651-3.0176-1.771-5.0029-2.9534-.4388-.2613-4.018-2.3974-5.0806-3.029-27.5457-16.376-44.8584-22.9404-70.4272-22.9404-4.1303 0-8.148.2147-12.0708.6376-2.6654.2873-4.5939 2.6878-4.3075 5.3617.2864 2.6739 2.6792 4.6086 5.3445 4.3213z"/>
        </g>
      </g>
    </g>
    <g class="icon" mask="url(#b)">
      <g transform="rotate(67 -822.0473 1898.382)">
        <path d="M0 0h512v512H0z"/>
      </g>
    </g>
    <g fill-rule="nonzero" mask="url(#b)">
      <g transform="translate(2623.32 2410.155)">
        <g class="dec" transform="rotate(-30 58.1663 237.9716)">
          <path d="M38.8602 262.2506l31.279-55.0887c1.3269-2.3368.5142-5.3102-1.815-6.6412-2.3293-1.3311-5.2932-.5158-6.62 1.821L26.292 264.7098c-1.8432 3.2462.4936 7.2795 4.2175 7.2795h194.1507c2.6807 0 4.8538-2.1801 4.8538-4.8694s-2.1731-4.8694-4.8538-4.8694h-185.8zM84.596 183.3678l8.3207-13.9125c1.3792-2.306.6338-5.2971-1.6648-6.6808-2.2987-1.3836-5.2802-.6358-6.6594 1.6702l-8.3207 13.9125c-1.3792 2.306-.6338 5.2971 1.6648 6.6808 2.2987 1.3836 5.2802.6358 6.6593-1.6702zM158.0533 56.9092L277.236 262.2506h-30.3872c-2.6807 0-4.8538 2.1801-4.8538 4.8694s2.1731 4.8694 4.8538 4.8694h38.8301c3.7444 0 6.0787-4.0734 4.1945-7.3196L162.2887 44.8523c-1.863-3.2097-6.478-3.2294-8.368-.0358l-52.6981 89.04c-1.3686 2.3124-.6095 5.3 1.6955 6.673 2.305 1.373 5.283.6114 6.6515-1.701l48.4837-81.9193z"/>
        </g>
      </g>
    </g>
    <g class="dec" fill-rule="nonzero" mask="url(#b)">
      <g transform="translate(2623.32 1742.355)">
        <path d="M196.7442 227.4271c13.3821-7.807 24.3566-19.2688 31.5862-33.0034 1.2518-2.378.345-5.3239-2.0255-6.5797-2.3704-1.2558-5.3068-.346-6.5586 2.032-6.3802 12.1207-16.0708 22.2417-27.8821 29.1324-2.3174 1.3519-3.1035 4.3324-1.7559 6.6572 1.3476 2.3248 4.3186 3.1134 6.6359 1.7615zM237.8346 155.82c0-7.5398-1.0061-14.9505-2.971-22.0869-.7136-2.5922-3.3869-4.1132-5.9708-3.3972-2.5839.716-4.1 3.3978-3.3863 5.99 1.7328 6.294 2.6206 12.8325 2.6206 19.4941 0 2.6893 2.1731 4.8694 4.8538 4.8694 2.6806 0 4.8537-2.1801 4.8537-4.8694zM222.8929 108.3006c-5.4527-7.79-12.2097-14.5938-19.9545-20.0929-13.8199-9.8125-30.3245-15.167-47.6178-15.167-20.9348 0-40.6588 7.8587-55.7735 21.773-1.9751 1.8182-2.107 4.8984-.2946 6.8799 1.8124 1.9815 4.8828 2.1138 6.858.2955 13.341-12.2813 30.7298-19.2097 49.21-19.2097 15.268 0 29.8166 4.72 42.0098 13.3776 6.8375 4.8548 12.8043 10.8629 17.6181 17.7402 1.5405 2.2009 4.5678 2.7322 6.7616 1.1867 2.1938-1.5454 2.7234-4.5824 1.1829-6.7833zM83.2723 115.4423c-6.828 12.2374-10.4658 26.0482-10.4658 40.3777 0 9.0729 1.457 17.9536 4.2817 26.3856 3.1223 9.3208 7.8826 17.9886 14.03 25.618 7.7423 9.6086 17.5398 17.3896 28.6553 22.7205 2.4185 1.1599 5.3164.1332 6.4725-2.293 1.1562-2.4263.1329-5.3335-2.2856-6.4934-9.8074-4.7035-18.4571-11.573-25.2927-20.0564-5.4254-6.7332-9.6245-14.3793-12.3777-22.598-2.4908-7.4354-3.776-15.2686-3.776-23.2833 0-12.653 3.2069-24.8277 9.2291-35.6209 1.3094-2.3466.4745-5.3138-1.8646-6.6274s-5.2968-.476-6.6062 1.8706z"/>
        <path d="M28.0445 156.0157c0 70.0802 56.9939 126.8914 127.2994 126.8914 47.1318 0 89.7161-25.7568 111.8584-66.2689 1.2866-2.354.4152-5.3019-1.9464-6.5844-2.3616-1.2824-5.319-.4138-6.6055 1.9402-20.453 37.4214-59.776 61.2056-103.3065 61.2056-64.927 0-117.5606-52.465-117.5606-117.1839 0-2.6806-2.1801-4.8537-4.8694-4.8537s-4.8694 2.173-4.8694 4.8537zM277.6685 190.4584c3.2016-11.2206 4.8427-22.8943 4.8427-34.7809 0-70.0802-56.9938-126.8914-127.2994-126.8914-14.7263 0-29.1172 2.4952-42.71 7.3197a126.7688 126.7688 0 0 0-13.2864 5.5855c-2.4144 1.1806-3.4115 4.0887-2.227 6.4954 1.1844 2.4066 4.1019 3.4005 6.5163 2.2199a117.013 117.013 0 0 1 12.2639-5.1557c12.5477-4.4536 25.834-6.7572 39.4432-6.7572 64.927 0 117.5607 52.465 117.5607 117.1838 0 10.9863-1.5155 21.7664-4.4712 32.1252-.7357 2.5784.7648 5.2631 3.3515 5.9965 2.5867.7333 5.28-.7624 6.0157-3.3408z"/>
      </g>
    </g>
    <g class="icon" mask="url(#b)">
      <g transform="rotate(157 1036.7598 1452.5953)">
        <path d="M0 0h512v512H0z"/>
      </g>
    </g>
    <g fill-rule="nonzero" mask="url(#b)">
      <g transform="translate(3735.32 2410.155)">
        <g class="dec" transform="rotate(30 152.7379 156.512)">
          <path d="M156.129 20.9724L290.4726 155.316l-75.2578 75.2578c-1.9016 1.9016-1.9065 4.9798-.011 6.8753 1.8955 1.8955 4.9737 1.8906 6.8753-.011l78.701-78.701c1.9016-1.9016 1.9065-4.9798.011-6.8753L159.5833 10.6539c-1.8956-1.8955-4.9737-1.8905-6.8753.011l-31.4804 31.4805c-1.9016 1.9016-1.9066 4.9798-.011 6.8753 1.8954 1.8955 4.9736 1.8905 6.8752-.011l28.0373-28.0373zM155.8705 290.0913L21.527 155.7478l92.9656-92.9655c1.9016-1.9016 1.9065-4.9798.011-6.8753-1.8955-1.8955-4.9737-1.8906-6.8753.011l-96.4087 96.4088c-1.9016 1.9016-1.9065 4.9797-.011 6.8753l141.2077 141.2077c1.8955 1.8955 4.9737 1.8906 6.8753-.011l25.5778-25.5779c1.9016-1.9016 1.9066-4.9798.011-6.8753-1.8955-1.8955-4.9736-1.8905-6.8752.011l-22.1347 22.1347z"/>
          <path d="M156.085 83.8323l71.5844 71.5845-12.297 12.297c-1.9016 1.9016-1.9066 4.9798-.011 6.8753 1.8954 1.8955 4.9736 1.8906 6.8752-.011l15.7402-15.7402c1.9016-1.9016 1.9066-4.9798.011-6.8753l-78.4487-78.4488c-1.8955-1.8955-4.9737-1.8905-6.8753.011l-51.1556 51.1557c-1.9016 1.9016-1.9066 4.9798-.011 6.8753 1.8955 1.8955 4.9736 1.8906 6.8752-.011l47.7125-47.7125zM155.9966 227.2314L80.98 152.2148c-1.8955-1.8955-4.9737-1.8906-6.8753.011-1.9016 1.9017-1.9065 4.9798-.011 6.8754l78.4487 78.4487c1.8955 1.8955 4.9737 1.8906 6.8753-.011l17.7077-17.7078c1.9017-1.9016 1.9066-4.9798.011-6.8753-1.8954-1.8955-4.9736-1.8905-6.8752.011l-14.2646 14.2646zM201.6407 181.6126l-17.7077 17.7077c-1.9017 1.9016-1.9066 4.9798-.011 6.8753 1.8954 1.8955 4.9736 1.8906 6.8752-.011l17.7077-17.7077c1.9017-1.9016 1.9066-4.9798.011-6.8753-1.8954-1.8956-4.9736-1.8906-6.8752.011zM199.6637 246.541l-7.8701 7.87c-1.9016 1.9016-1.9066 4.9798-.011 6.8753 1.8955 1.8955 4.9737 1.8906 6.8753-.011l7.87-7.8701c1.9017-1.9016 1.9066-4.9798.0111-6.8753-1.8955-1.8955-4.9737-1.8906-6.8753.011z"/>
        </g>
      </g>
    </g>
    <g class="dec" fill-rule="nonzero" mask="url(#b)">
      <g transform="translate(3735.32 1742.355)">
        <g transform="rotate(30 245.5338 212.067)">
          <path d="M38.8602 262.2506l31.279-55.0887c1.3269-2.3368.5142-5.3102-1.815-6.6412-2.3293-1.3311-5.2932-.5158-6.62 1.821L26.292 264.7098c-1.8432 3.2462.4936 7.2795 4.2175 7.2795h194.1507c2.6807 0 4.8538-2.1801 4.8538-4.8694s-2.1731-4.8694-4.8538-4.8694h-185.8zM84.596 183.3678l8.3207-13.9125c1.3792-2.306.6338-5.2971-1.6648-6.6808-2.2987-1.3836-5.2802-.6358-6.6594 1.6702l-8.3207 13.9125c-1.3792 2.306-.6338 5.2971 1.6648 6.6808 2.2987 1.3836 5.2802.6358 6.6593-1.6702zM158.0533 56.9092L277.236 262.2506h-30.3872c-2.6807 0-4.8538 2.1801-4.8538 4.8694s2.1731 4.8694 4.8538 4.8694h38.8301c3.7444 0 6.0787-4.0734 4.1945-7.3196L162.2887 44.8523c-1.863-3.2097-6.478-3.2294-8.368-.0358l-52.6981 89.04c-1.3686 2.3124-.6095 5.3 1.6955 6.673 2.305 1.373 5.283.6114 6.6515-1.701l48.4837-81.9193z"/>
        </g>
      </g>
    </g>
    <g class="icon" mask="url(#b)">
      <g transform="rotate(112 1123.3523 2290.9059)">
        <path d="M0 0h512v512H0z"/>
      </g>
    </g>
    <g class="dec" fill-rule="nonzero" mask="url(#b)">
      <g transform="translate(2067.32 3373.155)">
        <path d="M38.8602 262.2506l31.279-55.0887c1.3269-2.3368.5142-5.3102-1.815-6.6412-2.3293-1.3311-5.2932-.5158-6.62 1.821L26.292 264.7098c-1.8432 3.2462.4936 7.2795 4.2175 7.2795h194.1507c2.6807 0 4.8538-2.1801 4.8538-4.8694s-2.1731-4.8694-4.8538-4.8694h-185.8zM84.596 183.3678l8.3207-13.9125c1.3792-2.306.6338-5.2971-1.6648-6.6808-2.2987-1.3836-5.2802-.6358-6.6594 1.6702l-8.3207 13.9125c-1.3792 2.306-.6338 5.2971 1.6648 6.6808 2.2987 1.3836 5.2802.6358 6.6593-1.6702zM158.0533 56.9092L277.236 262.2506h-30.3872c-2.6807 0-4.8538 2.1801-4.8538 4.8694s2.1731 4.8694 4.8538 4.8694h38.8301c3.7444 0 6.0787-4.0734 4.1945-7.3196L162.2887 44.8523c-1.863-3.2097-6.478-3.2294-8.368-.0358l-52.6981 89.04c-1.3686 2.3124-.6095 5.3 1.6955 6.673 2.305 1.373 5.283.6114 6.6515-1.701l48.4837-81.9193z"/>
      </g>
    </g>
    <g fill-rule="nonzero" mask="url(#b)">
      <g transform="translate(2067.32 2705.355)">
        <g class="dec" transform="rotate(30 200.5126 168.6588)">
          <path d="M30.5094 205.2094c18.0124 0 31.7313-5.2352 51.8238-17.4516 1.3306-.809 2.6893-1.6448 4.4872-2.7578-.102.0632 3.47-2.1506 4.478-2.773 25.1696-15.5387 40.6171-21.5376 64.0222-21.5376 14.2391 0 26.9116 2.7303 39.6258 8.0198 2.4761 1.0302 5.316-.1485 6.3428-2.6326 1.0269-2.4842-.148-5.333-2.6242-6.3633-13.851-5.7624-27.7762-8.7627-43.3444-8.7627-25.595 0-42.546 6.5829-69.1098 22.9824a5455.658 5455.658 0 0 0-4.488 2.779c-1.7778 1.1006-3.1165 1.924-4.421 2.7172-18.7106 11.3762-30.9359 16.0414-46.7924 16.0414-2.6807 0-4.8538 2.1801-4.8538 4.8694s2.1731 4.8694 4.8538 4.8694zM217.0716 180.0686a611.6904 611.6904 0 0 1 3.7273 2.2005c1.054.6266 4.6285 2.7598 5.0738 3.025 2.0097 1.197 3.5671 2.1173 5.083 3.0006 20.2037 11.7726 34.2209 16.9147 51.9496 16.9147 2.6807 0 4.8538-2.1801 4.8538-4.8694s-2.1731-4.8694-4.8538-4.8694c-15.6505 0-28.2195-4.6108-47.074-15.5972-1.4846-.8651-3.0176-1.771-5.0029-2.9534-.4388-.2613-4.018-2.3974-5.0806-3.029a621.0036 621.0036 0 0 0-3.7859-2.235c-2.3156-1.3549-5.2876-.5699-6.638 1.7532-1.3505 2.3231-.568 5.3047 1.7477 6.6594zM30.5094 244.1644c9.6382 0 18.6186-1.7321 27.597-5.0877 2.512-.9388 3.7898-3.7428 2.854-6.263-.9358-2.52-3.7308-3.8019-6.2428-2.863-7.9276 2.9628-15.7676 4.475-24.2082 4.475-2.6807 0-4.8538 2.18-4.8538 4.8693s2.1731 4.8694 4.8538 4.8694zM83.374 226.078c1.8008-1.1015 8.3552-5.1619 7.9245-4.896 25.1695-15.5387 40.617-21.5376 64.022-21.5376 23.4312 0 39.301 6.0173 65.4784 21.5797 1.054.6266 4.6285 2.7598 5.0738 3.025 2.0097 1.197 3.5671 2.1173 5.083 3.0006 20.2037 11.7726 34.2209 16.9147 51.9496 16.9147 2.6807 0 4.8538-2.1801 4.8538-4.8694s-2.1731-4.8694-4.8538-4.8694c-15.6505 0-28.2195-4.6108-47.074-15.5972-1.4846-.8651-3.0176-1.771-5.0029-2.9534-.4388-.2613-4.018-2.3974-5.0806-3.029-27.5457-16.376-44.8584-22.9404-70.4272-22.9404-25.595 0-42.546 6.5829-69.1098 22.9824.409-.2525-6.1173 3.7903-7.8905 4.875-2.2888 1.4-3.0129 4.3963-1.6173 6.6925 1.3955 2.296 4.3822 3.0225 6.671 1.6225z"/>
          <path d="M30.5094 166.2544c18.0124 0 31.7313-5.2352 51.8238-17.4516 1.3306-.809 2.6893-1.6448 4.4872-2.7578-.102.0632 3.47-2.1506 4.478-2.773 25.1696-15.5387 40.6171-21.5376 64.0222-21.5376 23.4311 0 39.3009 6.0173 65.4783 21.5797 1.054.6266 4.6285 2.7598 5.0738 3.025 2.0097 1.197 3.5671 2.1173 5.083 3.0006 20.2037 11.7726 34.2209 16.9147 51.9496 16.9147 2.6807 0 4.8538-2.1801 4.8538-4.8694s-2.1731-4.8694-4.8538-4.8694c-15.6505 0-28.2195-4.6108-47.074-15.5972-1.4846-.8651-3.0176-1.771-5.0029-2.9534-.4388-.2613-4.018-2.3974-5.0806-3.029-27.5457-16.376-44.8584-22.9404-70.4272-22.9404-25.595 0-42.546 6.5829-69.1098 22.9824a5455.658 5455.658 0 0 0-4.488 2.779c-1.7778 1.1006-3.1165 1.924-4.421 2.7172-18.7106 11.3762-30.9359 16.0414-46.7924 16.0414-2.6807 0-4.8538 2.1801-4.8538 4.8694s2.1731 4.8694 4.8538 4.8694zM30.5094 127.2994c18.0124 0 31.7313-5.2352 51.8238-17.4516a587.9895 587.9895 0 0 0 3.664-2.2486c.8591-.5309 1.8274-1.131 3.6542-2.2634 2.281-1.4129 2.9883-4.4132 1.58-6.7014-1.4084-2.2883-4.3991-2.998-6.68-1.585a3255.3018 3255.3018 0 0 1-3.6454 2.258 578.7314 578.7314 0 0 1-3.6042 2.2118c-18.7106 11.3762-30.9359 16.0414-46.7924 16.0414-2.6807 0-4.8538 2.1801-4.8538 4.8694s2.1731 4.8694 4.8538 4.8694zM110.8325 93.2622c3.1919-1.552 6.3285-2.9187 9.4793-4.1172 2.5065-.9534 3.768-3.7648 2.8176-6.2794-.9504-2.5146-3.7527-3.7802-6.2593-2.8268-3.429 1.3044-6.8286 2.7857-10.2715 4.4598-2.4123 1.173-3.42 4.0856-2.2508 6.5056 1.1691 2.42 4.0725 3.431 6.4847 2.258zM144.2868 83.3612c3.5774-.3856 7.249-.5818 11.0338-.5818 23.4311 0 39.3009 6.0173 65.4783 21.5797 1.054.6266 4.6285 2.7598 5.0738 3.025 2.0097 1.197 3.5671 2.1173 5.083 3.0006 20.2037 11.7726 34.2209 16.9147 51.9496 16.9147 2.6807 0 4.8538-2.1801 4.8538-4.8694s-2.1731-4.8694-4.8538-4.8694c-15.6505 0-28.2195-4.6108-47.074-15.5972-1.4846-.8651-3.0176-1.771-5.0029-2.9534-.4388-.2613-4.018-2.3974-5.0806-3.029-27.5457-16.376-44.8584-22.9404-70.4272-22.9404-4.1303 0-8.148.2147-12.0708.6376-2.6654.2873-4.5939 2.6878-4.3075 5.3617.2864 2.6739 2.6792 4.6086 5.3445 4.3213z"/>
        </g>
      </g>
    </g>
    <g class="icon" mask="url(#b)">
      <g transform="rotate(22 -6642.1508 5363.4829)">
        <path d="M0 0h512v512H0z"/>
      </g>
    </g>
    <g class="dec" fill-rule="nonzero" mask="url(#b)">
      <g transform="translate(3179.32 3373.155)">
        <path d="M36.0374 152.0957l84.0437-48.5226c2.3215-1.3404 3.1134-4.315 1.7688-6.644-1.3446-2.3289-4.3166-3.1304-6.6382-1.79L23.936 147.837c-3.225 1.862-3.232 6.5233-.0127 8.413l217.9984 127.962c3.2519 1.9088 7.3321-.447 7.305-4.2176l-.4152-57.696c-.0194-2.6871-2.2099-4.8558-4.8926-4.844-2.6828.012-4.8419 2.2-4.8225 4.887l.3537 49.1546L36.0374 152.0957zM238.9687 196.312c.0194 2.6871 2.2099 4.8558 4.8926 4.844 2.6828-.012 4.8419-2.2 4.8225-4.887l-1.218-169.2585c-.027-3.7329-4.0673-6.0574-7.2923-4.1955l-33.6279 19.4151c-2.3215 1.3403-3.1134 4.3149-1.7688 6.6439 1.3447 2.329 4.3167 3.1304 6.6382 1.7901l26.3959-15.2397 1.1578 160.8876zM173.0357 61.7185l-16.814 9.7075c-2.3215 1.3403-3.1134 4.3149-1.7688 6.6439 1.3447 2.329 4.3167 3.1304 6.6382 1.7901l16.814-9.7075c2.3215-1.3404 3.1134-4.315 1.7688-6.644-1.3447-2.329-4.3167-3.1304-6.6382-1.79z"/>
        <path d="M196.2708 107.7234l1.4062 91.4673-26.1168-14.9715c-2.3312-1.3363-5.2974-.5298-6.6251 1.8014-1.3278 2.3313-.5143 5.3045 1.8169 6.6409l33.509 19.209c3.2672 1.873 7.319-.5167 7.2612-4.2825l-1.6647-108.2793c-.0571-3.715-4.082-6.0088-7.2918-4.1557L104.888 149.238c-3.251 1.877-3.2254 6.5874.046 8.4469l41.1965 23.417c2.336 1.3278 5.2992.5104 6.6185-1.8257 1.3192-2.3361.495-5.3064-1.8411-6.6342l-33.801-19.2132 79.1639-45.7053z"/>
      </g>
    </g>
    <g class="dec" fill-rule="nonzero" mask="url(#b)">
      <g transform="translate(3179.32 2705.355)">
        <path d="M38.8602 262.2506l31.279-55.0887c1.3269-2.3368.5142-5.3102-1.815-6.6412-2.3293-1.3311-5.2932-.5158-6.62 1.821L26.292 264.7098c-1.8432 3.2462.4936 7.2795 4.2175 7.2795h194.1507c2.6807 0 4.8538-2.1801 4.8538-4.8694s-2.1731-4.8694-4.8538-4.8694h-185.8zM84.596 183.3678l8.3207-13.9125c1.3792-2.306.6338-5.2971-1.6648-6.6808-2.2987-1.3836-5.2802-.6358-6.6594 1.6702l-8.3207 13.9125c-1.3792 2.306-.6338 5.2971 1.6648 6.6808 2.2987 1.3836 5.2802.6358 6.6593-1.6702zM158.0533 56.9092L277.236 262.2506h-30.3872c-2.6807 0-4.8538 2.1801-4.8538 4.8694s2.1731 4.8694 4.8538 4.8694h38.8301c3.7444 0 6.0787-4.0734 4.1945-7.3196L162.2887 44.8523c-1.863-3.2097-6.478-3.2294-8.368-.0358l-52.6981 89.04c-1.3686 2.3124-.6095 5.3 1.6955 6.673 2.305 1.373 5.283.6114 6.6515-1.701l48.4837-81.9193z"/>
      </g>
    </g>
    <g class="icon" mask="url(#b)">
      <g transform="rotate(-113 2495.7669 899.0314)">
        <path d="M0 0h512v512H0z"/>
      </g>
    </g>
    <g class="dec" fill-rule="nonzero" mask="url(#b)">
      <g transform="translate(399.32 2410.155)">
        <g transform="rotate(60 154.122 156.512)">
          <path d="M52.0203 229.765c7.5895 10.6524 16.7779 20.0849 27.2181 27.9431 2.1442 1.614 5.1867 1.1785 6.7955-.9726 1.6087-2.1512 1.1747-5.2034-.9696-6.8173-9.6454-7.26-18.135-15.9752-25.1465-25.8162-1.5588-2.1879-4.5903-2.6938-6.7712-1.13-2.1808 1.5638-2.6851 4.6051-1.1263 6.793zM224.0066 48.7651c-20.3173-13.1455-43.9837-20.2445-68.686-20.2445-70.0802 0-126.8914 56.9939-126.8914 127.2994 0 12.5337 1.8073 24.83 5.3265 36.6076.7697 2.576 3.4753 4.0384 6.043 3.2662 2.5678-.7722 4.0254-3.4865 3.2557-6.0625-3.2488-10.8729-4.9177-22.2272-4.9177-33.8113 0-64.927 52.465-117.5606 117.1839-117.5606 22.822 0 44.6641 6.5518 63.4245 18.69 2.2528 1.4576 5.2569.807 6.7098-1.453 1.4529-2.26.8044-5.2737-1.4483-6.7313zM155.3206 283.1194c70.0801 0 126.8913-56.9939 126.8913-127.2994 0-37.0177-15.8443-71.477-42.978-95.492-2.0103-1.7791-5.0775-1.5866-6.851.43-1.7734 2.0167-1.5815 5.0938.4287 6.873 25.0665 22.1853 39.6928 53.9956 39.6928 88.189 0 64.927-52.465 117.5606-117.1838 117.5606-2.6807 0-4.8538 2.1801-4.8538 4.8694s2.1731 4.8694 4.8538 4.8694z"/>
        </g>
      </g>
    </g>
    <g class="dec" fill-rule="nonzero" mask="url(#b)">
      <g transform="translate(399.32 1742.355)">
        <g transform="rotate(90 154.6285 156.512)">
          <path d="M156.129 20.9724L290.4726 155.316l-75.2578 75.2578c-1.9016 1.9016-1.9065 4.9798-.011 6.8753 1.8955 1.8955 4.9737 1.8906 6.8753-.011l78.701-78.701c1.9016-1.9016 1.9065-4.9798.011-6.8753L159.5833 10.6539c-1.8956-1.8955-4.9737-1.8905-6.8753.011l-31.4804 31.4805c-1.9016 1.9016-1.9066 4.9798-.011 6.8753 1.8954 1.8955 4.9736 1.8905 6.8752-.011l28.0373-28.0373zM155.8705 290.0913L21.527 155.7478l92.9656-92.9655c1.9016-1.9016 1.9065-4.9798.011-6.8753-1.8955-1.8955-4.9737-1.8906-6.8753.011l-96.4087 96.4088c-1.9016 1.9016-1.9065 4.9797-.011 6.8753l141.2077 141.2077c1.8955 1.8955 4.9737 1.8906 6.8753-.011l25.5778-25.5779c1.9016-1.9016 1.9066-4.9798.011-6.8753-1.8955-1.8955-4.9736-1.8905-6.8752.011l-22.1347 22.1347z"/>
          <path d="M156.085 83.8323l71.5844 71.5845-12.297 12.297c-1.9016 1.9016-1.9066 4.9798-.011 6.8753 1.8954 1.8955 4.9736 1.8906 6.8752-.011l15.7402-15.7402c1.9016-1.9016 1.9066-4.9798.011-6.8753l-78.4487-78.4488c-1.8955-1.8955-4.9737-1.8905-6.8753.011l-51.1556 51.1557c-1.9016 1.9016-1.9066 4.9798-.011 6.8753 1.8955 1.8955 4.9736 1.8906 6.8752-.011l47.7125-47.7125zM155.9966 227.2314L80.98 152.2148c-1.8955-1.8955-4.9737-1.8906-6.8753.011-1.9016 1.9017-1.9065 4.9798-.011 6.8754l78.4487 78.4487c1.8955 1.8955 4.9737 1.8906 6.8753-.011l17.7077-17.7078c1.9017-1.9016 1.9066-4.9798.011-6.8753-1.8954-1.8955-4.9736-1.8905-6.8752.011l-14.2646 14.2646zM201.6407 181.6126l-17.7077 17.7077c-1.9017 1.9016-1.9066 4.9798-.011 6.8753 1.8954 1.8955 4.9736 1.8906 6.8752-.011l17.7077-17.7077c1.9017-1.9016 1.9066-4.9798.011-6.8753-1.8954-1.8956-4.9736-1.8906-6.8752.011zM199.6637 246.541l-7.8701 7.87c-1.9016 1.9016-1.9066 4.9798-.011 6.8753 1.8955 1.8955 4.9737 1.8906 6.8753-.011l7.87-7.8701c1.9017-1.9016 1.9066-4.9798.0111-6.8753-1.8955-1.8955-4.9737-1.8906-6.8753.011z"/>
        </g>
      </g>
    </g>
    <g class="icon" mask="url(#b)">
      <g transform="rotate(-158 321.2 1277.4779)">
        <path d="M0 0h512v512H0z"/>
      </g>
    </g>
    <g class="icon" mask="url(#b)">
      <g transform="rotate(-158 2545.2 845.176)">
        <path d="M0 0h512v512H0z"/>
      </g>
    </g>
    <g class="dec" fill-rule="nonzero" mask="url(#b)">
      <g transform="translate(955.32 3373.155)">
        <path d="M194.8441 278.9456H110.25V169.7325c0-2.6893-2.1731-4.8694-4.8538-4.8694s-4.8538 2.1801-4.8538 4.8694V283.815c0 2.6893 2.1731 4.8694 4.8538 4.8694h94.3018c2.6806 0 4.8538-2.1801 4.8538-4.8694V255.99c0-2.6893-2.1732-4.8694-4.8538-4.8694-2.6807 0-4.8538 2.1801-4.8538 4.8694v22.9556zM110.2499 32.6944h84.5942V228.165c0 2.6893 2.1731 4.8694 4.8538 4.8694 2.6806 0 4.8538-2.1801 4.8538-4.8694V27.825c0-2.6893-2.1732-4.8694-4.8538-4.8694H105.396c-2.6807 0-4.8538 2.1801-4.8538 4.8694v41.7375c0 2.6893 2.1731 4.8694 4.8538 4.8694s4.8538-2.1801 4.8538-4.8694V32.6944zM110.2499 141.9075v-50.085c0-2.6893-2.1731-4.8694-4.8538-4.8694s-4.8538 2.1801-4.8538 4.8694v50.085c0 2.6893 2.1731 4.8694 4.8538 4.8694s4.8538-2.1801 4.8538-4.8694z"/>
      </g>
    </g>
    <g class="dec" fill-rule="nonzero" mask="url(#b)">
      <g transform="translate(955.32 2705.355)">
        <path d="M38.8602 262.2506l31.279-55.0887c1.3269-2.3368.5142-5.3102-1.815-6.6412-2.3293-1.3311-5.2932-.5158-6.62 1.821L26.292 264.7098c-1.8432 3.2462.4936 7.2795 4.2175 7.2795h194.1507c2.6807 0 4.8538-2.1801 4.8538-4.8694s-2.1731-4.8694-4.8538-4.8694h-185.8zM84.596 183.3678l8.3207-13.9125c1.3792-2.306.6338-5.2971-1.6648-6.6808-2.2987-1.3836-5.2802-.6358-6.6594 1.6702l-8.3207 13.9125c-1.3792 2.306-.6338 5.2971 1.6648 6.6808 2.2987 1.3836 5.2802.6358 6.6593-1.6702zM158.0533 56.9092L277.236 262.2506h-30.3872c-2.6807 0-4.8538 2.1801-4.8538 4.8694s2.1731 4.8694 4.8538 4.8694h38.8301c3.7444 0 6.0787-4.0734 4.1945-7.3196L162.2887 44.8523c-1.863-3.2097-6.478-3.2294-8.368-.0358l-52.6981 89.04c-1.3686 2.3124-.6095 5.3 1.6955 6.673 2.305 1.373 5.283.6114 6.6515-1.701l48.4837-81.9193z"/>
      </g>
    </g>
    <g class="icon" mask="url(#b)">
      <g transform="rotate(-68 2596.7251 1512.3571)">
        <path d="M0 0h512v512H0z"/>
      </g>
    </g>
    <g class="dec" fill-rule="nonzero" mask="url(#b)">
      <g transform="translate(4291.32 3373.155)">
        <path d="M30.5094 205.2094c18.0124 0 31.7313-5.2352 51.8238-17.4516 1.3306-.809 2.6893-1.6448 4.4872-2.7578-.102.0632 3.47-2.1506 4.478-2.773 25.1696-15.5387 40.6171-21.5376 64.0222-21.5376 14.2391 0 26.9116 2.7303 39.6258 8.0198 2.4761 1.0302 5.316-.1485 6.3428-2.6326 1.0269-2.4842-.148-5.333-2.6242-6.3633-13.851-5.7624-27.7762-8.7627-43.3444-8.7627-25.595 0-42.546 6.5829-69.1098 22.9824a5455.658 5455.658 0 0 0-4.488 2.779c-1.7778 1.1006-3.1165 1.924-4.421 2.7172-18.7106 11.3762-30.9359 16.0414-46.7924 16.0414-2.6807 0-4.8538 2.1801-4.8538 4.8694s2.1731 4.8694 4.8538 4.8694zM217.0716 180.0686a611.6904 611.6904 0 0 1 3.7273 2.2005c1.054.6266 4.6285 2.7598 5.0738 3.025 2.0097 1.197 3.5671 2.1173 5.083 3.0006 20.2037 11.7726 34.2209 16.9147 51.9496 16.9147 2.6807 0 4.8538-2.1801 4.8538-4.8694s-2.1731-4.8694-4.8538-4.8694c-15.6505 0-28.2195-4.6108-47.074-15.5972-1.4846-.8651-3.0176-1.771-5.0029-2.9534-.4388-.2613-4.018-2.3974-5.0806-3.029a621.0036 621.0036 0 0 0-3.7859-2.235c-2.3156-1.3549-5.2876-.5699-6.638 1.7532-1.3505 2.3231-.568 5.3047 1.7477 6.6594zM30.5094 244.1644c9.6382 0 18.6186-1.7321 27.597-5.0877 2.512-.9388 3.7898-3.7428 2.854-6.263-.9358-2.52-3.7308-3.8019-6.2428-2.863-7.9276 2.9628-15.7676 4.475-24.2082 4.475-2.6807 0-4.8538 2.18-4.8538 4.8693s2.1731 4.8694 4.8538 4.8694zM83.374 226.078c1.8008-1.1015 8.3552-5.1619 7.9245-4.896 25.1695-15.5387 40.617-21.5376 64.022-21.5376 23.4312 0 39.301 6.0173 65.4784 21.5797 1.054.6266 4.6285 2.7598 5.0738 3.025 2.0097 1.197 3.5671 2.1173 5.083 3.0006 20.2037 11.7726 34.2209 16.9147 51.9496 16.9147 2.6807 0 4.8538-2.1801 4.8538-4.8694s-2.1731-4.8694-4.8538-4.8694c-15.6505 0-28.2195-4.6108-47.074-15.5972-1.4846-.8651-3.0176-1.771-5.0029-2.9534-.4388-.2613-4.018-2.3974-5.0806-3.029-27.5457-16.376-44.8584-22.9404-70.4272-22.9404-25.595 0-42.546 6.5829-69.1098 22.9824.409-.2525-6.1173 3.7903-7.8905 4.875-2.2888 1.4-3.0129 4.3963-1.6173 6.6925 1.3955 2.296 4.3822 3.0225 6.671 1.6225z"/>
        <path d="M30.5094 166.2544c18.0124 0 31.7313-5.2352 51.8238-17.4516 1.3306-.809 2.6893-1.6448 4.4872-2.7578-.102.0632 3.47-2.1506 4.478-2.773 25.1696-15.5387 40.6171-21.5376 64.0222-21.5376 23.4311 0 39.3009 6.0173 65.4783 21.5797 1.054.6266 4.6285 2.7598 5.0738 3.025 2.0097 1.197 3.5671 2.1173 5.083 3.0006 20.2037 11.7726 34.2209 16.9147 51.9496 16.9147 2.6807 0 4.8538-2.1801 4.8538-4.8694s-2.1731-4.8694-4.8538-4.8694c-15.6505 0-28.2195-4.6108-47.074-15.5972-1.4846-.8651-3.0176-1.771-5.0029-2.9534-.4388-.2613-4.018-2.3974-5.0806-3.029-27.5457-16.376-44.8584-22.9404-70.4272-22.9404-25.595 0-42.546 6.5829-69.1098 22.9824a5455.658 5455.658 0 0 0-4.488 2.779c-1.7778 1.1006-3.1165 1.924-4.421 2.7172-18.7106 11.3762-30.9359 16.0414-46.7924 16.0414-2.6807 0-4.8538 2.1801-4.8538 4.8694s2.1731 4.8694 4.8538 4.8694zM30.5094 127.2994c18.0124 0 31.7313-5.2352 51.8238-17.4516a587.9895 587.9895 0 0 0 3.664-2.2486c.8591-.5309 1.8274-1.131 3.6542-2.2634 2.281-1.4129 2.9883-4.4132 1.58-6.7014-1.4084-2.2883-4.3991-2.998-6.68-1.585a3255.3018 3255.3018 0 0 1-3.6454 2.258 578.7314 578.7314 0 0 1-3.6042 2.2118c-18.7106 11.3762-30.9359 16.0414-46.7924 16.0414-2.6807 0-4.8538 2.1801-4.8538 4.8694s2.1731 4.8694 4.8538 4.8694zM110.8325 93.2622c3.1919-1.552 6.3285-2.9187 9.4793-4.1172 2.5065-.9534 3.768-3.7648 2.8176-6.2794-.9504-2.5146-3.7527-3.7802-6.2593-2.8268-3.429 1.3044-6.8286 2.7857-10.2715 4.4598-2.4123 1.173-3.42 4.0856-2.2508 6.5056 1.1691 2.42 4.0725 3.431 6.4847 2.258zM144.2868 83.3612c3.5774-.3856 7.249-.5818 11.0338-.5818 23.4311 0 39.3009 6.0173 65.4783 21.5797 1.054.6266 4.6285 2.7598 5.0738 3.025 2.0097 1.197 3.5671 2.1173 5.083 3.0006 20.2037 11.7726 34.2209 16.9147 51.9496 16.9147 2.6807 0 4.8538-2.1801 4.8538-4.8694s-2.1731-4.8694-4.8538-4.8694c-15.6505 0-28.2195-4.6108-47.074-15.5972-1.4846-.8651-3.0176-1.771-5.0029-2.9534-.4388-.2613-4.018-2.3974-5.0806-3.029-27.5457-16.376-44.8584-22.9404-70.4272-22.9404-4.1303 0-8.148.2147-12.0708.6376-2.6654.2873-4.5939 2.6878-4.3075 5.3617.2864 2.6739 2.6792 4.6086 5.3445 4.3213z"/>
      </g>
    </g>
    <g fill-rule="nonzero" mask="url(#b)">
      <g transform="translate(4291.32 2705.355)">
        <g class="dec" transform="rotate(90 154.6285 156.512)">
          <path d="M196.7442 227.4271c13.3821-7.807 24.3566-19.2688 31.5862-33.0034 1.2518-2.378.345-5.3239-2.0255-6.5797-2.3704-1.2558-5.3068-.346-6.5586 2.032-6.3802 12.1207-16.0708 22.2417-27.8821 29.1324-2.3174 1.3519-3.1035 4.3324-1.7559 6.6572 1.3476 2.3248 4.3186 3.1134 6.6359 1.7615zM237.8346 155.82c0-7.5398-1.0061-14.9505-2.971-22.0869-.7136-2.5922-3.3869-4.1132-5.9708-3.3972-2.5839.716-4.1 3.3978-3.3863 5.99 1.7328 6.294 2.6206 12.8325 2.6206 19.4941 0 2.6893 2.1731 4.8694 4.8538 4.8694 2.6806 0 4.8537-2.1801 4.8537-4.8694zM222.8929 108.3006c-5.4527-7.79-12.2097-14.5938-19.9545-20.0929-13.8199-9.8125-30.3245-15.167-47.6178-15.167-20.9348 0-40.6588 7.8587-55.7735 21.773-1.9751 1.8182-2.107 4.8984-.2946 6.8799 1.8124 1.9815 4.8828 2.1138 6.858.2955 13.341-12.2813 30.7298-19.2097 49.21-19.2097 15.268 0 29.8166 4.72 42.0098 13.3776 6.8375 4.8548 12.8043 10.8629 17.6181 17.7402 1.5405 2.2009 4.5678 2.7322 6.7616 1.1867 2.1938-1.5454 2.7234-4.5824 1.1829-6.7833zM83.2723 115.4423c-6.828 12.2374-10.4658 26.0482-10.4658 40.3777 0 9.0729 1.457 17.9536 4.2817 26.3856 3.1223 9.3208 7.8826 17.9886 14.03 25.618 7.7423 9.6086 17.5398 17.3896 28.6553 22.7205 2.4185 1.1599 5.3164.1332 6.4725-2.293 1.1562-2.4263.1329-5.3335-2.2856-6.4934-9.8074-4.7035-18.4571-11.573-25.2927-20.0564-5.4254-6.7332-9.6245-14.3793-12.3777-22.598-2.4908-7.4354-3.776-15.2686-3.776-23.2833 0-12.653 3.2069-24.8277 9.2291-35.6209 1.3094-2.3466.4745-5.3138-1.8646-6.6274s-5.2968-.476-6.6062 1.8706z"/>
          <path d="M28.0445 156.0157c0 70.0802 56.9939 126.8914 127.2994 126.8914 47.1318 0 89.7161-25.7568 111.8584-66.2689 1.2866-2.354.4152-5.3019-1.9464-6.5844-2.3616-1.2824-5.319-.4138-6.6055 1.9402-20.453 37.4214-59.776 61.2056-103.3065 61.2056-64.927 0-117.5606-52.465-117.5606-117.1839 0-2.6806-2.1801-4.8537-4.8694-4.8537s-4.8694 2.173-4.8694 4.8537zM277.6685 190.4584c3.2016-11.2206 4.8427-22.8943 4.8427-34.7809 0-70.0802-56.9938-126.8914-127.2994-126.8914-14.7263 0-29.1172 2.4952-42.71 7.3197a126.7688 126.7688 0 0 0-13.2864 5.5855c-2.4144 1.1806-3.4115 4.0887-2.227 6.4954 1.1844 2.4066 4.1019 3.4005 6.5163 2.2199a117.013 117.013 0 0 1 12.2639-5.1557c12.5477-4.4536 25.834-6.7572 39.4432-6.7572 64.927 0 117.5607 52.465 117.5607 117.1838 0 10.9863-1.5155 21.7664-4.4712 32.1252-.7357 2.5784.7648 5.2631 3.3515 5.9965 2.5867.7333 5.28-.7624 6.0157-3.3408z"/>
        </g>
      </g>
    </g>
    <g class="icon" mask="url(#b)">
      <g transform="rotate(-23 9338.102 -7199.2979)">
        <path d="M0 0h512v512H0z"/>
      </g>
    </g>
    <g class="dec" fill-rule="nonzero" mask="url(#b)">
      <g transform="translate(399.32 3668.355)">
        <g transform="rotate(30 245.5338 212.067)">
          <path d="M38.8602 262.2506l31.279-55.0887c1.3269-2.3368.5142-5.3102-1.815-6.6412-2.3293-1.3311-5.2932-.5158-6.62 1.821L26.292 264.7098c-1.8432 3.2462.4936 7.2795 4.2175 7.2795h194.1507c2.6807 0 4.8538-2.1801 4.8538-4.8694s-2.1731-4.8694-4.8538-4.8694h-185.8zM84.596 183.3678l8.3207-13.9125c1.3792-2.306.6338-5.2971-1.6648-6.6808-2.2987-1.3836-5.2802-.6358-6.6594 1.6702l-8.3207 13.9125c-1.3792 2.306-.6338 5.2971 1.6648 6.6808 2.2987 1.3836 5.2802.6358 6.6593-1.6702zM158.0533 56.9092L277.236 262.2506h-30.3872c-2.6807 0-4.8538 2.1801-4.8538 4.8694s2.1731 4.8694 4.8538 4.8694h38.8301c3.7444 0 6.0787-4.0734 4.1945-7.3196L162.2887 44.8523c-1.863-3.2097-6.478-3.2294-8.368-.0358l-52.6981 89.04c-1.3686 2.3124-.6095 5.3 1.6955 6.673 2.305 1.373 5.283.6114 6.6515-1.701l48.4837-81.9193z"/>
        </g>
      </g>
    </g>
    <g fill-rule="nonzero" mask="url(#b)">
      <g transform="translate(1511.32 3668.355)">
        <g class="dec" transform="rotate(30 200.5126 168.6588)">
          <path d="M30.5094 205.2094c18.0124 0 31.7313-5.2352 51.8238-17.4516 1.3306-.809 2.6893-1.6448 4.4872-2.7578-.102.0632 3.47-2.1506 4.478-2.773 25.1696-15.5387 40.6171-21.5376 64.0222-21.5376 14.2391 0 26.9116 2.7303 39.6258 8.0198 2.4761 1.0302 5.316-.1485 6.3428-2.6326 1.0269-2.4842-.148-5.333-2.6242-6.3633-13.851-5.7624-27.7762-8.7627-43.3444-8.7627-25.595 0-42.546 6.5829-69.1098 22.9824a5455.658 5455.658 0 0 0-4.488 2.779c-1.7778 1.1006-3.1165 1.924-4.421 2.7172-18.7106 11.3762-30.9359 16.0414-46.7924 16.0414-2.6807 0-4.8538 2.1801-4.8538 4.8694s2.1731 4.8694 4.8538 4.8694zM217.0716 180.0686a611.6904 611.6904 0 0 1 3.7273 2.2005c1.054.6266 4.6285 2.7598 5.0738 3.025 2.0097 1.197 3.5671 2.1173 5.083 3.0006 20.2037 11.7726 34.2209 16.9147 51.9496 16.9147 2.6807 0 4.8538-2.1801 4.8538-4.8694s-2.1731-4.8694-4.8538-4.8694c-15.6505 0-28.2195-4.6108-47.074-15.5972-1.4846-.8651-3.0176-1.771-5.0029-2.9534-.4388-.2613-4.018-2.3974-5.0806-3.029a621.0036 621.0036 0 0 0-3.7859-2.235c-2.3156-1.3549-5.2876-.5699-6.638 1.7532-1.3505 2.3231-.568 5.3047 1.7477 6.6594zM30.5094 244.1644c9.6382 0 18.6186-1.7321 27.597-5.0877 2.512-.9388 3.7898-3.7428 2.854-6.263-.9358-2.52-3.7308-3.8019-6.2428-2.863-7.9276 2.9628-15.7676 4.475-24.2082 4.475-2.6807 0-4.8538 2.18-4.8538 4.8693s2.1731 4.8694 4.8538 4.8694zM83.374 226.078c1.8008-1.1015 8.3552-5.1619 7.9245-4.896 25.1695-15.5387 40.617-21.5376 64.022-21.5376 23.4312 0 39.301 6.0173 65.4784 21.5797 1.054.6266 4.6285 2.7598 5.0738 3.025 2.0097 1.197 3.5671 2.1173 5.083 3.0006 20.2037 11.7726 34.2209 16.9147 51.9496 16.9147 2.6807 0 4.8538-2.1801 4.8538-4.8694s-2.1731-4.8694-4.8538-4.8694c-15.6505 0-28.2195-4.6108-47.074-15.5972-1.4846-.8651-3.0176-1.771-5.0029-2.9534-.4388-.2613-4.018-2.3974-5.0806-3.029-27.5457-16.376-44.8584-22.9404-70.4272-22.9404-25.595 0-42.546 6.5829-69.1098 22.9824.409-.2525-6.1173 3.7903-7.8905 4.875-2.2888 1.4-3.0129 4.3963-1.6173 6.6925 1.3955 2.296 4.3822 3.0225 6.671 1.6225z"/>
          <path d="M30.5094 166.2544c18.0124 0 31.7313-5.2352 51.8238-17.4516 1.3306-.809 2.6893-1.6448 4.4872-2.7578-.102.0632 3.47-2.1506 4.478-2.773 25.1696-15.5387 40.6171-21.5376 64.0222-21.5376 23.4311 0 39.3009 6.0173 65.4783 21.5797 1.054.6266 4.6285 2.7598 5.0738 3.025 2.0097 1.197 3.5671 2.1173 5.083 3.0006 20.2037 11.7726 34.2209 16.9147 51.9496 16.9147 2.6807 0 4.8538-2.1801 4.8538-4.8694s-2.1731-4.8694-4.8538-4.8694c-15.6505 0-28.2195-4.6108-47.074-15.5972-1.4846-.8651-3.0176-1.771-5.0029-2.9534-.4388-.2613-4.018-2.3974-5.0806-3.029-27.5457-16.376-44.8584-22.9404-70.4272-22.9404-25.595 0-42.546 6.5829-69.1098 22.9824a5455.658 5455.658 0 0 0-4.488 2.779c-1.7778 1.1006-3.1165 1.924-4.421 2.7172-18.7106 11.3762-30.9359 16.0414-46.7924 16.0414-2.6807 0-4.8538 2.1801-4.8538 4.8694s2.1731 4.8694 4.8538 4.8694zM30.5094 127.2994c18.0124 0 31.7313-5.2352 51.8238-17.4516a587.9895 587.9895 0 0 0 3.664-2.2486c.8591-.5309 1.8274-1.131 3.6542-2.2634 2.281-1.4129 2.9883-4.4132 1.58-6.7014-1.4084-2.2883-4.3991-2.998-6.68-1.585a3255.3018 3255.3018 0 0 1-3.6454 2.258 578.7314 578.7314 0 0 1-3.6042 2.2118c-18.7106 11.3762-30.9359 16.0414-46.7924 16.0414-2.6807 0-4.8538 2.1801-4.8538 4.8694s2.1731 4.8694 4.8538 4.8694zM110.8325 93.2622c3.1919-1.552 6.3285-2.9187 9.4793-4.1172 2.5065-.9534 3.768-3.7648 2.8176-6.2794-.9504-2.5146-3.7527-3.7802-6.2593-2.8268-3.429 1.3044-6.8286 2.7857-10.2715 4.4598-2.4123 1.173-3.42 4.0856-2.2508 6.5056 1.1691 2.42 4.0725 3.431 6.4847 2.258zM144.2868 83.3612c3.5774-.3856 7.249-.5818 11.0338-.5818 23.4311 0 39.3009 6.0173 65.4783 21.5797 1.054.6266 4.6285 2.7598 5.0738 3.025 2.0097 1.197 3.5671 2.1173 5.083 3.0006 20.2037 11.7726 34.2209 16.9147 51.9496 16.9147 2.6807 0 4.8538-2.1801 4.8538-4.8694s-2.1731-4.8694-4.8538-4.8694c-15.6505 0-28.2195-4.6108-47.074-15.5972-1.4846-.8651-3.0176-1.771-5.0029-2.9534-.4388-.2613-4.018-2.3974-5.0806-3.029-27.5457-16.376-44.8584-22.9404-70.4272-22.9404-4.1303 0-8.148.2147-12.0708.6376-2.6654.2873-4.5939 2.6878-4.3075 5.3617.2864 2.6739 2.6792 4.6086 5.3445 4.3213z"/>
        </g>
      </g>
    </g>
    <g class="dec" fill-rule="nonzero" mask="url(#b)">
      <g transform="translate(2623.32 3668.355)">
        <path d="M38.8602 262.2506l31.279-55.0887c1.3269-2.3368.5142-5.3102-1.815-6.6412-2.3293-1.3311-5.2932-.5158-6.62 1.821L26.292 264.7098c-1.8432 3.2462.4936 7.2795 4.2175 7.2795h194.1507c2.6807 0 4.8538-2.1801 4.8538-4.8694s-2.1731-4.8694-4.8538-4.8694h-185.8zM84.596 183.3678l8.3207-13.9125c1.3792-2.306.6338-5.2971-1.6648-6.6808-2.2987-1.3836-5.2802-.6358-6.6594 1.6702l-8.3207 13.9125c-1.3792 2.306-.6338 5.2971 1.6648 6.6808 2.2987 1.3836 5.2802.6358 6.6593-1.6702zM158.0533 56.9092L277.236 262.2506h-30.3872c-2.6807 0-4.8538 2.1801-4.8538 4.8694s2.1731 4.8694 4.8538 4.8694h38.8301c3.7444 0 6.0787-4.0734 4.1945-7.3196L162.2887 44.8523c-1.863-3.2097-6.478-3.2294-8.368-.0358l-52.6981 89.04c-1.3686 2.3124-.6095 5.3 1.6955 6.673 2.305 1.373 5.283.6114 6.6515-1.701l48.4837-81.9193z"/>
      </g>
    </g>
    <g fill-rule="nonzero" mask="url(#b)">
      <g transform="translate(3735.32 3668.355)">
        <g class="dec" transform="rotate(90 154.6285 156.512)">
          <path d="M196.7442 227.4271c13.3821-7.807 24.3566-19.2688 31.5862-33.0034 1.2518-2.378.345-5.3239-2.0255-6.5797-2.3704-1.2558-5.3068-.346-6.5586 2.032-6.3802 12.1207-16.0708 22.2417-27.8821 29.1324-2.3174 1.3519-3.1035 4.3324-1.7559 6.6572 1.3476 2.3248 4.3186 3.1134 6.6359 1.7615zM237.8346 155.82c0-7.5398-1.0061-14.9505-2.971-22.0869-.7136-2.5922-3.3869-4.1132-5.9708-3.3972-2.5839.716-4.1 3.3978-3.3863 5.99 1.7328 6.294 2.6206 12.8325 2.6206 19.4941 0 2.6893 2.1731 4.8694 4.8538 4.8694 2.6806 0 4.8537-2.1801 4.8537-4.8694zM222.8929 108.3006c-5.4527-7.79-12.2097-14.5938-19.9545-20.0929-13.8199-9.8125-30.3245-15.167-47.6178-15.167-20.9348 0-40.6588 7.8587-55.7735 21.773-1.9751 1.8182-2.107 4.8984-.2946 6.8799 1.8124 1.9815 4.8828 2.1138 6.858.2955 13.341-12.2813 30.7298-19.2097 49.21-19.2097 15.268 0 29.8166 4.72 42.0098 13.3776 6.8375 4.8548 12.8043 10.8629 17.6181 17.7402 1.5405 2.2009 4.5678 2.7322 6.7616 1.1867 2.1938-1.5454 2.7234-4.5824 1.1829-6.7833zM83.2723 115.4423c-6.828 12.2374-10.4658 26.0482-10.4658 40.3777 0 9.0729 1.457 17.9536 4.2817 26.3856 3.1223 9.3208 7.8826 17.9886 14.03 25.618 7.7423 9.6086 17.5398 17.3896 28.6553 22.7205 2.4185 1.1599 5.3164.1332 6.4725-2.293 1.1562-2.4263.1329-5.3335-2.2856-6.4934-9.8074-4.7035-18.4571-11.573-25.2927-20.0564-5.4254-6.7332-9.6245-14.3793-12.3777-22.598-2.4908-7.4354-3.776-15.2686-3.776-23.2833 0-12.653 3.2069-24.8277 9.2291-35.6209 1.3094-2.3466.4745-5.3138-1.8646-6.6274s-5.2968-.476-6.6062 1.8706z"/>
          <path d="M28.0445 156.0157c0 70.0802 56.9939 126.8914 127.2994 126.8914 47.1318 0 89.7161-25.7568 111.8584-66.2689 1.2866-2.354.4152-5.3019-1.9464-6.5844-2.3616-1.2824-5.319-.4138-6.6055 1.9402-20.453 37.4214-59.776 61.2056-103.3065 61.2056-64.927 0-117.5606-52.465-117.5606-117.1839 0-2.6806-2.1801-4.8537-4.8694-4.8537s-4.8694 2.173-4.8694 4.8537zM277.6685 190.4584c3.2016-11.2206 4.8427-22.8943 4.8427-34.7809 0-70.0802-56.9938-126.8914-127.2994-126.8914-14.7263 0-29.1172 2.4952-42.71 7.3197a126.7688 126.7688 0 0 0-13.2864 5.5855c-2.4144 1.1806-3.4115 4.0887-2.227 6.4954 1.1844 2.4066 4.1019 3.4005 6.5163 2.2199a117.013 117.013 0 0 1 12.2639-5.1557c12.5477-4.4536 25.834-6.7572 39.4432-6.7572 64.927 0 117.5607 52.465 117.5607 117.1838 0 10.9863-1.5155 21.7664-4.4712 32.1252-.7357 2.5784.7648 5.2631 3.3515 5.9965 2.5867.7333 5.28-.7624 6.0157-3.3408z"/>
        </g>
      </g>
    </g>
    <g class="dec" fill-rule="nonzero" mask="url(#b)">
      <g transform="translate(-156.68 1447.155)">
        <path d="M38.8602 262.2506l31.279-55.0887c1.3269-2.3368.5142-5.3102-1.815-6.6412-2.3293-1.3311-5.2932-.5158-6.62 1.821L26.292 264.7098c-1.8432 3.2462.4936 7.2795 4.2175 7.2795h194.1507c2.6807 0 4.8538-2.1801 4.8538-4.8694s-2.1731-4.8694-4.8538-4.8694h-185.8zM84.596 183.3678l8.3207-13.9125c1.3792-2.306.6338-5.2971-1.6648-6.6808-2.2987-1.3836-5.2802-.6358-6.6594 1.6702l-8.3207 13.9125c-1.3792 2.306-.6338 5.2971 1.6648 6.6808 2.2987 1.3836 5.2802.6358 6.6593-1.6702zM158.0533 56.9092L277.236 262.2506h-30.3872c-2.6807 0-4.8538 2.1801-4.8538 4.8694s2.1731 4.8694 4.8538 4.8694h38.8301c3.7444 0 6.0787-4.0734 4.1945-7.3196L162.2887 44.8523c-1.863-3.2097-6.478-3.2294-8.368-.0358l-52.6981 89.04c-1.3686 2.3124-.6095 5.3 1.6955 6.673 2.305 1.373 5.283.6114 6.6515-1.701l48.4837-81.9193z"/>
      </g>
    </g>
    <g fill-rule="nonzero" mask="url(#b)">
      <g transform="translate(-156.68 779.355)">
        <g class="dec" transform="rotate(-60 139.2494 164.1642)">
          <path d="M30.5094 205.2094c18.0124 0 31.7313-5.2352 51.8238-17.4516 1.3306-.809 2.6893-1.6448 4.4872-2.7578-.102.0632 3.47-2.1506 4.478-2.773 25.1696-15.5387 40.6171-21.5376 64.0222-21.5376 14.2391 0 26.9116 2.7303 39.6258 8.0198 2.4761 1.0302 5.316-.1485 6.3428-2.6326 1.0269-2.4842-.148-5.333-2.6242-6.3633-13.851-5.7624-27.7762-8.7627-43.3444-8.7627-25.595 0-42.546 6.5829-69.1098 22.9824a5455.658 5455.658 0 0 0-4.488 2.779c-1.7778 1.1006-3.1165 1.924-4.421 2.7172-18.7106 11.3762-30.9359 16.0414-46.7924 16.0414-2.6807 0-4.8538 2.1801-4.8538 4.8694s2.1731 4.8694 4.8538 4.8694zM217.0716 180.0686a611.6904 611.6904 0 0 1 3.7273 2.2005c1.054.6266 4.6285 2.7598 5.0738 3.025 2.0097 1.197 3.5671 2.1173 5.083 3.0006 20.2037 11.7726 34.2209 16.9147 51.9496 16.9147 2.6807 0 4.8538-2.1801 4.8538-4.8694s-2.1731-4.8694-4.8538-4.8694c-15.6505 0-28.2195-4.6108-47.074-15.5972-1.4846-.8651-3.0176-1.771-5.0029-2.9534-.4388-.2613-4.018-2.3974-5.0806-3.029a621.0036 621.0036 0 0 0-3.7859-2.235c-2.3156-1.3549-5.2876-.5699-6.638 1.7532-1.3505 2.3231-.568 5.3047 1.7477 6.6594zM30.5094 244.1644c9.6382 0 18.6186-1.7321 27.597-5.0877 2.512-.9388 3.7898-3.7428 2.854-6.263-.9358-2.52-3.7308-3.8019-6.2428-2.863-7.9276 2.9628-15.7676 4.475-24.2082 4.475-2.6807 0-4.8538 2.18-4.8538 4.8693s2.1731 4.8694 4.8538 4.8694zM83.374 226.078c1.8008-1.1015 8.3552-5.1619 7.9245-4.896 25.1695-15.5387 40.617-21.5376 64.022-21.5376 23.4312 0 39.301 6.0173 65.4784 21.5797 1.054.6266 4.6285 2.7598 5.0738 3.025 2.0097 1.197 3.5671 2.1173 5.083 3.0006 20.2037 11.7726 34.2209 16.9147 51.9496 16.9147 2.6807 0 4.8538-2.1801 4.8538-4.8694s-2.1731-4.8694-4.8538-4.8694c-15.6505 0-28.2195-4.6108-47.074-15.5972-1.4846-.8651-3.0176-1.771-5.0029-2.9534-.4388-.2613-4.018-2.3974-5.0806-3.029-27.5457-16.376-44.8584-22.9404-70.4272-22.9404-25.595 0-42.546 6.5829-69.1098 22.9824.409-.2525-6.1173 3.7903-7.8905 4.875-2.2888 1.4-3.0129 4.3963-1.6173 6.6925 1.3955 2.296 4.3822 3.0225 6.671 1.6225z"/>
          <path d="M30.5094 166.2544c18.0124 0 31.7313-5.2352 51.8238-17.4516 1.3306-.809 2.6893-1.6448 4.4872-2.7578-.102.0632 3.47-2.1506 4.478-2.773 25.1696-15.5387 40.6171-21.5376 64.0222-21.5376 23.4311 0 39.3009 6.0173 65.4783 21.5797 1.054.6266 4.6285 2.7598 5.0738 3.025 2.0097 1.197 3.5671 2.1173 5.083 3.0006 20.2037 11.7726 34.2209 16.9147 51.9496 16.9147 2.6807 0 4.8538-2.1801 4.8538-4.8694s-2.1731-4.8694-4.8538-4.8694c-15.6505 0-28.2195-4.6108-47.074-15.5972-1.4846-.8651-3.0176-1.771-5.0029-2.9534-.4388-.2613-4.018-2.3974-5.0806-3.029-27.5457-16.376-44.8584-22.9404-70.4272-22.9404-25.595 0-42.546 6.5829-69.1098 22.9824a5455.658 5455.658 0 0 0-4.488 2.779c-1.7778 1.1006-3.1165 1.924-4.421 2.7172-18.7106 11.3762-30.9359 16.0414-46.7924 16.0414-2.6807 0-4.8538 2.1801-4.8538 4.8694s2.1731 4.8694 4.8538 4.8694zM30.5094 127.2994c18.0124 0 31.7313-5.2352 51.8238-17.4516a587.9895 587.9895 0 0 0 3.664-2.2486c.8591-.5309 1.8274-1.131 3.6542-2.2634 2.281-1.4129 2.9883-4.4132 1.58-6.7014-1.4084-2.2883-4.3991-2.998-6.68-1.585a3255.3018 3255.3018 0 0 1-3.6454 2.258 578.7314 578.7314 0 0 1-3.6042 2.2118c-18.7106 11.3762-30.9359 16.0414-46.7924 16.0414-2.6807 0-4.8538 2.1801-4.8538 4.8694s2.1731 4.8694 4.8538 4.8694zM110.8325 93.2622c3.1919-1.552 6.3285-2.9187 9.4793-4.1172 2.5065-.9534 3.768-3.7648 2.8176-6.2794-.9504-2.5146-3.7527-3.7802-6.2593-2.8268-3.429 1.3044-6.8286 2.7857-10.2715 4.4598-2.4123 1.173-3.42 4.0856-2.2508 6.5056 1.1691 2.42 4.0725 3.431 6.4847 2.258zM144.2868 83.3612c3.5774-.3856 7.249-.5818 11.0338-.5818 23.4311 0 39.3009 6.0173 65.4783 21.5797 1.054.6266 4.6285 2.7598 5.0738 3.025 2.0097 1.197 3.5671 2.1173 5.083 3.0006 20.2037 11.7726 34.2209 16.9147 51.9496 16.9147 2.6807 0 4.8538-2.1801 4.8538-4.8694s-2.1731-4.8694-4.8538-4.8694c-15.6505 0-28.2195-4.6108-47.074-15.5972-1.4846-.8651-3.0176-1.771-5.0029-2.9534-.4388-.2613-4.018-2.3974-5.0806-3.029-27.5457-16.376-44.8584-22.9404-70.4272-22.9404-4.1303 0-8.148.2147-12.0708.6376-2.6654.2873-4.5939 2.6878-4.3075 5.3617.2864 2.6739 2.6792 4.6086 5.3445 4.3213z"/>
        </g>
      </g>
    </g>
    <g class="dec" fill-rule="nonzero" mask="url(#b)">
      <g transform="translate(-156.68 3373.155)">
        <path d="M30.5094 205.2094c18.0124 0 31.7313-5.2352 51.8238-17.4516 1.3306-.809 2.6893-1.6448 4.4872-2.7578-.102.0632 3.47-2.1506 4.478-2.773 25.1696-15.5387 40.6171-21.5376 64.0222-21.5376 14.2391 0 26.9116 2.7303 39.6258 8.0198 2.4761 1.0302 5.316-.1485 6.3428-2.6326 1.0269-2.4842-.148-5.333-2.6242-6.3633-13.851-5.7624-27.7762-8.7627-43.3444-8.7627-25.595 0-42.546 6.5829-69.1098 22.9824a5455.658 5455.658 0 0 0-4.488 2.779c-1.7778 1.1006-3.1165 1.924-4.421 2.7172-18.7106 11.3762-30.9359 16.0414-46.7924 16.0414-2.6807 0-4.8538 2.1801-4.8538 4.8694s2.1731 4.8694 4.8538 4.8694zM217.0716 180.0686a611.6904 611.6904 0 0 1 3.7273 2.2005c1.054.6266 4.6285 2.7598 5.0738 3.025 2.0097 1.197 3.5671 2.1173 5.083 3.0006 20.2037 11.7726 34.2209 16.9147 51.9496 16.9147 2.6807 0 4.8538-2.1801 4.8538-4.8694s-2.1731-4.8694-4.8538-4.8694c-15.6505 0-28.2195-4.6108-47.074-15.5972-1.4846-.8651-3.0176-1.771-5.0029-2.9534-.4388-.2613-4.018-2.3974-5.0806-3.029a621.0036 621.0036 0 0 0-3.7859-2.235c-2.3156-1.3549-5.2876-.5699-6.638 1.7532-1.3505 2.3231-.568 5.3047 1.7477 6.6594zM30.5094 244.1644c9.6382 0 18.6186-1.7321 27.597-5.0877 2.512-.9388 3.7898-3.7428 2.854-6.263-.9358-2.52-3.7308-3.8019-6.2428-2.863-7.9276 2.9628-15.7676 4.475-24.2082 4.475-2.6807 0-4.8538 2.18-4.8538 4.8693s2.1731 4.8694 4.8538 4.8694zM83.374 226.078c1.8008-1.1015 8.3552-5.1619 7.9245-4.896 25.1695-15.5387 40.617-21.5376 64.022-21.5376 23.4312 0 39.301 6.0173 65.4784 21.5797 1.054.6266 4.6285 2.7598 5.0738 3.025 2.0097 1.197 3.5671 2.1173 5.083 3.0006 20.2037 11.7726 34.2209 16.9147 51.9496 16.9147 2.6807 0 4.8538-2.1801 4.8538-4.8694s-2.1731-4.8694-4.8538-4.8694c-15.6505 0-28.2195-4.6108-47.074-15.5972-1.4846-.8651-3.0176-1.771-5.0029-2.9534-.4388-.2613-4.018-2.3974-5.0806-3.029-27.5457-16.376-44.8584-22.9404-70.4272-22.9404-25.595 0-42.546 6.5829-69.1098 22.9824.409-.2525-6.1173 3.7903-7.8905 4.875-2.2888 1.4-3.0129 4.3963-1.6173 6.6925 1.3955 2.296 4.3822 3.0225 6.671 1.6225z"/>
        <path d="M30.5094 166.2544c18.0124 0 31.7313-5.2352 51.8238-17.4516 1.3306-.809 2.6893-1.6448 4.4872-2.7578-.102.0632 3.47-2.1506 4.478-2.773 25.1696-15.5387 40.6171-21.5376 64.0222-21.5376 23.4311 0 39.3009 6.0173 65.4783 21.5797 1.054.6266 4.6285 2.7598 5.0738 3.025 2.0097 1.197 3.5671 2.1173 5.083 3.0006 20.2037 11.7726 34.2209 16.9147 51.9496 16.9147 2.6807 0 4.8538-2.1801 4.8538-4.8694s-2.1731-4.8694-4.8538-4.8694c-15.6505 0-28.2195-4.6108-47.074-15.5972-1.4846-.8651-3.0176-1.771-5.0029-2.9534-.4388-.2613-4.018-2.3974-5.0806-3.029-27.5457-16.376-44.8584-22.9404-70.4272-22.9404-25.595 0-42.546 6.5829-69.1098 22.9824a5455.658 5455.658 0 0 0-4.488 2.779c-1.7778 1.1006-3.1165 1.924-4.421 2.7172-18.7106 11.3762-30.9359 16.0414-46.7924 16.0414-2.6807 0-4.8538 2.1801-4.8538 4.8694s2.1731 4.8694 4.8538 4.8694zM30.5094 127.2994c18.0124 0 31.7313-5.2352 51.8238-17.4516a587.9895 587.9895 0 0 0 3.664-2.2486c.8591-.5309 1.8274-1.131 3.6542-2.2634 2.281-1.4129 2.9883-4.4132 1.58-6.7014-1.4084-2.2883-4.3991-2.998-6.68-1.585a3255.3018 3255.3018 0 0 1-3.6454 2.258 578.7314 578.7314 0 0 1-3.6042 2.2118c-18.7106 11.3762-30.9359 16.0414-46.7924 16.0414-2.6807 0-4.8538 2.1801-4.8538 4.8694s2.1731 4.8694 4.8538 4.8694zM110.8325 93.2622c3.1919-1.552 6.3285-2.9187 9.4793-4.1172 2.5065-.9534 3.768-3.7648 2.8176-6.2794-.9504-2.5146-3.7527-3.7802-6.2593-2.8268-3.429 1.3044-6.8286 2.7857-10.2715 4.4598-2.4123 1.173-3.42 4.0856-2.2508 6.5056 1.1691 2.42 4.0725 3.431 6.4847 2.258zM144.2868 83.3612c3.5774-.3856 7.249-.5818 11.0338-.5818 23.4311 0 39.3009 6.0173 65.4783 21.5797 1.054.6266 4.6285 2.7598 5.0738 3.025 2.0097 1.197 3.5671 2.1173 5.083 3.0006 20.2037 11.7726 34.2209 16.9147 51.9496 16.9147 2.6807 0 4.8538-2.1801 4.8538-4.8694s-2.1731-4.8694-4.8538-4.8694c-15.6505 0-28.2195-4.6108-47.074-15.5972-1.4846-.8651-3.0176-1.771-5.0029-2.9534-.4388-.2613-4.018-2.3974-5.0806-3.029-27.5457-16.376-44.8584-22.9404-70.4272-22.9404-4.1303 0-8.148.2147-12.0708.6376-2.6654.2873-4.5939 2.6878-4.3075 5.3617.2864 2.6739 2.6792 4.6086 5.3445 4.3213z"/>
      </g>
    </g>
    <g fill-rule="nonzero" mask="url(#b)">
      <g transform="translate(-156.68 2705.355)">
        <g class="dec" transform="rotate(90 154.6285 156.512)">
          <path d="M196.7442 227.4271c13.3821-7.807 24.3566-19.2688 31.5862-33.0034 1.2518-2.378.345-5.3239-2.0255-6.5797-2.3704-1.2558-5.3068-.346-6.5586 2.032-6.3802 12.1207-16.0708 22.2417-27.8821 29.1324-2.3174 1.3519-3.1035 4.3324-1.7559 6.6572 1.3476 2.3248 4.3186 3.1134 6.6359 1.7615zM237.8346 155.82c0-7.5398-1.0061-14.9505-2.971-22.0869-.7136-2.5922-3.3869-4.1132-5.9708-3.3972-2.5839.716-4.1 3.3978-3.3863 5.99 1.7328 6.294 2.6206 12.8325 2.6206 19.4941 0 2.6893 2.1731 4.8694 4.8538 4.8694 2.6806 0 4.8537-2.1801 4.8537-4.8694zM222.8929 108.3006c-5.4527-7.79-12.2097-14.5938-19.9545-20.0929-13.8199-9.8125-30.3245-15.167-47.6178-15.167-20.9348 0-40.6588 7.8587-55.7735 21.773-1.9751 1.8182-2.107 4.8984-.2946 6.8799 1.8124 1.9815 4.8828 2.1138 6.858.2955 13.341-12.2813 30.7298-19.2097 49.21-19.2097 15.268 0 29.8166 4.72 42.0098 13.3776 6.8375 4.8548 12.8043 10.8629 17.6181 17.7402 1.5405 2.2009 4.5678 2.7322 6.7616 1.1867 2.1938-1.5454 2.7234-4.5824 1.1829-6.7833zM83.2723 115.4423c-6.828 12.2374-10.4658 26.0482-10.4658 40.3777 0 9.0729 1.457 17.9536 4.2817 26.3856 3.1223 9.3208 7.8826 17.9886 14.03 25.618 7.7423 9.6086 17.5398 17.3896 28.6553 22.7205 2.4185 1.1599 5.3164.1332 6.4725-2.293 1.1562-2.4263.1329-5.3335-2.2856-6.4934-9.8074-4.7035-18.4571-11.573-25.2927-20.0564-5.4254-6.7332-9.6245-14.3793-12.3777-22.598-2.4908-7.4354-3.776-15.2686-3.776-23.2833 0-12.653 3.2069-24.8277 9.2291-35.6209 1.3094-2.3466.4745-5.3138-1.8646-6.6274s-5.2968-.476-6.6062 1.8706z"/>
          <path d="M28.0445 156.0157c0 70.0802 56.9939 126.8914 127.2994 126.8914 47.1318 0 89.7161-25.7568 111.8584-66.2689 1.2866-2.354.4152-5.3019-1.9464-6.5844-2.3616-1.2824-5.319-.4138-6.6055 1.9402-20.453 37.4214-59.776 61.2056-103.3065 61.2056-64.927 0-117.5606-52.465-117.5606-117.1839 0-2.6806-2.1801-4.8537-4.8694-4.8537s-4.8694 2.173-4.8694 4.8537zM277.6685 190.4584c3.2016-11.2206 4.8427-22.8943 4.8427-34.7809 0-70.0802-56.9938-126.8914-127.2994-126.8914-14.7263 0-29.1172 2.4952-42.71 7.3197a126.7688 126.7688 0 0 0-13.2864 5.5855c-2.4144 1.1806-3.4115 4.0887-2.227 6.4954 1.1844 2.4066 4.1019 3.4005 6.5163 2.2199a117.013 117.013 0 0 1 12.2639-5.1557c12.5477-4.4536 25.834-6.7572 39.4432-6.7572 64.927 0 117.5607 52.465 117.5607 117.1838 0 10.9863-1.5155 21.7664-4.4712 32.1252-.7357 2.5784.7648 5.2631 3.3515 5.9965 2.5867.7333 5.28-.7624 6.0157-3.3408z"/>
        </g>
      </g>
    </g>
  </g>
</svg>
