<svg xmlns="http://www.w3.org/2000/svg" xmlns:xlink="http://www.w3.org/1999/xlink" viewBox="0 0 4448 3852">
  <defs>
    <path id="a" d="M0 0h4448v3852H0z"/>
  </defs>
  <g id="template" fill="#000">
    <mask id="b" fill="#fff">
      <use xlink:href="#a"/>
    </mask>
    <g mask="url(#b)">
      <g transform="translate(661 110)">
        <g transform="rotate(30 64.6904 247.4363)">
          <path d="M132.4893 10.7811l120.976 120.976-67.7694 67.7696c-1.7124 1.7123-1.7168 4.4843-.0099 6.1911 1.7069 1.707 4.4788 1.7025 6.1912-.0099l70.87-70.87c1.7124-1.7124 1.7169-4.4843.01-6.1912L135.5999 1.4893c-1.707-1.7069-4.4788-1.7024-6.1912.01l-28.348 28.348c-1.7124 1.7124-1.717 4.4843-.01 6.1912 1.7069 1.707 4.4788 1.7024 6.1912-.0099l25.2475-25.2475h-.0001zm-.2328 242.341L11.2805 132.146l83.7153-83.7153c1.7124-1.7124 1.7168-4.4843.01-6.1912-1.707-1.7069-4.4789-1.7024-6.1913.01L1.9987 129.0653c-1.7123 1.7124-1.7168 4.4842-.0099 6.1912L129.146 262.4138c1.707 1.7069 4.4788 1.7025 6.1912-.01l23.0328-23.0327c1.7123-1.7124 1.7168-4.4843.0099-6.1912-1.707-1.707-4.4788-1.7024-6.1911.0099l-19.9323 19.9322z"/>
        </g>
      </g>
    </g>
    <g class="icon" mask="url(#b)">
      <g transform="rotate(112 145.813 293.1705)">
        <path d="M0 0h512v512H0z"/>
      </g>
    </g>
    <g mask="url(#b)">
      <g transform="rotate(-14 2382.3328 -6509.3127)">
        <path d="M12.4533 198.2255l28.1041-49.5798c1.1922-2.1031.462-4.7792-1.6308-5.977-2.0928-1.198-4.7559-.4643-5.948 1.6388L1.1609 200.4388c-1.6562 2.9216.4435 6.5516 3.7894 6.5516h174.4436c2.4086 0 4.3612-1.9621 4.3612-4.3825 0-2.4204-1.9526-4.3825-4.3612-4.3825H12.4533v.0001zm41.0935-70.9945l7.4761-12.5212c1.2392-2.0754.5695-4.7674-1.4958-6.0127-2.0654-1.2453-4.7443-.5723-5.9835 1.5031l-7.476 12.5213c-1.2393 2.0754-.5695 4.7674 1.4957 6.0127 2.0654 1.2452 4.7443.5722 5.9834-1.5032zm66.001-113.8127l107.0853 184.8072h-27.3028c-2.4086 0-4.3611 1.9621-4.3611 4.3825 0 2.4204 1.9525 4.3825 4.3611 4.3825h34.8887c3.3643 0 5.4617-3.6661 3.7688-6.5877L123.3534 2.5671c-1.674-2.8888-5.8205-2.9065-7.5186-.0322l-47.349 80.136c-1.2298 2.0811-.5477 4.77 1.5233 6.0057 2.071 1.2357 4.7468.5502 5.9764-1.531l43.5624-73.7273z"/>
      </g>
    </g>
    <g class="icon" mask="url(#b)">
      <g transform="rotate(43 -27.7127 1888.289)">
        <path d="M0 0h512v512H0z"/>
      </g>
    </g>
    <g mask="url(#b)">
      <g transform="translate(1072 1480)">
        <path d="M13.527 117.2345l75.6027-43.7257c2.0884-1.2078 2.8007-3.8884 1.5912-5.9871-1.2096-2.0987-3.883-2.821-5.9715-1.613L2.641 113.3967c-2.901 1.678-2.9074 5.8785-.0114 7.5813L198.733 236.29c2.9252 1.7201 6.5956-.4028 6.5714-3.8006l-.3736-51.9923c-.0175-2.4214-1.988-4.3757-4.4012-4.365-2.4134.0107-4.3556 1.9824-4.3382 4.4038l.3182 44.2952L13.5271 117.2345zm182.5496 39.8451c.0175 2.4215 1.988 4.3758 4.4013 4.3652 2.4133-.0109 4.3555-1.9825 4.3382-4.404L203.7203 4.5153c-.0243-3.3639-3.6588-5.4586-6.5599-3.7808L166.91 18.2302c-2.0883 1.2078-2.8007 3.8883-1.5911 5.987 1.2096 2.0988 3.8831 2.821 5.9714 1.6132l23.7448-13.7331 1.0415 144.9823zM136.7657 35.792l-15.1252 8.7478c-2.0884 1.2078-2.8007 3.8883-1.5912 5.987 1.2097 2.0988 3.8832 2.821 5.9715 1.6132l15.1253-8.7478c2.0883-1.208 2.8007-3.8884 1.5911-5.9872-1.2096-2.0988-3.8831-2.821-5.9715-1.613z"/>
      </g>
    </g>
    <g class="icon" mask="url(#b)">
      <g transform="rotate(-113 755.822 780.8401)">
        <path d="M0 0h512v512H0z"/>
      </g>
    </g>
    <g mask="url(#b)">
      <g transform="rotate(-34 2508.3706 -4286.7049)">
        <path d="M84.908 230.9623H9.1763v-98.169c0-2.4174-1.9455-4.377-4.3453-4.377-2.3999 0-4.3453 1.9596-4.3453 4.377v102.546c0 2.4174 1.9454 4.377 4.3453 4.377h84.4225c2.3998 0 4.3454-1.9596 4.3454-4.377v-25.0112c0-2.4174-1.9456-4.377-4.3454-4.377s-4.3453 1.9596-4.3453 4.377v20.6342zM9.1762 9.613h75.732v175.704c0 2.4173 1.9454 4.377 4.3453 4.377 2.3997 0 4.3453-1.9597 4.3453-4.377V5.2359c0-2.4173-1.9456-4.377-4.3453-4.377H4.8307C2.4308.859.4854 2.8187.4854 5.236v37.517c0 2.4173 1.9454 4.3769 4.3453 4.3769 2.3999 0 4.3453-1.9596 4.3453-4.377V9.613h.0001zm0 98.1691V62.7618c0-2.4174-1.9454-4.377-4.3453-4.377-2.3999 0-4.3453 1.9596-4.3453 4.377v45.0202c0 2.4174 1.9454 4.377 4.3453 4.377 2.3999 0 4.3453-1.9596 4.3453-4.377z"/>
      </g>
    </g>
    <g mask="url(#b)">
      <g transform="rotate(15 -7446.552 1925.65)">
        <path d="M84.908 230.9623H9.1763v-98.169c0-2.4174-1.9455-4.377-4.3453-4.377-2.3999 0-4.3453 1.9596-4.3453 4.377v102.546c0 2.4174 1.9454 4.377 4.3453 4.377h84.4225c2.3998 0 4.3454-1.9596 4.3454-4.377v-25.0112c0-2.4174-1.9456-4.377-4.3454-4.377s-4.3453 1.9596-4.3453 4.377v20.6342zM9.1762 9.613h75.732v175.704c0 2.4173 1.9454 4.377 4.3453 4.377 2.3997 0 4.3453-1.9597 4.3453-4.377V5.2359c0-2.4173-1.9456-4.377-4.3453-4.377H4.8307C2.4308.859.4854 2.8187.4854 5.236v37.517c0 2.4173 1.9454 4.3769 4.3453 4.3769 2.3999 0 4.3453-1.9596 4.3453-4.377V9.613h.0001zm0 98.1691V62.7618c0-2.4174-1.9454-4.377-4.3453-4.377-2.3999 0-4.3453 1.9596-4.3453 4.377v45.0202c0 2.4174 1.9454 4.377 4.3453 4.377 2.3999 0 4.3453-1.9596 4.3453-4.377z"/>
      </g>
    </g>
    <g class="icon" mask="url(#b)">
      <g transform="rotate(-76 1425.3975 -1128.635)">
        <path d="M0 0h512v512H0z"/>
      </g>
    </g>
    <g class="icon" mask="url(#b)">
      <g transform="rotate(-103 1646.0093 327.5266)">
        <path d="M0 0h512v512H0z"/>
      </g>
    </g>
    <g mask="url(#b)">
      <g transform="rotate(63 107.445 4332.2793)">
        <path d="M4.9647 119.1422c16.2318 0 28.5944-4.7178 46.7006-15.7267 1.199-.729 2.4234-1.4823 4.0436-2.4853-.092.057 3.127-1.938 4.0353-2.4989 22.6813-14.0029 36.6017-19.4089 57.693-19.4089 12.8314 0 24.2511 2.4605 35.7084 7.2272 2.2313.9283 4.7905-.1339 5.7158-2.3724.9254-2.2387-.1334-4.806-2.3648-5.7344-12.4817-5.1929-25.0303-7.8966-39.0594-7.8966-23.0647 0-38.34 5.9322-62.2777 20.7109a4916.4908 4916.4908 0 0 0-4.0443 2.5043c-1.602.9918-2.8084 1.7338-3.984 2.4486-16.8608 10.2518-27.8775 14.456-42.1665 14.456-2.4156 0-4.374 1.9646-4.374 4.388 0 2.4236 1.9584 4.3882 4.374 4.3882zm168.1188-22.656c1.122.657 2.2416 1.318 3.3589 1.983.9498.5647 4.1709 2.487 4.5722 2.726 1.811 1.0788 3.2144 1.9081 4.5805 2.704 18.2063 10.6091 30.8378 15.243 46.8139 15.243 2.4156 0 4.374-1.9646 4.374-4.3881 0-2.4235-1.9584-4.3882-4.374-4.3882-14.1033 0-25.4298-4.155-42.4203-14.0556-1.3379-.7796-2.7193-1.596-4.5084-2.6615-.3954-.2354-3.6207-2.1604-4.5783-2.7296a559.6031 559.6031 0 0 0-3.4116-2.014c-2.0867-1.221-4.7649-.5137-5.9818 1.5798-1.217 2.0935-.5118 4.7804 1.575 6.0012zM4.9647 154.247c8.6854 0 16.778-1.561 24.8688-4.5849 2.2637-.846 3.4152-3.3728 2.5719-5.644-.8433-2.2709-3.362-3.426-5.6257-2.58-7.1438 2.67-14.2088 4.0327-21.815 4.0327-2.4156 0-4.374 1.9646-4.374 4.388 0 2.4236 1.9584 4.3882 4.374 4.3882zm47.6385-16.2988c1.6228-.9926 7.5292-4.6517 7.141-4.4121 22.6813-14.0029 36.6017-19.4089 57.693-19.4089 21.1147 0 35.4156 5.4226 59.0052 19.4468.9498.5647 4.1709 2.487 4.5722 2.726 1.811 1.0788 3.2144 1.908 4.5805 2.704 18.2063 10.6091 30.8378 15.243 46.8139 15.243 2.4156 0 4.374-1.9646 4.374-4.3881 0-2.4235-1.9584-4.3882-4.374-4.3882-14.1033 0-25.4298-4.155-42.4203-14.0556-1.3379-.7796-2.7193-1.596-4.5084-2.6615-.3954-.2354-3.6207-2.1604-4.5783-2.7296-24.8225-14.7574-40.4237-20.673-63.4648-20.673-23.0647 0-38.34 5.9322-62.2777 20.7109.3686-.2276-5.5125 3.4156-7.1104 4.3931-2.0625 1.2617-2.715 3.9618-1.4574 6.031 1.2575 2.0691 3.949 2.7238 6.0115 1.4622z"/>
        <path d="M4.9647 84.0374c16.2318 0 28.5944-4.7178 46.7006-15.7267 1.199-.729 2.4234-1.4823 4.0436-2.4853-.092.057 3.127-1.938 4.0353-2.4989 22.6813-14.0029 36.6017-19.4089 57.693-19.4089 21.1147 0 35.4156 5.4226 59.0052 19.4469.9498.5646 4.1709 2.487 4.5722 2.726 1.811 1.0787 3.2144 1.908 4.5805 2.704 18.2063 10.609 30.8378 15.2429 46.8139 15.2429 2.4156 0 4.374-1.9646 4.374-4.3881 0-2.4235-1.9584-4.3881-4.374-4.3881-14.1033 0-25.4298-4.1551-42.4203-14.0557-1.3379-.7796-2.7193-1.596-4.5084-2.6615-.3954-.2354-3.6207-2.1604-4.5783-2.7296-24.8225-14.7574-40.4237-20.673-63.4648-20.673-23.0647 0-38.34 5.9322-62.2777 20.7109a4916.491 4916.491 0 0 0-4.0443 2.5043c-1.602.9918-2.8084 1.7338-3.984 2.4486-16.8608 10.2518-27.8775 14.456-42.1665 14.456-2.4156 0-4.374 1.9646-4.374 4.388 0 2.4236 1.9584 4.3882 4.374 4.3882zm0-35.1048c16.2318 0 28.5944-4.7178 46.7006-15.7267a529.8618 529.8618 0 0 0 3.3018-2.0264c.7741-.4784 1.6467-1.0192 3.293-2.0397 2.0554-1.2732 2.6928-3.977 1.4237-6.039-1.2692-2.0622-3.9642-2.7017-6.0196-1.4284-1.0946.679-2.1896 1.3573-3.285 2.0348a521.5143 521.5143 0 0 1-3.248 1.9932c-16.8608 10.2519-27.8775 14.456-42.1665 14.456-2.4156 0-4.374 1.9646-4.374 4.388 0 2.4236 1.9584 4.3882 4.374 4.3882zm72.3825-30.673c2.8763-1.3987 5.7028-2.6303 8.5421-3.7103 2.2587-.8592 3.3955-3.3927 2.539-5.6588-.8563-2.266-3.3816-3.4066-5.6404-2.5474-3.09 1.1755-6.1535 2.5104-9.256 4.019-2.1739 1.057-3.082 3.6818-2.0284 5.8626 1.0536 2.1808 3.67 3.0919 5.8437 2.0348zm30.147-8.9225c3.2237-.3475 6.5324-.5243 9.943-.5243 21.1147 0 35.4156 5.4226 59.0052 19.4469.9498.5646 4.1709 2.487 4.5722 2.726 1.811 1.0787 3.2144 1.908 4.5805 2.704 18.2063 10.609 30.8378 15.2429 46.8139 15.2429 2.4156 0 4.374-1.9646 4.374-4.3881 0-2.4235-1.9584-4.3881-4.374-4.3881-14.1033 0-25.4298-4.1551-42.4203-14.0557-1.3379-.7796-2.7193-1.596-4.5084-2.6615-.3954-.2354-3.6207-2.1604-4.5783-2.7296C156.0795 5.9522 140.4783.0366 117.4372.0366c-3.722 0-7.3425.1935-10.8775.5746-2.4019.2589-4.1397 2.4221-3.8817 4.8317.2581 2.4097 2.4144 4.1531 4.8162 3.8942z"/>
      </g>
    </g>
    <g mask="url(#b)">
      <g transform="rotate(146 1648.0128 552.2265)">
        <path d="M4.9647 119.1422c16.2318 0 28.5944-4.7178 46.7006-15.7267 1.199-.729 2.4234-1.4823 4.0436-2.4853-.092.057 3.127-1.938 4.0353-2.4989 22.6813-14.0029 36.6017-19.4089 57.693-19.4089 12.8314 0 24.2511 2.4605 35.7084 7.2272 2.2313.9283 4.7905-.1339 5.7158-2.3724.9254-2.2387-.1334-4.806-2.3648-5.7344-12.4817-5.1929-25.0303-7.8966-39.0594-7.8966-23.0647 0-38.34 5.9322-62.2777 20.7109a4916.4908 4916.4908 0 0 0-4.0443 2.5043c-1.602.9918-2.8084 1.7338-3.984 2.4486-16.8608 10.2518-27.8775 14.456-42.1665 14.456-2.4156 0-4.374 1.9646-4.374 4.388 0 2.4236 1.9584 4.3882 4.374 4.3882zm168.1188-22.656c1.122.657 2.2416 1.318 3.3589 1.983.9498.5647 4.1709 2.487 4.5722 2.726 1.811 1.0788 3.2144 1.9081 4.5805 2.704 18.2063 10.6091 30.8378 15.243 46.8139 15.243 2.4156 0 4.374-1.9646 4.374-4.3881 0-2.4235-1.9584-4.3882-4.374-4.3882-14.1033 0-25.4298-4.155-42.4203-14.0556-1.3379-.7796-2.7193-1.596-4.5084-2.6615-.3954-.2354-3.6207-2.1604-4.5783-2.7296a559.6031 559.6031 0 0 0-3.4116-2.014c-2.0867-1.221-4.7649-.5137-5.9818 1.5798-1.217 2.0935-.5118 4.7804 1.575 6.0012zM4.9647 154.247c8.6854 0 16.778-1.561 24.8688-4.5849 2.2637-.846 3.4152-3.3728 2.5719-5.644-.8433-2.2709-3.362-3.426-5.6257-2.58-7.1438 2.67-14.2088 4.0327-21.815 4.0327-2.4156 0-4.374 1.9646-4.374 4.388 0 2.4236 1.9584 4.3882 4.374 4.3882zm47.6385-16.2988c1.6228-.9926 7.5292-4.6517 7.141-4.4121 22.6813-14.0029 36.6017-19.4089 57.693-19.4089 21.1147 0 35.4156 5.4226 59.0052 19.4468.9498.5647 4.1709 2.487 4.5722 2.726 1.811 1.0788 3.2144 1.908 4.5805 2.704 18.2063 10.6091 30.8378 15.243 46.8139 15.243 2.4156 0 4.374-1.9646 4.374-4.3881 0-2.4235-1.9584-4.3882-4.374-4.3882-14.1033 0-25.4298-4.155-42.4203-14.0556-1.3379-.7796-2.7193-1.596-4.5084-2.6615-.3954-.2354-3.6207-2.1604-4.5783-2.7296-24.8225-14.7574-40.4237-20.673-63.4648-20.673-23.0647 0-38.34 5.9322-62.2777 20.7109.3686-.2276-5.5125 3.4156-7.1104 4.3931-2.0625 1.2617-2.715 3.9618-1.4574 6.031 1.2575 2.0691 3.949 2.7238 6.0115 1.4622z"/>
        <path d="M4.9647 84.0374c16.2318 0 28.5944-4.7178 46.7006-15.7267 1.199-.729 2.4234-1.4823 4.0436-2.4853-.092.057 3.127-1.938 4.0353-2.4989 22.6813-14.0029 36.6017-19.4089 57.693-19.4089 21.1147 0 35.4156 5.4226 59.0052 19.4469.9498.5646 4.1709 2.487 4.5722 2.726 1.811 1.0787 3.2144 1.908 4.5805 2.704 18.2063 10.609 30.8378 15.2429 46.8139 15.2429 2.4156 0 4.374-1.9646 4.374-4.3881 0-2.4235-1.9584-4.3881-4.374-4.3881-14.1033 0-25.4298-4.1551-42.4203-14.0557-1.3379-.7796-2.7193-1.596-4.5084-2.6615-.3954-.2354-3.6207-2.1604-4.5783-2.7296-24.8225-14.7574-40.4237-20.673-63.4648-20.673-23.0647 0-38.34 5.9322-62.2777 20.7109a4916.491 4916.491 0 0 0-4.0443 2.5043c-1.602.9918-2.8084 1.7338-3.984 2.4486-16.8608 10.2518-27.8775 14.456-42.1665 14.456-2.4156 0-4.374 1.9646-4.374 4.388 0 2.4236 1.9584 4.3882 4.374 4.3882zm0-35.1048c16.2318 0 28.5944-4.7178 46.7006-15.7267a529.8618 529.8618 0 0 0 3.3018-2.0264c.7741-.4784 1.6467-1.0192 3.293-2.0397 2.0554-1.2732 2.6928-3.977 1.4237-6.039-1.2692-2.0622-3.9642-2.7017-6.0196-1.4284-1.0946.679-2.1896 1.3573-3.285 2.0348a521.5143 521.5143 0 0 1-3.248 1.9932c-16.8608 10.2519-27.8775 14.456-42.1665 14.456-2.4156 0-4.374 1.9646-4.374 4.388 0 2.4236 1.9584 4.3882 4.374 4.3882zm72.3825-30.673c2.8763-1.3987 5.7028-2.6303 8.5421-3.7103 2.2587-.8592 3.3955-3.3927 2.539-5.6588-.8563-2.266-3.3816-3.4066-5.6404-2.5474-3.09 1.1755-6.1535 2.5104-9.256 4.019-2.1739 1.057-3.082 3.6818-2.0284 5.8626 1.0536 2.1808 3.67 3.0919 5.8437 2.0348zm30.147-8.9225c3.2237-.3475 6.5324-.5243 9.943-.5243 21.1147 0 35.4156 5.4226 59.0052 19.4469.9498.5646 4.1709 2.487 4.5722 2.726 1.811 1.0787 3.2144 1.908 4.5805 2.704 18.2063 10.609 30.8378 15.2429 46.8139 15.2429 2.4156 0 4.374-1.9646 4.374-4.3881 0-2.4235-1.9584-4.3881-4.374-4.3881-14.1033 0-25.4298-4.1551-42.4203-14.0557-1.3379-.7796-2.7193-1.596-4.5084-2.6615-.3954-.2354-3.6207-2.1604-4.5783-2.7296C156.0795 5.9522 140.4783.0366 117.4372.0366c-3.722 0-7.3425.1935-10.8775.5746-2.4019.2589-4.1397 2.4221-3.8817 4.8317.2581 2.4097 2.4144 4.1531 4.8162 3.8942z"/>
      </g>
    </g>
    <g class="icon" mask="url(#b)">
      <g transform="rotate(-23 3201.4318 -7529.0272)">
        <path d="M0 0h512v512H0z"/>
      </g>
    </g>
    <g mask="url(#b)">
      <g transform="translate(3100 1491)">
        <g transform="rotate(60 100.0473 173.2798)">
          <path d="M21.6183 181.5307c6.8305 9.584 15.1 18.0706 24.4963 25.1408 1.9297 1.4521 4.668 1.0603 6.116-.875 1.4477-1.9356 1.0571-4.6817-.8727-6.1337-8.6809-6.532-16.3215-14.3731-22.6319-23.2272-1.4029-1.9685-4.1312-2.4236-6.094-1.0167-1.9628 1.407-2.4167 4.1433-1.0137 6.1118zm154.7876-162.848C158.1204 6.8554 136.8206.4683 114.5885.4683 51.5164.4684.3863 51.7466.3863 115.0014c0 11.2767 1.6265 22.3399 4.7938 32.9363.6928 2.3177 3.1278 3.6334 5.4387 2.9387 2.311-.6948 3.6229-3.1369 2.9302-5.4545-2.924-9.7825-4.426-19.9982-4.426-30.4205 0-58.4157 47.2185-105.7709 105.4655-105.7709 20.5398 0 40.1977 5.8948 57.082 16.8157 2.0276 1.3114 4.7313.726 6.039-1.3073 1.3075-2.0334.7239-4.7448-1.3036-6.0563zm-61.8174 210.8517c63.0721 0 114.2022-51.2782 114.2022-114.533 0-33.3053-14.2599-64.3088-38.6802-85.9155-1.8093-1.6006-4.5697-1.4274-6.1659.387-1.596 1.8144-1.4233 4.5829.3858 6.1836 22.5599 19.9605 35.7236 48.5806 35.7236 79.3449 0 58.4157-47.2185 105.7708-105.4655 105.7708-2.4126 0-4.3684 1.9615-4.3684 4.3811s1.9558 4.381 4.3684 4.381z"/>
        </g>
      </g>
    </g>
    <g mask="url(#b)">
      <g transform="rotate(110 537.9952 2252.7573)">
        <g transform="rotate(60 100.0473 173.2798)">
          <path d="M21.6183 181.5307c6.8305 9.584 15.1 18.0706 24.4963 25.1408 1.9297 1.4521 4.668 1.0603 6.116-.875 1.4477-1.9356 1.0571-4.6817-.8727-6.1337-8.6809-6.532-16.3215-14.3731-22.6319-23.2272-1.4029-1.9685-4.1312-2.4236-6.094-1.0167-1.9628 1.407-2.4167 4.1433-1.0137 6.1118zm154.7876-162.848C158.1204 6.8554 136.8206.4683 114.5885.4683 51.5164.4684.3863 51.7466.3863 115.0014c0 11.2767 1.6265 22.3399 4.7938 32.9363.6928 2.3177 3.1278 3.6334 5.4387 2.9387 2.311-.6948 3.6229-3.1369 2.9302-5.4545-2.924-9.7825-4.426-19.9982-4.426-30.4205 0-58.4157 47.2185-105.7709 105.4655-105.7709 20.5398 0 40.1977 5.8948 57.082 16.8157 2.0276 1.3114 4.7313.726 6.039-1.3073 1.3075-2.0334.7239-4.7448-1.3036-6.0563zm-61.8174 210.8517c63.0721 0 114.2022-51.2782 114.2022-114.533 0-33.3053-14.2599-64.3088-38.6802-85.9155-1.8093-1.6006-4.5697-1.4274-6.1659.387-1.596 1.8144-1.4233 4.5829.3858 6.1836 22.5599 19.9605 35.7236 48.5806 35.7236 79.3449 0 58.4157-47.2185 105.7708-105.4655 105.7708-2.4126 0-4.3684 1.9615-4.3684 4.3811s1.9558 4.381 4.3684 4.381z"/>
        </g>
      </g>
    </g>
    <g mask="url(#b)">
      <g transform="rotate(-60 1878.4132 -992.7092)">
        <g transform="rotate(60 99.1789 173.7751)">
          <path d="M21.621 181.5263c6.8306 9.5841 15.1002 18.0707 24.4964 25.1408 1.9298 1.4521 4.668 1.0603 6.116-.875 1.4478-1.9355 1.0572-4.6816-.8727-6.1337-8.6809-6.532-16.3215-14.3731-22.6319-23.2272-1.4029-1.9685-4.1312-2.4236-6.094-1.0167-1.9628 1.407-2.4166 4.1433-1.0137 6.1118zm154.7878-162.848C158.1232 6.851 136.8234.464 114.5914.464 51.5192.464.389 51.7422.389 114.997c0 11.2767 1.6266 22.3399 4.7938 32.9363.6928 2.3177 3.1278 3.6334 5.4387 2.9387 2.311-.6948 3.6229-3.1369 2.9302-5.4545-2.924-9.7825-4.426-19.9981-4.426-30.4205C9.1258 56.5813 56.3443 9.226 114.5914 9.226c20.5398 0 40.1976 5.8948 57.082 16.8157 2.0275 1.3114 4.7312.726 6.0388-1.3073 1.3076-2.0334.724-4.7448-1.3034-6.0562zM114.5914 229.53c63.072 0 114.2021-51.2782 114.2021-114.533 0-33.3053-14.2598-64.3088-38.6802-85.9155-1.8092-1.6006-4.5697-1.4274-6.1659.387-1.596 1.8144-1.4233 4.5829.3859 6.1837 22.5598 19.9604 35.7235 48.5805 35.7235 79.3448 0 58.4157-47.2185 105.7708-105.4654 105.7708-2.4127 0-4.3685 1.9615-4.3685 4.3811s1.9558 4.381 4.3685 4.381z"/>
        </g>
      </g>
    </g>
    <g mask="url(#b)">
      <g transform="translate(3800 221)">
        <g transform="rotate(90 131.7166 132.061)">
          <path d="M132.6163 10.7549l121.092 120.6815-67.8344 67.6045c-1.714 1.7082-1.7185 4.4734-.01 6.176 1.7086 1.7028 4.4832 1.6984 6.1972-.0098l70.938-70.6975c1.714-1.7082 1.7184-4.4734.0099-6.1761L135.7298 1.4857c-1.7086-1.7027-4.483-1.6982-6.197.0099l-28.3753 28.279c-1.714 1.7083-1.7185 4.4735-.0099 6.1762 1.7085 1.7027 4.483 1.6982 6.197-.0099l25.2718-25.186h-.0001zm-.233 241.7508L11.2913 131.8243 95.087 48.3129c1.714-1.7082 1.7184-4.4734.0099-6.1761s-4.4831-1.6983-6.1971.0099l-86.899 86.6045c-1.714 1.7082-1.7185 4.4733-.01 6.1761l127.279 126.8476c1.7086 1.7027 4.4832 1.6983 6.1972-.0099l23.0548-22.9767c1.714-1.7083 1.7186-4.4734.01-6.1762-1.7086-1.7027-4.483-1.6982-6.197.01l-19.9514 19.8836z"/>
        </g>
      </g>
    </g>
    <g class="icon" mask="url(#b)">
      <g transform="rotate(-158 1586.4255 528.2178)">
        <path d="M0 0h512v512H0z"/>
      </g>
    </g>
    <g class="icon" mask="url(#b)">
      <g transform="rotate(112 2369.813 1793.2774)">
        <path d="M0 0h512v512H0z"/>
      </g>
    </g>
    <g class="icon" mask="url(#b)">
      <g transform="rotate(85 1295.308 2942.4967)">
        <path d="M0 0h512v512H0z"/>
      </g>
    </g>
    <g mask="url(#b)">
      <g transform="rotate(29 -3397.7843 4012.8666)">
        <g transform="rotate(-60 178.1459 102.5044)">
          <path d="M4.9604 118.7786c16.2176 0 28.5695-4.7034 46.6599-15.6787 1.198-.7269 2.4213-1.4777 4.04-2.4777-.0918.0568 3.1243-1.9321 4.0319-2.4913 22.6616-13.9601 36.5698-19.3496 57.6427-19.3496 12.8203 0 24.23 2.453 35.6773 7.205 2.2294.9256 4.7863-.1334 5.7108-2.3651.9246-2.2318-.1332-4.7912-2.3627-5.7169-12.4708-5.177-25.0085-7.8725-39.0254-7.8725-23.0446 0-38.3065 5.9142-62.2234 20.6477a4914.0796 4914.0796 0 0 0-4.0408 2.4967c-1.6006.9888-2.806 1.7285-3.9805 2.4411C30.244 105.838 19.237 110.0291 4.9604 110.0291c-2.4136 0-4.3701 1.9587-4.3701 4.3748 0 2.416 1.9565 4.3747 4.3701 4.3747zm167.9724-22.5868a551.013 551.013 0 0 1 3.3559 1.977c.949.5629 4.1673 2.4794 4.5682 2.7176 1.8095 1.0754 3.2117 1.9023 4.5765 2.6958 18.1905 10.5767 30.811 15.1964 46.7732 15.1964 2.4135 0 4.3701-1.9586 4.3701-4.3747s-1.9566-4.3748-4.3701-4.3748c-14.091 0-25.4076-4.1424-42.3834-14.0127-1.3367-.7772-2.717-1.591-4.5044-2.6534-.395-.2347-3.6176-2.1538-4.5743-2.7212a559.3838 559.3838 0 0 0-3.4087-2.008c-2.0849-1.2173-4.7607-.512-5.9766 1.5751-1.2159 2.0871-.5114 4.7658 1.5736 5.9829zM4.9604 153.7763c8.6778 0 16.7634-1.5562 24.8471-4.5709 2.2617-.8434 3.4122-3.3626 2.5697-5.6267-.8426-2.264-3.359-3.4157-5.6208-2.5722-7.1376 2.6618-14.1964 4.0204-21.796 4.0204-2.4136 0-4.3701 1.9585-4.3701 4.3746s1.9565 4.3748 4.3701 4.3748zm47.597-16.249c1.6213-.9897 7.5226-4.6376 7.1348-4.3987 22.6616-13.9602 36.5698-19.3497 57.6426-19.3497 21.0964 0 35.385 5.406 58.9539 19.3875.949.563 4.1673 2.4795 4.5682 2.7177 1.8095 1.0754 3.2117 1.9022 4.5765 2.6958 18.1905 10.5766 30.811 15.1964 46.7732 15.1964 2.4135 0 4.3701-1.9587 4.3701-4.3748 0-2.416-1.9566-4.3747-4.3701-4.3747-14.091 0-25.4076-4.1424-42.3834-14.0127-1.3367-.7772-2.717-1.5911-4.5044-2.6534-.395-.2347-3.6176-2.1538-4.5743-2.7213-24.801-14.7124-40.3886-20.61-63.4096-20.61-23.0446 0-38.3065 5.9142-62.2234 20.6478.3682-.2269-5.5077 3.4052-7.1043 4.3797-2.0607 1.2578-2.7126 3.9497-1.4561 6.0126 1.2564 2.0628 3.9455 2.7155 6.0063 1.4577z"/>
          <path d="M4.9604 83.781c16.2176 0 28.5695-4.7034 46.6599-15.6788 1.198-.7268 2.4213-1.4777 4.04-2.4776-.0918.0567 3.1243-1.9322 4.0319-2.4913C82.3538 49.173 96.262 43.7836 117.3349 43.7836c21.0963 0 35.3848 5.406 58.9538 19.3875.949.563 4.1673 2.4794 4.5682 2.7177 1.8095 1.0754 3.2117 1.9022 4.5765 2.6958 18.1905 10.5766 30.811 15.1963 46.7732 15.1963 2.4135 0 4.3701-1.9586 4.3701-4.3747 0-2.416-1.9566-4.3747-4.3701-4.3747-14.091 0-25.4076-4.1424-42.3834-14.0127-1.3367-.7773-2.717-1.5911-4.5044-2.6534-.395-.2348-3.6176-2.1539-4.5743-2.7213-24.801-14.7124-40.3886-20.61-63.4096-20.61-23.0446 0-38.3065 5.9142-62.2234 20.6477a4914.0796 4914.0796 0 0 0-4.0408 2.4967c-1.6006.9888-2.806 1.7286-3.9805 2.4412C30.244 70.8402 19.237 75.0315 4.9604 75.0315c-2.4136 0-4.3701 1.9586-4.3701 4.3747s1.9565 4.3747 4.3701 4.3747zm0-34.9977c16.2176 0 28.5695-4.7034 46.6599-15.6788a529.6064 529.6064 0 0 0 3.2989-2.0201c.7735-.477 1.6453-1.0161 3.29-2.0335 2.0538-1.2694 2.6906-3.9649 1.4226-6.0206-1.268-2.0559-3.9607-2.6935-6.0143-1.424-1.0937.677-2.1877 1.3531-3.2822 2.0286a521.2659 521.2659 0 0 1-3.245 1.9871C30.244 35.8425 19.2368 40.0338 4.9603 40.0338c-2.4136 0-4.3701 1.9586-4.3701 4.3747s1.9565 4.3748 4.3701 4.3748zm72.3194-30.5795c2.8738-1.3943 5.6979-2.6222 8.5347-3.699 2.2568-.8565 3.3926-3.3823 2.5369-5.6414-.8557-2.2592-3.3788-3.3962-5.6356-2.5397-3.0873 1.172-6.1482 2.5028-9.248 4.0068-2.172 1.0538-3.0792 3.6705-2.0265 5.8447 1.0526 2.1742 3.6667 3.0825 5.8385 2.0286zm30.1208-8.8952c3.2209-.3464 6.5267-.5227 9.9343-.5227 21.0963 0 35.3848 5.406 58.9538 19.3875.949.563 4.1673 2.4795 4.5682 2.7177 1.8095 1.0754 3.2117 1.9022 4.5765 2.6958 18.1905 10.5766 30.811 15.1964 46.7732 15.1964 2.4135 0 4.3701-1.9587 4.3701-4.3748 0-2.416-1.9566-4.3747-4.3701-4.3747-14.091 0-25.4076-4.1424-42.3834-14.0127-1.3367-.7772-2.717-1.5911-4.5044-2.6534-.395-.2347-3.6176-2.1538-4.5743-2.7213-24.801-14.7124-40.3886-20.61-63.4096-20.61-3.7187 0-7.336.193-10.868.5729-2.3998.2581-4.1361 2.4148-3.8783 4.817.2579 2.4023 2.4123 4.1404 4.812 3.8823z"/>
        </g>
      </g>
    </g>
    <g class="icon" mask="url(#b)">
      <g transform="rotate(90 -451 1566)">
        <path d="M0 0h512v512H0z"/>
      </g>
    </g>
    <g class="icon" mask="url(#b)">
      <g transform="rotate(146 766.7984 1757.6831)">
        <path d="M0 0h512v512H0z"/>
      </g>
    </g>
    <g mask="url(#b)">
      <g transform="translate(1311 2936)">
        <g transform="rotate(30 64.6904 247.4363)">
          <path d="M132.4893 10.7811l120.976 120.976-67.7694 67.7696c-1.7124 1.7123-1.7168 4.4843-.0099 6.1911 1.7069 1.707 4.4788 1.7025 6.1912-.0099l70.87-70.87c1.7124-1.7124 1.7169-4.4843.01-6.1912L135.5999 1.4893c-1.707-1.7069-4.4788-1.7024-6.1912.01l-28.348 28.348c-1.7124 1.7124-1.717 4.4843-.01 6.1912 1.7069 1.707 4.4788 1.7024 6.1912-.0099l25.2475-25.2475h-.0001zm-.2328 242.341L11.2805 132.146l83.7153-83.7153c1.7124-1.7124 1.7168-4.4843.01-6.1912-1.707-1.7069-4.4789-1.7024-6.1913.01L1.9987 129.0653c-1.7123 1.7124-1.7168 4.4842-.0099 6.1912L129.146 262.4138c1.707 1.7069 4.4788 1.7025 6.1912-.01l23.0328-23.0327c1.7123-1.7124 1.7168-4.4843.0099-6.1912-1.707-1.707-4.4788-1.7024-6.1911.0099l-19.9323 19.9322z"/>
        </g>
      </g>
    </g>
    <g mask="url(#b)">
      <g transform="translate(4152 879)">
        <g transform="rotate(30 50.8774 194.3797)">
          <path d="M12.4582 198.424l28.1149-49.6295c1.1927-2.1052.4622-4.784-1.6314-5.983-2.0937-1.1992-4.7578-.4647-5.9504 1.6405l-31.83 56.1875c-1.6567 2.9245.4437 6.558 3.7909 6.558h174.5112c2.4095 0 4.3628-1.964 4.3628-4.3868s-1.9533-4.3868-4.3628-4.3868H12.4582zm41.1093-71.0656l7.479-12.5338c1.2397-2.0775.5697-4.7722-1.4964-6.0187-2.0662-1.2465-4.746-.5728-5.9857 1.5046l-7.479 12.5338c-1.2397 2.0775-.5697 4.7722 1.4963 6.0188 2.0662 1.2465 4.7461.5728 5.9857-1.5047h.0001zm66.0267-113.9267L226.7208 198.424h-27.3134c-2.4095 0-4.3628 1.964-4.3628 4.3868s1.9533 4.3869 4.3628 4.3869h34.9022c3.3657 0 5.4639-3.6698 3.7702-6.5943L123.4011 2.5696c-1.6745-2.8916-5.8227-2.9093-7.5215-.0322L68.5122 82.7536c-1.2301 2.0832-.5478 4.7748 1.524 6.0117 2.0718 1.237 4.7486.5508 5.9787-1.5324l43.5793-73.8012z"/>
        </g>
      </g>
    </g>
    <g class="icon" mask="url(#b)">
      <g transform="rotate(112 1040.323 2333.1118)">
        <path d="M0 0h512v512H0z"/>
      </g>
    </g>
    <g mask="url(#b)">
      <g transform="rotate(36 -3918.5373 5137.9858)">
        <path d="M12.4533 198.2255l28.1041-49.5798c1.1922-2.1031.462-4.7792-1.6308-5.977-2.0928-1.198-4.7559-.4643-5.948 1.6388L1.1609 200.4388c-1.6562 2.9216.4435 6.5516 3.7894 6.5516h174.4436c2.4086 0 4.3612-1.9621 4.3612-4.3825 0-2.4204-1.9526-4.3825-4.3612-4.3825H12.4533v.0001zm41.0935-70.9945l7.4761-12.5212c1.2392-2.0754.5695-4.7674-1.4958-6.0127-2.0654-1.2453-4.7443-.5723-5.9835 1.5031l-7.476 12.5213c-1.2393 2.0754-.5695 4.7674 1.4957 6.0127 2.0654 1.2452 4.7443.5722 5.9834-1.5032zm66.001-113.8127l107.0853 184.8072h-27.3028c-2.4086 0-4.3611 1.9621-4.3611 4.3825 0 2.4204 1.9525 4.3825 4.3611 4.3825h34.8887c3.3643 0 5.4617-3.6661 3.7688-6.5877L123.3534 2.5671c-1.674-2.8888-5.8205-2.9065-7.5186-.0322l-47.349 80.136c-1.2298 2.0811-.5477 4.77 1.5233 6.0057 2.071 1.2357 4.7468.5502 5.9764-1.531l43.5624-73.7273z"/>
      </g>
    </g>
    <g mask="url(#b)">
      <g transform="rotate(-38 4008.7782 -2415.7715)">
        <g transform="rotate(30 38.4894 144.9983)">
          <path d="M4.9497 119.0355c16.1826 0 28.5078-4.7135 46.5592-15.7126 1.1954-.7284 2.416-1.481 4.0313-2.483-.0916.0569 3.1175-1.9363 4.0231-2.4967 22.6127-13.9904 36.491-19.3915 57.5184-19.3915 12.7926 0 24.1777 2.4582 35.6003 7.2206 2.2246.9276 4.776-.1337 5.6985-2.3702.9225-2.2367-.133-4.8016-2.3577-5.7293-12.4439-5.1882-24.9544-7.8895-38.9411-7.8895-22.9949 0-38.2239 5.927-62.0891 20.6923a4899.8684 4899.8684 0 0 0-4.0321 2.5021c-1.5972.991-2.8 1.7323-3.9719 2.4465-16.8098 10.2426-27.7932 14.443-42.0389 14.443-2.4084 0-4.3607 1.9628-4.3607 4.3841s1.9523 4.3842 4.3607 4.3842zm167.6099-22.6357a549.2872 549.2872 0 0 1 3.3486 1.9813c.947.5641 4.1583 2.4848 4.5584 2.7236 1.8055 1.0777 3.2047 1.9063 4.5666 2.7016 18.1513 10.5995 30.7445 15.2292 46.6722 15.2292 2.4084 0 4.3607-1.9629 4.3607-4.3842 0-2.4213-1.9523-4.3842-4.3607-4.3842-14.0606 0-25.3528-4.1513-42.2919-14.043-1.3338-.7789-2.711-1.5945-4.4947-2.6591-.3942-.2353-3.6098-2.1585-4.5644-2.7272a557.6306 557.6306 0 0 0-3.4013-2.0123c-2.0804-1.2199-4.7505-.5131-5.9637 1.5785-1.2133 2.0916-.5103 4.7761 1.5702 5.9958zM4.9497 154.1088c8.6591 0 16.7272-1.5594 24.7935-4.5807 2.2568-.8452 3.4048-3.3698 2.564-5.6389-.8407-2.2689-3.3517-3.423-5.6085-2.5777-7.1223 2.6676-14.1658 4.029-21.749 4.029-2.4084 0-4.3607 1.9629-4.3607 4.3842 0 2.4213 1.9523 4.3842 4.3607 4.3842zm47.4942-16.2841c1.6179-.9918 7.5065-4.6476 7.1195-4.4082 22.6126-13.9903 36.4908-19.3915 57.5182-19.3915 21.0509 0 35.3085 5.4177 58.8266 19.4294.947.5642 4.1583 2.4848 4.5584 2.7236 1.8055 1.0777 3.2047 1.9063 4.5666 2.7016 18.1513 10.5996 30.7445 15.2293 46.6722 15.2293 2.4084 0 4.3607-1.9629 4.3607-4.3842 0-2.4213-1.9523-4.3842-4.3607-4.3842-14.0606 0-25.3528-4.1514-42.2919-14.043-1.3338-.779-2.711-1.5946-4.4947-2.6592-.3942-.2352-3.6098-2.1585-4.5644-2.7271-24.7474-14.7443-40.3014-20.6546-63.2727-20.6546-22.9949 0-38.2239 5.927-62.0891 20.6924.3674-.2274-5.4959 3.4126-7.089 4.3892-2.0563 1.2605-2.7068 3.9583-1.453 6.0256 1.2538 2.0673 3.937 2.7214 5.9933 1.4609z"/>
          <path d="M4.9497 83.9621c16.1826 0 28.5078-4.7135 46.5592-15.7126 1.1954-.7284 2.416-1.481 4.0313-2.483-.0916.0569 3.1175-1.9363 4.0231-2.4967 22.6127-13.9904 36.491-19.3915 57.5184-19.3915 21.0508 0 35.3084 5.4177 58.8265 19.4294.947.5642 4.1583 2.4848 4.5584 2.7236 1.8055 1.0777 3.2047 1.9063 4.5666 2.7016 18.1513 10.5995 30.7445 15.2292 46.6722 15.2292 2.4084 0 4.3607-1.9628 4.3607-4.3841 0-2.4214-1.9523-4.3842-4.3607-4.3842-14.0606 0-25.3528-4.1514-42.2919-14.043-1.3338-.779-2.711-1.5946-4.4947-2.6592-.3942-.2352-3.6098-2.1585-4.5644-2.7272C155.607 41.0202 140.053 35.11 117.0817 35.11c-22.9949 0-38.2239 5.927-62.0891 20.6924a4899.8684 4899.8684 0 0 0-4.0321 2.502c-1.5972.991-2.8 1.7323-3.9719 2.4465-16.8098 10.2426-27.7932 14.443-42.0389 14.443-2.4084 0-4.3607 1.9628-4.3607 4.3842 0 2.4213 1.9523 4.3841 4.3607 4.3841zm0-35.0733c16.1826 0 28.5078-4.7136 46.5592-15.7127a528.0524 528.0524 0 0 0 3.2918-2.0245c.7718-.478 1.6417-1.0183 3.283-2.0379 2.0492-1.272 2.6847-3.9734 1.4194-6.0336-1.2653-2.0603-3.9522-2.6993-6.0014-1.427-1.0912.6783-2.1829 1.356-3.275 2.033a519.7465 519.7465 0 0 1-3.2381 1.9913c-16.8098 10.2427-27.7932 14.443-42.0389 14.443-2.4084 0-4.3607 1.9629-4.3607 4.3842 0 2.4213 1.9523 4.3842 4.3607 4.3842zM77.113 18.2432c2.8677-1.3974 5.6856-2.6279 8.5163-3.707 2.2519-.8584 3.3853-3.3896 2.5314-5.6536-.8539-2.264-3.3715-3.4036-5.6234-2.5452-3.0807 1.1744-6.135 2.5081-9.228 4.0154-2.1673 1.0561-3.0727 3.6785-2.0222 5.8574 1.0503 2.1788 3.6588 3.0891 5.826 2.033zm30.0558-8.9144c3.214-.3472 6.5126-.5239 9.9129-.5239 21.0508 0 35.3084 5.4178 58.8265 19.4294.947.5642 4.1583 2.4849 4.5584 2.7236 1.8055 1.0778 3.2047 1.9063 4.5666 2.7016 18.1513 10.5996 30.7445 15.2293 46.6722 15.2293 2.4084 0 4.3607-1.9629 4.3607-4.3842 0-2.4213-1.9523-4.3842-4.3607-4.3842-14.0606 0-25.3528-4.1514-42.2919-14.043-1.3338-.779-2.711-1.5946-4.4947-2.6591-.3942-.2353-3.6098-2.1586-4.5644-2.7272C155.607 5.9469 140.053.0366 117.0817.0366c-3.7107 0-7.3203.1933-10.8446.574-2.3946.2587-4.1272 2.42-3.8699 4.8275.2573 2.4074 2.407 4.1493 4.8016 3.8907z"/>
        </g>
      </g>
    </g>
    <g class="icon" mask="url(#b)">
      <g transform="rotate(-22 10068.228 -1443.1462)">
        <path d="M0 0h512v512H0z"/>
      </g>
    </g>
    <g class="icon" mask="url(#b)">
      <g transform="rotate(-22 164.0127 -3368.3306)">
        <path d="M0 0h512v512H0z"/>
      </g>
    </g>
    <g mask="url(#b)">
      <g transform="translate(3498 2837)">
        <path d="M13.527 117.2345l75.6027-43.7257c2.0884-1.2078 2.8007-3.8884 1.5912-5.9871-1.2096-2.0987-3.883-2.821-5.9715-1.613L2.641 113.3967c-2.901 1.678-2.9074 5.8785-.0114 7.5813L198.733 236.29c2.9252 1.7201 6.5956-.4028 6.5714-3.8006l-.3736-51.9923c-.0175-2.4214-1.988-4.3757-4.4012-4.365-2.4134.0107-4.3556 1.9824-4.3382 4.4038l.3182 44.2952L13.5271 117.2345zm182.5496 39.8451c.0175 2.4215 1.988 4.3758 4.4013 4.3652 2.4133-.0109 4.3555-1.9825 4.3382-4.404L203.7203 4.5153c-.0243-3.3639-3.6588-5.4586-6.5599-3.7808L166.91 18.2302c-2.0883 1.2078-2.8007 3.8883-1.5911 5.987 1.2096 2.0988 3.8831 2.821 5.9714 1.6132l23.7448-13.7331 1.0415 144.9823zM136.7657 35.792l-15.1252 8.7478c-2.0884 1.2078-2.8007 3.8883-1.5912 5.987 1.2097 2.0988 3.8832 2.821 5.9715 1.6132l15.1253-8.7478c2.0883-1.208 2.8007-3.8884 1.5911-5.9872-1.2096-2.0988-3.8831-2.821-5.9715-1.613z"/>
      </g>
    </g>
    <g class="icon" mask="url(#b)">
      <g transform="rotate(-102 2799.6978 666.5334)">
        <path d="M0 0h512v512H0z"/>
      </g>
    </g>
    <g mask="url(#b)">
      <g transform="rotate(-120 1220.1797 1304.795)">
        <g transform="rotate(60 100.0473 173.2798)">
          <path d="M21.6183 181.5307c6.8305 9.584 15.1 18.0706 24.4963 25.1408 1.9297 1.4521 4.668 1.0603 6.116-.875 1.4477-1.9356 1.0571-4.6817-.8727-6.1337-8.6809-6.532-16.3215-14.3731-22.6319-23.2272-1.4029-1.9685-4.1312-2.4236-6.094-1.0167-1.9628 1.407-2.4167 4.1433-1.0137 6.1118zm154.7876-162.848C158.1204 6.8554 136.8206.4683 114.5885.4683 51.5164.4684.3863 51.7466.3863 115.0014c0 11.2767 1.6265 22.3399 4.7938 32.9363.6928 2.3177 3.1278 3.6334 5.4387 2.9387 2.311-.6948 3.6229-3.1369 2.9302-5.4545-2.924-9.7825-4.426-19.9982-4.426-30.4205 0-58.4157 47.2185-105.7709 105.4655-105.7709 20.5398 0 40.1977 5.8948 57.082 16.8157 2.0276 1.3114 4.7313.726 6.039-1.3073 1.3075-2.0334.7239-4.7448-1.3036-6.0563zm-61.8174 210.8517c63.0721 0 114.2022-51.2782 114.2022-114.533 0-33.3053-14.2599-64.3088-38.6802-85.9155-1.8093-1.6006-4.5697-1.4274-6.1659.387-1.596 1.8144-1.4233 4.5829.3858 6.1836 22.5599 19.9605 35.7236 48.5806 35.7236 79.3449 0 58.4157-47.2185 105.7708-105.4655 105.7708-2.4126 0-4.3684 1.9615-4.3684 4.3811s1.9558 4.381 4.3684 4.381z"/>
        </g>
      </g>
    </g>
    <g class="icon" mask="url(#b)">
      <g transform="rotate(-158 373.9022 1548.6071)">
        <path d="M0 0h512v512H0z"/>
      </g>
    </g>
    <g class="icon" mask="url(#b)">
      <g transform="rotate(-158 2597.9022 1116.3052)">
        <path d="M0 0h512v512H0z"/>
      </g>
    </g>
    <g class="icon" mask="url(#b)">
      <g transform="rotate(-87 2155.655 1536.9903)">
        <path d="M0 0h512v512H0z"/>
      </g>
    </g>
    <g mask="url(#b)">
      <g transform="translate(4366 3452)">
        <path d="M4.9647 119.1422c16.2318 0 28.5944-4.7178 46.7006-15.7267 1.199-.729 2.4234-1.4823 4.0436-2.4853-.092.057 3.127-1.938 4.0353-2.4989 22.6813-14.0029 36.6017-19.4089 57.693-19.4089 12.8314 0 24.2511 2.4605 35.7084 7.2272 2.2313.9283 4.7905-.1339 5.7158-2.3724.9254-2.2387-.1334-4.806-2.3648-5.7344-12.4817-5.1929-25.0303-7.8966-39.0594-7.8966-23.0647 0-38.34 5.9322-62.2777 20.7109a4916.4908 4916.4908 0 0 0-4.0443 2.5043c-1.602.9918-2.8084 1.7338-3.984 2.4486-16.8608 10.2518-27.8775 14.456-42.1665 14.456-2.4156 0-4.374 1.9646-4.374 4.388 0 2.4236 1.9584 4.3882 4.374 4.3882zm168.1188-22.656c1.122.657 2.2416 1.318 3.3589 1.983.9498.5647 4.1709 2.487 4.5722 2.726 1.811 1.0788 3.2144 1.9081 4.5805 2.704 18.2063 10.6091 30.8378 15.243 46.8139 15.243 2.4156 0 4.374-1.9646 4.374-4.3881 0-2.4235-1.9584-4.3882-4.374-4.3882-14.1033 0-25.4298-4.155-42.4203-14.0556-1.3379-.7796-2.7193-1.596-4.5084-2.6615-.3954-.2354-3.6207-2.1604-4.5783-2.7296a559.6031 559.6031 0 0 0-3.4116-2.014c-2.0867-1.221-4.7649-.5137-5.9818 1.5798-1.217 2.0935-.5118 4.7804 1.575 6.0012zM4.9647 154.247c8.6854 0 16.778-1.561 24.8688-4.5849 2.2637-.846 3.4152-3.3728 2.5719-5.644-.8433-2.2709-3.362-3.426-5.6257-2.58-7.1438 2.67-14.2088 4.0327-21.815 4.0327-2.4156 0-4.374 1.9646-4.374 4.388 0 2.4236 1.9584 4.3882 4.374 4.3882zm47.6385-16.2988c1.6228-.9926 7.5292-4.6517 7.141-4.4121 22.6813-14.0029 36.6017-19.4089 57.693-19.4089 21.1147 0 35.4156 5.4226 59.0052 19.4468.9498.5647 4.1709 2.487 4.5722 2.726 1.811 1.0788 3.2144 1.908 4.5805 2.704 18.2063 10.6091 30.8378 15.243 46.8139 15.243 2.4156 0 4.374-1.9646 4.374-4.3881 0-2.4235-1.9584-4.3882-4.374-4.3882-14.1033 0-25.4298-4.155-42.4203-14.0556-1.3379-.7796-2.7193-1.596-4.5084-2.6615-.3954-.2354-3.6207-2.1604-4.5783-2.7296-24.8225-14.7574-40.4237-20.673-63.4648-20.673-23.0647 0-38.34 5.9322-62.2777 20.7109.3686-.2276-5.5125 3.4156-7.1104 4.3931-2.0625 1.2617-2.715 3.9618-1.4574 6.031 1.2575 2.0691 3.949 2.7238 6.0115 1.4622z"/>
        <path d="M4.9647 84.0374c16.2318 0 28.5944-4.7178 46.7006-15.7267 1.199-.729 2.4234-1.4823 4.0436-2.4853-.092.057 3.127-1.938 4.0353-2.4989 22.6813-14.0029 36.6017-19.4089 57.693-19.4089 21.1147 0 35.4156 5.4226 59.0052 19.4469.9498.5646 4.1709 2.487 4.5722 2.726 1.811 1.0787 3.2144 1.908 4.5805 2.704 18.2063 10.609 30.8378 15.2429 46.8139 15.2429 2.4156 0 4.374-1.9646 4.374-4.3881 0-2.4235-1.9584-4.3881-4.374-4.3881-14.1033 0-25.4298-4.1551-42.4203-14.0557-1.3379-.7796-2.7193-1.596-4.5084-2.6615-.3954-.2354-3.6207-2.1604-4.5783-2.7296-24.8225-14.7574-40.4237-20.673-63.4648-20.673-23.0647 0-38.34 5.9322-62.2777 20.7109a4916.491 4916.491 0 0 0-4.0443 2.5043c-1.602.9918-2.8084 1.7338-3.984 2.4486-16.8608 10.2518-27.8775 14.456-42.1665 14.456-2.4156 0-4.374 1.9646-4.374 4.388 0 2.4236 1.9584 4.3882 4.374 4.3882zm0-35.1048c16.2318 0 28.5944-4.7178 46.7006-15.7267a529.8618 529.8618 0 0 0 3.3018-2.0264c.7741-.4784 1.6467-1.0192 3.293-2.0397 2.0554-1.2732 2.6928-3.977 1.4237-6.039-1.2692-2.0622-3.9642-2.7017-6.0196-1.4284-1.0946.679-2.1896 1.3573-3.285 2.0348a521.5143 521.5143 0 0 1-3.248 1.9932c-16.8608 10.2519-27.8775 14.456-42.1665 14.456-2.4156 0-4.374 1.9646-4.374 4.388 0 2.4236 1.9584 4.3882 4.374 4.3882zm72.3825-30.673c2.8763-1.3987 5.7028-2.6303 8.5421-3.7103 2.2587-.8592 3.3955-3.3927 2.539-5.6588-.8563-2.266-3.3816-3.4066-5.6404-2.5474-3.09 1.1755-6.1535 2.5104-9.256 4.019-2.1739 1.057-3.082 3.6818-2.0284 5.8626 1.0536 2.1808 3.67 3.0919 5.8437 2.0348zm30.147-8.9225c3.2237-.3475 6.5324-.5243 9.943-.5243 21.1147 0 35.4156 5.4226 59.0052 19.4469.9498.5646 4.1709 2.487 4.5722 2.726 1.811 1.0787 3.2144 1.908 4.5805 2.704 18.2063 10.609 30.8378 15.2429 46.8139 15.2429 2.4156 0 4.374-1.9646 4.374-4.3881 0-2.4235-1.9584-4.3881-4.374-4.3881-14.1033 0-25.4298-4.1551-42.4203-14.0557-1.3379-.7796-2.7193-1.596-4.5084-2.6615-.3954-.2354-3.6207-2.1604-4.5783-2.7296C156.0795 5.9522 140.4783.0366 117.4372.0366c-3.722 0-7.3425.1935-10.8775.5746-2.4019.2589-4.1397 2.4221-3.8817 4.8317.2581 2.4097 2.4144 4.1531 4.8162 3.8942z"/>
      </g>
    </g>
    <g class="icon" mask="url(#b)">
      <g transform="rotate(12 -14018.7328 18840.5113)">
        <path d="M0 0h512v512H0z"/>
      </g>
    </g>
    <g class="icon" mask="url(#b)">
      <g transform="rotate(12 4305.9331 16914.5113)">
        <path d="M0 0h512v512H0z"/>
      </g>
    </g>
    <g mask="url(#b)">
      <g transform="rotate(27 -1208.8303 1332.1467)">
        <g transform="rotate(-60 178.1459 102.5044)">
          <path d="M4.9604 118.7786c16.2176 0 28.5695-4.7034 46.6599-15.6787 1.198-.7269 2.4213-1.4777 4.04-2.4777-.0918.0568 3.1243-1.9321 4.0319-2.4913 22.6616-13.9601 36.5698-19.3496 57.6427-19.3496 12.8203 0 24.23 2.453 35.6773 7.205 2.2294.9256 4.7863-.1334 5.7108-2.3651.9246-2.2318-.1332-4.7912-2.3627-5.7169-12.4708-5.177-25.0085-7.8725-39.0254-7.8725-23.0446 0-38.3065 5.9142-62.2234 20.6477a4914.0796 4914.0796 0 0 0-4.0408 2.4967c-1.6006.9888-2.806 1.7285-3.9805 2.4411C30.244 105.838 19.237 110.0291 4.9604 110.0291c-2.4136 0-4.3701 1.9587-4.3701 4.3748 0 2.416 1.9565 4.3747 4.3701 4.3747zm167.9724-22.5868a551.013 551.013 0 0 1 3.3559 1.977c.949.5629 4.1673 2.4794 4.5682 2.7176 1.8095 1.0754 3.2117 1.9023 4.5765 2.6958 18.1905 10.5767 30.811 15.1964 46.7732 15.1964 2.4135 0 4.3701-1.9586 4.3701-4.3747s-1.9566-4.3748-4.3701-4.3748c-14.091 0-25.4076-4.1424-42.3834-14.0127-1.3367-.7772-2.717-1.591-4.5044-2.6534-.395-.2347-3.6176-2.1538-4.5743-2.7212a559.3838 559.3838 0 0 0-3.4087-2.008c-2.0849-1.2173-4.7607-.512-5.9766 1.5751-1.2159 2.0871-.5114 4.7658 1.5736 5.9829zM4.9604 153.7763c8.6778 0 16.7634-1.5562 24.8471-4.5709 2.2617-.8434 3.4122-3.3626 2.5697-5.6267-.8426-2.264-3.359-3.4157-5.6208-2.5722-7.1376 2.6618-14.1964 4.0204-21.796 4.0204-2.4136 0-4.3701 1.9585-4.3701 4.3746s1.9565 4.3748 4.3701 4.3748zm47.597-16.249c1.6213-.9897 7.5226-4.6376 7.1348-4.3987 22.6616-13.9602 36.5698-19.3497 57.6426-19.3497 21.0964 0 35.385 5.406 58.9539 19.3875.949.563 4.1673 2.4795 4.5682 2.7177 1.8095 1.0754 3.2117 1.9022 4.5765 2.6958 18.1905 10.5766 30.811 15.1964 46.7732 15.1964 2.4135 0 4.3701-1.9587 4.3701-4.3748 0-2.416-1.9566-4.3747-4.3701-4.3747-14.091 0-25.4076-4.1424-42.3834-14.0127-1.3367-.7772-2.717-1.5911-4.5044-2.6534-.395-.2347-3.6176-2.1538-4.5743-2.7213-24.801-14.7124-40.3886-20.61-63.4096-20.61-23.0446 0-38.3065 5.9142-62.2234 20.6478.3682-.2269-5.5077 3.4052-7.1043 4.3797-2.0607 1.2578-2.7126 3.9497-1.4561 6.0126 1.2564 2.0628 3.9455 2.7155 6.0063 1.4577z"/>
          <path d="M4.9604 83.781c16.2176 0 28.5695-4.7034 46.6599-15.6788 1.198-.7268 2.4213-1.4777 4.04-2.4776-.0918.0567 3.1243-1.9322 4.0319-2.4913C82.3538 49.173 96.262 43.7836 117.3349 43.7836c21.0963 0 35.3848 5.406 58.9538 19.3875.949.563 4.1673 2.4794 4.5682 2.7177 1.8095 1.0754 3.2117 1.9022 4.5765 2.6958 18.1905 10.5766 30.811 15.1963 46.7732 15.1963 2.4135 0 4.3701-1.9586 4.3701-4.3747 0-2.416-1.9566-4.3747-4.3701-4.3747-14.091 0-25.4076-4.1424-42.3834-14.0127-1.3367-.7773-2.717-1.5911-4.5044-2.6534-.395-.2348-3.6176-2.1539-4.5743-2.7213-24.801-14.7124-40.3886-20.61-63.4096-20.61-23.0446 0-38.3065 5.9142-62.2234 20.6477a4914.0796 4914.0796 0 0 0-4.0408 2.4967c-1.6006.9888-2.806 1.7286-3.9805 2.4412C30.244 70.8402 19.237 75.0315 4.9604 75.0315c-2.4136 0-4.3701 1.9586-4.3701 4.3747s1.9565 4.3747 4.3701 4.3747zm0-34.9977c16.2176 0 28.5695-4.7034 46.6599-15.6788a529.6064 529.6064 0 0 0 3.2989-2.0201c.7735-.477 1.6453-1.0161 3.29-2.0335 2.0538-1.2694 2.6906-3.9649 1.4226-6.0206-1.268-2.0559-3.9607-2.6935-6.0143-1.424-1.0937.677-2.1877 1.3531-3.2822 2.0286a521.2659 521.2659 0 0 1-3.245 1.9871C30.244 35.8425 19.2368 40.0338 4.9603 40.0338c-2.4136 0-4.3701 1.9586-4.3701 4.3747s1.9565 4.3748 4.3701 4.3748zm72.3194-30.5795c2.8738-1.3943 5.6979-2.6222 8.5347-3.699 2.2568-.8565 3.3926-3.3823 2.5369-5.6414-.8557-2.2592-3.3788-3.3962-5.6356-2.5397-3.0873 1.172-6.1482 2.5028-9.248 4.0068-2.172 1.0538-3.0792 3.6705-2.0265 5.8447 1.0526 2.1742 3.6667 3.0825 5.8385 2.0286zm30.1208-8.8952c3.2209-.3464 6.5267-.5227 9.9343-.5227 21.0963 0 35.3848 5.406 58.9538 19.3875.949.563 4.1673 2.4795 4.5682 2.7177 1.8095 1.0754 3.2117 1.9022 4.5765 2.6958 18.1905 10.5766 30.811 15.1964 46.7732 15.1964 2.4135 0 4.3701-1.9587 4.3701-4.3748 0-2.416-1.9566-4.3747-4.3701-4.3747-14.091 0-25.4076-4.1424-42.3834-14.0127-1.3367-.7772-2.717-1.5911-4.5044-2.6534-.395-.2347-3.6176-2.1538-4.5743-2.7213-24.801-14.7124-40.3886-20.61-63.4096-20.61-3.7187 0-7.336.193-10.868.5729-2.3998.2581-4.1361 2.4148-3.8783 4.817.2579 2.4023 2.4123 4.1404 4.812 3.8823z"/>
        </g>
      </g>
    </g>
    <g mask="url(#b)">
      <g transform="translate(-82 3451)">
        <path d="M4.9647 119.1422c16.2318 0 28.5944-4.7178 46.7006-15.7267 1.199-.729 2.4234-1.4823 4.0436-2.4853-.092.057 3.127-1.938 4.0353-2.4989 22.6813-14.0029 36.6017-19.4089 57.693-19.4089 12.8314 0 24.2511 2.4605 35.7084 7.2272 2.2313.9283 4.7905-.1339 5.7158-2.3724.9254-2.2387-.1334-4.806-2.3648-5.7344-12.4817-5.1929-25.0303-7.8966-39.0594-7.8966-23.0647 0-38.34 5.9322-62.2777 20.7109a4916.4908 4916.4908 0 0 0-4.0443 2.5043c-1.602.9918-2.8084 1.7338-3.984 2.4486-16.8608 10.2518-27.8775 14.456-42.1665 14.456-2.4156 0-4.374 1.9646-4.374 4.388 0 2.4236 1.9584 4.3882 4.374 4.3882zm168.1188-22.656c1.122.657 2.2416 1.318 3.3589 1.983.9498.5647 4.1709 2.487 4.5722 2.726 1.811 1.0788 3.2144 1.9081 4.5805 2.704 18.2063 10.6091 30.8378 15.243 46.8139 15.243 2.4156 0 4.374-1.9646 4.374-4.3881 0-2.4235-1.9584-4.3882-4.374-4.3882-14.1033 0-25.4298-4.155-42.4203-14.0556-1.3379-.7796-2.7193-1.596-4.5084-2.6615-.3954-.2354-3.6207-2.1604-4.5783-2.7296a559.6031 559.6031 0 0 0-3.4116-2.014c-2.0867-1.221-4.7649-.5137-5.9818 1.5798-1.217 2.0935-.5118 4.7804 1.575 6.0012zM4.9647 154.247c8.6854 0 16.778-1.561 24.8688-4.5849 2.2637-.846 3.4152-3.3728 2.5719-5.644-.8433-2.2709-3.362-3.426-5.6257-2.58-7.1438 2.67-14.2088 4.0327-21.815 4.0327-2.4156 0-4.374 1.9646-4.374 4.388 0 2.4236 1.9584 4.3882 4.374 4.3882zm47.6385-16.2988c1.6228-.9926 7.5292-4.6517 7.141-4.4121 22.6813-14.0029 36.6017-19.4089 57.693-19.4089 21.1147 0 35.4156 5.4226 59.0052 19.4468.9498.5647 4.1709 2.487 4.5722 2.726 1.811 1.0788 3.2144 1.908 4.5805 2.704 18.2063 10.6091 30.8378 15.243 46.8139 15.243 2.4156 0 4.374-1.9646 4.374-4.3881 0-2.4235-1.9584-4.3882-4.374-4.3882-14.1033 0-25.4298-4.155-42.4203-14.0556-1.3379-.7796-2.7193-1.596-4.5084-2.6615-.3954-.2354-3.6207-2.1604-4.5783-2.7296-24.8225-14.7574-40.4237-20.673-63.4648-20.673-23.0647 0-38.34 5.9322-62.2777 20.7109.3686-.2276-5.5125 3.4156-7.1104 4.3931-2.0625 1.2617-2.715 3.9618-1.4574 6.031 1.2575 2.0691 3.949 2.7238 6.0115 1.4622z"/>
        <path d="M4.9647 84.0374c16.2318 0 28.5944-4.7178 46.7006-15.7267 1.199-.729 2.4234-1.4823 4.0436-2.4853-.092.057 3.127-1.938 4.0353-2.4989 22.6813-14.0029 36.6017-19.4089 57.693-19.4089 21.1147 0 35.4156 5.4226 59.0052 19.4469.9498.5646 4.1709 2.487 4.5722 2.726 1.811 1.0787 3.2144 1.908 4.5805 2.704 18.2063 10.609 30.8378 15.2429 46.8139 15.2429 2.4156 0 4.374-1.9646 4.374-4.3881 0-2.4235-1.9584-4.3881-4.374-4.3881-14.1033 0-25.4298-4.1551-42.4203-14.0557-1.3379-.7796-2.7193-1.596-4.5084-2.6615-.3954-.2354-3.6207-2.1604-4.5783-2.7296-24.8225-14.7574-40.4237-20.673-63.4648-20.673-23.0647 0-38.34 5.9322-62.2777 20.7109a4916.491 4916.491 0 0 0-4.0443 2.5043c-1.602.9918-2.8084 1.7338-3.984 2.4486-16.8608 10.2518-27.8775 14.456-42.1665 14.456-2.4156 0-4.374 1.9646-4.374 4.388 0 2.4236 1.9584 4.3882 4.374 4.3882zm0-35.1048c16.2318 0 28.5944-4.7178 46.7006-15.7267a529.8618 529.8618 0 0 0 3.3018-2.0264c.7741-.4784 1.6467-1.0192 3.293-2.0397 2.0554-1.2732 2.6928-3.977 1.4237-6.039-1.2692-2.0622-3.9642-2.7017-6.0196-1.4284-1.0946.679-2.1896 1.3573-3.285 2.0348a521.5143 521.5143 0 0 1-3.248 1.9932c-16.8608 10.2519-27.8775 14.456-42.1665 14.456-2.4156 0-4.374 1.9646-4.374 4.388 0 2.4236 1.9584 4.3882 4.374 4.3882zm72.3825-30.673c2.8763-1.3987 5.7028-2.6303 8.5421-3.7103 2.2587-.8592 3.3955-3.3927 2.539-5.6588-.8563-2.266-3.3816-3.4066-5.6404-2.5474-3.09 1.1755-6.1535 2.5104-9.256 4.019-2.1739 1.057-3.082 3.6818-2.0284 5.8626 1.0536 2.1808 3.67 3.0919 5.8437 2.0348zm30.147-8.9225c3.2237-.3475 6.5324-.5243 9.943-.5243 21.1147 0 35.4156 5.4226 59.0052 19.4469.9498.5646 4.1709 2.487 4.5722 2.726 1.811 1.0787 3.2144 1.908 4.5805 2.704 18.2063 10.609 30.8378 15.2429 46.8139 15.2429 2.4156 0 4.374-1.9646 4.374-4.3881 0-2.4235-1.9584-4.3881-4.374-4.3881-14.1033 0-25.4298-4.1551-42.4203-14.0557-1.3379-.7796-2.7193-1.596-4.5084-2.6615-.3954-.2354-3.6207-2.1604-4.5783-2.7296C156.0795 5.9522 140.4783.0366 117.4372.0366c-3.722 0-7.3425.1935-10.8775.5746-2.4019.2589-4.1397 2.4221-3.8817 4.8317.2581 2.4097 2.4144 4.1531 4.8162 3.8942z"/>
      </g>
    </g>
    <g mask="url(#b)">
      <g transform="rotate(146 1062.634 2477.6437)">
        <path d="M4.9647 119.1422c16.2318 0 28.5944-4.7178 46.7006-15.7267 1.199-.729 2.4234-1.4823 4.0436-2.4853-.092.057 3.127-1.938 4.0353-2.4989 22.6813-14.0029 36.6017-19.4089 57.693-19.4089 12.8314 0 24.2511 2.4605 35.7084 7.2272 2.2313.9283 4.7905-.1339 5.7158-2.3724.9254-2.2387-.1334-4.806-2.3648-5.7344-12.4817-5.1929-25.0303-7.8966-39.0594-7.8966-23.0647 0-38.34 5.9322-62.2777 20.7109a4916.4908 4916.4908 0 0 0-4.0443 2.5043c-1.602.9918-2.8084 1.7338-3.984 2.4486-16.8608 10.2518-27.8775 14.456-42.1665 14.456-2.4156 0-4.374 1.9646-4.374 4.388 0 2.4236 1.9584 4.3882 4.374 4.3882zm168.1188-22.656c1.122.657 2.2416 1.318 3.3589 1.983.9498.5647 4.1709 2.487 4.5722 2.726 1.811 1.0788 3.2144 1.9081 4.5805 2.704 18.2063 10.6091 30.8378 15.243 46.8139 15.243 2.4156 0 4.374-1.9646 4.374-4.3881 0-2.4235-1.9584-4.3882-4.374-4.3882-14.1033 0-25.4298-4.155-42.4203-14.0556-1.3379-.7796-2.7193-1.596-4.5084-2.6615-.3954-.2354-3.6207-2.1604-4.5783-2.7296a559.6031 559.6031 0 0 0-3.4116-2.014c-2.0867-1.221-4.7649-.5137-5.9818 1.5798-1.217 2.0935-.5118 4.7804 1.575 6.0012zM4.9647 154.247c8.6854 0 16.778-1.561 24.8688-4.5849 2.2637-.846 3.4152-3.3728 2.5719-5.644-.8433-2.2709-3.362-3.426-5.6257-2.58-7.1438 2.67-14.2088 4.0327-21.815 4.0327-2.4156 0-4.374 1.9646-4.374 4.388 0 2.4236 1.9584 4.3882 4.374 4.3882zm47.6385-16.2988c1.6228-.9926 7.5292-4.6517 7.141-4.4121 22.6813-14.0029 36.6017-19.4089 57.693-19.4089 21.1147 0 35.4156 5.4226 59.0052 19.4468.9498.5647 4.1709 2.487 4.5722 2.726 1.811 1.0788 3.2144 1.908 4.5805 2.704 18.2063 10.6091 30.8378 15.243 46.8139 15.243 2.4156 0 4.374-1.9646 4.374-4.3881 0-2.4235-1.9584-4.3882-4.374-4.3882-14.1033 0-25.4298-4.155-42.4203-14.0556-1.3379-.7796-2.7193-1.596-4.5084-2.6615-.3954-.2354-3.6207-2.1604-4.5783-2.7296-24.8225-14.7574-40.4237-20.673-63.4648-20.673-23.0647 0-38.34 5.9322-62.2777 20.7109.3686-.2276-5.5125 3.4156-7.1104 4.3931-2.0625 1.2617-2.715 3.9618-1.4574 6.031 1.2575 2.0691 3.949 2.7238 6.0115 1.4622z"/>
      </g>
    </g>
  </g>
</svg>
