<svg id="icon" xmlns="http://www.w3.org/2000/svg" viewBox="0 0 512 512"><title>tokyo tower</title><path d="M233.933,181.768V262.9a5.921,5.921,0,0,0,11.841,0V181.768a5.921,5.921,0,0,0-11.841,0Z" style="fill:#333"/><path d="M194.141,268.641a5.914,5.914,0,0,0,7.188-4.294c.508-2.016,1-4.064,1.507-6.1l14.058,9.549a5.921,5.921,0,1,0,6.654-9.8L205.8,245.943q3.53-15.035,6.8-30.7l3.794,3.22a5.921,5.921,0,0,0,7.662-9.029L215.3,202q2.621-13.2,5.051-26.714A5.921,5.921,0,1,0,208.69,173.2c-5.526,30.878-11.866,60.571-18.843,88.255A5.921,5.921,0,0,0,194.141,268.641Z" style="fill:#333"/><path d="M324.157,300.587a5.921,5.921,0,0,0-5.921,5.92v.734a5.921,5.921,0,1,0,11.842,0v-.734A5.922,5.922,0,0,0,324.157,300.587Z" style="fill:#333"/><path d="M324.157,279.256H155.551a5.921,5.921,0,0,0-5.92,5.92V338.9a5.921,5.921,0,0,0,5.92,5.921H324.157a5.922,5.922,0,0,0,5.921-5.921V327.484a5.921,5.921,0,0,0-11.842,0v5.491H161.472V291.1H324.157a5.921,5.921,0,1,0,0-11.841Z" style="fill:#333"/><path d="M196.988,127.253V152.28a5.921,5.921,0,0,0,5.921,5.921H276.8a5.921,5.921,0,0,0,5.921-5.921V127.253a5.921,5.921,0,0,0-11.841,0V146.36h-62.05V133.174h45.753a5.921,5.921,0,0,0,0-11.841H202.909A5.921,5.921,0,0,0,196.988,127.253Z" style="fill:#333"/><path d="M256.16,258a5.921,5.921,0,0,0,6.654,9.8l14.058-9.549c.5,2.036,1,4.085,1.506,6.1a5.921,5.921,0,0,0,11.483-2.894c-6.976-27.681-13.316-57.374-18.844-88.255a5.921,5.921,0,1,0-11.656,2.087q2.421,13.524,5.052,26.714l-8.757,7.431a5.921,5.921,0,0,0,7.662,9.029l3.794-3.22q3.27,15.651,6.8,30.7Z" style="fill:#333"/><path d="M239.854,22.29a5.921,5.921,0,0,0-5.921,5.921V49.1H230.89a5.922,5.922,0,0,0-5.9,5.44c-.016.2-1.655,20.066-5.766,51.021a5.921,5.921,0,0,0,5.09,6.648,5.822,5.822,0,0,0,.787.052,5.921,5.921,0,0,0,5.862-5.142c2.894-21.791,4.577-38.175,5.337-46.177h7.111c.761,8,2.444,24.386,5.337,46.177a5.921,5.921,0,0,0,5.862,5.142,5.822,5.822,0,0,0,.787-.052,5.921,5.921,0,0,0,5.09-6.648c-4.11-30.955-5.75-50.823-5.765-51.021a5.922,5.922,0,0,0-5.9-5.44h-3.045V28.211A5.921,5.921,0,0,0,239.854,22.29Z" style="fill:#333"/><path d="M62.754,483.789a5.921,5.921,0,0,0,5.92,5.921H205.85a5.921,5.921,0,0,0,0-11.841H185.462l1.581-16.862a50.416,50.416,0,0,1,19.2-35.034,5.307,5.307,0,0,0,1.536-1.174,55.08,55.08,0,0,1,64.152,0,6.006,6.006,0,0,0,.924.809,5.858,5.858,0,0,0,.612.363,50.417,50.417,0,0,1,19.2,35.035l1.581,16.862H275.966a5.921,5.921,0,1,0,0,11.841H410.8a5.921,5.921,0,1,0,0-11.841H389.181c-25.389-26.208-48.371-65.558-68.321-117.083a5.921,5.921,0,0,0-11.042,4.276Q320,391.367,331.257,413.577l-21.741-5.752a5.921,5.921,0,1,0-3.028,11.448l32.309,8.548q16.212,29.193,34.312,50.048H312.232l23.745-33.345a5.92,5.92,0,0,0-9.645-6.869l-21.176,29.737-.7-7.489a62.081,62.081,0,0,0-20.142-40.268l7.694-10.91.011-.016,15.244-21.618a5.921,5.921,0,0,0-9.678-6.823l-11.018,15.625-22.736-24.516a5.921,5.921,0,0,0-8.683,8.052l24.444,26.356-4.734,6.714a65.961,65.961,0,0,0-29.081-9.583V362.924a5.921,5.921,0,1,0-11.841,0v39.985a65.971,65.971,0,0,0-29.086,9.581l-4.728-6.7,24.443-26.356a5.921,5.921,0,1,0-8.682-8.052l-22.736,24.516-11.018-15.625a5.921,5.921,0,0,0-9.678,6.823L187.686,408.7l.022.031,7.688,10.9a62.093,62.093,0,0,0-20.142,40.27l-.7,7.488-21.175-29.736a5.921,5.921,0,0,0-9.646,6.869l23.745,33.345H106.6q18.069-20.807,34.312-50.048l32.309-8.548a5.921,5.921,0,1,0-3.028-11.448l-21.74,5.752q11.237-22.214,21.438-48.515a5.921,5.921,0,0,0-11.042-4.276C138.9,412.31,115.916,451.66,90.527,477.869H68.674A5.921,5.921,0,0,0,62.754,483.789Z" style="fill:#333"/><path d="M239.854,477.869a5.921,5.921,0,1,0,0,11.841h2.8a5.921,5.921,0,0,0,0-11.841Z" style="fill:#333"/><path d="M440.526,477.869a5.921,5.921,0,1,0,0,11.841h2.8a5.921,5.921,0,0,0,0-11.841Z" style="fill:#333"/><path d="M191.067,306.205v14.208a5.921,5.921,0,0,0,11.842,0V306.205a5.921,5.921,0,0,0-11.842,0Z" style="fill:#333"/><path d="M233.933,306.205v14.208a5.921,5.921,0,0,0,11.841,0V306.205a5.921,5.921,0,1,0-11.841,0Z" style="fill:#333"/><path d="M276.8,306.205v14.208a5.921,5.921,0,0,0,11.842,0V306.205a5.921,5.921,0,0,0-11.842,0Z" style="fill:#333"/></svg>