<svg id="icon" xmlns="http://www.w3.org/2000/svg" viewBox="0 0 512 512"><title>torii shrine</title><path d="M431.342,178.581H392.46V152.05a18.22,18.22,0,0,0,16.172-18.08V119.226H417.4a21.905,21.905,0,0,0,18.89-10.887,5.921,5.921,0,0,0-10.243-5.941,10.029,10.029,0,0,1-8.647,4.987H308.829a5.921,5.921,0,1,0,0,11.841h13.09V133.97a18.221,18.221,0,0,0,18.2,18.2h40.5V415.093H349.933V280.461a5.921,5.921,0,1,0-11.842,0V415.325a18.183,18.183,0,0,0-15.408,17.937v45.712H309.965a5.921,5.921,0,0,0,0,11.841H423.737a5.921,5.921,0,1,0,0-11.841H407.869V433.262a18.183,18.183,0,0,0-15.409-17.937V222.283h5.808a31.2,31.2,0,0,0,26.84-15.394l11.345-19.4a5.92,5.92,0,0,0-5.111-8.91ZM333.761,133.97V119.226h63.03V133.97a6.365,6.365,0,0,1-6.359,6.359H340.119A6.365,6.365,0,0,1,333.761,133.97Zm62.267,299.292v45.712h-61.5V433.262a6.336,6.336,0,0,1,6.328-6.328H389.7A6.336,6.336,0,0,1,396.028,433.262ZM414.885,200.91a19.315,19.315,0,0,1-16.617,9.532H392.46v-20.02h28.56Z" style="fill:#333"/><path d="M344.012,261.347a5.921,5.921,0,0,0,5.921-5.92V170.719a5.921,5.921,0,0,0-11.842,0v7.862H311.383a5.921,5.921,0,0,0,0,11.841h26.708v65.005A5.922,5.922,0,0,0,344.012,261.347Z" style="fill:#333"/><path d="M184.371,216.363a5.921,5.921,0,0,0,5.92,5.92H321.678a5.921,5.921,0,1,0,0-11.841H190.291A5.921,5.921,0,0,0,184.371,216.363Z" style="fill:#333"/><path d="M159.458,40.407a5.921,5.921,0,0,0-.94,11.8l3.53.276q.229.018.456.018a5.921,5.921,0,0,0,.443-11.824Z" style="fill:#333"/><path d="M486.742,22.418a5.918,5.918,0,0,0-5.12-1.039c-.869.229-88.555,22.83-225.48,22.83-15.86,0-31.868-.3-47.574-.908a5.921,5.921,0,0,0-.454,11.833c15.858.609,32.016.916,48.028.916,115.781,0,196.965-16.043,221.064-21.458V57.4a18.662,18.662,0,0,1-5.435,13.411,18.886,18.886,0,0,1-13.523,5.629H54.035a19.129,19.129,0,0,1-19.1-19.128l-.107-22.7c12.207,2.765,39,8.245,78.116,13.013a5.921,5.921,0,0,0,1.433-11.755c-52.914-6.45-83.7-14.417-84.005-14.5a5.923,5.923,0,0,0-7.42,5.755l.142,30.207A30.978,30.978,0,0,0,54.035,88.283H458.248a30.728,30.728,0,0,0,30.8-30.942V27.106A5.918,5.918,0,0,0,486.742,22.418Z" style="fill:#333"/><path d="M227.283,478.974H189.6V433.262a18.183,18.183,0,0,0-15.408-17.937v-224.9h25.436a5.921,5.921,0,1,0,0-11.841H174.192V152.05a18.221,18.221,0,0,0,16.172-18.08V119.226h14.268a5.921,5.921,0,1,0,0-11.841H94.886a10.022,10.022,0,0,1-8.647-4.991,5.922,5.922,0,1,0-10.249,5.935,21.905,21.905,0,0,0,18.9,10.9h8.765V133.97a18.22,18.22,0,0,0,16.172,18.08v26.531H80.941a5.92,5.92,0,0,0-5.111,8.91l11.345,19.4a31.205,31.205,0,0,0,26.84,15.394h5.808V415.325a18.183,18.183,0,0,0-15.409,17.937v31.2a5.921,5.921,0,1,0,11.841,0v-31.2a6.336,6.336,0,0,1,6.33-6.328h48.846a6.336,6.336,0,0,1,6.328,6.328v45.712H78.982a5.921,5.921,0,0,0,0,11.841h148.3a5.921,5.921,0,0,0,0-11.841ZM131.664,284.952V152.17H162.35V415.093H131.664ZM115.492,133.97V119.226h63.03V133.97a6.365,6.365,0,0,1-6.358,6.359H121.851A6.365,6.365,0,0,1,115.492,133.97Zm-1.477,76.472A19.315,19.315,0,0,1,97.4,200.91l-6.135-10.488h28.56v20.02Z" style="fill:#333"/><path d="M265.234,478.974H259.1a5.921,5.921,0,1,0,0,11.841h6.132a5.921,5.921,0,0,0,0-11.841Z" style="fill:#333"/><path d="M462.02,478.974h-5.6a5.921,5.921,0,1,0,0,11.841h5.6a5.921,5.921,0,0,0,0-11.841Z" style="fill:#333"/><path d="M227.283,148.062a5.921,5.921,0,0,0-5.921,5.921v38.09a5.921,5.921,0,0,0,5.921,5.92H285a5.921,5.921,0,0,0,5.921-5.92V104.448A5.921,5.921,0,0,0,285,98.527H227.283a5.921,5.921,0,0,0-5.921,5.921v25.329a5.921,5.921,0,1,0,11.841,0V110.369h45.875v75.783H233.2V153.983A5.921,5.921,0,0,0,227.283,148.062Z" style="fill:#333"/></svg>