<svg id="icon" xmlns="http://www.w3.org/2000/svg" viewBox="0 0 512 512"><title>Toucan</title><path d="M415.76,166.451a5.891,5.891,0,0,0,3.136-6.592c-.382-1.677-9.8-41.478-47.784-78.043C348.865,60.4,321.4,44.591,289.468,34.824,256.052,24.6,217.642,21.055,175.052,24.174c-.18.007-.358.015-.538.039-7.7.574-15.523,1.339-23.494,2.35a16.481,16.481,0,0,0-13.014,9.563,16.756,16.756,0,0,0,1.361,16.36c5.651,8.453,11.589,25.194,7.846,56.941-.8,3.782-5.684,31.633,18.8,50.043a21.241,21.241,0,0,0-9.458,11.511,23.871,23.871,0,0,0,5.374,23.98c.566.595,1.139,1.144,1.712,1.7a108.962,108.962,0,0,0-19.87,5.229,93.955,93.955,0,0,0-20.325,10.741,5.891,5.891,0,1,0,6.617,9.749,82.486,82.486,0,0,1,17.777-9.432c18.87-6.943,56.491-13.86,96.445,17.818a5.892,5.892,0,0,0,7.322-9.233C227.462,202.386,204,195.955,184.2,195.311c-7.192-1.608-12.1-6.759-13.732-8.471a11.978,11.978,0,0,1-2.775-12.011c2.161-6.255,9.921-7.518,12.577-7.769a57,57,0,0,0,16.879,3.136c2.189.074,4.669.125,7.4.124a222.088,222.088,0,0,0,38.485-3.331c.119-.018.235-.037.351-.061a171.448,171.448,0,0,0,29.333-7.9,222.038,222.038,0,0,1,28.767-8.846c21.6-4.884,53.358-9.228,81.958-2.191a43.168,43.168,0,0,1,18.627,10l1.445,1.313c1.771,1.814,3.488,3.676,5.105,5.622a5.891,5.891,0,0,0,7.14,1.518ZM148.728,41.012a4.733,4.733,0,0,1,3.775-2.759c6.724-.853,13.337-1.522,19.862-2.05,3.322,5.593,10.478,21.18,8.241,48.934a5.89,5.89,0,0,0,5.4,6.345c.161.014.321.02.479.02a5.891,5.891,0,0,0,5.866-5.419c2-24.81-2.955-41.425-7.216-50.728,75.024-3.688,135.9,14.91,177.34,54.5a172.988,172.988,0,0,1,36.018,49.361q-20.708-15.63-50.936-25.2c-3.817-2.134-19.272-12.137-14.746-32.052a5.892,5.892,0,1,0-11.49-2.612c-2.646,11.642-.309,21.258,3.963,28.714q-29.832-6.625-67-8.366c-8.519-.395-16.858-.563-24.9-.563a626.908,626.908,0,0,0-73.749,4.425c2-24.853-1.512-44.214-10.477-57.623h0A4.994,4.994,0,0,1,148.728,41.012ZM197.55,158.42a42.873,42.873,0,0,1-24.048-8.048c-15.316-11.233-15.933-27.389-15.289-34.751,4.6-.595,12.709-1.549,23.34-2.439,1.6,9.774,8.05,31.573,34.031,45.073C208.464,158.615,202.275,158.581,197.55,158.42Zm101.336-19.726a233.237,233.237,0,0,0-30.28,9.3,158.859,158.859,0,0,1-26.3,7.167c-39.2-8.321-47.361-32.911-49.05-42.844,44.614-2.9,118.042-2.932,171.229,20.8C340.357,131.14,316.422,134.727,298.886,138.694Z" style="fill:#333"/><path d="M122.821,77.716a6.127,6.127,0,0,0,.118,1.148,6.307,6.307,0,0,0,.339,1.1,6.683,6.683,0,0,0,.53,1.017,6.29,6.29,0,0,0,.736.883,5.938,5.938,0,0,0,4.169,1.738,6.055,6.055,0,0,0,1.149-.118,5.891,5.891,0,0,0,2.121-.884,5.286,5.286,0,0,0,.9-.736,6.228,6.228,0,0,0,.737-.883,6.683,6.683,0,0,0,.53-1.017,6.3,6.3,0,0,0,.338-1.1,6.044,6.044,0,0,0,.118-1.148,5.934,5.934,0,0,0-1.723-4.169,6.179,6.179,0,0,0-.9-.736,6.715,6.715,0,0,0-1.016-.545,5.6,5.6,0,0,0-1.105-.324,5.879,5.879,0,0,0-7.041,5.774Z" style="fill:#333"/><path d="M103.681,221.959l-.545.136a5.892,5.892,0,1,0,2.792,11.448l.7-.174a5.892,5.892,0,0,0-2.942-11.41Z" style="fill:#333"/><path d="M253.3,303.7c-.536.006-1.072.011-1.611.013A5.892,5.892,0,0,0,251.7,315.5c.526-.028,1.165-.007,1.747-.014a5.892,5.892,0,0,0-.075-11.783Z" style="fill:#333"/><path d="M412.105,250.333a16.685,16.685,0,0,0-29.475-9.622c-15.373,18.376-48.963,50.641-101.217,60.263a5.892,5.892,0,1,0,2.133,11.589c55.89-10.291,91.731-44.7,108.122-64.292a4.844,4.844,0,0,1,5.342-1.534,4.762,4.762,0,0,1,3.335,4.324c.052.85.064,1.746.034,2.666a33.146,33.146,0,0,1-6.557,18.332c-27.395,37.782-68.361,61.812-121.763,71.424-38.852,6.992-70.521,3.366-72.911,3.075-22.3-4.256-38.431-14.285-47.941-29.81-18.381-30.011-6.659-71.365-6.479-71.985a5.892,5.892,0,0,0-11.3-3.332c-.559,1.895-13.445,46.808,7.695,81.407,11.34,18.558,30.185,30.445,56.014,35.332.106.02.213.037.32.051a213.759,213.759,0,0,0,25.9,1.356,289.285,289.285,0,0,0,50.424-4.432c55.876-9.978,100.685-36.317,129.58-76.168a44.875,44.875,0,0,0,8.8-24.868C412.2,252.821,412.181,251.55,412.105,250.333Z" style="fill:#333"/><path d="M333.058,256.053l0,0c.05-.039.1-.075.15-.114a28.9,28.9,0,0,1,16.071-6.33,30.468,30.468,0,0,1,9.357.863,5.892,5.892,0,1,0,2.863-11.43,42.13,42.13,0,0,0-12.984-1.191,40.078,40.078,0,0,0-17.984,5.67c-18.063-17.629-49.326-9.486-62.6-4.869a79.311,79.311,0,0,1-15.515,3.824c-16.157,2.192-23.944-1.687-24.247-1.844a5.892,5.892,0,0,0-5.826,10.242c1.084.628,11.183,6.054,31.658,3.278a92.174,92.174,0,0,0,17.8-4.371c8.311-2.894,34.442-10.6,48.853.762-34.344,23.692-77.779,22.445-78.249,22.43a5.892,5.892,0,0,0-.443,11.775c.236.009,1.063.035,2.4.035,10.757,0,54.483-1.753,88.683-28.725Z" style="fill:#333"/><path d="M395.67,314.555a5.892,5.892,0,0,0,.174,8.33q1.083,1.039,2.154,2.085a5.892,5.892,0,0,0,8.236-8.428q-1.11-1.084-2.234-2.162A5.893,5.893,0,0,0,395.67,314.555Z" style="fill:#333"/><path d="M425.642,337.133a5.891,5.891,0,1,0-8.89,7.733,397.084,397.084,0,0,1,67.271,110.313.858.858,0,0,1-.065.777.705.705,0,0,1-.551.371l-.245.028a16.682,16.682,0,0,1-14.627-6.371c-34.432-42.408-85.874-99.683-86.39-100.256a5.891,5.891,0,0,0-8.762,7.876c.42.468,34.787,38.734,66.026,75.733a52.524,52.524,0,0,1-14.266-.377,40.414,40.414,0,0,1-18.366-7.945c-31.089-23.921-64.28-64.266-64.612-64.671a5.893,5.893,0,0,0-8.071-.994,296.14,296.14,0,0,1-39.31,23.7,98.829,98.829,0,0,0-4.822-11.029,5.891,5.891,0,0,0-10.439,5.465c3.6,6.907,11.846,27.1,6.744,37.454-1.074,2.179-3.264,5.209-9.89,6.374l-14.032,2.541a5.891,5.891,0,0,0-3.08,1.6l-29.482,28.973a5.91,5.91,0,0,0,1.792,9.61,30.1,30.1,0,0,1,16.043,20.26,5.892,5.892,0,0,0,5.754,4.623h14.6a5.892,5.892,0,1,0,0-11.783H257.823A41.621,41.621,0,0,0,243.4,457.557l22.826-22.433,12.217-2.213c10.956-1.926,16.053-8.014,18.4-12.783,3.739-7.6,3.243-17.075,1.353-25.621a311.656,311.656,0,0,0,38.384-22.478c9.517,11.2,36.534,41.954,63.01,62.325a52.24,52.24,0,0,0,23.743,10.25,68.685,68.685,0,0,0,10.526.838,55.436,55.436,0,0,0,14.182-1.81c3.916,4.7,7.728,9.326,11.344,13.78a28.6,28.6,0,0,0,22.144,10.812,27.12,27.12,0,0,0,2.884-.153l.4-.045a12.454,12.454,0,0,0,9.265-6.034,12.583,12.583,0,0,0,.908-11.133A409.358,409.358,0,0,0,425.642,337.133Z" style="fill:#333"/><path d="M298.936,480.775a6.028,6.028,0,0,0-.545-1.016,6.313,6.313,0,0,0-.736-.9,5.955,5.955,0,0,0-5.317-1.62,7.3,7.3,0,0,0-1.105.339,6.661,6.661,0,0,0-1.016.545,6.145,6.145,0,0,0-.9.736,5.358,5.358,0,0,0-.722.9,5.275,5.275,0,0,0-.545,1.016,5.815,5.815,0,0,0-.338,1.09,6.2,6.2,0,0,0-.118,1.164,5.925,5.925,0,0,0,1.723,4.153,5.316,5.316,0,0,0,.9.737,5.688,5.688,0,0,0,1.016.545,5.949,5.949,0,0,0,2.253.456,5.908,5.908,0,0,0,5.892-5.891,5.222,5.222,0,0,0-.118-1.164A5.767,5.767,0,0,0,298.936,480.775Z" style="fill:#333"/><path d="M225.3,477.131H159.956c2.213-3.808,7.048-8.136,17.61-8.815a40.578,40.578,0,0,0,9.577-1.685c12.444-3.892,42.4-16.3,53.984-47.751a79.024,79.024,0,0,0,13.265-1.218,5.891,5.891,0,0,0-2.04-11.6c-17.326,3.044-30.746-.922-40.719-6.938a5.825,5.825,0,0,0-1.018-.612,64.479,64.479,0,0,1-21.987-23.79,5.892,5.892,0,0,0-10.6,5.14,78.331,78.331,0,0,0,16.733,21.088c-13.1,4.489-33.033,15.567-44.547,42.667a5.891,5.891,0,1,0,10.845,4.607c13.223-31.121,39.2-37.231,45.957-38.312a65.961,65.961,0,0,0,21.83,7.962c-10.574,24.308-34.873,34.28-45.217,37.515a28.936,28.936,0,0,1-6.816,1.173c-23.767,1.527-30.345,17.908-30.5,26.355a5.892,5.892,0,0,0,5.891,6h73.1a5.892,5.892,0,1,0,0-11.783Z" style="fill:#333"/><path d="M129.71,477.131H70.934c4-4.874,11.122-7.146,17.247-8.185a77.5,77.5,0,0,0,29.279-11.089c21.759-14.046,29.939-31.964,32.971-44.522a32.349,32.349,0,0,0,.409-13.275q3.948,1.938,8.048,3.754a5.892,5.892,0,0,0,4.769-10.775C80.415,356.2,47.314,277.575,34.992,233.986a183.615,183.615,0,0,1-5.81-71.868c1.227,15.194,5.124,31.175,13.92,45.392a58.345,58.345,0,0,0,39.964,26.856,5.892,5.892,0,1,0,1.946-11.622,46.558,46.558,0,0,1-31.89-21.434c-23.333-37.71-7.147-92.412-5.784-96.817A126.4,126.4,0,0,1,84.563,62.654c2.252-1.614,4.476-3.09,6.655-4.45a54.7,54.7,0,0,0-3.066,15.122,42.939,42.939,0,0,0,11.326,31.853,42.05,42.05,0,0,0,30.672,13.594l.814.005a5.892,5.892,0,1,0,0-11.783l-.685,0a30.386,30.386,0,0,1-22.163-9.826,30.693,30.693,0,0,1-8.2-23.077c1.155-17.822,11.033-25.331,13.07-26.7a78.716,78.716,0,0,1,10.139-3.177,5.892,5.892,0,0,0-2.379-11.541c-.822.168-20.385,4.31-42.565,20.062A139.8,139.8,0,0,0,36.988,99.054a5.829,5.829,0,0,0-.49.876,163.7,163.7,0,0,0-16.057,43.443c-6.7,30.249-5.586,62.691,3.212,93.817,11.307,40,39.422,108.223,105.356,150.549.094.063.171.14.27.2a20.829,20.829,0,0,1,9.7,22.633c-3.676,15.228-13.065,27.806-27.907,37.387a65.8,65.8,0,0,1-24.86,9.371c-15.049,2.553-25.023,9.51-28.679,19.8H42.281a5.892,5.892,0,1,0,0,11.783H129.71a5.892,5.892,0,1,0,0-11.783Z" style="fill:#333"/></svg>