<svg id="icon" xmlns="http://www.w3.org/2000/svg" viewBox="0 0 512 512"><title>Blue Whale</title><path d="M330.031,230.68a5.891,5.891,0,0,0,5.839,5.161,5.956,5.956,0,0,0,.738-.046,5.891,5.891,0,0,0,5.115-6.577c-5.681-45.45,75.018-94.939,75.834-95.433.065-.04.131-.082.195-.124,47.6-31.463,54.452-76.569,54.721-78.474a5.891,5.891,0,0,0-4.155-6.469c-.707-.211-17.659-5.086-45.344.975a5.891,5.891,0,1,0,2.52,11.51c15.835-3.466,27.657-2.956,34.058-2.159-3.341,12.27-14.614,42.479-48.2,64.725C406.489,126.726,323.459,178.105,330.031,230.68Z" style="fill:#333"/><path d="M394.1,71.343a5.869,5.869,0,0,0,2.377-.5q2.2-.974,4.352-1.851a5.892,5.892,0,0,0-4.463-10.906q-2.3.939-4.65,1.979A5.893,5.893,0,0,0,394.1,71.343Z" style="fill:#333"/><path d="M366.7,73.271c-28.478,17.5-56.674,43.27-83.807,76.6-1.177,1.446-118.429,144.632-185.371,146.866-10.576.348-18.965-2.95-25.619-10.1a5.892,5.892,0,1,0-8.625,8.029c8.58,9.215,19.585,13.878,32.738,13.878q.942,0,1.9-.031c72.246-2.411,189.175-145.132,194.116-151.206,26.293-32.3,53.49-57.2,80.836-74a5.892,5.892,0,1,0-6.168-10.04Z" style="fill:#333"/><path d="M63.336,271.671a5.888,5.888,0,0,0,.339-1.105,6.137,6.137,0,0,0,.118-1.149,5.892,5.892,0,1,0-11.783,0,6.032,6.032,0,0,0,.1,1.149,7.366,7.366,0,0,0,.338,1.105A6.762,6.762,0,0,0,53,272.687a6.114,6.114,0,0,0,.736.9,5.886,5.886,0,0,0,8.322,0,5.383,5.383,0,0,0,.736-.9A5.629,5.629,0,0,0,63.336,271.671Z" style="fill:#333"/><path d="M297,221.592a5.888,5.888,0,0,0-8.131,5.449,6.125,6.125,0,0,0,.1,1.15,5.953,5.953,0,0,0,.339,1.1,6.667,6.667,0,0,0,.545,1.016,6.145,6.145,0,0,0,.736.9,5.925,5.925,0,0,0,4.154,1.723,6.157,6.157,0,0,0,1.163-.117,5.88,5.88,0,0,0,1.091-.339,5.252,5.252,0,0,0,1.03-.545,5.982,5.982,0,0,0,.884-.722,5.316,5.316,0,0,0,.737-.9,5.757,5.757,0,0,0,.545-1.016,5.95,5.95,0,0,0,.338-1.1,6.065,6.065,0,0,0,.118-1.15,5.882,5.882,0,0,0-1.738-4.167,5.96,5.96,0,0,0-.884-.737A6.2,6.2,0,0,0,297,221.592Z" style="fill:#333"/><path d="M479.874,66.734a5.892,5.892,0,0,0-3.161,7.709c.139.333,13.734,33.689-3.179,67.407a62.229,62.229,0,0,1-19.383,22.312C435.05,177.906,400.924,204.88,387,231.1c-.3.556-30.071,55.768-71.7,75.059a5.892,5.892,0,1,0,4.954,10.692c45.179-20.936,75.861-77.8,77.148-80.217,6.32-11.9,17.7-24.312,29.48-35.2-7.068,20.2-21.56,53.583-48.082,85.494a5.891,5.891,0,1,0,9.061,7.532c39.4-47.4,53.112-96.684,55.754-107.437,6.889-5.561,13.073-10.16,17.42-13.289,1.637-1.177,3.2-2.43,4.725-3.715a373.545,373.545,0,0,1-24.119,63.666c-20.5,42.087-58.688,99.335-125.149,137.488a149.582,149.582,0,0,0-2.534-15.955,245.165,245.165,0,0,0,38.07-25.3,5.892,5.892,0,1,0-7.412-9.16,233.482,233.482,0,0,1-33.6,22.645q-1.539-5.4-3.5-11.084a23.511,23.511,0,0,0-13.193-14.033,25.173,25.173,0,0,0-20.354.283,109.217,109.217,0,0,0-18.609,10.762,5.892,5.892,0,0,0,6.928,9.532,97.465,97.465,0,0,1,16.6-9.587,13.375,13.375,0,0,1,10.811-.152,11.868,11.868,0,0,1,6.684,7.054c23.476,67.713-3.093,100.669-29.515,116.392a6.689,6.689,0,0,1-7.262-.177,6.26,6.26,0,0,1-2.84-6.221c3.693-26.971-7.236-56.279-14.08-71.348A14.113,14.113,0,0,1,242,364.412a42.838,42.838,0,0,1,2.161-5.171A5.892,5.892,0,0,0,233.608,354a54.554,54.554,0,0,0-2.756,6.6,25.262,25.262,0,0,0-.732,13.462c-5.918,8.354-30.055,39.726-65.677,50.733-24.487,1.344-46.253-2.53-65.127-11.632-42.057-20.285-54.688-60.392-54.8-60.77-11.235-37.747-9.063-74.752,6.455-109.984C62.618,215.956,77.852,200.471,78,200.323a5.891,5.891,0,0,0-1.4-9.37c-28.382-15.064-43.977-40.342-46.35-75.132a150.367,150.367,0,0,1,2.411-37.392A85.16,85.16,0,0,0,53.4,94.41C93.42,116.626,95,164.782,95.014,165.256a5.892,5.892,0,0,0,9.159,4.784c24.262-16.175,71.532.474,72.062.663a47.268,47.268,0,0,0,18.578,2.193c-27.663,46.954-86.8,30.764-89.459,30.008a5.888,5.888,0,0,0-6.682,2.63c-25.471,42.453-.666,75.209.4,76.583a5.892,5.892,0,0,0,9.3-7.234c-.2-.264-19.525-25.786-1.7-59.558a120.087,120.087,0,0,0,38.388,1.694c31-3.874,53.687-21.029,65.617-49.611a5.9,5.9,0,0,0-7.218-7.886c-.124.038-12.474,3.836-23.3.072-1.972-.707-44.582-15.744-74.234-3.713-2.434-16.754-11.689-52.276-46.809-71.773A73.088,73.088,0,0,1,40.565,69.63a31.483,31.483,0,0,1-5.391-7.39,5.892,5.892,0,0,0-10.948.727,159.236,159.236,0,0,0-5.762,53.277c2.362,36.071,18.278,64.061,46.16,81.409A172.4,172.4,0,0,0,40.39,237.194C28.8,263.315,18.14,305.088,33.223,355.769c.552,1.838,14.055,45.265,60.764,67.9q27.164,13.166,61.091,13.162c26.732,0,56.513-6.155,89.122-18.44a86.886,86.886,0,0,1,.886,26.174,18.078,18.078,0,0,0,8.006,17.644,18.474,18.474,0,0,0,19.795.479c18.5-11.007,44.077-34.222,44.266-78.4a301.876,301.876,0,0,0,57.208-40.659c4.66,30.31-.868,47.124-6.712,56.074a5.38,5.38,0,0,1-5.383,2.4,5.032,5.032,0,0,1-4.221-3.663,61.411,61.411,0,0,0-6.956-15.737,5.891,5.891,0,1,0-9.8,6.536,50.511,50.511,0,0,1,5.436,12.459,16.783,16.783,0,0,0,13.794,12.057,17.8,17.8,0,0,0,2.651.2,17.019,17.019,0,0,0,14.349-7.809c10.835-16.6,13.2-40.883,7.1-72.184,32.3-31.877,53.829-66.819,67.62-95.127,22.081-45.325,29.141-82.231,30.287-88.854.532-.944,1.064-1.887,1.546-2.849,19.316-38.5,4.172-75.675,3.518-77.239A5.892,5.892,0,0,0,479.874,66.734ZM201.405,419.279A165.2,165.2,0,0,0,235.1,387.09a172.391,172.391,0,0,1,6.546,19.668A313.088,313.088,0,0,1,201.405,419.279Z" style="fill:#333"/><path d="M370.856,313.029l.86-.857a5.891,5.891,0,1,0-8.342-8.321l-.817.814a5.891,5.891,0,1,0,8.3,8.364Z" style="fill:#333"/></svg>