<?xml version="1.0" encoding="UTF-8" standalone="no"?><svg xmlns="http://www.w3.org/2000/svg" width="100px" height="100px" viewBox="0 0 30 30" xml:space="preserve"><defs id="defs7" /><path d="m 15.378559,27.111864 c -4.69,0 -8.5,-3.78 -8.5,-8.44 0,-1.64 0.47,-3.17 1.2900002,-4.47 v -3.950001 c 0,-3.9399998 3.2299998,-7.1499998 7.1999998,-7.1499998 3.97,0 7.2,3.21 7.2,7.1499998 v 3.950001 c 0.82,1.3 1.3,2.83 1.3,4.48 0,4.65 -3.8,8.43 -8.49,8.43 z m -1.35,-7.99 v 3.33 h 0 c 0,0.02 0,0.03 0,0.05 0,0.74 0.61,1.34 1.35,1.34 0.75,0 1.35,-0.6 1.35,-1.34 0,-0.02 0,-0.03 0,-0.05 h 0 v -3.33 c 0.63,-0.43 1.04,-1.15 1.04,-1.97 0,-1.32 -1.07,-2.38 -2.4,-2.38 -1.32,0 -2.4,1.07 -2.4,2.38 0.01,0.82 0.43,1.54 1.06,1.97 z m 6.29,-8.870001 c 0,-2.7099998 -2.22,-4.9099998 -4.95,-4.9099998 -2.73,0 -4.95,2.2 -4.95,4.9099998 v 1.570001 c 1.39,-0.990001 3.1,-1.580001 4.95,-1.580001 1.85,0 3.55,0.59 4.94,1.580001 l 0.01,-1.570001 z" id="path3" style="fill-rule:evenodd" /></svg>
